<svg width="572" height="265" viewBox="0 0 572 265" fill="none" xmlns="http://www.w3.org/2000/svg">
<path opacity="0.4" d="M162.294 85.3158L3.72767 243.454C-4.22925 251.39 1.39581 264.975 12.6384 264.975H176.089C179.43 264.975 182.635 263.651 184.999 261.292L343.565 103.154C351.522 95.2182 345.897 81.6328 334.655 81.6328H171.204C167.863 81.6328 164.658 82.9574 162.294 85.3158Z" fill="url(#paint0_radial_1267_1668)"/>
<path opacity="0.4" d="M162.294 48.3316L3.72767 207.991C-4.22925 216.003 1.39581 229.719 12.6384 229.719H176.089C179.43 229.719 182.635 228.381 184.999 226L343.565 66.3411C351.522 58.3293 345.897 44.6133 334.655 44.6133H171.204C167.863 44.6133 164.658 45.9506 162.294 48.3316Z" fill="url(#paint1_radial_1267_1668)"/>
<path d="M103.563 203.012L222.603 55.9811C225.177 52.7638 226.464 48.9031 226.464 44.3988V43.7554C226.464 38.9294 224.533 34.1035 221.316 30.8862C217.777 27.3471 212.951 25.4167 208.125 25.4167H80.7197V0H215.525C238.046 0 256.385 18.3386 256.385 40.8598V46.9727C256.385 56.6246 253.167 65.6331 247.376 72.7112L141.849 203.012H103.563Z" fill="url(#paint2_linear_1267_1668)"/>
<path d="M103.563 203.012L222.603 55.9811C225.177 52.7638 226.464 48.9031 226.464 44.3988V43.7554C226.464 38.9294 224.533 34.1035 221.316 30.8862C217.777 27.3471 212.951 25.4167 208.125 25.4167H80.7197V0H215.525C238.046 0 256.385 18.3386 256.385 40.8598V46.9727C256.385 56.6246 253.167 65.6331 247.376 72.7112L141.849 203.012H103.563Z" fill="url(#paint3_linear_1267_1668)"/>
<path d="M323.514 118.683H296.159V71.598H323.514C333.902 71.598 342.273 79.9687 342.273 90.2825V99.9985C342.273 110.312 333.902 118.683 323.514 118.683ZM303.11 77.4276V112.853H322.094C325.606 112.853 328.97 111.433 331.511 108.967C333.977 106.501 335.322 103.063 335.322 99.5501V90.731C335.322 87.2183 333.977 83.7803 331.511 81.3139C328.97 78.8476 325.606 77.4276 322.094 77.4276H303.11ZM349.056 69.2811L344.796 81.9866H350.775L357.651 69.2811H349.056ZM344.497 85.0509H351.448V118.758H344.497V85.0509ZM383.497 95.5142C383.049 92.8984 380.732 90.8804 378.041 90.8804H361.524V85.0509H379.461C384.842 85.0509 389.401 88.9372 390.298 94.1689L394.334 118.758H387.309L386.486 113.526L384.618 115.768C382.301 118.608 379.91 119.505 376.472 119.505H369.147C366.681 119.505 364.364 118.534 362.645 116.815C360.851 115.021 359.88 112.704 359.88 110.238V107.248C359.88 102.091 364.065 97.9806 369.147 97.9806H383.871L383.497 95.5142ZM385.216 105.753L384.842 103.81H370.866C368.624 103.81 366.756 105.679 366.756 107.846V109.565C366.756 110.686 367.204 111.658 367.951 112.48C368.774 113.227 369.745 113.601 370.866 113.601H375.126C377.443 113.601 379.685 112.555 381.105 110.761L385.216 105.753ZM404.796 104.632C400.237 104.632 396.574 100.895 396.574 96.3363V93.2721C396.574 88.713 400.237 85.0509 404.796 85.0509H428.637V90.8804H407.187C405.169 90.8804 403.45 92.5994 403.45 94.6174V94.991C403.45 97.0837 405.169 98.728 407.187 98.728H422.135C426.619 98.728 430.356 102.39 430.356 106.949V110.537C430.356 115.096 426.619 118.758 422.135 118.758H397.77V112.853H419.668C421.761 112.853 423.405 111.209 423.405 109.191V108.294C423.405 106.277 421.761 104.632 419.668 104.632H404.796ZM483.818 113.152L482.323 114.946C479.857 117.861 476.269 119.505 472.458 119.505H466.628C459.229 119.505 453.25 113.526 453.25 106.127V98.429C453.25 94.8416 454.67 91.4784 457.136 88.9372C459.677 86.4709 463.041 85.0509 466.628 85.0509H483.818V71.598H490.769V118.758H483.818V113.152ZM483.818 90.8804H466.852C463.115 90.8804 460.126 93.87 460.126 97.6069V106.949C460.126 110.611 463.115 113.601 466.852 113.601H471.71C474.251 113.601 476.643 112.48 478.287 110.537L483.818 104.109V90.8804ZM515.77 84.3035C519.283 84.3035 522.721 85.7235 525.187 88.1899C527.728 90.731 529.148 94.0942 529.148 97.6816V104.109H501.346V106.949C501.346 110.611 504.335 113.601 508.072 113.601H515.247C517.788 113.601 520.255 112.48 521.899 110.537L524.739 107.173L529.148 111.135L525.86 114.946C523.394 117.861 519.806 119.505 516.069 119.505H507.848C500.449 119.505 494.47 113.526 494.47 106.127V97.6816C494.47 94.0942 495.89 90.731 498.356 88.1899C500.897 85.7235 504.261 84.3035 507.848 84.3035H515.77ZM501.346 98.2048H522.198V96.8595C522.198 93.1226 519.208 90.1331 515.546 90.1331H508.072C504.335 90.1331 501.346 93.1226 501.346 96.8595V98.2048Z" fill="url(#paint4_linear_1267_1668)"/>
<path d="M340.404 156.04V173.753C340.404 177.191 339.059 180.48 336.593 182.946C334.126 185.338 330.838 186.683 327.4 186.683H313.424C303.035 186.683 294.665 178.312 294.665 167.999V158.283C294.665 147.969 303.035 139.598 313.424 139.598H340.404V145.428H314.844C311.331 145.428 307.968 146.848 305.502 149.314C302.961 151.855 301.615 155.218 301.615 158.731V167.625C301.615 171.063 302.961 174.501 305.502 176.967C307.968 179.433 311.331 180.853 314.844 180.853H325.532C329.941 180.853 333.454 177.266 333.454 172.856V161.945H317.535V156.04H340.404ZM367.749 163.514C367.301 160.898 364.984 158.88 362.293 158.88H345.776V153.051H363.713C369.095 153.051 373.654 156.937 374.551 162.169L378.586 186.758H371.561L370.739 181.526L368.87 183.768C366.554 186.608 364.162 187.505 360.724 187.505H353.4C350.933 187.505 348.616 186.534 346.897 184.815C345.104 183.021 344.132 180.704 344.132 178.238V175.248C344.132 170.091 348.317 165.981 353.4 165.981H368.123L367.749 163.514ZM369.468 173.753L369.095 171.81H355.119C352.876 171.81 351.008 173.679 351.008 175.846V177.565C351.008 178.686 351.456 179.658 352.204 180.48C353.026 181.227 353.998 181.601 355.119 181.601H359.379C361.696 181.601 363.938 180.555 365.358 178.761L369.468 173.753ZM411.32 158.133H401.38C398.839 158.133 396.372 159.254 394.728 161.272L389.197 167.7V186.758H382.322V153.051H389.197V158.656L390.767 156.863C393.233 153.948 396.821 152.303 400.558 152.303H411.32V158.133ZM437.198 163.514C436.749 160.898 434.432 158.88 431.742 158.88H415.224V153.051H433.162C438.543 153.051 443.102 156.937 443.999 162.169L448.035 186.758H441.009L440.187 181.526L438.319 183.768C436.002 186.608 433.61 187.505 430.172 187.505H422.848C420.381 187.505 418.065 186.534 416.346 184.815C414.552 183.021 413.58 180.704 413.58 178.238V175.248C413.58 170.091 417.766 165.981 422.848 165.981H437.571L437.198 163.514ZM438.917 173.753L438.543 171.81H424.567C422.325 171.81 420.456 173.679 420.456 175.846V177.565C420.456 178.686 420.905 179.658 421.652 180.48C422.474 181.227 423.446 181.601 424.567 181.601H428.827C431.144 181.601 433.386 180.555 434.806 178.761L438.917 173.753ZM487.644 186.758H480.693V164.86C480.693 161.123 477.704 158.133 474.042 158.133H470.828C468.287 158.133 465.821 159.254 464.176 161.272L458.646 167.7V186.758H451.77V153.051H458.646V158.656L460.215 156.863C462.682 153.948 466.269 152.303 470.006 152.303H474.266C481.665 152.303 487.644 158.283 487.644 165.682V186.758ZM498.599 173.38V158.88H491.349V153.051L503.98 139.598L508.24 143.634L499.421 153.051H516.835V158.88H505.474V174.202C505.474 177.864 508.464 180.853 512.201 180.853H516.835V186.758H511.977C508.389 186.758 505.026 185.338 502.485 182.871C500.019 180.33 498.599 176.892 498.599 173.38ZM523.625 137.281L519.365 149.987H525.344L532.22 137.281H523.625ZM519.066 153.051H526.017V186.758H519.066V153.051ZM558.066 163.514C557.618 160.898 555.301 158.88 552.61 158.88H536.093V153.051H554.03C559.412 153.051 563.971 156.937 564.867 162.169L568.903 186.758H561.878L561.056 181.526L559.187 183.768C556.87 186.608 554.479 187.505 551.041 187.505H543.716C541.25 187.505 538.933 186.534 537.214 184.815C535.421 183.021 534.449 180.704 534.449 178.238V175.248C534.449 170.091 538.634 165.981 543.716 165.981H558.44L558.066 163.514ZM559.785 173.753L559.412 171.81H545.435C543.193 171.81 541.325 173.679 541.325 175.846V177.565C541.325 178.686 541.773 179.658 542.521 180.48C543.343 181.227 544.314 181.601 545.435 181.601H549.696C552.012 181.601 554.255 180.555 555.675 178.761L559.785 173.753Z" fill="url(#paint5_linear_1267_1668)"/>
<path d="M340.404 156.04V173.753C340.404 177.191 339.059 180.48 336.593 182.946C334.126 185.338 330.838 186.683 327.4 186.683H313.424C303.035 186.683 294.665 178.312 294.665 167.999V158.283C294.665 147.969 303.035 139.598 313.424 139.598H340.404V145.428H314.844C311.331 145.428 307.968 146.848 305.502 149.314C302.961 151.855 301.615 155.218 301.615 158.731V167.625C301.615 171.063 302.961 174.501 305.502 176.967C307.968 179.433 311.331 180.853 314.844 180.853H325.532C329.941 180.853 333.454 177.266 333.454 172.856V161.945H317.535V156.04H340.404ZM367.749 163.514C367.301 160.898 364.984 158.88 362.293 158.88H345.776V153.051H363.713C369.095 153.051 373.654 156.937 374.551 162.169L378.586 186.758H371.561L370.739 181.526L368.87 183.768C366.554 186.608 364.162 187.505 360.724 187.505H353.4C350.933 187.505 348.616 186.534 346.897 184.815C345.104 183.021 344.132 180.704 344.132 178.238V175.248C344.132 170.091 348.317 165.981 353.4 165.981H368.123L367.749 163.514ZM369.468 173.753L369.095 171.81H355.119C352.876 171.81 351.008 173.679 351.008 175.846V177.565C351.008 178.686 351.456 179.658 352.204 180.48C353.026 181.227 353.998 181.601 355.119 181.601H359.379C361.696 181.601 363.938 180.555 365.358 178.761L369.468 173.753ZM411.32 158.133H401.38C398.839 158.133 396.372 159.254 394.728 161.272L389.197 167.7V186.758H382.322V153.051H389.197V158.656L390.767 156.863C393.233 153.948 396.821 152.303 400.558 152.303H411.32V158.133ZM437.198 163.514C436.749 160.898 434.432 158.88 431.742 158.88H415.224V153.051H433.162C438.543 153.051 443.102 156.937 443.999 162.169L448.035 186.758H441.009L440.187 181.526L438.319 183.768C436.002 186.608 433.61 187.505 430.172 187.505H422.848C420.381 187.505 418.065 186.534 416.346 184.815C414.552 183.021 413.58 180.704 413.58 178.238V175.248C413.58 170.091 417.766 165.981 422.848 165.981H437.571L437.198 163.514ZM438.917 173.753L438.543 171.81H424.567C422.325 171.81 420.456 173.679 420.456 175.846V177.565C420.456 178.686 420.905 179.658 421.652 180.48C422.474 181.227 423.446 181.601 424.567 181.601H428.827C431.144 181.601 433.386 180.555 434.806 178.761L438.917 173.753ZM487.644 186.758H480.693V164.86C480.693 161.123 477.704 158.133 474.042 158.133H470.828C468.287 158.133 465.821 159.254 464.176 161.272L458.646 167.7V186.758H451.77V153.051H458.646V158.656L460.215 156.863C462.682 153.948 466.269 152.303 470.006 152.303H474.266C481.665 152.303 487.644 158.283 487.644 165.682V186.758ZM498.599 173.38V158.88H491.349V153.051L503.98 139.598L508.24 143.634L499.421 153.051H516.835V158.88H505.474V174.202C505.474 177.864 508.464 180.853 512.201 180.853H516.835V186.758H511.977C508.389 186.758 505.026 185.338 502.485 182.871C500.019 180.33 498.599 176.892 498.599 173.38ZM523.625 137.281L519.365 149.987H525.344L532.22 137.281H523.625ZM519.066 153.051H526.017V186.758H519.066V153.051ZM558.066 163.514C557.618 160.898 555.301 158.88 552.61 158.88H536.093V153.051H554.03C559.412 153.051 563.971 156.937 564.867 162.169L568.903 186.758H561.878L561.056 181.526L559.187 183.768C556.87 186.608 554.479 187.505 551.041 187.505H543.716C541.25 187.505 538.933 186.534 537.214 184.815C535.421 183.021 534.449 180.704 534.449 178.238V175.248C534.449 170.091 538.634 165.981 543.716 165.981H558.44L558.066 163.514ZM559.785 173.753L559.412 171.81H545.435C543.193 171.81 541.325 173.679 541.325 175.846V177.565C541.325 178.686 541.773 179.658 542.521 180.48C543.343 181.227 544.314 181.601 545.435 181.601H549.696C552.012 181.601 554.255 180.555 555.675 178.761L559.785 173.753Z" fill="black" fill-opacity="0.2"/>
<path d="M340.404 156.04V173.753C340.404 177.191 339.059 180.48 336.593 182.946C334.126 185.338 330.838 186.683 327.4 186.683H313.424C303.035 186.683 294.665 178.312 294.665 167.999V158.283C294.665 147.969 303.035 139.598 313.424 139.598H340.404V145.428H314.844C311.331 145.428 307.968 146.848 305.502 149.314C302.961 151.855 301.615 155.218 301.615 158.731V167.625C301.615 171.063 302.961 174.501 305.502 176.967C307.968 179.433 311.331 180.853 314.844 180.853H325.532C329.941 180.853 333.454 177.266 333.454 172.856V161.945H317.535V156.04H340.404ZM367.749 163.514C367.301 160.898 364.984 158.88 362.293 158.88H345.776V153.051H363.713C369.095 153.051 373.654 156.937 374.551 162.169L378.586 186.758H371.561L370.739 181.526L368.87 183.768C366.554 186.608 364.162 187.505 360.724 187.505H353.4C350.933 187.505 348.616 186.534 346.897 184.815C345.104 183.021 344.132 180.704 344.132 178.238V175.248C344.132 170.091 348.317 165.981 353.4 165.981H368.123L367.749 163.514ZM369.468 173.753L369.095 171.81H355.119C352.876 171.81 351.008 173.679 351.008 175.846V177.565C351.008 178.686 351.456 179.658 352.204 180.48C353.026 181.227 353.998 181.601 355.119 181.601H359.379C361.696 181.601 363.938 180.555 365.358 178.761L369.468 173.753ZM411.32 158.133H401.38C398.839 158.133 396.372 159.254 394.728 161.272L389.197 167.7V186.758H382.322V153.051H389.197V158.656L390.767 156.863C393.233 153.948 396.821 152.303 400.558 152.303H411.32V158.133ZM437.198 163.514C436.749 160.898 434.432 158.88 431.742 158.88H415.224V153.051H433.162C438.543 153.051 443.102 156.937 443.999 162.169L448.035 186.758H441.009L440.187 181.526L438.319 183.768C436.002 186.608 433.61 187.505 430.172 187.505H422.848C420.381 187.505 418.065 186.534 416.346 184.815C414.552 183.021 413.58 180.704 413.58 178.238V175.248C413.58 170.091 417.766 165.981 422.848 165.981H437.571L437.198 163.514ZM438.917 173.753L438.543 171.81H424.567C422.325 171.81 420.456 173.679 420.456 175.846V177.565C420.456 178.686 420.905 179.658 421.652 180.48C422.474 181.227 423.446 181.601 424.567 181.601H428.827C431.144 181.601 433.386 180.555 434.806 178.761L438.917 173.753ZM487.644 186.758H480.693V164.86C480.693 161.123 477.704 158.133 474.042 158.133H470.828C468.287 158.133 465.821 159.254 464.176 161.272L458.646 167.7V186.758H451.77V153.051H458.646V158.656L460.215 156.863C462.682 153.948 466.269 152.303 470.006 152.303H474.266C481.665 152.303 487.644 158.283 487.644 165.682V186.758ZM498.599 173.38V158.88H491.349V153.051L503.98 139.598L508.24 143.634L499.421 153.051H516.835V158.88H505.474V174.202C505.474 177.864 508.464 180.853 512.201 180.853H516.835V186.758H511.977C508.389 186.758 505.026 185.338 502.485 182.871C500.019 180.33 498.599 176.892 498.599 173.38ZM523.625 137.281L519.365 149.987H525.344L532.22 137.281H523.625ZM519.066 153.051H526.017V186.758H519.066V153.051ZM558.066 163.514C557.618 160.898 555.301 158.88 552.61 158.88H536.093V153.051H554.03C559.412 153.051 563.971 156.937 564.867 162.169L568.903 186.758H561.878L561.056 181.526L559.187 183.768C556.87 186.608 554.479 187.505 551.041 187.505H543.716C541.25 187.505 538.933 186.534 537.214 184.815C535.421 183.021 534.449 180.704 534.449 178.238V175.248C534.449 170.091 538.634 165.981 543.716 165.981H558.44L558.066 163.514ZM559.785 173.753L559.412 171.81H545.435C543.193 171.81 541.325 173.679 541.325 175.846V177.565C541.325 178.686 541.773 179.658 542.521 180.48C543.343 181.227 544.314 181.601 545.435 181.601H549.696C552.012 181.601 554.255 180.555 555.675 178.761L559.785 173.753Z" fill="url(#paint6_linear_1267_1668)"/>
<defs>
<radialGradient id="paint0_radial_1267_1668" cx="0" cy="0" r="1" gradientTransform="matrix(199.073 -42.3385 22.0358 286.117 189.077 190.359)" gradientUnits="userSpaceOnUse">
<stop stop-color="#484848" stop-opacity="0.16"/>
<stop offset="1" stop-color="#484848"/>
</radialGradient>
<radialGradient id="paint1_radial_1267_1668" cx="0" cy="0" r="1" gradientTransform="matrix(199.073 -42.7456 22.0358 288.868 189.077 154.385)" gradientUnits="userSpaceOnUse">
<stop stop-color="#484848" stop-opacity="0.16"/>
<stop offset="1" stop-color="#484848"/>
</radialGradient>
<linearGradient id="paint2_linear_1267_1668" x1="162.9" y1="206.121" x2="183.903" y2="85.5811" gradientUnits="userSpaceOnUse">
<stop stop-color="#FF490B" stop-opacity="0"/>
<stop offset="1" stop-color="#FF490B"/>
</linearGradient>
<linearGradient id="paint3_linear_1267_1668" x1="118.001" y1="-17.0117" x2="191.501" y2="159.988" gradientUnits="userSpaceOnUse">
<stop stop-color="white"/>
<stop offset="0.572168" stop-color="#FF490B"/>
<stop offset="0.985577" stop-color="#FF7A4D" stop-opacity="0"/>
</linearGradient>
<linearGradient id="paint4_linear_1267_1668" x1="208.534" y1="-64.7807" x2="365.351" y2="384.452" gradientUnits="userSpaceOnUse">
<stop stop-color="#7A96AC"/>
<stop offset="0.18" stop-color="#EAEFF3"/>
<stop offset="0.251664" stop-color="#C2D4E1"/>
<stop offset="0.402417" stop-color="white"/>
<stop offset="0.747" stop-color="#D4DEE5"/>
<stop offset="0.785" stop-color="#ABBDC8"/>
<stop offset="0.955" stop-color="#BCCAD7"/>
</linearGradient>
<linearGradient id="paint5_linear_1267_1668" x1="269.933" y1="224.643" x2="609.723" y2="207.712" gradientUnits="userSpaceOnUse">
<stop offset="0.107973" stop-color="#5020FF"/>
<stop offset="0.574925" stop-color="#B06AF6"/>
<stop offset="0.875" stop-color="#EDCAFF"/>
</linearGradient>
<linearGradient id="paint6_linear_1267_1668" x1="322.23" y1="-34.3316" x2="607.173" y2="45.8063" gradientUnits="userSpaceOnUse">
<stop stop-color="white"/>
<stop offset="0.350962" stop-color="#FF490B"/>
<stop offset="0.985577" stop-color="#FF7A4D"/>
</linearGradient>
</defs>
</svg>
