<svg width="30" height="60" viewBox="0 0 30 60" fill="none" xmlns="http://www.w3.org/2000/svg">
<mask id="path-1-inside-1_1264_1132" fill="white">
<path d="M0 0H30V60H0V0Z"/>
</mask>
<g clip-path="url(#paint0_diamond_1264_1132_clip_path)" data-figma-skip-parse="true" mask="url(#path-1-inside-1_1264_1132)"><g transform="matrix(0.03 0 0 0.03 0 30)"><rect x="0" y="0" width="1033.33" height="1033.33" fill="url(#paint0_diamond_1264_1132)" opacity="1" shape-rendering="crispEdges"/><rect x="0" y="0" width="1033.33" height="1033.33" transform="scale(1 -1)" fill="url(#paint0_diamond_1264_1132)" opacity="1" shape-rendering="crispEdges"/><rect x="0" y="0" width="1033.33" height="1033.33" transform="scale(-1 1)" fill="url(#paint0_diamond_1264_1132)" opacity="1" shape-rendering="crispEdges"/><rect x="0" y="0" width="1033.33" height="1033.33" transform="scale(-1)" fill="url(#paint0_diamond_1264_1132)" opacity="1" shape-rendering="crispEdges"/></g></g><path d="M0 0V-30H-30V0H0ZM0 60H-30V90H0V60ZM0 0V30H30V0V-30H0V0ZM30 60V30H0V60V90H30V60ZM0 60H30V0H0H-30V60H0Z" data-figma-gradient-fill="{&#34;type&#34;:&#34;GRADIENT_DIAMOND&#34;,&#34;stops&#34;:[{&#34;color&#34;:{&#34;r&#34;:0.96919459104537964,&#34;g&#34;:0.27134364843368530,&#34;b&#34;:0.035763349384069443,&#34;a&#34;:1.0},&#34;position&#34;:0.99999988079071045},{&#34;color&#34;:{&#34;r&#34;:0.0,&#34;g&#34;:0.0,&#34;b&#34;:0.0,&#34;a&#34;:0.0},&#34;position&#34;:1.0}],&#34;stopsVar&#34;:[{&#34;color&#34;:{&#34;r&#34;:0.96919459104537964,&#34;g&#34;:0.27134364843368530,&#34;b&#34;:0.035763349384069443,&#34;a&#34;:1.0},&#34;position&#34;:0.99999988079071045},{&#34;color&#34;:{&#34;r&#34;:0.0,&#34;g&#34;:0.0,&#34;b&#34;:0.0,&#34;a&#34;:0.0},&#34;position&#34;:1.0}],&#34;transform&#34;:{&#34;m00&#34;:60.0,&#34;m01&#34;:0.0,&#34;m02&#34;:-30.0,&#34;m10&#34;:0.0,&#34;m11&#34;:60.0,&#34;m12&#34;:0.0},&#34;opacity&#34;:1.0,&#34;blendMode&#34;:&#34;NORMAL&#34;,&#34;visible&#34;:true}" mask="url(#path-1-inside-1_1264_1132)"/>
<defs>
<clipPath id="paint0_diamond_1264_1132_clip_path"><path d="M0 0V-30H-30V0H0ZM0 60H-30V90H0V60ZM0 0V30H30V0V-30H0V0ZM30 60V30H0V60V90H30V60ZM0 60H30V0H0H-30V60H0Z"/></clipPath><linearGradient id="paint0_diamond_1264_1132" x1="0" y1="0" x2="500" y2="500" gradientUnits="userSpaceOnUse">
<stop offset="1" stop-color="#F74509"/>
<stop offset="1" stop-opacity="0"/>
</linearGradient>
</defs>
</svg>
