<svg width="22" height="22" viewBox="0 0 22 22" fill="none" xmlns="http://www.w3.org/2000/svg">
<path d="M2.0625 17.1875C6.95347 17.1835 11.8232 17.8312 16.5431 19.1134C17.2095 19.2949 17.875 18.7999 17.875 18.1087V17.1875M3.4375 4.125V4.8125C3.4375 4.99484 3.36507 5.1697 3.23614 5.29864C3.1072 5.42757 2.93234 5.5 2.75 5.5H2.0625M2.0625 5.5V5.15625C2.0625 4.587 2.5245 4.125 3.09375 4.125H18.5625M2.0625 5.5V13.75M18.5625 4.125V4.8125C18.5625 5.192 18.8705 5.5 19.25 5.5H19.9375M18.5625 4.125H18.9063C19.4755 4.125 19.9375 4.587 19.9375 5.15625V14.0938C19.9375 14.663 19.4755 15.125 18.9063 15.125H18.5625M2.0625 13.75V14.0938C2.0625 14.3673 2.17115 14.6296 2.36455 14.823C2.55794 15.0164 2.82025 15.125 3.09375 15.125H3.4375M2.0625 13.75H2.75C2.93234 13.75 3.1072 13.8224 3.23614 13.9514C3.36507 14.0803 3.4375 14.2552 3.4375 14.4375V15.125M18.5625 15.125V14.4375C18.5625 14.2552 18.6349 14.0803 18.7639 13.9514C18.8928 13.8224 19.0677 13.75 19.25 13.75H19.9375M18.5625 15.125H3.4375M13.75 9.625C13.75 10.3543 13.4603 11.0538 12.9445 11.5695C12.4288 12.0853 11.7293 12.375 11 12.375C10.2707 12.375 9.57118 12.0853 9.05546 11.5695C8.53973 11.0538 8.25 10.3543 8.25 9.625C8.25 8.89565 8.53973 8.19618 9.05546 7.68046C9.57118 7.16473 10.2707 6.875 11 6.875C11.7293 6.875 12.4288 7.16473 12.9445 7.68046C13.4603 8.19618 13.75 8.89565 13.75 9.625ZM16.5 9.625H16.5073V9.63233H16.5V9.625ZM5.5 9.625H5.50733V9.63233H5.5V9.625Z" stroke="black" stroke-width="1.375" stroke-linecap="round" stroke-linejoin="round"/>
<path d="M2.0625 17.1875C6.95347 17.1835 11.8232 17.8312 16.5431 19.1134C17.2095 19.2949 17.875 18.7999 17.875 18.1087V17.1875M3.4375 4.125V4.8125C3.4375 4.99484 3.36507 5.1697 3.23614 5.29864C3.1072 5.42757 2.93234 5.5 2.75 5.5H2.0625M2.0625 5.5V5.15625C2.0625 4.587 2.5245 4.125 3.09375 4.125H18.5625M2.0625 5.5V13.75M18.5625 4.125V4.8125C18.5625 5.192 18.8705 5.5 19.25 5.5H19.9375M18.5625 4.125H18.9063C19.4755 4.125 19.9375 4.587 19.9375 5.15625V14.0938C19.9375 14.663 19.4755 15.125 18.9063 15.125H18.5625M2.0625 13.75V14.0938C2.0625 14.3673 2.17115 14.6296 2.36455 14.823C2.55794 15.0164 2.82025 15.125 3.09375 15.125H3.4375M2.0625 13.75H2.75C2.93234 13.75 3.1072 13.8224 3.23614 13.9514C3.36507 14.0803 3.4375 14.2552 3.4375 14.4375V15.125M18.5625 15.125V14.4375C18.5625 14.2552 18.6349 14.0803 18.7639 13.9514C18.8928 13.8224 19.0677 13.75 19.25 13.75H19.9375M18.5625 15.125H3.4375M13.75 9.625C13.75 10.3543 13.4603 11.0538 12.9445 11.5695C12.4288 12.0853 11.7293 12.375 11 12.375C10.2707 12.375 9.57118 12.0853 9.05546 11.5695C8.53973 11.0538 8.25 10.3543 8.25 9.625C8.25 8.89565 8.53973 8.19618 9.05546 7.68046C9.57118 7.16473 10.2707 6.875 11 6.875C11.7293 6.875 12.4288 7.16473 12.9445 7.68046C13.4603 8.19618 13.75 8.89565 13.75 9.625ZM16.5 9.625H16.5073V9.63233H16.5V9.625ZM5.5 9.625H5.50733V9.63233H5.5V9.625Z" stroke="url(#paint0_linear_1264_1001)" stroke-width="1.375" stroke-linecap="round" stroke-linejoin="round"/>
<defs>
<linearGradient id="paint0_linear_1264_1001" x1="11" y1="28.7512" x2="-5.77396" y2="11.0294" gradientUnits="userSpaceOnUse">
<stop offset="0.225962" stop-color="white"/>
<stop offset="0.764423" stop-color="#FF490B"/>
<stop offset="0.985577" stop-color="#FF7A4D"/>
</linearGradient>
</defs>
</svg>
