<svg preserveAspectRatio="none" width="100%" height="100%" overflow="visible" style="display: block;" viewBox="0 0 1.75 820" fill="none" xmlns="http://www.w3.org/2000/svg">
<path id="Vector" d="M1.75 0C1.16667 0 0.583333 0 0 0C0 13.6667 0 27.3333 0 41C0 164 0 287 0 410C0 410 0 410 0 410C0 533 0 656 0 779C0 792.667 0 806.333 0 820C0.583333 820 1.16667 820 1.75 820C1.75 806.333 1.75 792.667 1.75 779C1.75 656 1.75 533 1.75 410C1.75 287 1.75 164 1.75 41C1.75 27.3333 1.75 13.6667 1.75 0Z" fill="url(#paint0_linear_0_4)"/>
<defs>
<linearGradient id="paint0_linear_0_4" x1="0.874995" y1="762.869" x2="0.875221" y2="-6.72132" gradientUnits="userSpaceOnUse">
<stop stop-color="#FF490B" stop-opacity="0"/>
<stop offset="0.3125" stop-color="#FF490B"/>
<stop offset="0.504808" stop-color="white"/>
<stop offset="0.716346" stop-color="#FF490B"/>
<stop offset="1" stop-color="#FF490B" stop-opacity="0"/>
</linearGradient>
</defs>
</svg>
