<svg width="22" height="22" viewBox="0 0 22 22" fill="none" xmlns="http://www.w3.org/2000/svg">
<path d="M11 2.75C13.5254 2.75 16.0004 2.96267 18.4094 3.3715C18.898 3.454 19.25 3.88117 19.25 4.37617V5.33317C19.25 5.60402 19.1967 5.87222 19.093 6.12246C18.9894 6.37269 18.8374 6.60006 18.6459 6.79159L13.6666 11.7709C13.4751 11.9624 13.3231 12.1898 13.2195 12.44C13.1158 12.6903 13.0625 12.9585 13.0625 13.2293V15.9124C13.0626 16.2956 12.9559 16.6711 12.7545 16.9971C12.5531 17.323 12.2649 17.5864 11.9222 17.7577L8.9375 19.25V13.2293C8.9375 12.9585 8.88416 12.6903 8.78051 12.44C8.67686 12.1898 8.52494 11.9624 8.33342 11.7709L3.35408 6.79159C3.16256 6.60006 3.01064 6.37269 2.90699 6.12246C2.80334 5.87222 2.75 5.60402 2.75 5.33317V4.37617C2.75 3.88117 3.102 3.454 3.59058 3.3715C6.0386 2.95704 8.51714 2.74914 11 2.75Z" stroke="black" stroke-width="1.65" stroke-linecap="round" stroke-linejoin="round"/>
<path d="M11 2.75C13.5254 2.75 16.0004 2.96267 18.4094 3.3715C18.898 3.454 19.25 3.88117 19.25 4.37617V5.33317C19.25 5.60402 19.1967 5.87222 19.093 6.12246C18.9894 6.37269 18.8374 6.60006 18.6459 6.79159L13.6666 11.7709C13.4751 11.9624 13.3231 12.1898 13.2195 12.44C13.1158 12.6903 13.0625 12.9585 13.0625 13.2293V15.9124C13.0626 16.2956 12.9559 16.6711 12.7545 16.9971C12.5531 17.323 12.2649 17.5864 11.9222 17.7577L8.9375 19.25V13.2293C8.9375 12.9585 8.88416 12.6903 8.78051 12.44C8.67686 12.1898 8.52494 11.9624 8.33342 11.7709L3.35408 6.79159C3.16256 6.60006 3.01064 6.37269 2.90699 6.12246C2.80334 5.87222 2.75 5.60402 2.75 5.33317V4.37617C2.75 3.88117 3.102 3.454 3.59058 3.3715C6.0386 2.95704 8.51714 2.74914 11 2.75Z" stroke="url(#paint0_linear_1264_994)" stroke-width="1.65" stroke-linecap="round" stroke-linejoin="round"/>
<defs>
<linearGradient id="paint0_linear_1264_994" x1="11" y1="29.7917" x2="-7.31797" y2="13.5229" gradientUnits="userSpaceOnUse">
<stop offset="0.225962" stop-color="white"/>
<stop offset="0.764423" stop-color="#FF490B"/>
<stop offset="0.985577" stop-color="#FF7A4D"/>
</linearGradient>
</defs>
</svg>
