<svg width="38" height="38" viewBox="0 0 38 38" fill="none" xmlns="http://www.w3.org/2000/svg">
<rect x="1.22581" y="1.22581" width="35.5484" height="35.5484" rx="17.7742" fill="white"/>
<rect x="1.22581" y="1.22581" width="35.5484" height="35.5484" rx="17.7742" stroke="#C4CDD5" stroke-width="2.45161"/>
<path d="M13.498 12.8125H21.4217C22.9515 12.8125 24.2067 14.0677 24.2067 15.5975V17.0097C24.2067 17.7157 23.9321 18.363 23.481 18.8533C24.1086 19.3632 24.5009 20.1477 24.5009 21.0107V22.4228C24.5009 23.9526 23.2653 25.1882 21.7355 25.1882H13.498V23.6584H21.2255C22.0297 23.6584 22.6769 22.9916 22.6769 22.2071V21.2264C22.6769 20.4223 22.0297 19.7751 21.2255 19.7751H15.0671V18.2257H20.9313C21.7355 18.2257 22.3827 17.5784 22.3827 16.7939V15.8133C22.3827 15.0091 21.7355 14.3619 20.9313 14.3619H13.498V12.8125Z" fill="#595E67"/>
</svg>
