<svg preserveAspectRatio="none" width="100%" height="100%" overflow="visible" style="display: block;" viewBox="0 0 17 25" fill="none" xmlns="http://www.w3.org/2000/svg">
<g id="Vector">
<path d="M1.45299 5.50847V0.475284C1.45299 0.212792 1.66848 0 1.93431 0H9.13252C9.14529 0 9.15753 0.00500748 9.16656 0.0139205L16.9859 7.73524C16.9949 7.74415 17 7.75624 17 7.76885V15.0961C17 15.3586 16.7845 15.5714 16.5187 15.5714H11.3476C11.321 15.5714 11.2994 15.5501 11.2994 15.5239V5.85306C11.2994 5.689 11.1647 5.556 10.9986 5.556H1.50112C1.47454 5.556 1.45299 5.53472 1.45299 5.50847Z" fill="var(--fill-0, #999999)"/>
<path d="M17 19.3399V24.5116C17 24.7814 16.7644 25 16.4737 25H8.60275C8.58879 25 8.57541 24.9949 8.56554 24.9857L0.0154149 17.0519C0.00554512 17.0427 0 17.0303 0 17.0173V9.48837C0 9.21865 0.235633 9 0.526301 9H6.1807C6.20977 9 6.23333 9.02187 6.23333 9.04884V18.9859C6.23333 19.1544 6.3806 19.2911 6.56227 19.2911H16.9474C16.9764 19.2911 17 19.3129 17 19.3399Z" fill="var(--fill-0, #999999)"/>
</g>
</svg>
