<svg width="820" height="2" viewBox="0 0 820 2" fill="none" xmlns="http://www.w3.org/2000/svg">
<path d="M820 1.75C820 1.16667 820 0.583333 820 0C806.333 0 792.667 0 779 0C656 0 533 0 410 0C410 0 410 0 410 0C287 0 164 0 41 0C27.3333 0 13.6666 0 0 0C0 0.583333 0 1.16667 0 1.75C13.6666 1.75 27.3333 1.75 41 1.75C164 1.75 287 1.75 410 1.75C533 1.75 656 1.75 779 1.75C792.667 1.75 806.333 1.75 820 1.75Z" fill="url(#paint0_linear_1268_48)"/>
<defs>
<linearGradient id="paint0_linear_1268_48" x1="57.1311" y1="0.874995" x2="826.721" y2="0.875221" gradientUnits="userSpaceOnUse">
<stop stop-color="#FF490B" stop-opacity="0"/>
<stop offset="0.3125" stop-color="#FF490B"/>
<stop offset="0.504808" stop-color="white"/>
<stop offset="0.716346" stop-color="#FF490B"/>
<stop offset="1" stop-color="#FF490B" stop-opacity="0"/>
</linearGradient>
</defs>
</svg>
