<svg width="22" height="22" viewBox="0 0 22 22" fill="none" xmlns="http://www.w3.org/2000/svg">
<path d="M8.25 6.18641V13.7489M13.75 8.24891V15.8114M14.2111 19.0179L18.6798 16.784C19.0291 16.6098 19.25 16.2523 19.25 15.8618V4.41725C19.25 3.65091 18.4433 3.15225 17.7577 3.49508L14.2111 5.26791C13.9205 5.41366 13.5786 5.41366 13.2889 5.26791L8.71108 2.97991C8.56792 2.90835 8.41006 2.87109 8.25 2.87109C8.08994 2.87109 7.93208 2.90835 7.78892 2.97991L3.32017 5.21383C2.97 5.38891 2.75 5.74641 2.75 6.136V17.5806C2.75 18.3469 3.55667 18.8456 4.24233 18.5027L7.78892 16.7299C8.0795 16.5842 8.42142 16.5842 8.71108 16.7299L13.2889 19.0188C13.5795 19.1637 13.9214 19.1637 14.2111 19.0188V19.0179Z" stroke="black" stroke-width="1.375" stroke-linecap="round" stroke-linejoin="round"/>
<path d="M8.25 6.18641V13.7489M13.75 8.24891V15.8114M14.2111 19.0179L18.6798 16.784C19.0291 16.6098 19.25 16.2523 19.25 15.8618V4.41725C19.25 3.65091 18.4433 3.15225 17.7577 3.49508L14.2111 5.26791C13.9205 5.41366 13.5786 5.41366 13.2889 5.26791L8.71108 2.97991C8.56792 2.90835 8.41006 2.87109 8.25 2.87109C8.08994 2.87109 7.93208 2.90835 7.78892 2.97991L3.32017 5.21383C2.97 5.38891 2.75 5.74641 2.75 6.136V17.5806C2.75 18.3469 3.55667 18.8456 4.24233 18.5027L7.78892 16.7299C8.0795 16.5842 8.42142 16.5842 8.71108 16.7299L13.2889 19.0188C13.5795 19.1637 13.9214 19.1637 14.2111 19.0188V19.0179Z" stroke="url(#paint0_linear_1264_1008)" stroke-width="1.375" stroke-linecap="round" stroke-linejoin="round"/>
<defs>
<linearGradient id="paint0_linear_1264_1008" x1="11" y1="29.5135" x2="-7.07724" y2="13.2179" gradientUnits="userSpaceOnUse">
<stop offset="0.225962" stop-color="white"/>
<stop offset="0.764423" stop-color="#FF490B"/>
<stop offset="0.985577" stop-color="#FF7A4D"/>
</linearGradient>
</defs>
</svg>
