<svg width="64" height="64" viewBox="0 0 64 64" fill="none" xmlns="http://www.w3.org/2000/svg">
<path d="M34.0614 38.6864L24.1991 55.2057C23.2129 56.9316 21.4048 57.9178 19.4324 57.9178H14.9122C13.4328 57.9178 12.0357 57.3425 10.9673 56.3563C9.89888 55.2879 9.32358 53.8085 9.32358 52.3292V6.14103H16.8846V50.2746C16.8846 50.6033 17.049 50.9321 17.2956 51.1786C17.5421 51.343 17.7887 51.5074 18.1174 51.5074H18.1996C18.6105 51.5074 18.9393 51.2608 19.1858 50.9321L45.8961 6.14103H53.4571L38.335 31.5363L56.3336 58H47.1289L34.0614 38.6864Z" fill="url(#paint0_linear_1263_47)"/>
<defs>
<linearGradient id="paint0_linear_1263_47" x1="3.06546" y1="8.75758" x2="49.2243" y2="9.00271" gradientUnits="userSpaceOnUse">
<stop offset="0.23578" stop-color="#7654FF"/>
<stop offset="0.681618" stop-color="#C96AF6"/>
<stop offset="0.985577" stop-color="#ECC5FF"/>
</linearGradient>
</defs>
</svg>
