<svg preserveAspectRatio="none" width="100%" height="100%" overflow="visible" style="display: block;" viewBox="0 0 28.6729 28.6729" fill="none" xmlns="http://www.w3.org/2000/svg">
<g id="Frame">
<g id="Vector">
<path d="M7.78765 3.7507L7.85736 6.43788M20.3278 3.42538L20.3975 6.11256M3.797 22.6771L3.44845 9.24124C3.42996 8.52855 3.69534 7.83771 4.18621 7.3207C4.67708 6.80368 5.35323 6.50284 6.06591 6.48435L22.189 6.06608C22.9017 6.04759 23.5925 6.31298 24.1095 6.80385C24.6265 7.29472 24.9274 7.97086 24.9459 8.68355L25.2944 22.1194M25.2944 22.1194L25.062 13.1622C25.0436 12.4495 24.7427 11.7733 24.2257 11.2825C23.7087 10.7916 23.0178 10.5262 22.3052 10.5447L6.1821 10.963C5.46941 10.9815 4.79327 11.2823 4.3024 11.7993C3.81153 12.3163 3.54614 13.0072 3.56463 13.7199L3.797 22.6771C3.81549 23.3898 4.11633 24.0659 4.63335 24.5568C5.15037 25.0477 5.84121 25.3131 6.55389 25.2946L22.6769 24.8763C23.3896 24.8578 24.0658 24.557 24.5566 24.04C25.0475 23.5229 25.3129 22.8321 25.2944 22.1194ZM14.3598 15.2325L14.3694 15.2322L14.3696 15.2418L14.3601 15.242L14.3598 15.2325ZM14.4295 17.9196L14.4391 17.9194L14.4393 17.929L14.4298 17.9292L14.4295 17.9196ZM14.4992 20.6068L14.5088 20.6066L14.509 20.6161L14.4995 20.6164L14.4992 20.6068ZM11.7423 17.9894L11.7519 17.9891L11.7521 17.9987L11.7426 17.9989L11.7423 17.9894ZM11.8121 20.6765L11.8216 20.6763L11.8219 20.6858L11.8123 20.6861L11.8121 20.6765ZM9.05517 18.0591L9.06472 18.0588L9.06497 18.0684L9.05542 18.0686L9.05517 18.0591ZM9.12488 20.7462L9.13443 20.746L9.13468 20.7555L9.12513 20.7558L9.12488 20.7462ZM17.047 15.1628L17.0565 15.1625L17.0568 15.1721L17.0472 15.1723L17.047 15.1628ZM17.1167 17.8499L17.1263 17.8497L17.1265 17.8592L17.1169 17.8595L17.1167 17.8499ZM17.1864 20.5371L17.196 20.5369L17.1962 20.5464L17.1867 20.5467L17.1864 20.5371ZM19.7342 15.093L19.7437 15.0928L19.744 15.1024L19.7344 15.1026L19.7342 15.093ZM19.8039 17.7802L19.8134 17.78L19.8137 17.7895L19.8041 17.7898L19.8039 17.7802Z" stroke="var(--stroke-0, black)" stroke-width="1.5" stroke-linecap="round" stroke-linejoin="round"/>
<path d="M7.78765 3.7507L7.85736 6.43788M20.3278 3.42538L20.3975 6.11256M3.797 22.6771L3.44845 9.24124C3.42996 8.52855 3.69534 7.83771 4.18621 7.3207C4.67708 6.80368 5.35323 6.50284 6.06591 6.48435L22.189 6.06608C22.9017 6.04759 23.5925 6.31298 24.1095 6.80385C24.6265 7.29472 24.9274 7.97086 24.9459 8.68355L25.2944 22.1194M25.2944 22.1194L25.062 13.1622C25.0436 12.4495 24.7427 11.7733 24.2257 11.2825C23.7087 10.7916 23.0178 10.5262 22.3052 10.5447L6.1821 10.963C5.46941 10.9815 4.79327 11.2823 4.3024 11.7993C3.81153 12.3163 3.54614 13.0072 3.56463 13.7199L3.797 22.6771C3.81549 23.3898 4.11633 24.0659 4.63335 24.5568C5.15037 25.0477 5.84121 25.3131 6.55389 25.2946L22.6769 24.8763C23.3896 24.8578 24.0658 24.557 24.5566 24.04C25.0475 23.5229 25.3129 22.8321 25.2944 22.1194ZM14.3598 15.2325L14.3694 15.2322L14.3696 15.2418L14.3601 15.242L14.3598 15.2325ZM14.4295 17.9196L14.4391 17.9194L14.4393 17.929L14.4298 17.9292L14.4295 17.9196ZM14.4992 20.6068L14.5088 20.6066L14.509 20.6161L14.4995 20.6164L14.4992 20.6068ZM11.7423 17.9894L11.7519 17.9891L11.7521 17.9987L11.7426 17.9989L11.7423 17.9894ZM11.8121 20.6765L11.8216 20.6763L11.8219 20.6858L11.8123 20.6861L11.8121 20.6765ZM9.05517 18.0591L9.06472 18.0588L9.06497 18.0684L9.05542 18.0686L9.05517 18.0591ZM9.12488 20.7462L9.13443 20.746L9.13468 20.7555L9.12513 20.7558L9.12488 20.7462ZM17.047 15.1628L17.0565 15.1625L17.0568 15.1721L17.0472 15.1723L17.047 15.1628ZM17.1167 17.8499L17.1263 17.8497L17.1265 17.8592L17.1169 17.8595L17.1167 17.8499ZM17.1864 20.5371L17.196 20.5369L17.1962 20.5464L17.1867 20.5467L17.1864 20.5371ZM19.7342 15.093L19.7437 15.0928L19.744 15.1024L19.7344 15.1026L19.7342 15.093ZM19.8039 17.7802L19.8134 17.78L19.8137 17.7895L19.8041 17.7898L19.8039 17.7802Z" stroke="url(#paint0_linear_0_6)" stroke-width="1.5" stroke-linecap="round" stroke-linejoin="round"/>
</g>
</g>
<defs>
<linearGradient id="paint0_linear_0_6" x1="14.9717" y1="38.8199" x2="-9.44414" y2="18.243" gradientUnits="userSpaceOnUse">
<stop offset="0.225962" stop-color="white"/>
<stop offset="0.764423" stop-color="#FF490B"/>
<stop offset="0.985577" stop-color="#FF7A4D"/>
</linearGradient>
</defs>
</svg>
