<svg width="51" height="51" viewBox="0 0 51 51" fill="none" xmlns="http://www.w3.org/2000/svg">
<rect x="1.06052" y="1.06052" width="48.7839" height="48.7831" rx="24.3916" fill="white"/>
<rect x="1.06052" y="1.06052" width="48.7839" height="48.7831" rx="24.3916" stroke="#E5E5E5" stroke-width="2.12104"/>
<g clip-path="url(#clip0_1027_2876)">
<path d="M12.265 25.3949C12.2643 27.7278 12.8739 30.0057 14.0329 32.0135L12.1541 38.8734L19.1744 37.0327C21.1161 38.0897 23.2917 38.6436 25.5025 38.6438H25.5083C32.8065 38.6438 38.7475 32.7049 38.7506 25.4054C38.752 21.8682 37.3758 18.5421 34.8753 16.0397C32.3753 13.5376 29.0504 12.1588 25.5077 12.1572C18.2086 12.1572 12.2681 18.0957 12.2651 25.3949" fill="url(#paint0_linear_1027_2876)"/>
<path d="M11.7922 25.3893C11.7915 27.8061 12.4229 30.1655 13.6233 32.2451L11.6771 39.351L18.9491 37.4443C20.9527 38.5367 23.2087 39.1127 25.5042 39.1136H25.5101C33.0702 39.1136 39.2246 32.9611 39.2278 25.4003C39.2291 21.736 37.8034 18.2903 35.2136 15.6983C32.6235 13.1066 29.1797 11.6783 25.5101 11.6768C17.9487 11.6768 11.7952 17.8283 11.7922 25.3893ZM16.123 31.887L15.8514 31.456C14.71 29.6411 14.1076 27.5437 14.1084 25.3902C14.1108 19.1057 19.2253 13.9927 25.5144 13.9927C28.5601 13.994 31.4224 15.1813 33.5752 17.3354C35.7279 19.4898 36.9125 22.3535 36.9117 25.3994C36.909 31.6839 31.7943 36.7975 25.5101 36.7975H25.5056C23.4594 36.7964 21.4526 36.2469 19.7025 35.2085L19.286 34.9615L14.9707 36.0929L16.123 31.887Z" fill="#F5F5F5"/>
<path d="M22.0814 19.6559C21.8246 19.0852 21.5544 19.0736 21.3102 19.0636C21.1102 19.055 20.8816 19.0557 20.6533 19.0557C20.4247 19.0557 20.0533 19.1417 19.7394 19.4844C19.4251 19.8275 18.5396 20.6566 18.5396 22.3429C18.5396 24.0292 19.7679 25.659 19.9391 25.8879C20.1105 26.1164 22.3103 29.6877 25.7942 31.0616C28.6896 32.2033 29.2788 31.9762 29.9072 31.919C30.5357 31.8619 31.9352 31.0901 32.2207 30.2897C32.5065 29.4895 32.5065 28.8035 32.4208 28.6601C32.3351 28.5173 32.1065 28.4315 31.7638 28.2602C31.421 28.0889 29.7358 27.2596 29.4216 27.1452C29.1074 27.0309 28.8789 26.9738 28.6503 27.317C28.4217 27.6597 27.7654 28.4315 27.5653 28.6601C27.3654 28.8893 27.1654 28.9178 26.8227 28.7463C26.4797 28.5744 25.3759 28.2129 24.0662 27.0453C23.0473 26.1368 22.3594 25.0148 22.1594 24.6716C21.9595 24.329 22.138 24.1432 22.3099 23.9724C22.4639 23.8188 22.6527 23.5722 22.8243 23.3721C22.9952 23.1719 23.0522 23.0291 23.1665 22.8005C23.2809 22.5717 23.2237 22.3716 23.1381 22.2001C23.0522 22.0287 22.3862 20.3336 22.0814 19.6559Z" fill="white"/>
</g>
<defs>
<linearGradient id="paint0_linear_1027_2876" x1="25.4524" y1="38.8734" x2="25.4524" y2="12.1572" gradientUnits="userSpaceOnUse">
<stop stop-color="#1FAF38"/>
<stop offset="1" stop-color="#60D669"/>
</linearGradient>
<clipPath id="clip0_1027_2876">
<rect width="27.5508" height="27.5508" fill="white" transform="translate(11.6771 11.6768)"/>
</clipPath>
</defs>
</svg>
