<svg width="51" height="51" viewBox="0 0 51 51" fill="none" xmlns="http://www.w3.org/2000/svg">
<rect x="1.06052" y="1.06052" width="48.7839" height="48.7839" rx="24.3919" fill="white"/>
<rect x="1.06052" y="1.06052" width="48.7839" height="48.7839" rx="24.3919" stroke="#E5E5E5" stroke-width="2.12104"/>
<g clip-path="url(#clip0_1027_2864)">
<path d="M16.9463 30.0668L22.453 26.9786L22.5463 26.7103L22.453 26.561H22.1858L21.2641 26.505L18.1165 26.4198L15.3876 26.3066L12.744 26.1643L12.0778 26.0231L11.4525 25.2006L11.5166 24.79L12.0766 24.4155L12.877 24.4855L14.6503 24.6056L17.308 24.79L19.2353 24.9031L22.0925 25.2006H22.5463L22.6105 25.0175L22.4541 24.9031L22.334 24.79L19.583 22.928L16.6056 20.9586L15.047 19.8246L14.2023 19.2518L13.7776 18.7128L13.5933 17.5368L14.3586 16.6945L15.3865 16.7645L15.649 16.8356L16.6908 17.636L18.9168 19.358L21.823 21.4965L22.2488 21.8511L22.418 21.731L22.4401 21.6458L22.2488 21.3261L20.668 18.4725L18.981 15.5675L18.2296 14.3635L18.0313 13.6413C17.9561 13.3639 17.9153 13.0782 17.91 12.7908L18.7826 11.609L19.2645 11.4526L20.4265 11.609L20.9165 12.0336L21.6398 13.6833L22.8088 16.2838L24.623 19.8188L25.155 20.8665L25.4385 21.8371L25.5446 22.1346H25.729V21.9643L25.8783 19.974L26.1548 17.5298L26.4231 14.3856L26.5165 13.499L26.9551 12.4373L27.8266 11.8633L28.508 12.19L29.068 12.9891L28.9898 13.5071L28.6561 15.6666L28.004 19.0535L27.5793 21.3191H27.8266L28.1101 21.0368L29.2593 19.5131L31.1866 17.1051L32.0383 16.1485L33.03 15.0938L33.6681 14.591H34.8733L35.76 15.9081L35.3633 17.2685L34.122 18.84L33.0941 20.1723L31.6195 22.1556L30.6978 23.7423L30.783 23.8706L31.0023 23.8473L34.3343 23.1403L36.1345 22.8136L38.2823 22.4461L39.2541 22.8988L39.3603 23.3596L38.9776 24.3011L36.6805 24.8681L33.9866 25.4071L29.9745 26.3556L29.9255 26.3906L29.9826 26.4618L31.7898 26.6321L32.5621 26.6741H34.4545L37.9778 26.9366L38.8995 27.5456L39.4525 28.29L39.3603 28.8558L37.9428 29.5791L36.0295 29.1253L31.5623 28.0636L30.0316 27.6798H29.8193V27.8081L31.0945 29.0541L33.4348 31.1658L36.362 33.8841L36.5101 34.5585L36.1345 35.0893L35.7378 35.0321L33.1653 33.099L32.1725 32.2275L29.9255 30.3375H29.7761V30.5358L30.2941 31.293L33.03 35.4008L33.1723 36.6608L32.974 37.0726L32.2646 37.3211L31.4853 37.1788L29.8823 34.933L28.2315 32.4048L26.898 30.138L26.7346 30.2313L25.9483 38.6943L25.5796 39.126L24.7291 39.4526L24.021 38.9148L23.6453 38.0433L24.021 36.3213L24.4748 34.0766L24.8423 32.2916L25.176 30.075L25.3743 29.3376L25.3603 29.2886L25.197 29.3096L23.524 31.6045L20.9806 35.0403L18.967 37.1928L18.484 37.3841L17.6475 36.9525L17.7256 36.1801L18.1935 35.493L20.9795 31.951L22.6595 29.7553L23.7445 28.4883L23.7375 28.304H23.6733L16.2731 33.106L14.9548 33.2763L14.3866 32.7443L14.4578 31.874L14.7273 31.5905L16.9533 30.0598L16.9463 30.0668Z" fill="#D97757"/>
</g>
<defs>
<clipPath id="clip0_1027_2864">
<rect width="28" height="28" fill="white" transform="translate(11.4525 11.4526)"/>
</clipPath>
</defs>
</svg>
