<svg width="85" height="106" viewBox="0 0 85 106" fill="none" xmlns="http://www.w3.org/2000/svg">
<rect x="9.54465" y="20.1225" width="65.7522" height="65.7545" rx="32.8761" fill="white"/>
<rect x="9.54465" y="20.1225" width="65.7522" height="65.7545" rx="32.8761" stroke="#E5E5E5" stroke-width="2.12104"/>
<g filter="url(#filter0_d_1027_2867)">
<rect x="8.48413" y="19.1636" width="67.8732" height="67.8732" rx="33.9366" fill="white" fill-opacity="0.01" shape-rendering="crispEdges"/>
</g>
<path fill-rule="evenodd" clip-rule="evenodd" d="M35.0778 51.254C33.8735 50.4312 33.7518 49.1331 34.8065 48.0379C35.7915 47.0528 36.8538 47.0259 37.8746 47.9382C38.4644 48.4651 38.5874 48.734 38.5874 49.4986C38.5874 50.2633 38.4644 50.5322 37.8746 51.0591C37.0206 51.8224 36.101 51.8863 35.0778 51.254ZM45.5851 47.5644C43.1113 48.7594 45.4805 53.2346 47.9937 51.2577C50.1142 49.5898 48.0245 46.3858 45.5851 47.5644ZM35.5082 49.4986C35.0587 49.4986 34.9719 49.3918 34.9719 48.8395C34.9719 48.2877 35.0589 48.1803 35.5065 48.1803C35.847 48.1803 36.0911 48.3389 36.1797 48.6178C36.3682 49.2117 36.1496 49.4986 35.5082 49.4986ZM45.6405 49.4237C45.145 49.2336 44.9554 48.6131 45.3217 48.3811C45.7714 48.0964 46.0881 48.1372 46.4066 48.5209C46.6396 48.8017 46.6279 48.9227 46.3407 49.2101C46.1489 49.4019 45.8338 49.498 45.6405 49.4237ZM37.6085 50.6133C37.6085 51.1764 36.8813 51.1125 36.771 50.5399C36.7202 50.2762 36.8386 50.1578 37.1531 50.1578C37.4675 50.1578 37.6085 50.2989 37.6085 50.6133ZM47.9355 50.6133C47.9355 51.1764 47.2082 51.1125 47.0979 50.5399C47.0471 50.2762 47.1656 50.1578 47.48 50.1578C47.7944 50.1578 47.9355 50.2989 47.9355 50.6133ZM37.8355 54.8412C37.5013 54.4162 37.451 54.1877 37.6211 53.8695C37.9168 53.3172 38.414 53.3545 39.4762 54.0086C40.6363 54.7232 42.8443 54.7744 43.9308 54.1119C44.5589 53.729 45.8092 53.2351 45.6972 54.376C45.6394 54.9666 45.4603 55.1648 44.5733 55.6199C42.5703 56.6477 38.9251 56.2263 37.8355 54.8412Z" fill="url(#paint0_linear_1027_2867)"/>
<path fill-rule="evenodd" clip-rule="evenodd" d="M45.3177 64.6654C44.9036 64.6689 44.4838 64.8002 44.439 65.2119C44.3833 65.7231 44.9275 66.0391 45.4416 66.0514C48.0277 66.1135 55.6019 66.1201 57.8405 66.1208C58.2046 66.1209 58.6036 66.0476 58.7861 65.7326C58.8589 65.6068 58.9021 65.4702 58.9134 65.3342C58.9529 64.8618 58.4029 64.6683 57.9288 64.6646C55.4467 64.6452 47.6649 64.6455 45.3177 64.6654Z" fill="url(#paint1_linear_1027_2867)"/>
<path fill-rule="evenodd" clip-rule="evenodd" d="M45.5949 69.0048C44.9685 69 44.2551 68.6407 44.4535 68.0465C44.4664 68.0079 44.4817 67.97 44.4994 67.9331C44.6624 67.5926 45.08 67.5059 45.4575 67.5027C46.1769 67.4965 47.3169 67.4954 51.3701 67.4974C58.0712 67.5006 58.8519 67.4974 58.8519 68.2366C58.872 68.3928 58.8625 68.5245 58.8181 68.641C58.6727 69.0226 58.1772 69.0723 57.7689 69.0663C55.5236 69.0332 48.2807 69.0253 45.5949 69.0048Z" fill="url(#paint2_linear_1027_2867)"/>
<path fill-rule="evenodd" clip-rule="evenodd" d="M44.6966 70.6081C44.3268 70.9496 44.3821 71.5526 44.7919 71.931C45.0766 72.1937 45.4622 72.0861 48.3109 72.0861C52.0157 72.0861 52.5764 72.1787 52.5764 71.2353C52.5764 70.7133 52.0057 70.5089 51.484 70.5245C50.6719 70.5487 49.4446 70.5446 48.3109 70.5566C46.4742 70.576 44.8164 70.4975 44.6966 70.6081Z" fill="url(#paint3_linear_1027_2867)"/>
<path fill-rule="evenodd" clip-rule="evenodd" d="M40.1061 26.6296C39.0552 27.2703 38.7071 27.9169 38.7071 29.2282C38.7071 30.2835 38.7904 30.483 39.5966 31.3575C40.4759 32.3116 40.4851 32.3393 40.4205 33.8246C40.3833 34.6796 39.7089 35.3698 38.855 35.427L38.2677 35.4663C33.3508 35.7957 28.9297 38.8689 26.5159 43.6356C25.7528 45.1426 25.3228 45.7634 25.0418 45.7634C24.6814 45.7634 24.6449 45.5232 24.6449 43.1535C24.6449 40.8341 24.6917 40.51 25.0655 40.2422C25.2969 40.0763 25.5513 39.6221 25.631 39.2328C25.9233 37.8039 23.9357 36.8049 22.8872 37.8534C22.2462 38.4943 22.3012 39.6837 22.997 40.231C23.5309 40.6511 23.5463 40.7407 23.5463 43.4253C23.5463 46 23.5153 46.2039 23.0882 46.4324C22.1689 46.9246 21.7982 48.2792 21.7982 51.1465C21.7982 54.5228 22.1221 55.367 23.7296 56.1817C24.7168 56.682 24.8392 56.827 24.9807 57.6644C25.704 61.9461 28.8287 65.5836 32.8845 66.8659C33.3679 67.0186 33.8906 67.3235 34.0462 67.5435C34.3514 67.9746 36.2219 68.6144 37.1768 68.6144C38.1161 68.6144 38.9269 67.703 38.9269 66.6475C38.9269 65.5552 38.4288 65.0009 37.1258 64.6421C36.2098 64.3898 35.7431 64.356 34.481 64.4498C33.0363 64.5575 29.9818 62.4798 28.8574 60.6247C27.6143 58.5733 27.397 57.3893 27.4 52.6846C27.4027 48.9575 27.4567 48.3378 27.9045 46.9046C28.4949 45.015 29.3654 43.4642 30.746 41.8424C33.6539 38.4262 37.3693 37.9772 41.5635 37.976C46.6376 37.9745 50.6716 39.0101 53.7161 43.5149C55.4588 46.0932 55.9551 48.7318 55.7848 54.5089C55.6651 58.5637 55.4827 59.6091 54.7275 60.5691C54.4422 60.932 54.006 61.1439 53.5444 61.1439H49.2292C44.6429 61.1439 44.1053 61.1834 43.3347 61.5765C41.7033 62.4088 41.5877 62.8357 41.5165 68.298C41.4578 72.7904 41.4836 73.1688 41.8931 73.8537C42.3517 74.6207 43.6412 75.4258 44.4111 75.4258C44.8176 75.4258 44.8596 75.5638 44.8627 76.9089C44.8664 78.5063 44.9527 78.7537 45.6284 79.1021C46.2952 79.446 46.787 79.1419 48.6994 77.2029L49.8529 76.0332C50.2362 75.6446 50.7592 75.4258 51.3051 75.4258H54.7501C58.7704 75.4258 59.1116 75.3939 60.0285 74.9314C61.6619 74.1077 61.7773 73.6698 61.7773 68.2848C61.7773 64.3305 61.7224 63.5612 61.393 62.9049C60.8971 61.9164 59.5484 61.1522 58.2916 61.1474C57.4018 61.1441 57.3427 61.1081 57.474 60.6495C57.6289 60.109 57.9526 58.438 58.1572 57.1208C58.2707 56.3893 58.4065 56.2327 59.234 55.8778C59.7548 55.6548 60.4166 55.1415 60.7048 54.7375C61.1796 54.0717 61.2355 53.7388 61.3014 51.1804C61.3849 47.9415 59.5807 46.3969 59.5807 43.3152C59.5807 40.8504 59.6064 40.7041 60.13 40.1805C61.5679 38.7426 59.7572 36.5893 58.0917 37.756C57.3813 38.2535 57.4169 39.5793 58.1593 40.2767C58.6977 40.7825 58.7135 40.8761 58.6537 43.2262C58.5942 45.5641 58.5735 45.6561 58.0912 45.7245C57.6654 45.7849 57.4947 45.5847 56.9529 44.3899C54.5601 39.1126 50.132 35.8776 44.7495 35.4747L44.2362 35.4362C43.4104 35.3744 42.772 34.6864 42.772 33.8583C42.707 32.3602 42.6496 32.2883 43.4151 31.6572C44.8139 30.5041 44.7419 28.2387 43.813 27.2621C42.7025 26.1988 41.3179 25.8906 40.1061 26.6296ZM40.9483 28.4493C40.4812 28.9164 40.6346 29.8423 41.2318 30.162C41.709 30.4174 41.8353 30.4037 42.2205 30.0552C42.7505 29.5756 42.7869 29.0008 42.317 28.5308C41.9056 28.1197 41.3133 28.0843 40.9483 28.4493ZM41.7584 32.3619C41.4662 32.0699 41.1267 32.5334 41.1151 32.9464C41.0892 33.8669 41.1694 35.4539 41.6185 35.3969C41.9835 35.3506 42.1128 35.2161 42.1128 33.7916C42.1128 33.627 42.0998 32.7031 41.7584 32.3619ZM23.545 38.6239C23.3018 38.9171 23.3114 39.0309 23.603 39.3227C24.0743 39.7937 24.6955 39.5321 24.6054 38.9004C24.5195 38.2985 23.9403 38.1476 23.545 38.6239ZM58.5926 38.7303C58.4134 39.2952 58.6172 39.6112 59.1611 39.6112C59.7033 39.6112 59.9478 39.0646 59.5783 38.6196C59.2089 38.1745 58.757 38.2126 58.5926 38.7303ZM58.0117 48.2352C57.8762 49.0534 57.7011 53.8931 58.4933 53.8931C59.1474 53.8931 59.361 53.1902 59.361 51.0367C59.361 49.1312 59.1554 48.2706 58.614 47.9089C58.2209 47.6466 58.0985 47.7127 58.0117 48.2352ZM24.2505 48.4053C23.8172 48.8089 23.766 49.0754 23.766 50.9251C23.766 53.0364 24.0064 53.9893 24.5964 54.2158C24.7785 54.2857 24.9541 54.3158 24.9864 54.2828C25.174 54.0915 25.1437 48.0902 24.955 48.0274C24.8339 47.9869 24.5168 48.157 24.2505 48.4053ZM25.8185 56.4315C25.7464 56.6191 25.7987 57.3266 25.9347 58.0036C26.6413 61.522 29.1495 64.4843 32.4996 65.7571C33.5057 66.1395 33.6261 66.1463 33.7485 65.8279C33.8227 65.6341 33.8566 65.4557 33.8236 65.4317C33.7904 65.4078 33.1192 65.0791 32.3317 64.7009C29.314 63.2523 27.3616 60.7238 26.8283 57.5734C26.6554 56.5515 26.4796 56.0903 26.2634 56.0903C26.0907 56.0903 25.8905 56.2439 25.8185 56.4315ZM44.0657 61.95C42.6745 62.2362 42.4379 64.1943 42.3736 65.6132L42.2651 68.0031C42.2207 71.0439 42.2809 72.8333 42.4402 73.2075C42.774 73.9912 43.5887 74.5405 44.6966 74.729C45.2392 74.8213 45.6291 75.2817 45.6339 75.8321C45.6433 76.9211 45.6958 78.5018 46.0217 78.5014C46.168 78.5012 47.1524 77.6608 48.2092 76.6338L49.5374 75.3432C49.9179 74.9734 50.4275 74.7665 50.958 74.7663L54.2516 74.7653C58.7522 74.764 59.6728 74.6154 60.4759 73.7605C61.0074 73.1947 61.0089 73.1787 61.0089 68.2714V64.3676C61.0089 63.7157 60.75 63.0904 60.2891 62.6294C59.8303 62.1704 59.2087 61.9115 58.5598 61.909L52.0513 61.8839C47.9144 61.8679 44.3208 61.8977 44.0657 61.95Z" fill="url(#paint4_linear_1027_2867)"/>
<path fill-rule="evenodd" clip-rule="evenodd" d="M35.0778 51.254C33.8735 50.4312 33.7518 49.1331 34.8065 48.0379C35.7915 47.0528 36.8538 47.0259 37.8746 47.9382C38.4644 48.4651 38.5874 48.734 38.5874 49.4986C38.5874 50.2633 38.4644 50.5322 37.8746 51.0591C37.0206 51.8224 36.101 51.8863 35.0778 51.254ZM45.5851 47.5644C43.1113 48.7594 45.4805 53.2346 47.9937 51.2577C50.1142 49.5898 48.0245 46.3858 45.5851 47.5644ZM35.5082 49.4986C35.0587 49.4986 34.9719 49.3918 34.9719 48.8395C34.9719 48.2877 35.0589 48.1803 35.5065 48.1803C35.847 48.1803 36.0911 48.3389 36.1797 48.6178C36.3682 49.2117 36.1496 49.4986 35.5082 49.4986ZM45.6405 49.4237C45.145 49.2336 44.9554 48.6131 45.3217 48.3811C45.7714 48.0964 46.0881 48.1372 46.4066 48.5209C46.6396 48.8017 46.6279 48.9227 46.3407 49.2101C46.1489 49.4019 45.8338 49.498 45.6405 49.4237ZM37.6085 50.6133C37.6085 51.1764 36.8813 51.1125 36.771 50.5399C36.7202 50.2762 36.8386 50.1578 37.1531 50.1578C37.4675 50.1578 37.6085 50.2989 37.6085 50.6133ZM47.9355 50.6133C47.9355 51.1764 47.2082 51.1125 47.0979 50.5399C47.0471 50.2762 47.1656 50.1578 47.48 50.1578C47.7944 50.1578 47.9355 50.2989 47.9355 50.6133ZM37.8355 54.8412C37.5013 54.4162 37.451 54.1877 37.6211 53.8695C37.9168 53.3172 38.414 53.3545 39.4762 54.0086C40.6363 54.7232 42.8443 54.7744 43.9308 54.1119C44.5589 53.729 45.8092 53.2351 45.6972 54.376C45.6394 54.9666 45.4603 55.1648 44.5733 55.6199C42.5703 56.6477 38.9251 56.2263 37.8355 54.8412Z" stroke="url(#paint5_linear_1027_2867)" stroke-width="0.289224"/>
<path fill-rule="evenodd" clip-rule="evenodd" d="M45.3177 64.6654C44.9036 64.6689 44.4838 64.8002 44.439 65.2119C44.3833 65.7231 44.9275 66.0391 45.4416 66.0514C48.0277 66.1135 55.6019 66.1201 57.8405 66.1208C58.2046 66.1209 58.6036 66.0476 58.7861 65.7326C58.8589 65.6068 58.9021 65.4702 58.9134 65.3342C58.9529 64.8618 58.4029 64.6683 57.9288 64.6646C55.4467 64.6452 47.6649 64.6455 45.3177 64.6654Z" stroke="url(#paint6_linear_1027_2867)" stroke-width="0.289224"/>
<path fill-rule="evenodd" clip-rule="evenodd" d="M45.5949 69.0048C44.9685 69 44.2551 68.6407 44.4535 68.0465C44.4664 68.0079 44.4817 67.97 44.4994 67.9331C44.6624 67.5926 45.08 67.5059 45.4575 67.5027C46.1769 67.4965 47.3169 67.4954 51.3701 67.4974C58.0712 67.5006 58.8519 67.4974 58.8519 68.2366C58.872 68.3928 58.8625 68.5245 58.8181 68.641C58.6727 69.0226 58.1772 69.0723 57.7689 69.0663C55.5236 69.0332 48.2807 69.0253 45.5949 69.0048Z" stroke="url(#paint7_linear_1027_2867)" stroke-width="0.289224"/>
<path fill-rule="evenodd" clip-rule="evenodd" d="M44.6966 70.6081C44.3268 70.9496 44.3821 71.5526 44.7919 71.931C45.0766 72.1937 45.4622 72.0861 48.3109 72.0861C52.0157 72.0861 52.5764 72.1787 52.5764 71.2353C52.5764 70.7133 52.0057 70.5089 51.484 70.5245C50.6719 70.5487 49.4446 70.5446 48.3109 70.5566C46.4742 70.576 44.8164 70.4975 44.6966 70.6081Z" stroke="url(#paint8_linear_1027_2867)" stroke-width="0.289224"/>
<path fill-rule="evenodd" clip-rule="evenodd" d="M40.1061 26.6296C39.0552 27.2703 38.7071 27.9169 38.7071 29.2282C38.7071 30.2835 38.7904 30.483 39.5966 31.3575C40.4759 32.3116 40.4851 32.3393 40.4205 33.8246C40.3833 34.6796 39.7089 35.3698 38.855 35.427L38.2677 35.4663C33.3508 35.7957 28.9297 38.8689 26.5159 43.6356C25.7528 45.1426 25.3228 45.7634 25.0418 45.7634C24.6814 45.7634 24.6449 45.5232 24.6449 43.1535C24.6449 40.8341 24.6917 40.51 25.0655 40.2422C25.2969 40.0763 25.5513 39.6221 25.631 39.2328C25.9233 37.8039 23.9357 36.8049 22.8872 37.8534C22.2462 38.4943 22.3012 39.6837 22.997 40.231C23.5309 40.6511 23.5463 40.7407 23.5463 43.4253C23.5463 46 23.5153 46.2039 23.0882 46.4324C22.1689 46.9246 21.7982 48.2792 21.7982 51.1465C21.7982 54.5228 22.1221 55.367 23.7296 56.1817C24.7168 56.682 24.8392 56.827 24.9807 57.6644C25.704 61.9461 28.8287 65.5836 32.8845 66.8659C33.3679 67.0186 33.8906 67.3235 34.0462 67.5435C34.3514 67.9746 36.2219 68.6144 37.1768 68.6144C38.1161 68.6144 38.9269 67.703 38.9269 66.6475C38.9269 65.5552 38.4288 65.0009 37.1258 64.6421C36.2098 64.3898 35.7431 64.356 34.481 64.4498C33.0363 64.5575 29.9818 62.4798 28.8574 60.6247C27.6143 58.5733 27.397 57.3893 27.4 52.6846C27.4027 48.9575 27.4567 48.3378 27.9045 46.9046C28.4949 45.015 29.3654 43.4642 30.746 41.8424C33.6539 38.4262 37.3693 37.9772 41.5635 37.976C46.6376 37.9745 50.6716 39.0101 53.7161 43.5149C55.4588 46.0932 55.9551 48.7318 55.7848 54.5089C55.6651 58.5637 55.4827 59.6091 54.7275 60.5691C54.4422 60.932 54.006 61.1439 53.5444 61.1439H49.2292C44.6429 61.1439 44.1053 61.1834 43.3347 61.5765C41.7033 62.4088 41.5877 62.8357 41.5165 68.298C41.4578 72.7904 41.4836 73.1688 41.8931 73.8537C42.3517 74.6207 43.6412 75.4258 44.4111 75.4258C44.8176 75.4258 44.8596 75.5638 44.8627 76.9089C44.8664 78.5063 44.9527 78.7537 45.6284 79.1021C46.2952 79.446 46.787 79.1419 48.6994 77.2029L49.8529 76.0332C50.2362 75.6446 50.7592 75.4258 51.3051 75.4258H54.7501C58.7704 75.4258 59.1116 75.3939 60.0285 74.9314C61.6619 74.1077 61.7773 73.6698 61.7773 68.2848C61.7773 64.3305 61.7224 63.5612 61.393 62.9049C60.8971 61.9164 59.5484 61.1522 58.2916 61.1474C57.4018 61.1441 57.3427 61.1081 57.474 60.6495C57.6289 60.109 57.9526 58.438 58.1572 57.1208C58.2707 56.3893 58.4065 56.2327 59.234 55.8778C59.7548 55.6548 60.4166 55.1415 60.7048 54.7375C61.1796 54.0717 61.2355 53.7388 61.3014 51.1804C61.3849 47.9415 59.5807 46.3969 59.5807 43.3152C59.5807 40.8504 59.6064 40.7041 60.13 40.1805C61.5679 38.7426 59.7572 36.5893 58.0917 37.756C57.3813 38.2535 57.4169 39.5793 58.1593 40.2767C58.6977 40.7825 58.7135 40.8761 58.6537 43.2262C58.5942 45.5641 58.5735 45.6561 58.0912 45.7245C57.6654 45.7849 57.4947 45.5847 56.9529 44.3899C54.5601 39.1126 50.132 35.8776 44.7495 35.4747L44.2362 35.4362C43.4104 35.3744 42.772 34.6864 42.772 33.8583C42.707 32.3602 42.6496 32.2883 43.4151 31.6572C44.8139 30.5041 44.7419 28.2387 43.813 27.2621C42.7025 26.1988 41.3179 25.8906 40.1061 26.6296ZM40.9483 28.4493C40.4812 28.9164 40.6346 29.8423 41.2318 30.162C41.709 30.4174 41.8353 30.4037 42.2205 30.0552C42.7505 29.5756 42.7869 29.0008 42.317 28.5308C41.9056 28.1197 41.3133 28.0843 40.9483 28.4493ZM41.7584 32.3619C41.4662 32.0699 41.1267 32.5334 41.1151 32.9464C41.0892 33.8669 41.1694 35.4539 41.6185 35.3969C41.9835 35.3506 42.1128 35.2161 42.1128 33.7916C42.1128 33.627 42.0998 32.7031 41.7584 32.3619ZM23.545 38.6239C23.3018 38.9171 23.3114 39.0309 23.603 39.3227C24.0743 39.7937 24.6955 39.5321 24.6054 38.9004C24.5195 38.2985 23.9403 38.1476 23.545 38.6239ZM58.5926 38.7303C58.4134 39.2952 58.6172 39.6112 59.1611 39.6112C59.7033 39.6112 59.9478 39.0646 59.5783 38.6196C59.2089 38.1745 58.757 38.2126 58.5926 38.7303ZM58.0117 48.2352C57.8762 49.0534 57.7011 53.8931 58.4933 53.8931C59.1474 53.8931 59.361 53.1902 59.361 51.0367C59.361 49.1312 59.1554 48.2706 58.614 47.9089C58.2209 47.6466 58.0985 47.7127 58.0117 48.2352ZM24.2505 48.4053C23.8172 48.8089 23.766 49.0754 23.766 50.9251C23.766 53.0364 24.0064 53.9893 24.5964 54.2158C24.7785 54.2857 24.9541 54.3158 24.9864 54.2828C25.174 54.0915 25.1437 48.0902 24.955 48.0274C24.8339 47.9869 24.5168 48.157 24.2505 48.4053ZM25.8185 56.4315C25.7464 56.6191 25.7987 57.3266 25.9347 58.0036C26.6413 61.522 29.1495 64.4843 32.4996 65.7571C33.5057 66.1395 33.6261 66.1463 33.7485 65.8279C33.8227 65.6341 33.8566 65.4557 33.8236 65.4317C33.7904 65.4078 33.1192 65.0791 32.3317 64.7009C29.314 63.2523 27.3616 60.7238 26.8283 57.5734C26.6554 56.5515 26.4796 56.0903 26.2634 56.0903C26.0907 56.0903 25.8905 56.2439 25.8185 56.4315ZM44.0657 61.95C42.6745 62.2362 42.4379 64.1943 42.3736 65.6132L42.2651 68.0031C42.2207 71.0439 42.2809 72.8333 42.4402 73.2075C42.774 73.9912 43.5887 74.5405 44.6966 74.729C45.2392 74.8213 45.6291 75.2817 45.6339 75.8321C45.6433 76.9211 45.6958 78.5018 46.0217 78.5014C46.168 78.5012 47.1524 77.6608 48.2092 76.6338L49.5374 75.3432C49.9179 74.9734 50.4275 74.7665 50.958 74.7663L54.2516 74.7653C58.7522 74.764 59.6728 74.6154 60.4759 73.7605C61.0074 73.1947 61.0089 73.1787 61.0089 68.2714V64.3676C61.0089 63.7157 60.75 63.0904 60.2891 62.6294C59.8303 62.1704 59.2087 61.9115 58.5598 61.909L52.0513 61.8839C47.9144 61.8679 44.3208 61.8977 44.0657 61.95Z" stroke="url(#paint9_linear_1027_2867)" stroke-width="0.289224"/>
<rect x="30.256" y="42.3533" width="22.8495" height="16.6178" rx="8.3089" stroke="#1588C8" stroke-width="1.03861"/>
<defs>
<filter id="filter0_d_1027_2867" x="-1.71661e-05" y="10.6794" width="84.8415" height="84.8413" filterUnits="userSpaceOnUse" color-interpolation-filters="sRGB">
<feFlood flood-opacity="0" result="BackgroundImageFix"/>
<feColorMatrix in="SourceAlpha" type="matrix" values="0 0 0 0 0 0 0 0 0 0 0 0 0 0 0 0 0 0 127 0" result="hardAlpha"/>
<feMorphology radius="12.7262" operator="erode" in="SourceAlpha" result="effect1_dropShadow_1027_2867"/>
<feOffset/>
<feGaussianBlur stdDeviation="10.6052"/>
<feComposite in2="hardAlpha" operator="out"/>
<feColorMatrix type="matrix" values="0 0 0 0 0 0 0 0 0 0 0 0 0 0 0 0 0 0 0.8 0"/>
<feBlend mode="normal" in2="BackgroundImageFix" result="effect1_dropShadow_1027_2867"/>
<feBlend mode="normal" in="SourceGraphic" in2="effect1_dropShadow_1027_2867" result="shape"/>
</filter>
<linearGradient id="paint0_linear_1027_2867" x1="43.6604" y1="13.2725" x2="43.6604" y2="91.166" gradientUnits="userSpaceOnUse">
<stop stop-color="#20B1F0"/>
<stop offset="1" stop-color="#075295"/>
</linearGradient>
<linearGradient id="paint1_linear_1027_2867" x1="43.6604" y1="13.2725" x2="43.6604" y2="91.166" gradientUnits="userSpaceOnUse">
<stop stop-color="#20B1F0"/>
<stop offset="1" stop-color="#075295"/>
</linearGradient>
<linearGradient id="paint2_linear_1027_2867" x1="43.6604" y1="13.2725" x2="43.6604" y2="91.166" gradientUnits="userSpaceOnUse">
<stop stop-color="#20B1F0"/>
<stop offset="1" stop-color="#075295"/>
</linearGradient>
<linearGradient id="paint3_linear_1027_2867" x1="43.6604" y1="13.2725" x2="43.6604" y2="91.166" gradientUnits="userSpaceOnUse">
<stop stop-color="#20B1F0"/>
<stop offset="1" stop-color="#075295"/>
</linearGradient>
<linearGradient id="paint4_linear_1027_2867" x1="43.6604" y1="13.2725" x2="43.6604" y2="91.166" gradientUnits="userSpaceOnUse">
<stop stop-color="#20B1F0"/>
<stop offset="1" stop-color="#075295"/>
</linearGradient>
<linearGradient id="paint5_linear_1027_2867" x1="43.6604" y1="13.2725" x2="43.6604" y2="91.166" gradientUnits="userSpaceOnUse">
<stop stop-color="#20B1F0"/>
<stop offset="1" stop-color="#075295"/>
</linearGradient>
<linearGradient id="paint6_linear_1027_2867" x1="43.6604" y1="13.2725" x2="43.6604" y2="91.166" gradientUnits="userSpaceOnUse">
<stop stop-color="#20B1F0"/>
<stop offset="1" stop-color="#075295"/>
</linearGradient>
<linearGradient id="paint7_linear_1027_2867" x1="43.6604" y1="13.2725" x2="43.6604" y2="91.166" gradientUnits="userSpaceOnUse">
<stop stop-color="#20B1F0"/>
<stop offset="1" stop-color="#075295"/>
</linearGradient>
<linearGradient id="paint8_linear_1027_2867" x1="43.6604" y1="13.2725" x2="43.6604" y2="91.166" gradientUnits="userSpaceOnUse">
<stop stop-color="#20B1F0"/>
<stop offset="1" stop-color="#075295"/>
</linearGradient>
<linearGradient id="paint9_linear_1027_2867" x1="43.6604" y1="13.2725" x2="43.6604" y2="91.166" gradientUnits="userSpaceOnUse">
<stop stop-color="#20B1F0"/>
<stop offset="1" stop-color="#075295"/>
</linearGradient>
</defs>
</svg>
