<svg width="51" height="51" viewBox="0 0 51 51" fill="none" xmlns="http://www.w3.org/2000/svg">
<rect x="1.06052" y="1.06052" width="48.7839" height="48.7839" rx="24.3919" fill="white"/>
<rect x="1.06052" y="1.06052" width="48.7839" height="48.7839" rx="24.3919" stroke="#E5E5E5" stroke-width="2.12104"/>
<path d="M16.5085 17.0381H13.4579C13.0966 17.0381 12.8157 17.3191 12.8157 17.6803V20.2893C12.8157 20.6506 13.0966 20.9316 13.4579 20.9316H16.5085C16.8697 20.9316 17.1507 20.6506 17.1507 20.2893V17.6803C17.1507 17.3191 16.8697 17.0381 16.5085 17.0381Z" fill="#DA0081"/>
<path d="M35.1333 17.0381H32.4841C32.1229 17.0381 31.8419 17.3191 31.8419 17.6803V28.1967C31.8419 28.3974 31.5609 28.4777 31.4405 28.3171L25.3795 17.3191C25.2591 17.1585 25.0986 17.0381 24.8577 17.0381H20.5227C20.1615 17.0381 19.8805 17.3191 19.8805 17.6803V34.4986C19.8805 34.8598 20.1615 35.1408 20.5227 35.1408H23.1719C23.5331 35.1408 23.8141 34.8598 23.8141 34.4986V23.661C23.8141 23.4603 24.0951 23.38 24.2155 23.5406L30.5173 34.8598C30.6377 35.0204 30.7983 35.1408 30.999 35.1408H35.1735C35.5347 35.1408 35.8157 34.8598 35.8157 34.4986V17.6803C35.7354 17.3191 35.4544 17.0381 35.1333 17.0381Z" fill="#200020"/>
</svg>
