<svg width="51" height="51" viewBox="0 0 51 51" fill="none" xmlns="http://www.w3.org/2000/svg">
<rect x="1.06052" y="1.06052" width="48.7839" height="48.7839" rx="24.3919" fill="white"/>
<rect x="1.06052" y="1.06052" width="48.7839" height="48.7839" rx="24.3919" stroke="#E5E5E5" stroke-width="2.12104"/>
<path fill-rule="evenodd" clip-rule="evenodd" d="M25.1196 13.9478C26.0609 13.8334 27.684 14.3145 28.5499 14.7309C28.7846 14.8437 29.0092 14.9595 29.2345 15.0757C29.5717 15.2495 29.9108 15.4244 30.2888 15.5919C30.3058 15.5691 30.3254 15.5422 30.3471 15.5126C30.4783 15.3335 30.684 15.0528 30.8176 14.9468C31.2971 14.5754 32.01 14.589 32.6555 14.6013C32.8506 14.605 33.0395 14.6086 33.214 14.6015C33.7563 14.5792 34.6881 14.6011 35.0886 15.0075C35.7543 15.6829 35.5379 16.6012 35.3287 17.4891C35.2439 17.849 35.1602 18.2039 35.137 18.5356C35.6113 18.9506 36.0915 19.3054 36.5677 19.6571C37.0557 20.0175 37.5395 20.3748 38.0081 20.7907C38.5591 21.3207 39.2036 22.2347 39.1679 23.0369C39.0752 25.1142 36.7184 25.3177 35.1824 25.3104C35.4892 26.7168 35.9221 27.6403 36.8744 28.7124C37.6097 29.6019 37.963 30.9662 37.7624 32.0953C37.5467 33.3085 37.1865 33.8023 36.3702 34.6405C34.9068 36.1432 32.9797 36.6517 30.9324 36.6751C30.5674 36.6793 30.218 36.6425 29.8686 36.6056C29.5604 36.5732 29.2521 36.5407 28.9332 36.5364C28.6881 36.5381 28.1155 36.6543 27.6413 36.7506C27.4329 36.7929 27.2435 36.8313 27.1093 36.8545C25.8104 37.0191 24.7483 37.0261 23.4421 36.8011C23.2758 36.7927 23.0357 36.7316 22.7881 36.6685C22.4667 36.5866 22.1325 36.5015 21.9303 36.5242C20.5285 36.6817 19.2398 36.768 17.834 36.4538C16.4029 36.1339 14.6021 35.1335 13.7919 33.8638C12.8648 32.411 12.8634 30.4453 13.7852 28.9926C13.9735 28.6936 14.1954 28.4022 14.4185 28.1092C14.7229 27.7096 15.0295 27.307 15.2562 26.8779C15.4813 26.4521 15.5927 25.9551 15.6991 25.4805C15.712 25.4226 15.7249 25.3651 15.7379 25.308C14.62 25.3398 13.4353 25.2785 12.5152 24.5602C12.1394 24.2741 11.7638 23.7557 11.7389 23.269C11.6516 21.5557 13.2954 20.3728 14.6331 19.4102C14.8472 19.2561 15.0535 19.1077 15.2436 18.9636C15.4209 18.8338 15.5914 18.6932 15.762 18.5524C15.9763 18.3756 16.1908 18.1987 16.4191 18.0431C17.8821 17.0404 19.4385 16.2257 21.0036 15.4065C21.1844 15.3118 21.3653 15.2171 21.5462 15.122C22.6545 14.5396 23.8668 14.0827 25.1196 13.9478ZM25.3606 15.2776C26.625 15.2859 27.9755 15.9125 29.1579 16.4612C29.2895 16.5222 29.4191 16.5824 29.5461 16.6405C29.7502 16.7339 29.9272 16.8295 30.0999 16.9229C30.4092 17.09 30.7048 17.2498 31.1183 17.3762C31.7196 17.0182 31.6821 16.7892 31.5947 16.2573C31.5809 16.1729 31.5658 16.0809 31.5518 15.9795C32.4567 15.9566 33.362 15.9557 34.267 15.9771C34.2412 16.3743 34.1561 16.8009 34.0699 17.2331C33.9355 17.9068 33.7985 18.5939 33.8791 19.2035C34.1989 19.462 34.5156 19.6977 34.8316 19.9328C35.0801 20.1177 35.3282 20.3022 35.577 20.4974C35.6987 20.5967 35.8496 20.7102 36.0156 20.8349C36.7683 21.4007 37.8314 22.1998 37.8901 22.9795C37.9728 24.0766 35.9038 24.0557 34.825 24.0448C34.6287 24.0429 34.4652 24.0412 34.3534 24.0467C33.7138 24.078 33.8427 24.934 33.9063 25.3538C34.0538 26.3289 34.3685 27.2774 34.8754 28.1295C35.0059 28.3261 35.1398 28.5139 35.2714 28.6985C35.7773 29.408 36.2505 30.0716 36.3719 31.018C36.5113 31.8561 36.1212 32.9608 35.6069 33.6071C34.5005 34.9977 32.2793 35.5652 30.5645 35.4663C30.3091 35.4515 30.0186 35.4168 29.7339 35.3828C29.4032 35.3432 29.0801 35.3046 28.8284 35.2993C28.73 35.2971 28.3439 35.3743 27.9777 35.4475C27.7168 35.4997 27.4658 35.5499 27.3363 35.5679C25.381 35.8989 23.8617 35.6431 21.9714 35.301C21.6684 35.315 21.3505 35.3543 21.0392 35.3929C20.8951 35.4107 20.7523 35.4284 20.6132 35.4433C18.2064 35.7009 15.2816 34.6773 14.4985 32.1761C14.3717 31.7126 14.3902 30.5977 14.65 30.1952C14.8071 29.952 14.9679 29.7115 15.1282 29.4716C16.1114 28.0006 17.0773 26.5556 17.0701 24.6593C17.0696 24.5395 16.9457 24.1441 16.7962 24.1117C16.3717 24.0198 15.9215 24.0271 15.4695 24.0345C14.6979 24.047 13.9214 24.0596 13.2594 23.5785C12.2518 22.6206 14.5202 21.0521 15.3805 20.4573C15.4836 20.386 15.5665 20.3287 15.6211 20.2881L17.3071 19.0601C17.4056 18.9877 17.5185 18.9003 17.6352 18.81C17.8419 18.65 18.0607 18.4806 18.2331 18.3688C18.4979 18.1972 18.7952 18.0339 19.0895 17.8723C19.2901 17.7621 19.4894 17.6527 19.676 17.5419C21.1462 16.6689 23.6515 15.3751 25.3606 15.2776Z" fill="#E2111C"/>
<path fill-rule="evenodd" clip-rule="evenodd" d="M28.5499 14.7309C27.684 14.3145 26.0609 13.8334 25.1196 13.9478C23.8668 14.0827 22.6545 14.5396 21.5462 15.122C21.3653 15.2171 21.1844 15.3118 21.0036 15.4065C19.4385 16.2257 17.8821 17.0404 16.4191 18.0431C16.1908 18.1987 15.9763 18.3756 15.762 18.5524C15.5914 18.6932 15.4209 18.8338 15.2436 18.9636C15.0535 19.1077 14.8472 19.2561 14.6331 19.4102C13.2954 20.3728 11.6516 21.5557 11.7389 23.269C11.7638 23.7557 12.1394 24.2741 12.5152 24.5602C13.4353 25.2785 14.62 25.3398 15.7379 25.308C15.7249 25.3651 15.712 25.4226 15.6991 25.4805C15.5927 25.9551 15.4813 26.4521 15.2562 26.8779C15.0295 27.307 14.7229 27.7096 14.4185 28.1092C14.1954 28.4022 13.9735 28.6936 13.7852 28.9926C12.8634 30.4453 12.8648 32.411 13.7919 33.8638C14.6021 35.1335 16.4029 36.1339 17.834 36.4538C19.2398 36.768 20.5285 36.6817 21.9303 36.5242C22.1325 36.5015 22.4667 36.5866 22.7881 36.6685C23.0357 36.7316 23.2758 36.7927 23.4421 36.8011C24.7483 37.0261 25.8104 37.0191 27.1093 36.8545C27.2435 36.8313 27.4329 36.7929 27.6413 36.7506C28.1155 36.6543 28.6881 36.5381 28.9332 36.5364C29.2521 36.5407 29.5604 36.5732 29.8686 36.6056C30.218 36.6425 30.5674 36.6793 30.9324 36.6751C32.9797 36.6517 34.9068 36.1432 36.3702 34.6405C37.1865 33.8023 37.5467 33.3085 37.7624 32.0953C37.963 30.9662 37.6097 29.6019 36.8744 28.7124C35.9221 27.6403 35.4892 26.7168 35.1824 25.3104C36.7184 25.3177 39.0752 25.1142 39.1679 23.0369C39.2036 22.2347 38.5591 21.3207 38.0081 20.7907C37.5395 20.3748 37.0557 20.0175 36.5677 19.6571C36.0915 19.3054 35.6113 18.9506 35.137 18.5356C35.1602 18.2039 35.2439 17.849 35.3287 17.4891C35.5379 16.6012 35.7543 15.6829 35.0886 15.0075C34.6881 14.6011 33.7563 14.5792 33.214 14.6015C33.0395 14.6086 32.8506 14.605 32.6555 14.6013C32.01 14.589 31.2971 14.5754 30.8176 14.9468C30.684 15.0528 30.4783 15.3335 30.3471 15.5126C30.3254 15.5422 30.3058 15.5691 30.2888 15.5919C29.9108 15.4244 29.5717 15.2495 29.2345 15.0757C29.0092 14.9595 28.7846 14.8437 28.5499 14.7309ZM25.3606 15.2776C26.625 15.2859 27.9755 15.9125 29.1579 16.4612C29.2895 16.5222 29.4191 16.5824 29.5461 16.6405C29.7502 16.7339 29.9272 16.8295 30.0999 16.9229C30.4092 17.09 30.7048 17.2498 31.1183 17.3762C31.7196 17.0182 31.6821 16.7892 31.5947 16.2573C31.5809 16.1729 31.5658 16.0809 31.5518 15.9795C32.4567 15.9566 33.362 15.9557 34.267 15.9771C34.2412 16.3743 34.1561 16.8009 34.0699 17.2331C33.9355 17.9068 33.7985 18.5939 33.8791 19.2035C34.1989 19.462 34.5156 19.6977 34.8316 19.9328C35.0801 20.1177 35.3282 20.3022 35.577 20.4974C35.6987 20.5967 35.8496 20.7102 36.0156 20.8349C36.7683 21.4007 37.8314 22.1998 37.8901 22.9795C37.9728 24.0766 35.9038 24.0557 34.825 24.0448C34.6287 24.0429 34.4652 24.0412 34.3534 24.0467C33.7138 24.078 33.8427 24.934 33.9063 25.3538C34.0538 26.3289 34.3685 27.2774 34.8754 28.1295C35.0059 28.3261 35.1398 28.5139 35.2714 28.6985C35.7773 29.408 36.2505 30.0716 36.3719 31.018C36.5113 31.8561 36.1212 32.9608 35.6069 33.6071C34.5005 34.9977 32.2793 35.5652 30.5645 35.4663C30.3091 35.4515 30.0186 35.4168 29.7339 35.3828C29.4032 35.3432 29.0801 35.3046 28.8284 35.2993C28.73 35.2971 28.3439 35.3743 27.9777 35.4475C27.7168 35.4997 27.4658 35.5499 27.3363 35.5679C25.381 35.8989 23.8617 35.6431 21.9714 35.301C21.6684 35.315 21.3505 35.3543 21.0392 35.3929C20.8951 35.4107 20.7523 35.4284 20.6132 35.4433C18.2064 35.7009 15.2816 34.6773 14.4985 32.1761C14.3717 31.7126 14.3902 30.5977 14.65 30.1952C14.8071 29.952 14.9679 29.7115 15.1282 29.4716C16.1114 28.0006 17.0773 26.5556 17.0701 24.6593C17.0696 24.5395 16.9457 24.1441 16.7962 24.1117C16.3717 24.0198 15.9215 24.0271 15.4695 24.0345C14.6979 24.047 13.9214 24.0596 13.2594 23.5785C12.2518 22.6206 14.5202 21.0521 15.3805 20.4573C15.4836 20.386 15.5665 20.3287 15.6211 20.2881L17.3071 19.0601C17.4056 18.9877 17.5185 18.9003 17.6352 18.81C17.8419 18.65 18.0607 18.4806 18.2331 18.3688C18.4979 18.1972 18.7952 18.0339 19.0895 17.8723C19.2901 17.7621 19.4894 17.6527 19.676 17.5419C21.1462 16.6689 23.6515 15.3751 25.3606 15.2776Z" fill="#E2111C"/>
<path d="M27.6413 36.7506C28.1155 36.6543 28.6881 36.5381 28.9332 36.5364C29.2521 36.5407 29.5604 36.5732 29.8686 36.6056C30.218 36.6425 30.5674 36.6793 30.9324 36.6751C32.9797 36.6517 34.9068 36.1432 36.3702 34.6405C37.1865 33.8023 37.5467 33.3085 37.7624 32.0953C37.963 30.9662 37.6097 29.6019 36.8744 28.7124C35.9221 27.6403 35.4892 26.7168 35.1824 25.3104C36.7184 25.3177 39.0752 25.1142 39.1679 23.0369C39.2036 22.2347 38.5591 21.3207 38.0081 20.7907C37.5395 20.3748 37.0557 20.0175 36.5677 19.6571C36.0915 19.3054 35.6113 18.9506 35.137 18.5356C35.1602 18.2039 35.2439 17.849 35.3287 17.4891C35.5379 16.6012 35.7543 15.6829 35.0886 15.0075C34.6881 14.6011 33.7563 14.5792 33.214 14.6015C33.0395 14.6086 32.8506 14.605 32.6555 14.6013C32.01 14.589 31.2971 14.5754 30.8176 14.9468C30.684 15.0528 30.4783 15.3335 30.3471 15.5126C30.3254 15.5422 30.3058 15.5691 30.2888 15.5919C29.9108 15.4244 29.5717 15.2495 29.2345 15.0757C29.0092 14.9595 28.7846 14.8437 28.5499 14.7309C27.684 14.3145 26.0609 13.8334 25.1196 13.9478C23.8668 14.0827 22.6545 14.5396 21.5462 15.122C21.3653 15.2171 21.1844 15.3118 21.0036 15.4065C19.4385 16.2257 17.8821 17.0404 16.4191 18.0431C16.1908 18.1987 15.9763 18.3756 15.762 18.5524C15.5914 18.6932 15.4209 18.8338 15.2436 18.9636C15.0535 19.1077 14.8472 19.2561 14.6331 19.4102C13.2954 20.3728 11.6516 21.5557 11.7389 23.269C11.7638 23.7557 12.1394 24.2741 12.5152 24.5602C13.4353 25.2785 14.62 25.3398 15.7379 25.308C15.7249 25.3651 15.712 25.4226 15.6991 25.4805C15.5927 25.9551 15.4813 26.4521 15.2562 26.8779C15.0295 27.307 14.7229 27.7096 14.4185 28.1092C14.1954 28.4022 13.9735 28.6936 13.7852 28.9926C12.8634 30.4453 12.8648 32.411 13.7919 33.8638C14.6021 35.1335 16.4029 36.1339 17.834 36.4538C19.2398 36.768 20.5285 36.6817 21.9303 36.5242C22.1325 36.5015 22.4667 36.5866 22.7881 36.6685C23.0357 36.7316 23.2758 36.7927 23.4421 36.8011C24.7483 37.0261 25.8104 37.0191 27.1093 36.8545C27.2435 36.8313 27.4329 36.7929 27.6413 36.7506ZM36.5677 19.6571C36.5081 19.6131 36.4486 19.5691 36.3889 19.5249M29.8686 36.6056C29.9123 36.6102 29.9559 36.6149 29.9996 36.6194M27.6413 36.7506L27.641 36.7506C27.6281 36.7533 27.6153 36.7559 27.6025 36.7585M15.6991 25.4805C15.7039 25.4588 15.7088 25.4371 15.7136 25.4155M14.6331 19.4102V19.4102ZM21.0392 35.3929C21.3505 35.3543 21.6684 35.315 21.9714 35.301C23.8617 35.6431 25.381 35.8989 27.3363 35.5679C27.4658 35.5499 27.7168 35.4997 27.9777 35.4475C28.3439 35.3743 28.73 35.2971 28.8284 35.2993C29.0801 35.3046 29.4032 35.3432 29.7339 35.3828C30.0186 35.4168 30.3091 35.4515 30.5645 35.4663C32.2793 35.5652 34.5005 34.9977 35.6069 33.6071C36.1212 32.9608 36.5113 31.8561 36.3719 31.018C36.2505 30.0716 35.7773 29.408 35.2714 28.6985C35.1398 28.5139 35.0059 28.3261 34.8754 28.1295C34.3685 27.2774 34.0538 26.3289 33.9063 25.3538C33.8427 24.934 33.7138 24.078 34.3534 24.0467C34.4652 24.0412 34.6287 24.0429 34.825 24.0448C35.9038 24.0557 37.9728 24.0766 37.8901 22.9795C37.8314 22.1998 36.7683 21.4007 36.0156 20.8349C35.8496 20.7102 35.6987 20.5967 35.577 20.4974C35.3282 20.3022 35.0801 20.1177 34.8316 19.9328C34.5156 19.6977 34.1989 19.462 33.8791 19.2035C33.7985 18.5939 33.9355 17.9068 34.0699 17.2331C34.1561 16.8009 34.2412 16.3743 34.267 15.9771C33.362 15.9557 32.4567 15.9566 31.5518 15.9795C31.5658 16.0809 31.5809 16.1729 31.5947 16.2573C31.6821 16.7892 31.7196 17.0182 31.1183 17.3762C30.7048 17.2498 30.4092 17.09 30.0999 16.9229C29.9272 16.8295 29.7502 16.7339 29.5461 16.6405C29.4191 16.5824 29.2895 16.5222 29.158 16.4612C27.9755 15.9125 26.625 15.2859 25.3606 15.2776C23.6515 15.3751 21.1462 16.6689 19.676 17.5419C19.4894 17.6527 19.2901 17.7621 19.0895 17.8723C18.7952 18.0339 18.4979 18.1972 18.2331 18.3688C18.0607 18.4806 17.8419 18.65 17.6352 18.81C17.5185 18.9003 17.4056 18.9877 17.3071 19.0601L15.6211 20.2881C15.5665 20.3287 15.4836 20.386 15.3805 20.4573C14.5202 21.0521 12.2518 22.6206 13.2594 23.5785C13.9214 24.0596 14.6979 24.047 15.4695 24.0345C15.9215 24.0271 16.3717 24.0198 16.7962 24.1117C16.9457 24.1441 17.0696 24.5395 17.0701 24.6593C17.0773 26.5556 16.1114 28.0006 15.1282 29.4716C14.9679 29.7115 14.8071 29.952 14.65 30.1952C14.3902 30.5977 14.3717 31.7126 14.4985 32.1761C15.2816 34.6773 18.2064 35.7009 20.6132 35.4433C20.7523 35.4284 20.8951 35.4107 21.0392 35.3929ZM21.0392 35.3929C21.0781 35.388 21.1171 35.3832 21.1562 35.3784M21.0045 15.406V15.406ZM21.0045 15.406L21.004 15.4063" stroke="#E2111C" stroke-width="0.5"/>
</svg>
