<svg width="51" height="51" viewBox="0 0 51 51" fill="none" xmlns="http://www.w3.org/2000/svg">
<rect x="1.06052" y="1.06052" width="48.7839" height="48.7839" rx="24.3919" fill="white"/>
<rect x="1.06052" y="1.06052" width="48.7839" height="48.7839" rx="24.3919" stroke="#E5E5E5" stroke-width="2.12104"/>
<path d="M36.3102 23.183C36.8835 21.48 36.6851 19.616 35.7657 18.0676C34.3832 15.694 31.6047 14.4731 28.8913 15.0468C27.3621 13.3689 25.0419 12.6228 22.804 13.0893C20.5661 13.5558 18.7503 15.1641 18.04 17.3088C16.2576 17.6693 14.7192 18.7701 13.8184 20.3296C12.4209 22.6994 12.738 25.6888 14.6027 27.7218C14.0273 29.424 14.224 31.2882 15.1423 32.8371C16.5265 35.2115 19.3068 36.4324 22.0218 35.858C23.2294 37.1994 24.9643 37.9626 26.7829 37.9525C29.5643 37.9551 32.0284 36.1839 32.878 33.5715C34.6602 33.2104 36.1984 32.1097 37.0996 30.5506C38.4802 28.185 38.1617 25.2117 36.3102 23.183ZM26.7829 36.3163C25.6728 36.318 24.5974 35.9342 23.7454 35.2321L23.8953 35.1484L28.9412 32.2753C29.1967 32.1275 29.3543 31.8578 29.3559 31.5656V24.5481L31.489 25.7654C31.5104 25.776 31.5253 25.7962 31.5292 25.8195V31.6347C31.5236 34.218 29.4019 36.3109 26.7829 36.3163ZM16.5811 32.0191C16.0244 31.0707 15.8245 29.9591 16.0166 28.8798L16.1666 28.9686L21.2174 31.8417C21.4719 31.989 21.7873 31.989 22.0418 31.8417L28.2118 28.3328V30.7624C28.2106 30.7879 28.1977 30.8115 28.1768 30.8265L23.0659 33.734C20.7948 35.0246 17.8931 34.2572 16.5811 32.0191ZM15.2523 21.1773C15.8129 20.2229 16.6978 19.4949 17.7503 19.1223V25.036C17.7464 25.327 17.9033 25.597 18.1599 25.7407L24.2999 29.2347L22.1667 30.4519C22.1432 30.4642 22.1152 30.4642 22.0917 30.4519L16.9909 27.5493C14.7243 26.2533 13.9469 23.3933 15.2523 21.1527V21.1773ZM32.7781 25.1937L26.6181 21.6652L28.7464 20.4527C28.7698 20.4404 28.7979 20.4404 28.8213 20.4527L33.9222 23.3603C35.5142 24.2664 36.4327 25.9979 36.2798 27.8047C36.1269 29.6115 34.9301 31.1688 33.2078 31.8021V25.8884C33.1988 25.5982 33.0356 25.3343 32.7781 25.1937ZM34.9014 22.0447L34.7515 21.9559L29.7106 19.0582C29.4546 18.91 29.1373 18.91 28.8812 19.0582L22.7163 22.5669V20.1375C22.7137 20.1123 22.7252 20.0877 22.7463 20.0734L27.8472 17.1707C29.4431 16.2638 31.4266 16.3485 32.9372 17.3879C34.4478 18.4273 35.2132 20.2343 34.9015 22.0249L34.9014 22.0447ZM21.5521 26.3516L19.419 25.1393C19.3974 25.1265 19.3826 25.1048 19.3788 25.0803V19.28C19.3812 17.4635 20.4475 15.812 22.1152 15.0417C23.7829 14.2714 25.7517 14.5211 27.1676 15.6824L27.0177 15.7663L21.9719 18.6392C21.7164 18.787 21.5588 19.0567 21.5572 19.3488L21.5521 26.3516ZM22.7112 23.8877L25.4589 22.3254L28.2118 23.8877V27.012L25.4689 28.5742L22.7162 27.012L22.7112 23.8877Z" fill="black"/>
</svg>
