<svg width="51" height="51" viewBox="0 0 51 51" fill="none" xmlns="http://www.w3.org/2000/svg">
<rect x="1.06052" y="1.06052" width="48.7839" height="48.7839" rx="24.3919" fill="white"/>
<rect x="1.06052" y="1.06052" width="48.7839" height="48.7839" rx="24.3919" stroke="#E5E5E5" stroke-width="2.12104"/>
<path d="M17.8817 16.3554C22.3028 15.0757 26.7105 14.2448 31.2738 13.6805C31.7715 13.6272 32.2602 13.9516 32.438 14.4492C32.8645 15.6089 33.0734 16.1954 33.4866 17.364C33.6821 17.9194 33.3888 18.4749 32.8556 18.546C28.1857 19.2347 23.6624 20.1855 19.1391 21.5763C18.5882 21.7585 18.0461 21.483 17.9083 20.9409C17.6676 20.0041 17.5174 19.4126 17.3269 18.6625C17.2572 18.388 17.1821 18.0923 17.0952 17.7506C16.953 17.1819 17.3085 16.5376 17.8817 16.3554Z" fill="#1539A7"/>
<path fill-rule="evenodd" clip-rule="evenodd" d="M35.0906 20.7676C27.9458 21.6785 20.992 23.4469 14.3937 26.3662C13.9138 26.5928 13.625 27.1971 13.7272 27.7347L13.7636 27.9277C13.9976 29.1665 14.1266 29.8492 14.3803 31.1516C14.4914 31.7337 15.0379 32.0003 15.5756 31.7382C22.2761 28.6678 29.3543 26.7128 36.6191 25.5486C37.0812 25.4731 37.3167 24.9443 37.139 24.3978C36.7747 23.2692 36.588 22.7049 36.2104 21.5763C36.0371 21.0564 35.5616 20.7054 35.0906 20.7676Z" fill="#FFCA1C"/>
<path fill-rule="evenodd" clip-rule="evenodd" d="M21.8673 32.0003C26.1862 30.5118 30.5451 29.3477 35.0062 28.379C35.495 28.2768 36.0148 28.6456 36.197 29.1966C36.5569 30.3341 36.7347 30.9028 37.0857 32.0448C37.2456 32.5646 37.0324 33.0667 36.6058 33.1689C32.1492 34.2531 27.7903 35.6038 23.4714 37.1501C22.8537 37.3856 22.1828 37.079 22.0184 36.4836C21.6718 35.2128 21.4985 34.5774 21.1564 33.3111C21.0098 32.7779 21.3208 32.2003 21.8673 32.0003Z" fill="#F90017"/>
</svg>
