<svg width="542" height="175" viewBox="0 0 542 175" fill="none" xmlns="http://www.w3.org/2000/svg">
<g clip-path="url(#clip0_1100_2935)">
<line x1="-267.5" y1="149.5" x2="571.5" y2="149.5" stroke="#E2E8F0" stroke-opacity="0.12" stroke-linecap="round" stroke-linejoin="round" stroke-dasharray="3.5 3.5"/>
<line x1="-267.5" y1="99.5" x2="571.5" y2="99.5001" stroke="#E2E8F0" stroke-opacity="0.12" stroke-linecap="round" stroke-linejoin="round" stroke-dasharray="3.5 3.5"/>
<line x1="-267.5" y1="49.5" x2="571.5" y2="49.5001" stroke="#E2E8F0" stroke-opacity="0.12" stroke-linecap="round" stroke-linejoin="round" stroke-dasharray="3.5 3.5"/>
<path d="M457.203 169.545C500.811 156.448 551.904 175.003 572 185.917V249.75H-268V0C-225.799 7.49219 -198.67 69.0946 -191.888 108.22C-186.356 140.132 -186.11 162.886 -156.72 169.545C-127.173 176.24 -92.1412 154.936 -62.5 126.077C-38.7871 102.99 -3.38519 116.457 11.3516 126.077C37.476 142.819 80.5096 154.172 115.074 137.079C158.28 115.713 182.144 121.817 236.653 137.079C291.163 152.341 285.636 162.053 331.103 185.917C376.569 209.781 402.694 185.917 457.203 169.545Z" fill="url(#paint0_linear_1100_2935)" stroke="white" stroke-opacity="0.12" stroke-width="2"/>
<path d="M572 185.917C551.904 175.003 500.811 156.448 457.203 169.545C402.694 185.917 376.569 209.781 331.103 185.917C285.636 162.053 291.163 152.341 236.653 137.079C182.144 121.817 158.28 115.713 115.074 137.079C80.5096 154.172 37.476 142.819 11.3516 126.077C-3.38522 116.457 -38.7871 102.99 -62.5 126.077C-92.1411 154.936 -127.173 176.24 -156.72 169.545C-186.11 162.886 -186.356 140.132 -191.888 108.22C-198.67 69.0946 -225.799 7.49219 -268 0" stroke="white" stroke-opacity="0.12" stroke-width="2"/>
<path d="M-154.086 142.457C-197.358 129.369 -248.059 147.91 -268 158.817V249.5H571V34.9074C529.123 42.3941 493.55 40.4526 486.82 79.5498C481.331 111.438 481.087 134.175 451.923 140.83C422.603 147.52 405.559 108.387 376.146 79.5498C352.615 56.4798 312.986 86.5 298.362 96.1125C272.439 112.842 213.507 76.3408 187.967 47.648C151.5 6.67808 103.543 2.93083 67.3232 47.648C31.1038 92.3652 -4.82242 55.7034 -49.9394 79.5498C-95.0564 103.396 -99.9954 158.817 -154.086 142.457Z" fill="url(#paint1_linear_1100_2935)"/>
<path d="M-268 159C-248.059 148.079 -197.358 129.515 -154.086 142.619C-99.9954 159 -95.0564 103.509 -49.9394 79.6318C-4.82241 55.7548 31.1038 92.4636 67.3232 47.6892C103.543 2.91473 151.5 6.66678 187.967 47.6892C213.507 76.4187 272.439 112.967 298.362 96.2157C312.986 86.5909 352.615 56.5322 376.146 79.6318C405.559 108.506 422.603 147.689 451.923 140.99C481.087 134.327 481.331 111.56 486.82 79.6318C493.55 40.4846 529.123 42.4285 571 34.9323" stroke="url(#paint2_linear_1100_2935)" stroke-width="2"/>
<circle cx="165.525" cy="27.9856" r="9.52544" fill="#F8F8F8" fill-opacity="0.01"/>
<circle cx="165.525" cy="27.9856" r="9.52544" fill="#10081A"/>
<circle cx="165.525" cy="27.9856" r="8.33476" stroke="url(#paint3_linear_1100_2935)" stroke-opacity="0.38" stroke-width="2.38136"/>
<circle cx="165.527" cy="27.9866" r="4.76272" fill="url(#paint4_linear_1100_2935)"/>
<g clip-path="url(#clip1_1100_2935)">
<path d="M190.708 29.2861C190.424 29.22 190.135 29.153 189.893 29.1196C189.664 29.088 189.224 29.0426 188.783 29.2558C188.278 29.5002 187.912 29.963 187.792 30.5115C187.686 30.99 187.832 31.4075 187.916 31.6229C188.005 31.8498 188.137 32.1154 188.267 32.3772L197.488 50.918C197.65 51.2435 197.805 51.5558 197.95 51.7933C198.073 51.994 198.349 52.4323 198.862 52.6381C199.423 52.863 200.059 52.7968 200.562 52.4611C201.021 52.1539 201.201 51.6683 201.28 51.4466C201.373 51.1843 201.46 50.8467 201.552 50.4947L203.735 42.0848L211.411 38.0126C211.732 37.8423 212.04 37.6789 212.273 37.5278C212.471 37.4001 212.902 37.1124 213.094 36.5942C213.304 36.0274 213.221 35.3935 212.872 34.8999C212.553 34.4485 212.063 34.2812 211.839 34.2085C211.575 34.1226 211.235 34.0439 210.881 33.9618L190.708 29.2861Z" fill="#121212" stroke="#F8F8F8" stroke-width="2.19818" stroke-linecap="round" stroke-linejoin="round"/>
</g>
<path d="M303.08 0.000488281H236.96C230.907 0.000488281 226 4.30951 226 9.62496V27.2961C226 32.6116 230.907 36.9206 236.96 36.9206H303.08C309.133 36.9206 314.04 32.6116 314.04 27.2961V9.62496C314.04 4.30951 309.133 0.000488281 303.08 0.000488281Z" fill="#292239" stroke="#F8F8F8" stroke-opacity="0.19" stroke-width="1.46545"/>
<path d="M241.652 26.7822V24.77C240.446 24.61 239.48 24.1424 238.753 23.3671C238.027 22.5917 237.634 21.6011 237.572 20.395H239.436C239.51 21.2319 239.812 21.8964 240.341 22.3887C240.883 22.881 241.602 23.1271 242.501 23.1271C243.362 23.1271 244.045 22.961 244.55 22.6287C245.054 22.2841 245.307 21.7734 245.307 21.0965C245.307 20.6781 245.171 20.3273 244.901 20.0443C244.63 19.7612 244.279 19.5397 243.848 19.3797C243.418 19.2197 242.944 19.072 242.427 18.9367C241.91 18.8013 241.393 18.6475 240.876 18.4752C240.359 18.3029 239.886 18.0937 239.455 17.8475C239.024 17.5891 238.673 17.226 238.403 16.7584C238.132 16.2907 237.997 15.7369 237.997 15.097C237.997 14.174 238.329 13.4048 238.993 12.7895C239.658 12.1618 240.544 11.7803 241.652 11.6449V9.74356H243.313V11.6634C244.384 11.8234 245.251 12.248 245.916 12.9371C246.581 13.614 246.944 14.4693 247.005 15.5031H245.159C245.085 14.8385 244.802 14.3093 244.31 13.9155C243.818 13.5094 243.184 13.3063 242.409 13.3063C241.633 13.3063 241.018 13.4663 240.563 13.7863C240.12 14.1063 239.898 14.5432 239.898 15.097C239.898 15.5154 240.033 15.8661 240.304 16.1492C240.575 16.4322 240.926 16.6476 241.356 16.7953C241.799 16.943 242.279 17.0783 242.796 17.2014C243.325 17.3245 243.848 17.4722 244.365 17.6445C244.895 17.8168 245.374 18.0321 245.805 18.2906C246.248 18.5367 246.605 18.8997 246.876 19.3797C247.147 19.8474 247.282 20.4135 247.282 21.078C247.282 22.1118 246.919 22.9548 246.193 23.6071C245.479 24.2593 244.519 24.6531 243.313 24.7885V26.7822H241.652ZM252.909 24.8254C251.703 24.8254 250.687 24.4624 249.863 23.7363C249.038 23.0102 248.577 22.0872 248.478 20.9673H250.306C250.392 21.6564 250.663 22.1918 251.118 22.5733C251.586 22.9425 252.182 23.1271 252.909 23.1271C253.782 23.1271 254.472 22.8871 254.976 22.4071C255.493 21.9149 255.751 21.2503 255.751 20.4135C255.751 19.5766 255.493 18.9059 254.976 18.4013C254.472 17.8844 253.788 17.626 252.927 17.626C251.61 17.626 250.749 18.0813 250.343 18.992H248.718L249.752 11.7557H256.804V13.454H251.192L250.675 16.943C251.364 16.3153 252.213 16.0015 253.222 16.0015C254.539 16.0015 255.616 16.4138 256.453 17.2383C257.29 18.0629 257.708 19.1213 257.708 20.4135C257.708 21.718 257.259 22.7825 256.361 23.6071C255.462 24.4193 254.312 24.8254 252.909 24.8254ZM264.135 16.0384C265.476 16.0384 266.565 16.4569 267.402 17.2937C268.251 18.1183 268.676 19.1643 268.676 20.4319C268.676 21.6995 268.227 22.7517 267.328 23.5886C266.442 24.4131 265.328 24.8254 263.987 24.8254C262.473 24.8254 261.279 24.2716 260.406 23.164C259.544 22.0564 259.113 20.6042 259.113 18.8074C259.113 16.5061 259.581 14.7278 260.516 13.4725C261.464 12.2172 262.695 11.5896 264.208 11.5896C265.439 11.5896 266.467 11.9218 267.291 12.5864C268.128 13.2387 268.627 14.0878 268.787 15.1339H266.922C266.799 14.5555 266.497 14.1001 266.018 13.7678C265.55 13.4233 264.965 13.251 264.264 13.251C263.316 13.251 262.535 13.6879 261.919 14.5616C261.304 15.4354 260.966 16.543 260.904 17.8844C261.175 17.3429 261.612 16.8999 262.215 16.5553C262.83 16.2107 263.47 16.0384 264.135 16.0384ZM262.049 22.3702C262.553 22.8748 263.205 23.1271 264.005 23.1271C264.805 23.1271 265.458 22.8748 265.962 22.3702C266.467 21.8657 266.719 21.2134 266.719 20.4135C266.719 19.6258 266.467 18.9859 265.962 18.4936C265.458 17.989 264.805 17.7368 264.005 17.7368C263.205 17.7368 262.553 17.989 262.049 18.4936C261.544 18.9859 261.292 19.6258 261.292 20.4135C261.292 21.2134 261.544 21.8657 262.049 22.3702ZM272.004 24.6777C272.016 23.5086 272.151 22.4256 272.41 21.4288C272.681 20.4319 273.197 19.3182 273.961 18.0875L276.84 13.454H269.604V11.7557H279V13.2879L275.53 18.9551C274.902 19.9889 274.477 20.9365 274.256 21.798C274.047 22.6594 273.936 23.6194 273.924 24.6777H272.004ZM278.381 22.7025H280.375V24.6777H278.381V22.7025ZM286.323 24.8254C284.772 24.8254 283.628 24.3147 282.889 23.2932C282.163 22.2595 281.8 20.7334 281.8 18.7151V17.7183C281.8 15.7 282.163 14.1801 282.889 13.1587C283.628 12.1249 284.772 11.608 286.323 11.608H286.987C288.55 11.608 289.695 12.1249 290.421 13.1587C291.147 14.1801 291.51 15.7 291.51 17.7183V18.7151C291.51 20.7334 291.147 22.2595 290.421 23.2932C289.695 24.3147 288.55 24.8254 286.987 24.8254H286.323ZM286.932 23.1271C288.704 23.1271 289.59 21.7795 289.59 19.0843V17.3491C289.59 14.6539 288.704 13.3063 286.932 13.3063H286.397C284.624 13.3063 283.738 14.6539 283.738 17.3491V19.0843C283.738 21.7795 284.624 23.1271 286.397 23.1271H286.932ZM293.332 16.0569C293.283 14.6909 293.658 13.6079 294.458 12.8079C295.258 12.008 296.341 11.608 297.707 11.608C298.987 11.608 300.027 11.9711 300.827 12.6972C301.627 13.411 302.027 14.3524 302.027 15.5216C302.027 17.2322 301.018 18.6044 299 19.6381L297.098 20.5981C296.544 20.8688 296.071 21.2134 295.677 21.6318C295.295 22.0379 295.104 22.4871 295.104 22.9794H302.064V24.6777H293.222V23.2932C293.222 22.6041 293.394 21.958 293.738 21.3549C294.083 20.7519 294.465 20.2781 294.883 19.9335C295.314 19.5766 295.781 19.2751 296.286 19.029L298.298 18.0137C299.48 17.4106 300.07 16.5738 300.07 15.5031C300.07 14.8262 299.849 14.2847 299.406 13.8786C298.975 13.4602 298.409 13.251 297.707 13.251C296.932 13.251 296.323 13.5094 295.88 14.0263C295.449 14.5309 295.252 15.2077 295.289 16.0569H293.332Z" fill="white" fill-opacity="0.59"/>
</g>
<defs>
<linearGradient id="paint0_linear_1100_2935" x1="152" y1="0" x2="152" y2="249.75" gradientUnits="userSpaceOnUse">
<stop stop-color="#2D3748" stop-opacity="0.36"/>
<stop offset="1" stop-color="#2D3748" stop-opacity="0"/>
</linearGradient>
<linearGradient id="paint1_linear_1100_2935" x1="173.5" y1="-65.5" x2="151" y2="179.5" gradientUnits="userSpaceOnUse">
<stop stop-color="#4F6DD1" stop-opacity="0.35"/>
<stop offset="1" stop-color="#B54FD1" stop-opacity="0"/>
</linearGradient>
<linearGradient id="paint2_linear_1100_2935" x1="587.5" y1="56" x2="-91.1851" y2="55.4495" gradientUnits="userSpaceOnUse">
<stop stop-color="#EAAEFF" stop-opacity="0"/>
<stop offset="0.157342" stop-color="#EAAEFF"/>
<stop offset="0.442294" stop-color="#9C40FF"/>
<stop offset="1" stop-color="#7654FF" stop-opacity="0"/>
</linearGradient>
<linearGradient id="paint3_linear_1100_2935" x1="165.525" y1="18.4602" x2="173.813" y2="39.3804" gradientUnits="userSpaceOnUse">
<stop stop-color="white" stop-opacity="0.4"/>
<stop offset="0.4" stop-color="white" stop-opacity="0.01"/>
<stop offset="0.6" stop-color="white" stop-opacity="0.01"/>
<stop offset="1" stop-color="white" stop-opacity="0.1"/>
</linearGradient>
<linearGradient id="paint4_linear_1100_2935" x1="159.968" y1="34.7024" x2="171.632" y2="34.418" gradientUnits="userSpaceOnUse">
<stop stop-color="#5020FF"/>
<stop offset="0.785636" stop-color="#B06AF6"/>
<stop offset="1" stop-color="#EDCAFF"/>
</linearGradient>
<clipPath id="clip0_1100_2935">
<rect width="542" height="175" fill="white"/>
</clipPath>
<clipPath id="clip1_1100_2935">
<rect width="29.309" height="29.309" fill="white" transform="translate(184.391 26.8088) rotate(-6.6968)"/>
</clipPath>
</defs>
</svg>
