<svg width="332" height="31" viewBox="0 0 332 31" fill="none" xmlns="http://www.w3.org/2000/svg">
<path d="M331.5 0.75C330.687 0.75 318.303 0.75 308.07 0.75C302.87 0.75 297.877 2.77529 294.145 6.39646L290.015 10.4035C286.283 14.0247 281.288 16.05 276.088 16.05H33.66" stroke="url(#paint0_linear_1098_2687)" stroke-width="1.5"/>
<path d="M331.5 0.75C330.687 0.75 318.303 0.75 308.07 0.75C302.87 0.75 297.877 2.77529 294.145 6.39646L290.015 10.4035C286.283 14.0247 281.288 16.05 276.088 16.05H33.66" stroke="url(#paint1_linear_1098_2687)" stroke-width="1.5"/>
<line x1="220.32" y1="30.0601" x2="-6.55671e-08" y2="30.06" stroke="url(#paint2_linear_1098_2687)" stroke-width="1.5"/>
<defs>
<linearGradient id="paint0_linear_1098_2687" x1="33.66" y1="8.4" x2="331.5" y2="8.4" gradientUnits="userSpaceOnUse">
<stop stop-color="#020810" stop-opacity="0"/>
<stop offset="1" stop-color="#FFC100"/>
</linearGradient>
<linearGradient id="paint1_linear_1098_2687" x1="-101" y1="4.80682" x2="277.773" y2="39.2658" gradientUnits="userSpaceOnUse">
<stop offset="0.355769" stop-color="#7654FF" stop-opacity="0"/>
<stop offset="0.826923" stop-color="#C96AF6"/>
<stop offset="1" stop-color="#ECC5FF"/>
</linearGradient>
<linearGradient id="paint2_linear_1098_2687" x1="4.37114e-08" y1="28.81" x2="220.32" y2="28.8101" gradientUnits="userSpaceOnUse">
<stop stop-color="#020810"/>
<stop offset="1" stop-color="#BBC4D0"/>
</linearGradient>
</defs>
</svg>
