<svg width="371" height="31" viewBox="0 0 371 31" fill="none" xmlns="http://www.w3.org/2000/svg">
<g clip-path="url(#clip0_1027_2317)">
<g opacity="0.4">
<path fill-rule="evenodd" clip-rule="evenodd" d="M22.0746 23.6054C21.993 23.476 21.9739 12.5964 22.055 12.3841C22.1012 12.2627 22.2668 12.2465 23.2516 12.2675L24.3944 12.2919L24.4178 14.2854L24.4412 16.2792L24.8371 15.9752C25.9511 15.1198 27.8093 15.1569 28.4853 16.048C28.9855 16.7074 28.9988 16.8198 29.003 20.3866L29.0067 23.6682H27.8319H26.657L26.6135 20.7612C26.5773 18.3383 26.5792 17.7662 26.3067 17.5575C26.2118 17.4849 26.0838 17.4563 25.9092 17.4091C25.6091 17.3278 25.477 17.3354 25.1752 17.4513C24.9817 17.5256 24.8425 17.5703 24.7414 17.659C24.4678 17.8991 24.4737 18.4622 24.4379 20.8113L24.3944 23.6682L23.2698 23.6928C22.4286 23.7112 22.1275 23.6892 22.0746 23.6054ZM39.624 14.4735C39.8155 13.897 40.0049 13.3754 40.0448 13.3143C40.0951 13.2375 40.3095 13.2113 40.741 13.229L41.3646 13.2546L41.3889 14.3672L41.4132 15.48L42.3027 15.5048L43.192 15.5298L43.2167 16.5143L43.2414 17.4988H42.3247H41.4081V19.4073C41.4081 20.9033 41.4344 21.3519 41.5296 21.483C41.6281 21.6185 41.7974 21.659 42.4216 21.6966L43.192 21.7431V22.6098V23.4766L42.7134 23.6467C42.006 23.8979 40.8939 23.8921 40.3087 23.6339C39.7639 23.3935 39.4783 23.105 39.216 22.5306C39.0268 22.1162 39.0147 21.972 38.9864 19.7959L38.9563 17.4988H38.4417H37.927V16.7138V15.9288L38.6014 15.7253L39.2759 15.5217L39.624 14.4735ZM72.9094 14.4359C73.064 13.9305 73.228 13.4464 73.2737 13.3601C73.344 13.2276 73.4538 13.2073 73.9828 13.2289L74.6086 13.2546L74.633 14.3672L74.6572 15.48L75.5468 15.5048L76.4362 15.5298L76.4607 16.5112L76.4853 17.4926L75.5905 17.5176L74.6957 17.5425L74.6723 19.4382L74.6487 21.3339L74.8798 21.5166C75.0696 21.6668 75.2328 21.6993 75.7983 21.6993H76.4858L76.461 22.5907L76.4362 23.482L75.9575 23.6543C75.3374 23.8775 74.1522 23.8897 73.6561 23.6781C73.1167 23.448 72.7724 23.1391 72.5506 22.6861C72.355 22.2866 72.344 22.1633 72.3024 19.9053L72.2589 17.5425L71.7367 17.4988L71.2146 17.455L71.189 16.7685C71.1746 16.3804 71.2029 16.0342 71.2542 15.9721C71.3042 15.9116 71.5981 15.7932 71.9074 15.709C72.2166 15.6248 72.5054 15.5107 72.549 15.4554C72.5927 15.4 72.7548 14.9413 72.9094 14.4359ZM30.7017 16.6405C31.1763 15.9817 32.0005 15.5401 33.01 15.4038C33.3726 15.3547 33.5526 15.3294 33.7329 15.3278C33.9256 15.3259 34.1185 15.3511 34.5353 15.4032C36.6863 15.6719 37.6633 16.9826 37.6633 19.599C37.6633 22.2403 36.6908 23.5385 34.5116 23.8066C32.6797 24.0319 31.1511 23.4373 30.5079 22.2489C29.6798 20.719 29.7763 17.9249 30.7017 16.6405ZM47.1411 16.1537C47.4371 15.837 48.1201 15.4971 48.6413 15.4072C49.7979 15.2079 50.8451 15.6089 51.1592 16.3714C51.2164 16.5102 51.2781 16.6237 51.2964 16.6237C51.3146 16.6237 51.4738 16.4631 51.65 16.2668C52.0593 15.8114 52.6404 15.5164 53.3539 15.4018C54.7277 15.181 55.6782 15.7359 55.9828 16.9365C56.0946 17.377 56.1138 17.9996 56.0948 20.5682L56.072 23.6682H54.8971H53.7223L53.6788 20.7366C53.6549 19.1243 53.6065 17.7606 53.5713 17.7064C53.478 17.5618 52.9442 17.3238 52.7141 17.3238C52.4251 17.3238 51.8286 17.637 51.6771 17.8682C51.5705 18.0312 51.5387 18.5794 51.5031 20.868L51.4596 23.6682L50.3064 23.6927L49.1534 23.7171V20.9098C49.1534 18.6235 49.1299 18.0569 49.0267 17.8563C48.893 17.5961 48.4265 17.3238 48.1149 17.3238C47.8104 17.3238 47.3677 17.5489 47.1664 17.8062C46.982 18.0419 46.9777 18.1106 46.9764 20.7704C46.9756 22.2679 46.9433 23.5437 46.9042 23.6054C46.8514 23.6892 46.5503 23.7112 45.709 23.6928L44.5845 23.6682V19.599V15.5298H45.6289H46.6731L46.8103 15.9454L46.9475 16.361L47.1411 16.1537ZM57.5732 15.7633C57.7835 15.6542 58.7118 15.4901 59.5966 15.4056C60.6622 15.3038 60.6938 15.3037 61.5546 15.4013C62.8798 15.5517 63.5822 16.0466 63.8508 17.0191C63.9128 17.2439 63.9471 18.4937 63.9474 20.5398L63.9479 23.712H62.8582C62.1332 23.712 61.8787 23.724 61.7493 23.6018C61.6665 23.5235 61.635 23.3903 61.564 23.1639C61.5216 23.0286 61.4667 23.0473 61.1183 23.3146C60.6235 23.6944 60.1726 23.8242 59.3332 23.8285C58.7698 23.8313 58.6125 23.7959 58.2086 23.5749C57.3456 23.1032 56.9473 22.2741 56.9989 21.0571C57.0382 20.1257 57.2934 19.5887 57.8878 19.1857C58.4844 18.7812 58.7841 18.7153 60.271 18.6612L61.5981 18.613V18.2942C61.5981 17.5516 61.1476 17.3984 59.0146 17.4156C58.2387 17.422 57.5626 17.4015 57.5123 17.3702C57.4602 17.3378 57.4209 16.9973 57.4209 16.5778C57.4209 15.9657 57.4464 15.829 57.5732 15.7633ZM68.0262 16.283C68.5035 15.7778 68.9926 15.5119 69.6235 15.4144C69.8763 15.3753 70.1333 15.3605 70.1943 15.3812C70.279 15.41 70.2997 15.7047 70.2814 16.6121L70.2573 17.805L69.474 17.8542C68.5811 17.9103 68.1216 18.077 67.8926 18.4282C67.7507 18.6455 67.7289 18.9432 67.69 21.1701L67.6465 23.6682H66.4717H65.2968V19.599V15.5298L66.3205 15.5051C66.9575 15.4898 67.2307 15.4736 67.3687 15.6034C67.4823 15.7103 67.5042 15.9161 67.5619 16.3029L67.6226 16.71L68.0262 16.283ZM35.0915 19.5994C35.0883 18.3244 34.9235 17.7909 34.4579 17.5487C34.1745 17.4015 33.5619 17.3749 33.2613 17.4971C32.7677 17.6976 32.5313 18.4028 32.5313 19.675C32.5313 21.1497 32.9084 21.788 33.7781 21.7854C34.3915 21.7837 34.6259 21.6444 34.8788 21.1309C35.0738 20.735 35.0939 20.5906 35.0915 19.5994ZM60.4706 22.0292C61.1775 21.9608 61.5981 21.4307 61.5981 20.6082V20.2116L60.7497 20.2171C60.283 20.2202 59.8151 20.2576 59.7099 20.3001C59.4821 20.3924 59.2484 20.8128 59.2484 21.1305C59.2484 21.7497 59.7264 22.1011 60.4706 22.0292Z" fill="#FEFEFE" fill-opacity="0.7"/>
<path fill-rule="evenodd" clip-rule="evenodd" d="M9.25179 3.40188C7.82969 4.07117 6.72202 5.3097 5.86351 7.19066C5.70311 7.54201 5.35197 8.43742 5.08314 9.18051C4.49806 10.7981 4.40755 10.9564 4.08999 10.9195C3.87408 10.8945 3.85415 10.8578 3.83022 10.4427C3.8136 10.1555 3.87016 9.79626 3.98687 9.44803C4.28545 8.55669 4.17867 8.6092 3.2407 9.8149C2.28898 11.0384 1.26599 12.9979 0.720591 14.6421C-0.290308 17.6897 -0.236177 20.5602 0.874106 22.7937C2.01799 25.0948 4.11984 26.85 6.47792 27.4737C8.09521 27.9014 9.53602 27.9005 11.1638 27.4712C13.4602 26.8652 15.5438 25.1691 16.6401 23.0134C17.4524 21.416 17.6916 20.2362 17.625 18.1557C17.5728 16.5289 17.3278 15.2149 16.7774 13.6096C16.2431 12.0515 15.2654 10.061 15.0345 10.061C14.9909 10.061 14.9793 10.2367 15.0087 10.4525C15.0817 10.9879 14.8901 11.2862 14.4734 11.2862C14.0647 11.2862 13.9507 11.0844 13.7297 9.96954C13.4804 8.71203 13.1137 7.97107 12.3985 7.28053C11.7888 6.69185 11.499 6.56819 11.6472 6.96006C11.6938 7.08354 11.732 7.44102 11.732 7.7544C11.732 8.27194 11.7079 8.3486 11.4688 8.58898C11.2578 8.80107 11.1595 8.84204 10.9737 8.79527C10.6095 8.70336 10.2954 8.43689 9.99388 7.96451C9.17821 6.68616 9.08387 5.22666 9.72099 3.73723C10.0067 3.06917 9.98773 3.05561 9.25179 3.40188ZM11.6516 16.0061C11.0538 15.4061 10.5627 15.1162 9.79519 14.9109C8.50641 14.5658 7.10685 14.9342 6.0822 15.888C3.96607 17.8582 4.49763 21.314 7.10868 22.5609C7.69916 22.8428 7.8619 22.8805 8.62207 22.9112C9.32283 22.9395 9.57743 22.9119 10.0589 22.7557C11.6355 22.2442 12.7358 20.8181 12.8421 19.1487C12.9216 17.9009 12.5425 16.9004 11.6516 16.0061Z" fill="white"/>
<path fill-rule="evenodd" clip-rule="evenodd" d="M124.725 14.8028C124.645 14.8955 124.575 14.9987 124.514 15.1125C124.368 15.3856 124.294 15.7062 124.294 16.0746C124.294 16.4473 124.368 16.7724 124.514 17.0497C124.55 17.1159 124.588 17.1784 124.63 17.2375C123.74 24.6137 117.459 30.33 109.842 30.33C101.616 30.33 94.9479 23.6613 94.9479 15.435C94.9479 7.20878 101.616 0.5401 109.842 0.5401C117.858 0.5401 124.393 6.86982 124.725 14.8028ZM116.412 16.8872V14.7875H117.342V14.2999H116.412V13.4029H115.821V14.2999H115.359V14.7875H115.821V16.8872C115.821 17.2339 115.903 17.4831 116.068 17.6348C116.232 17.7865 116.479 17.8623 116.809 17.8623H117.342V17.3617H116.906C116.724 17.3617 116.596 17.3271 116.523 17.2577C116.449 17.1841 116.412 17.0605 116.412 16.8872ZM106.229 14.4104C106.012 14.2934 105.765 14.235 105.488 14.235C105.206 14.235 104.95 14.3042 104.72 14.443C104.491 14.5816 104.327 14.7767 104.226 15.028C104.114 14.768 103.942 14.5708 103.713 14.4365C103.484 14.3021 103.219 14.235 102.92 14.235C102.682 14.235 102.463 14.2848 102.263 14.3844C102.068 14.4841 101.912 14.6272 101.796 14.8135V14.2999H101.204V17.8623H101.796V15.8991C101.796 15.5264 101.886 15.2426 102.068 15.0476C102.25 14.8482 102.495 14.7485 102.803 14.7485C103.102 14.7485 103.338 14.8439 103.512 15.0346C103.689 15.2208 103.778 15.4917 103.778 15.8471V17.8623H104.364V15.8991C104.364 15.5264 104.454 15.2426 104.636 15.0476C104.818 14.8482 105.063 14.7485 105.371 14.7485C105.67 14.7485 105.906 14.8439 106.08 15.0346C106.257 15.2208 106.346 15.4917 106.346 15.8471V17.8623H106.931V15.7626C106.931 15.4332 106.868 15.1537 106.743 14.924C106.617 14.6943 106.445 14.5232 106.229 14.4104ZM107.901 15.1125C107.754 15.3856 107.681 15.7041 107.681 16.0682C107.681 16.4278 107.754 16.7485 107.901 17.0302C108.049 17.3119 108.25 17.5308 108.506 17.6868C108.762 17.8428 109.048 17.9208 109.364 17.9208C109.672 17.9208 109.94 17.8536 110.17 17.7193C110.404 17.5807 110.579 17.4073 110.697 17.1993V17.8623H111.295V14.2999H110.697V14.95C110.584 14.7464 110.413 14.5773 110.183 14.443C109.953 14.3086 109.682 14.2415 109.37 14.2415C109.054 14.2415 108.765 14.3173 108.506 14.469C108.25 14.6207 108.049 14.8352 107.901 15.1125ZM110.534 15.3726C110.642 15.5719 110.697 15.8059 110.697 16.0746C110.697 16.3433 110.642 16.5795 110.534 16.7832C110.425 16.9826 110.278 17.1364 110.092 17.2447C109.91 17.3487 109.709 17.4008 109.487 17.4008C109.267 17.4008 109.065 17.3487 108.883 17.2447C108.701 17.1364 108.555 16.9826 108.447 16.7832C108.339 16.5795 108.285 16.3411 108.285 16.0682C108.285 15.7994 108.339 15.5654 108.447 15.3661C108.555 15.1667 108.701 15.015 108.883 14.911C109.065 14.807 109.267 14.755 109.487 14.755C109.709 14.755 109.91 14.8091 110.092 14.9175C110.278 15.0215 110.425 15.1732 110.534 15.3726ZM113.555 17.9208C113.282 17.9208 113.037 17.8753 112.821 17.7843C112.604 17.689 112.433 17.5589 112.308 17.3943C112.182 17.2252 112.112 17.0324 112.099 16.8157H112.71C112.728 16.9934 112.81 17.1385 112.957 17.2512C113.109 17.3639 113.306 17.4203 113.549 17.4203C113.774 17.4203 113.952 17.3704 114.082 17.2708C114.212 17.1711 114.277 17.0454 114.277 16.8937C114.277 16.7377 114.207 16.6228 114.069 16.5491C113.93 16.4712 113.716 16.3953 113.426 16.3216C113.161 16.2523 112.944 16.183 112.775 16.1136C112.611 16.0399 112.468 15.9337 112.346 15.7951C112.229 15.6521 112.17 15.4658 112.17 15.2361C112.17 15.054 112.225 14.8872 112.333 14.7355C112.442 14.5838 112.596 14.4646 112.795 14.3779C112.994 14.2869 113.222 14.2415 113.478 14.2415C113.872 14.2415 114.191 14.3411 114.433 14.5405C114.676 14.7399 114.806 15.0128 114.823 15.3596H114.231C114.219 15.1732 114.142 15.0237 114.004 14.911C113.87 14.7983 113.688 14.742 113.457 14.742C113.246 14.742 113.077 14.7875 112.951 14.8785C112.825 14.9695 112.762 15.0887 112.762 15.2361C112.762 15.3531 112.799 15.4506 112.873 15.5285C112.951 15.6022 113.046 15.6629 113.159 15.7106C113.275 15.754 113.436 15.8038 113.64 15.8601C113.895 15.9294 114.104 15.9988 114.264 16.0682C114.424 16.1331 114.561 16.2328 114.673 16.3672C114.79 16.5015 114.851 16.677 114.855 16.8937C114.855 17.0888 114.802 17.2642 114.693 17.4203C114.585 17.5763 114.431 17.6998 114.231 17.7908C114.037 17.8775 113.811 17.9208 113.555 17.9208ZM121.309 15.9446C121.309 16.0573 121.302 16.1765 121.289 16.3021H118.442C118.463 16.6532 118.583 16.9284 118.799 17.1277C119.021 17.3227 119.287 17.4203 119.599 17.4203C119.855 17.4203 120.067 17.3617 120.237 17.2447C120.41 17.1234 120.531 16.9631 120.601 16.7637H121.237C121.142 17.1061 120.951 17.3856 120.666 17.6023C120.379 17.8146 120.024 17.9208 119.599 17.9208C119.261 17.9208 118.957 17.845 118.689 17.6933C118.425 17.5416 118.216 17.3271 118.065 17.0497C117.913 16.7681 117.837 16.443 117.837 16.0746C117.837 15.7062 117.911 15.3834 118.059 15.106C118.206 14.8287 118.411 14.6163 118.676 14.469C118.945 14.3173 119.253 14.2415 119.599 14.2415C119.937 14.2415 120.237 14.3151 120.496 14.4625C120.756 14.6098 120.956 14.8135 121.095 15.0735C121.237 15.3292 121.309 15.6196 121.309 15.9446ZM120.698 15.8211C120.698 15.5957 120.648 15.4029 120.549 15.2426C120.448 15.0779 120.312 14.9544 120.139 14.872C119.969 14.7853 119.781 14.742 119.573 14.742C119.274 14.742 119.018 14.8374 118.806 15.028C118.598 15.2187 118.479 15.4831 118.448 15.8211H120.698ZM123.124 14.4039C122.933 14.5166 122.785 14.6748 122.681 14.8785V14.2999H122.09V17.8623H122.681V15.9251C122.681 15.2057 123.013 14.846 123.676 14.846H123.832V14.235C123.554 14.235 123.318 14.2913 123.124 14.4039Z" fill="#FEFEFE" fill-opacity="0.7"/>
<path fill-rule="evenodd" clip-rule="evenodd" d="M115.518 14.7875C115.508 15.0022 115.504 15.2181 115.504 15.435C115.504 23.6613 122.172 30.33 130.399 30.33C138.625 30.33 145.294 23.6613 145.294 15.435C145.294 7.20878 138.625 0.540099 130.399 0.5401C122.555 0.540101 116.126 6.60403 115.546 14.3H115.821V13.4029H116.412V14.3H117.341V14.7875H116.412V16.8873C116.412 17.0606 116.449 17.1842 116.523 17.2578C116.596 17.3271 116.724 17.3618 116.906 17.3618H117.341V17.8623H116.809C116.479 17.8623 116.232 17.7865 116.068 17.6348C115.903 17.4832 115.821 17.2339 115.821 16.8873V14.7875H115.518ZM135.281 15.1126C135.134 15.3856 135.061 15.7041 135.061 16.0682C135.061 16.4279 135.134 16.7485 135.281 17.0303C135.429 17.312 135.63 17.5308 135.886 17.6869C136.146 17.8428 136.434 17.9209 136.75 17.9209C137.058 17.9209 137.327 17.8537 137.557 17.7193C137.786 17.5807 137.96 17.4052 138.077 17.1928V17.8623H138.675V13.0519H138.077V14.9371C137.951 14.7291 137.769 14.5622 137.531 14.4365C137.292 14.3065 137.034 14.2415 136.757 14.2415C136.437 14.2415 136.146 14.3173 135.886 14.469C135.63 14.6207 135.429 14.8353 135.281 15.1126ZM137.914 15.3726C138.022 15.572 138.077 15.806 138.077 16.0747C138.077 16.3433 138.022 16.5796 137.914 16.7833C137.806 16.9826 137.659 17.1364 137.472 17.2448C137.29 17.3488 137.089 17.4008 136.867 17.4008C136.647 17.4008 136.445 17.3488 136.263 17.2448C136.081 17.1364 135.935 16.9826 135.827 16.7833C135.719 16.5796 135.665 16.3412 135.665 16.0682C135.665 15.7995 135.719 15.5655 135.827 15.3661C135.935 15.1668 136.081 15.015 136.263 14.911C136.445 14.807 136.647 14.7551 136.867 14.7551C137.089 14.7551 137.29 14.8092 137.472 14.9175C137.659 15.0215 137.806 15.1733 137.914 15.3726ZM121.309 15.9446C121.309 16.0574 121.302 16.1765 121.29 16.3022H118.442C118.464 16.6532 118.583 16.9284 118.8 17.1278C119.021 17.3228 119.287 17.4203 119.599 17.4203C119.855 17.4203 120.067 17.3618 120.236 17.2448C120.41 17.1234 120.531 16.9631 120.6 16.7637H121.237C121.142 17.1061 120.951 17.3857 120.666 17.6024C120.379 17.8147 120.024 17.9209 119.599 17.9209C119.261 17.9209 118.958 17.845 118.689 17.6934C118.425 17.5416 118.217 17.3271 118.065 17.0497C117.913 16.7681 117.837 16.443 117.837 16.0747C117.837 15.7063 117.911 15.3834 118.059 15.1061C118.206 14.8287 118.411 14.6163 118.676 14.469C118.945 14.3173 119.253 14.2415 119.599 14.2415C119.938 14.2415 120.236 14.3151 120.496 14.4625C120.756 14.6098 120.956 14.8135 121.095 15.0736C121.237 15.3292 121.309 15.6196 121.309 15.9446ZM120.698 15.8211C120.698 15.5958 120.648 15.4029 120.549 15.2426C120.448 15.0779 120.312 14.9544 120.139 14.8721C119.97 14.7854 119.781 14.7421 119.573 14.7421C119.274 14.7421 119.019 14.8374 118.806 15.028C118.598 15.2187 118.479 15.4831 118.448 15.8211H120.698ZM123.124 14.404C122.933 14.5167 122.785 14.6749 122.681 14.8786V14.3H122.09V17.8623H122.681V15.9251C122.681 15.2057 123.013 14.8461 123.676 14.8461H123.832V14.235C123.554 14.235 123.318 14.2913 123.124 14.404ZM124.294 16.0747C124.294 15.7063 124.368 15.3856 124.514 15.1126C124.662 14.8353 124.866 14.6207 125.125 14.469C125.39 14.3173 125.692 14.2415 126.029 14.2415C126.467 14.2415 126.827 14.3477 127.109 14.56C127.394 14.7724 127.583 15.0671 127.674 15.4441H127.037C126.976 15.2274 126.857 15.0563 126.68 14.9306C126.506 14.8049 126.289 14.7421 126.029 14.7421C125.692 14.7421 125.418 14.8591 125.211 15.0931C125.002 15.3227 124.899 15.65 124.899 16.0747C124.899 16.5037 125.002 16.8352 125.211 17.0693C125.418 17.3033 125.692 17.4203 126.029 17.4203C126.289 17.4203 126.506 17.3596 126.68 17.2383C126.853 17.1169 126.972 16.9436 127.037 16.7182H127.674C127.579 17.0823 127.388 17.3748 127.102 17.5959C126.816 17.8125 126.458 17.9209 126.029 17.9209C125.692 17.9209 125.39 17.845 125.125 17.6934C124.866 17.5416 124.662 17.3271 124.514 17.0497C124.368 16.7725 124.294 16.4473 124.294 16.0747ZM128.464 15.1126C128.316 15.3856 128.242 15.7041 128.242 16.0682C128.242 16.4279 128.316 16.7485 128.464 17.0303C128.61 17.312 128.813 17.5308 129.068 17.6869C129.323 17.8428 129.61 17.9209 129.926 17.9209C130.233 17.9209 130.502 17.8537 130.732 17.7193C130.966 17.5807 131.141 17.4073 131.258 17.1993V17.8623H131.857V14.3H131.258V14.9501C131.146 14.7464 130.974 14.5774 130.745 14.443C130.515 14.3086 130.245 14.2415 129.933 14.2415C129.616 14.2415 129.328 14.3173 129.068 14.469C128.813 14.6207 128.61 14.8353 128.464 15.1126ZM131.096 15.3726C131.205 15.572 131.258 15.806 131.258 16.0747C131.258 16.3433 131.205 16.5796 131.096 16.7833C130.988 16.9826 130.841 17.1364 130.654 17.2448C130.472 17.3488 130.27 17.4008 130.05 17.4008C129.829 17.4008 129.627 17.3488 129.445 17.2448C129.263 17.1364 129.118 16.9826 129.009 16.7833C128.901 16.5796 128.847 16.3412 128.847 16.0682C128.847 15.7995 128.901 15.5655 129.009 15.3661C129.118 15.1668 129.263 15.015 129.445 14.911C129.627 14.807 129.829 14.7551 130.05 14.7551C130.27 14.7551 130.472 14.8092 130.654 14.9175C130.841 15.0215 130.988 15.1733 131.096 15.3726ZM133.448 14.8786C133.552 14.6749 133.699 14.5167 133.89 14.404C134.085 14.2913 134.321 14.235 134.598 14.235V14.8461H134.443C133.78 14.8461 133.448 15.2057 133.448 15.9251V17.8623H132.857V14.3H133.448V14.8786Z" fill="white" fill-opacity="0.5"/>
<path fill-rule="evenodd" clip-rule="evenodd" d="M200.074 6.69604C198.042 6.78015 196.291 7.35166 195.013 8.3475C194.774 8.53411 194.319 8.97649 194.142 9.19355C193.535 9.94012 193.186 10.7759 193.059 11.7863C193.033 11.9912 193.033 12.7119 193.06 12.8924C193.234 14.106 193.898 15.0454 195.202 15.9216C195.637 16.2134 195.979 16.4108 196.965 16.9362C197.332 17.132 197.721 17.3439 197.83 17.4072C198.687 17.905 199.093 18.2992 199.226 18.7602C199.27 18.9159 199.27 19.155 199.225 19.3204C199.083 19.8431 198.59 20.2778 197.867 20.5181C197.471 20.6494 197.051 20.7145 196.524 20.7261C195.258 20.7541 193.783 20.4404 192.523 19.8747C192.335 19.7909 192.062 19.6538 192.024 19.625C192.014 19.6172 192.001 19.6143 191.997 19.6188C191.98 19.6354 191.184 23.3257 191.194 23.3357C191.216 23.3552 191.549 23.4782 191.833 23.5714C192.78 23.8823 193.871 24.1097 194.896 24.2102C195.779 24.2967 196.706 24.2993 197.522 24.2175C200.033 23.9657 202.039 22.9388 203.09 21.3673C203.687 20.4747 203.972 19.4543 203.944 18.3149C203.932 17.8596 203.879 17.5257 203.755 17.1497C203.404 16.073 202.62 15.2059 201.248 14.3759C200.935 14.1865 200.563 13.9818 199.921 13.6462C199.194 13.2666 198.921 13.1137 198.637 12.9283C198.36 12.7473 198.21 12.6301 198.064 12.4801C197.808 12.218 197.697 11.982 197.697 11.7002C197.698 11.0757 198.322 10.5409 199.297 10.3305C199.827 10.216 200.548 10.1998 201.278 10.2861C202.113 10.3849 203.074 10.6412 203.802 10.9596C203.901 11.0031 203.984 11.037 203.987 11.0349C203.988 11.0328 204.166 10.2363 204.381 9.26485C204.595 8.29342 204.773 7.48726 204.778 7.47339C204.788 7.44286 204.744 7.42316 204.439 7.32C203.557 7.02151 202.466 6.8045 201.476 6.73065C201.362 6.72223 201.231 6.71215 201.182 6.70826C201.071 6.69932 200.221 6.68994 200.074 6.69604ZM164.491 6.9779C164.481 7.00659 164.396 7.49681 164.4 7.50104C164.403 7.50315 164.503 7.5249 164.624 7.54938C165.564 7.74018 166.534 8.01555 167.387 8.33305C168.136 8.61215 168.406 8.72369 168.665 8.86018C169.13 9.10546 169.438 9.39567 169.608 9.75005C169.748 10.0405 169.74 10.0102 170.536 13.0216C170.863 14.2581 171.157 15.3667 171.188 15.4852C171.245 15.6986 172.533 20.5691 172.669 21.08C172.707 21.2262 172.897 21.942 173.09 22.6708L173.44 23.9958L175.802 23.9959H178.164L181.795 15.4905C183.792 10.8126 185.428 6.97948 185.431 6.97255C185.434 6.96534 184.426 6.95995 183.081 6.95995H180.727L180.702 7.02099C180.688 7.05456 179.64 9.65141 178.374 12.7918C177.107 15.9322 176.065 18.5113 176.058 18.5231C176.049 18.5384 176.045 18.5392 176.045 18.5261C176.044 18.4893 174.136 8.67262 174.1 8.52029C173.965 7.94376 173.601 7.47716 173.08 7.21217C172.823 7.08134 172.558 7.0061 172.247 6.97507C172.009 6.95141 164.5 6.95416 164.491 6.9779ZM187.322 6.99945C187.317 7.02117 186.491 10.8332 185.485 15.4707C184.478 20.1082 183.652 23.9236 183.648 23.9492L183.64 23.9959H185.883H188.127L189.959 15.5174C190.967 10.8543 191.795 7.02117 191.797 6.99945L191.803 6.95995H189.567H187.329L187.322 6.99945ZM212.09 6.97644C211.349 7.05184 210.804 7.47427 210.417 8.27427C210.369 8.37282 203.846 23.6973 203.732 23.978C203.726 23.9923 204.201 23.9959 206.079 23.9959H208.433L208.612 23.4896C208.71 23.2111 208.914 22.6327 209.065 22.2042L209.339 21.4252L212.211 21.4249C213.791 21.4249 215.083 21.4264 215.083 21.4283C215.083 21.4303 215.207 22.0072 215.358 22.7103L215.634 23.9887L217.714 23.9924C219.691 23.9958 219.794 23.9948 219.787 23.9709C219.778 23.9437 216.168 6.97899 216.168 6.96711C216.168 6.95433 212.219 6.96337 212.09 6.97644ZM213.689 14.7513C214.068 16.4885 214.378 17.9219 214.378 17.9365C214.378 17.9621 214.316 17.963 212.514 17.963C211.029 17.963 210.651 17.9593 210.655 17.945C210.745 17.686 212.993 11.5716 212.995 11.5802C212.998 11.5869 213.31 13.0139 213.689 14.7513Z" fill="white"/>
<path d="M238.249 3.17773H240.749V17.9506H238.249V3.17773Z" fill="white"/>
<path d="M242.34 3.17773H243.476V17.9506H242.34V3.17773Z" fill="white"/>
<path d="M245.522 3.17773H247.567V17.9506H245.522V3.17773Z" fill="white"/>
<path d="M249.385 3.17773H250.749V17.9506H249.385V3.17773Z" fill="white"/>
<path d="M252.567 3.17773H255.749V17.9506H252.567V3.17773Z" fill="white"/>
<path d="M270.294 3.17773H273.022V17.9506H270.294V3.17773Z" fill="white"/>
<path d="M258.021 3.17773H260.067V17.9506H258.021V3.17773Z" fill="white"/>
<path d="M274.84 3.17773H276.659V17.9506H274.84V3.17773Z" fill="white"/>
<path d="M262.112 3.17773H263.704V17.9506H262.112V3.17773Z" fill="white"/>
<path d="M278.477 3.17773H279.841V17.9506H278.477V3.17773Z" fill="white"/>
<path d="M266.204 3.17773H267.794V17.9506H266.204V3.17773Z" fill="white"/>
<path d="M281.886 3.17773H284.386V17.9506H281.886V3.17773Z" fill="white"/>
<path d="M243.153 23.8367C243.534 23.9606 243.838 24.1694 244.062 24.463C244.286 24.75 244.398 25.1088 244.398 25.5394C244.398 26.133 244.167 26.593 243.706 26.9191C243.244 27.2388 242.573 27.3986 241.689 27.3986H238.249V20.5488H241.491C242.309 20.5488 242.938 20.7087 243.38 21.0283C243.821 21.3414 244.043 21.7752 244.043 22.3297C244.043 22.669 243.963 22.969 243.805 23.23C243.647 23.491 243.429 23.6932 243.153 23.8367ZM239.534 21.5469V23.4355H241.353C241.802 23.4355 242.145 23.3572 242.381 23.2007C242.625 23.0375 242.747 22.8027 242.747 22.4961C242.747 22.183 242.625 21.9481 242.381 21.7915C242.145 21.6284 241.802 21.5469 241.353 21.5469H239.534ZM241.61 26.4005C242.605 26.4005 243.103 26.071 243.103 25.4122C243.103 24.7533 242.605 24.4238 241.61 24.4238H239.534V26.4005H241.61Z" fill="white"/>
<path d="M249.991 27.4959C249.286 27.4959 248.65 27.3458 248.083 27.0458C247.516 26.7391 247.071 26.3184 246.749 25.7835C246.425 25.242 246.264 24.6386 246.264 23.9731C246.264 23.3077 246.425 22.7075 246.749 22.1726C247.071 21.6311 247.516 21.2103 248.083 20.9103C248.65 20.6036 249.286 20.4503 249.991 20.4503C250.696 20.4503 251.332 20.6036 251.899 20.9103C252.466 21.2103 252.911 21.6278 253.234 22.1628C253.557 22.6978 253.718 23.3012 253.718 23.9731C253.718 24.6451 253.557 25.2485 253.234 25.7835C252.911 26.3184 252.466 26.7391 251.899 27.0458C251.332 27.3458 250.696 27.4959 249.991 27.4959ZM249.991 26.3803C250.452 26.3803 250.867 26.2792 251.237 26.077C251.606 25.8682 251.896 25.5812 252.107 25.2159C252.317 24.844 252.423 24.4298 252.423 23.9731C252.423 23.5165 252.317 23.1055 252.107 22.7401C251.896 22.3684 251.606 22.0813 251.237 21.879C250.867 21.6703 250.452 21.5659 249.991 21.5659C249.529 21.5659 249.114 21.6703 248.745 21.879C248.376 22.0813 248.087 22.3684 247.876 22.7401C247.665 23.1055 247.559 23.5165 247.559 23.9731C247.559 24.4298 247.665 24.844 247.876 25.2159C248.087 25.5812 248.376 25.8682 248.745 26.077C249.114 26.2792 249.529 26.3803 249.991 26.3803Z" fill="white"/>
<path d="M256.069 20.5488H257.354V26.3222H260.972V27.3986H256.069V20.5488Z" fill="white"/>
<path d="M268.165 26.332V27.3986H262.976V20.5488H268.027V21.6154H264.261V23.3964H267.602V24.4434H264.261V26.332H268.165Z" fill="white"/>
<path d="M271.99 21.6252H269.697V20.5488H275.569V21.6252H273.276V27.3986H271.99V21.6252Z" fill="white"/>
<path d="M280.659 27.4959C279.954 27.4959 279.317 27.3458 278.751 27.0458C278.184 26.7391 277.739 26.3184 277.416 25.7835C277.093 25.242 276.931 24.6386 276.931 23.9731C276.931 23.3077 277.093 22.7075 277.416 22.1726C277.739 21.6311 278.184 21.2103 278.751 20.9103C279.317 20.6036 279.954 20.4503 280.659 20.4503C281.364 20.4503 281.999 20.6036 282.566 20.9103C283.134 21.2103 283.578 21.6278 283.901 22.1628C284.225 22.6978 284.385 23.3012 284.385 23.9731C284.385 24.6451 284.225 25.2485 283.901 25.7835C283.578 26.3184 283.134 26.7391 282.566 27.0458C281.999 27.3458 281.364 27.4959 280.659 27.4959ZM280.659 26.3803C281.12 26.3803 281.535 26.2792 281.904 26.077C282.274 25.8682 282.563 25.5812 282.774 25.2159C282.985 24.844 283.09 24.4298 283.09 23.9731C283.09 23.5165 282.985 23.1055 282.774 22.7401C282.563 22.3684 282.274 22.0813 281.904 21.879C281.535 21.6703 281.12 21.5659 280.659 21.5659C280.197 21.5659 279.782 21.6703 279.413 21.879C279.044 22.0813 278.754 22.3684 278.543 22.7401C278.333 23.1055 278.227 23.5165 278.227 23.9731C278.227 24.4298 278.333 24.844 278.543 25.2159C278.754 25.5812 279.044 25.8682 279.413 26.077C279.782 26.2792 280.197 26.3803 280.659 26.3803Z" fill="white"/>
<path fill-rule="evenodd" clip-rule="evenodd" d="M305.492 6.27574C305.56 6.11259 305.7 5.95963 305.854 5.88057L305.979 5.81641L309.165 5.82572C311.984 5.83397 312.378 5.84014 312.589 5.87925C313.27 6.00563 313.713 6.14177 314.136 6.35417C315.131 6.85405 315.718 7.6488 315.949 8.80755C316.018 9.15288 316.045 9.96504 316.001 10.4056C315.882 11.6251 315.548 12.7853 315.076 13.6218C314.299 14.9993 313.096 15.8319 311.434 16.1415C310.909 16.2394 310.631 16.257 309.34 16.2739L308.061 16.2907L307.927 16.3697C307.785 16.4543 307.67 16.5896 307.61 16.7419C307.59 16.7935 307.438 17.7571 307.271 18.8831L307.271 18.8892C306.985 20.8315 306.948 21.0785 306.816 21.2295C306.798 21.2514 306.776 21.2714 306.752 21.2943L306.751 21.2948C306.701 21.3422 306.608 21.4063 306.545 21.4375C306.435 21.4923 306.392 21.4942 305.076 21.5022C304.156 21.5077 303.692 21.5011 303.629 21.4813C303.433 21.42 303.306 21.2419 303.306 21.0296C303.306 20.9604 303.787 17.6403 304.374 13.6516C305.153 8.35638 305.455 6.36589 305.492 6.27574ZM312.024 10.088C311.891 9.48793 311.505 9.15534 310.781 9.01996C310.607 8.98743 310.337 8.97257 309.767 8.96413C308.99 8.95261 308.989 8.9527 308.889 9.01459L308.887 9.0153C308.864 9.03033 308.843 9.04343 308.823 9.05934C308.697 9.16546 308.662 9.39913 308.401 11.1881L308.399 11.2002C308.247 12.236 308.124 13.0913 308.124 13.1009C308.124 13.1366 310.034 13.0911 310.244 13.0504C310.814 12.9396 311.153 12.7726 311.447 12.4565C311.665 12.2232 311.79 12.0019 311.901 11.6566C312.046 11.2043 312.105 10.4551 312.024 10.088ZM318.039 11.6729C318.707 11.2311 319.478 10.9313 320.226 10.824C320.555 10.7769 321.259 10.7681 321.621 10.8066C322.785 10.9303 323.515 11.2867 323.943 11.9388C324.018 12.0546 324.085 12.1451 324.09 12.1397C324.095 12.1343 324.123 11.9678 324.152 11.7696C324.218 11.325 324.262 11.2093 324.403 11.1094L324.51 11.0337L325.848 11.0261C326.745 11.0211 327.218 11.028 327.286 11.0473C327.341 11.0632 327.425 11.1178 327.473 11.1687C327.485 11.1822 327.497 11.1928 327.509 11.2024C327.518 11.2112 327.527 11.2193 327.536 11.2285C327.64 11.3418 327.601 11.6062 327.075 15.1709C327.029 15.4878 326.978 15.8308 326.923 16.2021C326.389 19.8249 326.214 20.9568 326.174 21.0492C326.105 21.2052 325.956 21.3636 325.809 21.4362C325.696 21.4924 325.661 21.4941 324.458 21.5018C323.636 21.5071 323.19 21.5001 323.123 21.481C322.99 21.4425 322.859 21.3057 322.819 21.1622C322.79 21.0608 322.794 20.999 322.841 20.6798C322.872 20.4785 322.897 20.2961 322.897 20.2744C322.897 20.2519 322.84 20.2927 322.765 20.3703C322.22 20.9294 321.45 21.3721 320.642 21.5911C319.744 21.8346 318.663 21.797 317.809 21.4923C316.609 21.0648 315.729 19.9928 315.388 18.5436C315.039 17.0572 315.319 15.2219 316.113 13.8031C316.598 12.9358 317.294 12.167 318.039 11.6729ZM328.84 11.4974C328.84 11.3111 328.988 11.1035 329.161 11.0463C329.198 11.0339 329.844 11.0261 330.596 11.0287L331.962 11.0337L332.076 11.0969C332.217 11.1762 332.367 11.3269 332.427 11.4498C332.451 11.5017 332.802 12.7267 333.205 14.1721C333.608 15.6176 333.946 16.8156 333.954 16.8344C333.965 16.8552 334.653 15.7898 335.714 14.1141C336.671 12.5991 337.498 11.3122 337.552 11.2543C337.605 11.1964 337.701 11.1231 337.765 11.0913C337.879 11.035 337.912 11.0336 339.249 11.0254C340.181 11.0197 340.645 11.0263 340.708 11.0462C340.82 11.0812 340.942 11.1864 340.992 11.2904C341.036 11.3811 341.04 11.6172 341 11.6993C340.946 11.8087 332.52 24.8461 332.455 24.9218C332.419 24.9632 332.321 25.0328 332.238 25.0767L332.087 25.1563L330.656 25.149L329.225 25.1416L329.133 25.0664C328.974 24.9372 328.912 24.7351 328.971 24.5506C328.991 24.4922 329.594 23.556 330.311 22.4705C331.029 21.3849 331.624 20.4826 331.634 20.4653C331.644 20.448 331.02 18.4422 330.246 16.008C329.473 13.5738 328.84 11.544 328.84 11.4974ZM323.55 15.023C323.332 14.3423 322.811 13.8709 322.108 13.7167C321.906 13.6725 321.437 13.6444 321.253 13.6656C320.577 13.7439 319.906 14.0921 319.477 14.5872C318.943 15.2035 318.642 16.0977 318.691 16.9182C318.723 17.4628 318.894 17.8985 319.205 18.2339C319.491 18.5413 319.804 18.7176 320.238 18.8139C320.545 18.8822 321.1 18.8781 321.416 18.8052C322.458 18.5649 323.206 17.8462 323.531 16.7734C323.716 16.1622 323.723 15.5618 323.55 15.023Z" fill="white"/>
<path d="M367.898 5.8843C367.83 5.92818 367.777 5.99049 367.744 6.0651C367.707 6.14981 367.417 8.07123 366.613 13.5682C366.018 17.6322 365.532 20.997 365.532 21.0454C365.533 21.2455 365.67 21.4259 365.861 21.4809C365.926 21.5 366.354 21.5069 367.132 21.5017L368.304 21.4938L368.436 21.4298C368.61 21.3462 368.779 21.1453 368.831 20.962C368.874 20.8113 371 6.4005 371 6.25974C371 6.12784 370.898 5.9464 370.785 5.87765L370.686 5.81776L369.345 5.81758L368.003 5.81738L367.898 5.8843Z" fill="#FEFEFE" fill-opacity="0.7"/>
<path fill-rule="evenodd" clip-rule="evenodd" d="M358.033 10.7964C357.999 10.8017 357.869 10.8196 357.745 10.8361C357.621 10.8527 357.39 10.9002 357.231 10.9418C355.021 11.5203 353.342 13.4934 352.905 16.0226C352.68 17.3256 352.812 18.4979 353.3 19.5378C354.009 21.0469 355.34 21.8074 357.156 21.7412C357.594 21.7252 357.864 21.6839 358.272 21.5701C358.972 21.3746 359.698 20.9627 360.241 20.4529C360.358 20.3426 360.457 20.2555 360.461 20.2594C360.464 20.2631 360.445 20.4158 360.417 20.5987C360.389 20.7816 360.366 20.9768 360.366 21.0326C360.366 21.2451 360.497 21.4248 360.694 21.4815C360.76 21.5005 361.203 21.5076 362.016 21.5023L363.238 21.4944L363.381 21.4191C363.561 21.3243 363.714 21.1426 363.765 20.9612C363.815 20.7811 365.156 11.6566 365.156 11.4927C365.156 11.281 365.03 11.1066 364.835 11.0488C364.703 11.0095 362.217 11.0113 362.084 11.0506C362.03 11.067 361.944 11.1243 361.893 11.1781C361.792 11.2862 361.774 11.3506 361.7 11.8753L361.657 12.18L361.537 11.9912C361.096 11.3016 360.36 10.9341 359.166 10.807C358.925 10.7814 358.176 10.7743 358.033 10.7964ZM361.08 16.8096C361.538 15.3455 360.972 14.0511 359.736 13.7297C359.529 13.6758 358.983 13.6391 358.786 13.6659C357.384 13.857 356.396 14.9539 356.255 16.4791C356.18 17.2784 356.436 18.0065 356.933 18.4092C357.441 18.8206 358.183 18.9686 358.955 18.812C359.96 18.6081 360.75 17.8634 361.08 16.8096Z" fill="#FEFEFE" fill-opacity="0.7"/>
<path fill-rule="evenodd" clip-rule="evenodd" d="M343.394 5.89844C343.229 5.98622 343.14 6.08002 343.059 6.25065C343.021 6.32991 342.749 8.11635 341.927 13.7052C340.954 20.3268 340.849 21.066 340.876 21.1612C340.914 21.2959 341.051 21.4433 341.173 21.4793C341.31 21.5201 343.979 21.5177 344.131 21.4767C344.28 21.4368 344.449 21.2667 344.488 21.1188C344.503 21.0598 344.652 20.0822 344.817 18.9462C344.983 17.8104 345.136 16.8279 345.159 16.763C345.209 16.6163 345.341 16.4578 345.49 16.3646C345.624 16.2802 345.577 16.283 347.111 16.2669C348.264 16.2547 348.577 16.2296 349.18 16.1006C349.889 15.949 350.481 15.7127 351.011 15.3707C352.331 14.5181 353.161 13.0471 353.479 10.9938C353.753 9.22648 353.485 7.9496 352.655 7.06457C352.083 6.45635 351.307 6.08847 350.175 5.89061C349.852 5.83415 349.779 5.83276 346.697 5.82419L343.548 5.81543L343.394 5.89844ZM349.084 9.2983C348.945 9.19588 348.632 9.07403 348.371 9.02023C348.114 8.96774 346.597 8.93829 346.496 8.98392C346.414 9.02163 346.325 9.1121 346.279 9.20652C346.258 9.24881 346.115 10.1419 345.96 11.1913L345.678 13.0993L346.444 13.1073C347.221 13.1153 347.635 13.0906 347.973 13.0159C348.931 12.8042 349.432 12.1928 349.593 11.039C349.709 10.1994 349.545 9.63748 349.084 9.2983Z" fill="#FEFEFE" fill-opacity="0.7"/>
</g>
</g>
<defs>
<clipPath id="clip0_1027_2317">
<rect width="371" height="30.7701" fill="white"/>
</clipPath>
</defs>
</svg>
