<svg width="572" height="265" viewBox="0 0 572 265" fill="none" xmlns="http://www.w3.org/2000/svg">
<path opacity="0.4" d="M162.294 85.3167L3.72767 243.455C-4.22925 251.391 1.39581 264.976 12.6384 264.976H176.089C179.43 264.976 182.635 263.652 184.999 261.293L343.565 103.155C351.522 95.2192 345.897 81.6338 334.655 81.6338H171.204C167.863 81.6338 164.658 82.9583 162.294 85.3167Z" fill="url(#paint0_radial_1027_3332)"/>
<path opacity="0.4" d="M162.294 48.3336L3.72767 207.993C-4.22925 216.005 1.39581 229.721 12.6384 229.721H176.089C179.43 229.721 182.635 228.383 184.999 226.002L343.565 66.343C351.522 58.3313 345.897 44.6152 334.655 44.6152H171.204C167.863 44.6152 164.658 45.9525 162.294 48.3336Z" fill="url(#paint1_radial_1027_3332)"/>
<path d="M103.562 203.012L222.603 55.9811C225.177 52.7638 226.464 48.9031 226.464 44.3988V43.7554C226.464 38.9294 224.533 34.1035 221.316 30.8862C217.777 27.3471 212.951 25.4167 208.125 25.4167H80.7196V0H215.525C238.046 0 256.385 18.3386 256.385 40.8598V46.9727C256.385 56.6246 253.167 65.6331 247.376 72.7112L141.848 203.012H103.562Z" fill="url(#paint2_linear_1027_3332)"/>
<path d="M103.562 203.012L222.603 55.9811C225.177 52.7638 226.464 48.9031 226.464 44.3988V43.7554C226.464 38.9294 224.533 34.1035 221.316 30.8862C217.777 27.3471 212.951 25.4167 208.125 25.4167H80.7196V0H215.525C238.046 0 256.385 18.3386 256.385 40.8598V46.9727C256.385 56.6246 253.167 65.6331 247.376 72.7112L141.848 203.012H103.562Z" fill="url(#paint3_linear_1027_3332)"/>
<path d="M323.513 118.682H296.159V71.597H323.513C333.902 71.597 342.272 79.9677 342.272 90.2816V99.9975C342.272 110.311 333.902 118.682 323.513 118.682ZM303.11 77.4266V112.853H322.093C325.606 112.853 328.969 111.432 331.51 108.966C333.977 106.5 335.322 103.062 335.322 99.5491V90.73C335.322 87.2173 333.977 83.7793 331.51 81.313C328.969 78.8466 325.606 77.4266 322.093 77.4266H303.11ZM349.056 69.2801L344.795 81.9856H350.775L357.65 69.2801H349.056ZM344.497 85.0499H351.447V118.757H344.497V85.0499ZM383.496 95.5132C383.048 92.8974 380.731 90.8795 378.041 90.8795H361.523V85.0499H379.461C384.842 85.0499 389.401 88.9363 390.298 94.1679L394.334 118.757H387.308L386.486 113.525L384.618 115.767C382.301 118.607 379.909 119.504 376.471 119.504H369.147C366.68 119.504 364.363 118.533 362.644 116.814C360.851 115.02 359.879 112.703 359.879 110.237V107.247C359.879 102.09 364.065 97.9796 369.147 97.9796H383.87L383.496 95.5132ZM385.215 105.752L384.842 103.809H370.866C368.624 103.809 366.755 105.678 366.755 107.845V109.564C366.755 110.685 367.204 111.657 367.951 112.479C368.773 113.226 369.745 113.6 370.866 113.6H375.126C377.443 113.6 379.685 112.554 381.105 110.76L385.215 105.752ZM404.795 104.631C400.236 104.631 396.574 100.894 396.574 96.3354V93.2711C396.574 88.7121 400.236 85.0499 404.795 85.0499H428.637V90.8795H407.187C405.169 90.8795 403.45 92.5984 403.45 94.6164V94.9901C403.45 97.0827 405.169 98.727 407.187 98.727H422.134C426.619 98.727 430.356 102.389 430.356 106.948V110.536C430.356 115.095 426.619 118.757 422.134 118.757H397.77V112.853H419.668C421.761 112.853 423.405 111.208 423.405 109.19V108.293C423.405 106.276 421.761 104.631 419.668 104.631H404.795ZM483.817 113.151L482.323 114.945C479.856 117.86 476.269 119.504 472.457 119.504H466.628C459.228 119.504 453.249 113.525 453.249 106.126V98.428C453.249 94.8406 454.669 91.4774 457.136 88.9363C459.677 86.4699 463.04 85.0499 466.628 85.0499H483.817V71.597H490.768V118.757H483.817V113.151ZM483.817 90.8795H466.852C463.115 90.8795 460.125 93.869 460.125 97.6059V106.948C460.125 110.61 463.115 113.6 466.852 113.6H471.71C474.251 113.6 476.642 112.479 478.287 110.536L483.817 104.108V90.8795ZM515.77 84.3025C519.282 84.3025 522.72 85.7225 525.187 88.1889C527.728 90.73 529.148 94.0932 529.148 97.6806V104.108H501.345V106.948C501.345 110.61 504.335 113.6 508.072 113.6H515.247C517.788 113.6 520.254 112.479 521.898 110.536L524.738 107.172L529.148 111.134L525.859 114.945C523.393 117.86 519.806 119.504 516.069 119.504H507.847C500.448 119.504 494.469 113.525 494.469 106.126V97.6806C494.469 94.0932 495.889 90.73 498.356 88.1889C500.897 85.7225 504.26 84.3025 507.847 84.3025H515.77ZM501.345 98.2038H522.197V96.8585C522.197 93.1216 519.208 90.1321 515.546 90.1321H508.072C504.335 90.1321 501.345 93.1216 501.345 96.8585V98.2038Z" fill="url(#paint4_linear_1027_3332)"/>
<path d="M340.404 156.039V173.752C340.404 177.19 339.059 180.479 336.592 182.945C334.126 185.337 330.838 186.682 327.4 186.682H313.424C303.035 186.682 294.664 178.311 294.664 167.998V158.282C294.664 147.968 303.035 139.597 313.424 139.597H340.404V145.427H314.844C311.331 145.427 307.968 146.847 305.501 149.313C302.96 151.854 301.615 155.217 301.615 158.73V167.624C301.615 171.062 302.96 174.5 305.501 176.966C307.968 179.432 311.331 180.853 314.844 180.853H325.531C329.941 180.853 333.453 177.265 333.453 172.856V161.944H317.534V156.039H340.404ZM367.749 163.513C367.3 160.897 364.984 158.879 362.293 158.879H345.776V153.05H363.713C369.094 153.05 373.653 156.936 374.55 162.168L378.586 186.757H371.561L370.738 181.525L368.87 183.767C366.553 186.607 364.161 187.504 360.723 187.504H353.399C350.933 187.504 348.616 186.533 346.897 184.814C345.103 183.02 344.132 180.703 344.132 178.237V175.247C344.132 170.09 348.317 165.98 353.399 165.98H368.123L367.749 163.513ZM369.468 173.752L369.094 171.809H355.118C352.876 171.809 351.007 173.678 351.007 175.845V177.564C351.007 178.685 351.456 179.657 352.203 180.479C353.025 181.226 353.997 181.6 355.118 181.6H359.378C361.695 181.6 363.937 180.554 365.357 178.76L369.468 173.752ZM411.32 158.132H401.379C398.838 158.132 396.372 159.253 394.728 161.271L389.197 167.699V186.757H382.321V153.05H389.197V158.655L390.766 156.862C393.233 153.947 396.82 152.303 400.557 152.303H411.32V158.132ZM437.197 163.513C436.749 160.897 434.432 158.879 431.741 158.879H415.224V153.05H433.161C438.542 153.05 443.101 156.936 443.998 162.168L448.034 186.757H441.009L440.187 181.525L438.318 183.767C436.001 186.607 433.61 187.504 430.172 187.504H422.847C420.381 187.504 418.064 186.533 416.345 184.814C414.551 183.02 413.58 180.703 413.58 178.237V175.247C413.58 170.09 417.765 165.98 422.847 165.98H437.571L437.197 163.513ZM438.916 173.752L438.542 171.809H424.566C422.324 171.809 420.456 173.678 420.456 175.845V177.564C420.456 178.685 420.904 179.657 421.651 180.479C422.474 181.226 423.445 181.6 424.566 181.6H428.826C431.143 181.6 433.385 180.554 434.805 178.76L438.916 173.752ZM487.644 186.757H480.693V164.859C480.693 161.122 477.703 158.132 474.041 158.132H470.828C468.286 158.132 465.82 159.253 464.176 161.271L458.645 167.699V186.757H451.769V153.05H458.645V158.655L460.215 156.862C462.681 153.947 466.268 152.303 470.005 152.303H474.265C481.665 152.303 487.644 158.282 487.644 165.681V186.757ZM498.598 173.379V158.879H491.348V153.05L503.979 139.597L508.239 143.633L499.42 153.05H516.834V158.879H505.474V174.201C505.474 177.863 508.463 180.853 512.2 180.853H516.834V186.757H511.976C508.389 186.757 505.026 185.337 502.484 182.87C500.018 180.329 498.598 176.891 498.598 173.379ZM523.625 137.28L519.365 149.986H525.344L532.22 137.28H523.625ZM519.066 153.05H526.016V186.757H519.066V153.05ZM558.066 163.513C557.617 160.897 555.3 158.879 552.61 158.879H536.093V153.05H554.03C559.411 153.05 563.97 156.936 564.867 162.168L568.903 186.757H561.877L561.055 181.525L559.187 183.767C556.87 186.607 554.478 187.504 551.04 187.504H543.716C541.25 187.504 538.933 186.533 537.214 184.814C535.42 183.02 534.448 180.703 534.448 178.237V175.247C534.448 170.09 538.634 165.98 543.716 165.98H558.439L558.066 163.513ZM559.785 173.752L559.411 171.809H545.435C543.193 171.809 541.324 173.678 541.324 175.845V177.564C541.324 178.685 541.773 179.657 542.52 180.479C543.342 181.226 544.314 181.6 545.435 181.6H549.695C552.012 181.6 554.254 180.554 555.674 178.76L559.785 173.752Z" fill="url(#paint5_linear_1027_3332)"/>
<path d="M298.372 224.956V219.419L293.065 210.94H296.064L297.16 212.863C298.045 214.285 298.795 215.554 299.679 217.188C300.564 215.554 301.39 214.208 302.217 212.863L303.332 210.94H306.235L300.929 219.419V224.956H298.372ZM316.541 225.148C313.291 225.148 311.465 223.418 311.292 220.822L313.811 220.476C313.868 222.149 314.906 223.072 316.598 223.072C318.252 223.072 319.252 222.168 319.252 220.803C319.252 219.419 318.213 218.727 316.81 218.727H315.079V216.862H316.502C317.963 216.862 318.925 216.054 318.925 214.843C318.925 213.612 317.983 212.824 316.598 212.824C315.137 212.824 314.137 213.689 314.06 215.227L311.734 214.939C311.907 212.401 313.907 210.767 316.733 210.767C319.252 210.767 321.463 212.055 321.463 214.497C321.463 216.035 320.521 217.188 319.079 217.669C320.809 218.092 321.847 219.323 321.847 221.072C321.847 223.456 319.771 225.148 316.541 225.148ZM328.145 224.956V213.978H330.414L330.587 215.631C331.337 214.362 332.548 213.785 333.817 213.785C335.317 213.785 336.566 214.516 337.162 215.92C337.797 214.593 339.143 213.785 340.681 213.785C343.065 213.785 344.392 215.285 344.392 217.515V224.956H341.854V218.131C341.854 216.727 341.219 215.939 339.97 215.939C338.528 215.939 337.528 216.919 337.528 218.63V224.956H334.99V218.169C334.99 216.823 334.413 215.939 333.086 215.939C331.625 215.939 330.683 217.035 330.683 218.554V224.956H328.145ZM351.448 225.148C348.257 225.148 345.988 223.091 345.988 219.496C345.988 216.054 348.065 213.805 351.333 213.785C354.794 213.785 356.774 216.285 356.467 220.149H348.584C348.603 222.207 349.795 223.206 351.525 223.206C352.948 223.206 353.852 222.514 354.198 221.438L356.409 221.976C355.871 223.918 353.967 225.148 351.448 225.148ZM348.584 218.457H353.871C353.852 216.766 352.814 215.689 351.275 215.689C349.699 215.689 348.661 216.708 348.584 218.457ZM362.304 225.148C359.4 225.148 357.67 223.764 357.478 221.649L359.919 221.38C359.939 222.61 360.842 223.379 362.342 223.379C363.553 223.379 364.342 222.88 364.342 221.957C364.342 220.669 363.034 220.611 361.246 220.188C359.266 219.746 357.92 218.938 357.92 217.112C357.92 215.131 359.631 213.805 362.342 213.785C364.957 213.785 366.629 215.035 366.803 217.131L364.418 217.438C364.38 216.227 363.572 215.554 362.284 215.535C361.169 215.535 360.458 216.035 360.477 216.881C360.477 217.919 361.496 218.15 363.169 218.515C364.976 218.919 366.918 219.476 366.937 221.784C366.956 223.975 365.014 225.148 362.304 225.148ZM373.51 225.148C370.319 225.148 368.05 223.091 368.05 219.496C368.05 216.054 370.126 213.805 373.395 213.785C376.856 213.785 378.836 216.285 378.528 220.149H370.645C370.665 222.207 371.857 223.206 373.587 223.206C375.01 223.206 375.914 222.514 376.26 221.438L378.471 221.976C377.932 223.918 376.029 225.148 373.51 225.148ZM370.645 218.457H375.933C375.914 216.766 374.875 215.689 373.337 215.689C371.761 215.689 370.722 216.708 370.645 218.457ZM384.365 225.148C381.462 225.148 379.732 223.764 379.539 221.649L381.981 221.38C382 222.61 382.904 223.379 384.404 223.379C385.615 223.379 386.403 222.88 386.403 221.957C386.403 220.669 385.096 220.611 383.308 220.188C381.327 219.746 379.982 218.938 379.982 217.112C379.982 215.131 381.693 213.805 384.404 213.785C387.019 213.785 388.691 215.035 388.864 217.131L386.48 217.438C386.442 216.227 385.634 215.554 384.346 215.535C383.231 215.535 382.52 216.035 382.539 216.881C382.539 217.919 383.558 218.15 385.231 218.515C387.038 218.919 388.98 219.476 388.999 221.784C389.018 223.975 387.076 225.148 384.365 225.148ZM394.468 219.534C394.468 216.035 396.333 213.805 399.274 213.785C400.832 213.785 402.043 214.439 402.697 215.631V209.767H405.235V224.956H402.889L402.735 223.206C402.158 224.418 400.793 225.148 399.197 225.148C396.294 225.148 394.468 222.956 394.468 219.534ZM397.063 219.515C397.063 221.822 398.063 223.11 399.851 223.11C401.601 223.11 402.697 221.937 402.697 219.976V219.034C402.697 217.035 401.639 215.843 399.87 215.823C398.063 215.823 397.063 217.15 397.063 219.515ZM412.32 225.148C409.129 225.148 406.86 223.091 406.86 219.496C406.86 216.054 408.936 213.805 412.205 213.785C415.666 213.785 417.646 216.285 417.338 220.149H409.455C409.475 222.207 410.667 223.206 412.397 223.206C413.82 223.206 414.724 222.514 415.07 221.438L417.281 221.976C416.742 223.918 414.839 225.148 412.32 225.148ZM409.455 218.457H414.743C414.724 216.766 413.685 215.689 412.147 215.689C410.571 215.689 409.532 216.708 409.455 218.457ZM423.321 224.956V213.978H425.609L425.724 215.843C426.301 214.535 427.378 213.862 428.743 213.862C429.05 213.862 429.358 213.901 429.492 213.92V216.304H429.396C429.146 216.266 428.858 216.266 428.57 216.246C427.204 216.246 426.205 216.9 425.859 218.131V224.956H423.321ZM435.49 225.148C432.298 225.148 430.029 223.091 430.029 219.496C430.029 216.054 432.106 213.805 435.374 213.785C438.835 213.785 440.816 216.285 440.508 220.149H432.625C432.644 222.207 433.836 223.206 435.567 223.206C436.989 223.206 437.893 222.514 438.239 221.438L440.45 221.976C439.912 223.918 438.008 225.148 435.49 225.148ZM432.625 218.457H437.912C437.893 216.766 436.855 215.689 435.317 215.689C433.74 215.689 432.702 216.708 432.625 218.457ZM446.345 225.148C443.442 225.148 441.711 223.764 441.519 221.649L443.961 221.38C443.98 222.61 444.884 223.379 446.383 223.379C447.595 223.379 448.383 222.88 448.383 221.957C448.383 220.669 447.075 220.611 445.287 220.188C443.307 219.746 441.961 218.938 441.961 217.112C441.961 215.131 443.672 213.805 446.383 213.785C448.998 213.785 450.671 215.035 450.844 217.131L448.46 217.438C448.421 216.227 447.614 215.554 446.326 215.535C445.211 215.535 444.499 216.035 444.518 216.881C444.518 217.919 445.537 218.15 447.21 218.515C449.017 218.919 450.959 219.476 450.978 221.784C450.998 223.975 449.056 225.148 446.345 225.148ZM456.341 225.148C454.014 225.148 452.534 223.745 452.534 221.418V213.978H455.091V220.918C455.091 222.303 455.841 223.014 457.148 223.014C458.436 223.014 459.59 222.13 459.629 220.592V213.978H462.166V224.956H459.84L459.725 223.379C458.898 224.591 457.764 225.148 456.341 225.148ZM464.215 224.956V209.767H466.753V224.956H464.215ZM472.523 225.091C470.62 225.091 469.735 224.36 469.735 222.803V215.881H468.139V213.978H469.735V211.074H472.273V213.978H474.253V215.881H472.273V222.072C472.273 222.88 472.485 223.091 473.292 223.091C473.619 223.091 473.927 223.033 474.176 222.937V224.898C473.657 225.033 473.023 225.091 472.523 225.091ZM478.838 225.148C476.627 225.148 475.242 223.937 475.242 222.13C475.242 220.284 476.415 219.188 478.646 218.804L481.087 218.4C482.087 218.227 482.376 217.804 482.376 217.169C482.376 216.246 481.799 215.689 480.318 215.67C478.78 215.67 477.896 216.323 477.896 217.554L475.55 217.323C475.665 215.189 477.396 213.785 480.472 213.785C483.356 213.785 484.971 214.92 484.971 217.073V220.995C484.971 222.649 485.029 224.341 485.221 224.956H482.683C482.626 224.61 482.549 224.052 482.529 223.514C481.856 224.533 480.414 225.148 478.838 225.148ZM479.703 223.36C481.126 223.36 482.203 222.649 482.433 221.572V219.515C482.203 219.726 481.741 219.899 480.991 220.015L479.588 220.284C478.3 220.534 477.838 221.111 477.838 221.88C477.838 222.803 478.492 223.36 479.703 223.36ZM486.526 219.534C486.526 216.035 488.391 213.805 491.333 213.785C492.89 213.785 494.102 214.439 494.755 215.631V209.767H497.293V224.956H494.948L494.794 223.206C494.217 224.418 492.852 225.148 491.256 225.148C488.353 225.148 486.526 222.956 486.526 219.534ZM489.122 219.515C489.122 221.822 490.122 223.11 491.91 223.11C493.659 223.11 494.755 221.937 494.755 219.976V219.034C494.755 217.035 493.698 215.843 491.929 215.823C490.122 215.823 489.122 217.15 489.122 219.515ZM498.919 219.496C498.919 216.054 501.072 213.785 504.379 213.785C507.686 213.785 509.801 216.035 509.801 219.496C509.801 222.918 507.686 225.148 504.379 225.148C501.053 225.148 498.919 222.899 498.919 219.496ZM501.456 219.476C501.456 221.803 502.514 223.13 504.36 223.13C506.186 223.13 507.263 221.784 507.263 219.457C507.263 217.131 506.205 215.823 504.379 215.823C502.533 215.823 501.456 217.169 501.456 219.476ZM515.647 225.148C512.744 225.148 511.013 223.764 510.821 221.649L513.263 221.38C513.282 222.61 514.186 223.379 515.686 223.379C516.897 223.379 517.685 222.88 517.685 221.957C517.685 220.669 516.378 220.611 514.59 220.188C512.609 219.746 511.263 218.938 511.263 217.112C511.263 215.131 512.975 213.805 515.686 213.785C518.3 213.785 519.973 215.035 520.146 217.131L517.762 217.438C517.724 216.227 516.916 215.554 515.628 215.535C514.513 215.535 513.801 216.035 513.821 216.881C513.821 217.919 514.84 218.15 516.512 218.515C518.32 218.919 520.261 219.476 520.281 221.784C520.3 223.975 518.358 225.148 515.647 225.148Z" fill="white"/>
<defs>
<radialGradient id="paint0_radial_1027_3332" cx="0" cy="0" r="1" gradientTransform="matrix(199.073 -42.3385 22.0358 286.117 189.077 190.36)" gradientUnits="userSpaceOnUse">
<stop stop-color="#865BB9" stop-opacity="0.16"/>
<stop offset="1" stop-color="#5020FF"/>
</radialGradient>
<radialGradient id="paint1_radial_1027_3332" cx="0" cy="0" r="1" gradientTransform="matrix(225.081 -44.9185 20.1049 325.952 163.069 156.56)" gradientUnits="userSpaceOnUse">
<stop stop-color="#865BB9" stop-opacity="0.16"/>
<stop offset="1" stop-color="#5020FF"/>
</radialGradient>
<linearGradient id="paint2_linear_1027_3332" x1="162.9" y1="206.121" x2="183.903" y2="85.5811" gradientUnits="userSpaceOnUse">
<stop stop-color="#5020FF" stop-opacity="0"/>
<stop offset="1" stop-color="#5020FF"/>
</linearGradient>
<linearGradient id="paint3_linear_1027_3332" x1="139.669" y1="208.293" x2="316.164" y2="187.96" gradientUnits="userSpaceOnUse">
<stop stop-color="#5020FF" stop-opacity="0"/>
<stop offset="0.410139" stop-color="#B06AF6"/>
<stop offset="0.72036" stop-color="#EDCAFF"/>
</linearGradient>
<linearGradient id="paint4_linear_1027_3332" x1="208.534" y1="-64.7816" x2="365.35" y2="384.451" gradientUnits="userSpaceOnUse">
<stop stop-color="#7A96AC"/>
<stop offset="0.18" stop-color="#EAEFF3"/>
<stop offset="0.251664" stop-color="#C2D4E1"/>
<stop offset="0.402417" stop-color="white"/>
<stop offset="0.747" stop-color="#D4DEE5"/>
<stop offset="0.785" stop-color="#ABBDC8"/>
<stop offset="0.955" stop-color="#BCCAD7"/>
</linearGradient>
<linearGradient id="paint5_linear_1027_3332" x1="269.933" y1="224.642" x2="609.723" y2="207.711" gradientUnits="userSpaceOnUse">
<stop offset="0.107973" stop-color="#5020FF"/>
<stop offset="0.574925" stop-color="#B06AF6"/>
<stop offset="0.875" stop-color="#EDCAFF"/>
</linearGradient>
</defs>
</svg>
