<svg width="42" height="42" viewBox="0 0 42 42" fill="none" xmlns="http://www.w3.org/2000/svg">
<path d="M21 0.5C32.3218 0.5 41.5 9.67816 41.5 21C41.5 32.3218 32.3218 41.5 21 41.5C9.67816 41.5 0.5 32.3218 0.5 21C0.5 9.67816 9.67816 0.5 21 0.5Z" fill="url(#paint0_radial_1096_2679)"/>
<path d="M21 0.5C32.3218 0.5 41.5 9.67816 41.5 21C41.5 32.3218 32.3218 41.5 21 41.5C9.67816 41.5 0.5 32.3218 0.5 21C0.5 9.67816 9.67816 0.5 21 0.5Z" stroke="url(#paint1_linear_1096_2679)"/>
<path d="M22.8447 14.1063C22.7608 14.0225 22.6858 13.9957 22.5985 13.9956C22.51 13.9956 22.4286 14.0232 22.3363 14.1122L15.2413 21.2073C15.1867 21.2625 15.1607 21.3068 15.1486 21.3359C15.1335 21.3719 15.1247 21.4119 15.1246 21.4605C15.1246 21.509 15.1331 21.551 15.1486 21.5881C15.1608 21.6174 15.187 21.6604 15.2413 21.7157L22.3343 28.8087C22.4191 28.8928 22.499 28.9234 22.5955 28.9243C22.6864 28.9251 22.7611 28.8984 22.8428 28.8157L22.8955 28.7529C22.938 28.692 22.9529 28.6313 22.9524 28.5634C22.9516 28.4698 22.9227 28.3923 22.8388 28.3082L15.8337 21.4618L22.8447 14.6087C22.9282 14.5247 22.9552 14.4491 22.9553 14.3605C22.9553 14.2727 22.9287 14.194 22.8447 14.1063Z" stroke="white" stroke-width="1.02084"/>
<defs>
<radialGradient id="paint0_radial_1096_2679" cx="0" cy="0" r="1" gradientTransform="matrix(45.7176 20.4258 -10.7748 44.4022 2.28588 -9.68335)" gradientUnits="userSpaceOnUse">
<stop stop-color="#48317D"/>
<stop offset="1" stop-color="#0C0512"/>
</radialGradient>
<linearGradient id="paint1_linear_1096_2679" x1="21" y1="0" x2="21" y2="42" gradientUnits="userSpaceOnUse">
<stop stop-color="#7654FF"/>
<stop offset="1"/>
</linearGradient>
</defs>
</svg>
