<svg width="30" height="33" viewBox="0 0 30 33" fill="none" xmlns="http://www.w3.org/2000/svg">
<path d="M2.75938e-08 2.4227C2.75938e-08 0.582098 1.97177 -0.583333 3.58445 0.302567L28.3982 13.9501C28.778 14.1588 29.0948 14.4656 29.3155 14.8386C29.5361 15.2116 29.6525 15.6369 29.6525 16.0703C29.6525 16.5036 29.5361 16.929 29.3155 17.302C29.0948 17.6749 28.778 17.9818 28.3982 18.1904L3.58445 31.838C3.21609 32.0405 2.8013 32.1436 2.38098 32.137C1.96067 32.1303 1.54933 32.0143 1.18751 31.8003C0.825695 31.5863 0.525893 31.2817 0.317656 30.9165C0.109419 30.5514 -6.34575e-05 30.1382 2.75938e-08 29.7179V2.4227Z" fill="url(#paint0_linear_1096_2634)"/>
<path d="M0.551758 2.42285C0.551758 1.00202 2.073 0.102342 3.31836 0.786133L28.1328 14.4336C28.4259 14.5946 28.6705 14.8313 28.8408 15.1191C29.0112 15.4071 29.1006 15.7358 29.1006 16.0703C29.1006 16.4048 29.0112 16.7336 28.8408 17.0215C28.6705 17.3093 28.4259 17.546 28.1328 17.707L3.31836 31.3545C3.03402 31.5108 2.71407 31.591 2.38965 31.5859C2.06521 31.5808 1.74804 31.4904 1.46875 31.3252C1.18949 31.16 0.957634 30.9254 0.796875 30.6436C0.636111 30.3616 0.551709 30.0423 0.551758 29.7178V2.42285Z" stroke="white" stroke-opacity="0.24" stroke-width="1.10296" stroke-linecap="round" stroke-linejoin="round"/>
<defs>
<linearGradient id="paint0_linear_1096_2634" x1="-11.585" y1="2.32953" x2="42.0939" y2="-4.19892" gradientUnits="userSpaceOnUse">
<stop stop-color="#7654FF"/>
<stop offset="0.336538" stop-color="#C96AF6"/>
<stop offset="1" stop-color="#ECC5FF"/>
</linearGradient>
</defs>
</svg>
