<svg width="42" height="42" viewBox="0 0 42 42" fill="none" xmlns="http://www.w3.org/2000/svg">
<path d="M21 0.5C9.67816 0.5 0.5 9.67816 0.5 21C0.5 32.3218 9.67816 41.5 21 41.5C32.3218 41.5 41.5 32.3218 41.5 21C41.5 9.67816 32.3218 0.5 21 0.5Z" fill="url(#paint0_radial_1096_2681)"/>
<path d="M21 0.5C9.67816 0.5 0.5 9.67816 0.5 21C0.5 32.3218 9.67816 41.5 21 41.5C32.3218 41.5 41.5 32.3218 41.5 21C41.5 9.67816 32.3218 0.5 21 0.5Z" stroke="url(#paint1_linear_1096_2681)"/>
<path d="M19.1553 14.1063C19.2392 14.0225 19.3142 13.9957 19.4015 13.9956C19.49 13.9956 19.5714 14.0232 19.6637 14.1122L26.7587 21.2073C26.8133 21.2625 26.8393 21.3068 26.8514 21.3359C26.8665 21.3719 26.8753 21.4119 26.8754 21.4605C26.8754 21.509 26.8669 21.551 26.8514 21.5881C26.8392 21.6174 26.813 21.6604 26.7587 21.7157L19.6657 28.8087C19.5809 28.8928 19.501 28.9234 19.4045 28.9243C19.3136 28.9251 19.2389 28.8984 19.1572 28.8157L19.1045 28.7529C19.062 28.692 19.0471 28.6313 19.0476 28.5634C19.0484 28.4698 19.0773 28.3923 19.1612 28.3082L26.1663 21.4618L19.1553 14.6087C19.0718 14.5247 19.0448 14.4491 19.0447 14.3605C19.0447 14.2727 19.0713 14.194 19.1553 14.1063Z" stroke="white" stroke-width="1.02084"/>
<defs>
<radialGradient id="paint0_radial_1096_2681" cx="0" cy="0" r="1" gradientTransform="matrix(-45.7176 20.4258 10.7748 44.4022 39.7141 -9.68335)" gradientUnits="userSpaceOnUse">
<stop stop-color="#48317D"/>
<stop offset="1" stop-color="#0C0512"/>
</radialGradient>
<linearGradient id="paint1_linear_1096_2681" x1="21" y1="0" x2="21" y2="42" gradientUnits="userSpaceOnUse">
<stop stop-color="#7654FF"/>
<stop offset="1"/>
</linearGradient>
</defs>
</svg>
