<svg width="1055" height="54" viewBox="0 0 1055 54" fill="none" xmlns="http://www.w3.org/2000/svg">
<rect width="1055" height="54" fill="#0D0D0D"/>
<path d="M935.186 34.1997C939.511 34.1997 943.017 30.6939 943.017 26.3694C943.017 22.0448 939.511 18.5391 935.186 18.5391C930.862 18.5391 927.356 22.0448 927.356 26.3694C927.356 30.6939 930.862 34.1997 935.186 34.1997Z" stroke="white" stroke-width="1.31549" stroke-linecap="round" stroke-linejoin="round"/>
<path d="M935.188 22.2383L935.188 30.5071" stroke="white" stroke-width="1.31549" stroke-linecap="round" stroke-linejoin="round"/>
<path d="M932.055 27.3125L935.187 30.4446L938.319 27.3125" stroke="white" stroke-width="1.31549" stroke-linecap="round" stroke-linejoin="round"/>
<path d="M971.694 19.418L971.694 33.3246M978.647 26.5592L964.74 26.5592" stroke="white" stroke-width="1.31549" stroke-linecap="round" stroke-linejoin="round"/>
<path d="M1002.38 30.8841H1000.12C999.394 30.8841 998.805 30.2951 998.805 29.5686V19.6085C998.805 18.8819 999.394 18.293 1000.12 18.293H1009.89C1010.62 18.293 1011.21 18.8819 1011.21 19.6085V21.8636M1002.38 30.8841V23.1791C1002.38 22.4526 1002.96 21.8636 1003.69 21.8636H1011.21M1002.38 30.8841V33.1392C1002.38 33.8658 1002.96 34.4547 1003.69 34.4547H1013.65C1014.38 34.4547 1014.97 33.8658 1014.97 33.1392V23.1791C1014.97 22.4526 1014.38 21.8636 1013.65 21.8636H1011.21" stroke="white" stroke-width="1.31549"/>
<rect x="223.789" y="11.6719" width="646.123" height="30.7678" rx="4.24383" fill="#1C1C1C"/>
<path d="M491.12 32.2791C489.606 32.2791 488.589 31.3649 488.589 29.9827V29.9681C488.589 28.6737 489.599 27.8619 491.346 27.7595L493.526 27.6352V26.9989C493.526 26.0702 492.919 25.507 491.858 25.507C490.878 25.507 490.264 25.9751 490.118 26.6552L490.103 26.721H488.875L488.882 26.6406C488.992 25.39 490.081 24.3808 491.873 24.3808C493.672 24.3808 494.798 25.3535 494.798 26.8746V32.1328H493.526V30.8969H493.497C493.05 31.7306 492.136 32.2791 491.12 32.2791ZM489.891 29.9827C489.891 30.7141 490.491 31.1748 491.405 31.1748C492.604 31.1748 493.526 30.3484 493.526 29.2441V28.6225L491.493 28.7468C490.476 28.8053 489.891 29.2587 489.891 29.9681V29.9827ZM499.567 32.2791C497.409 32.2791 496.042 30.7433 496.042 28.3226V28.3153C496.042 25.9166 497.438 24.3808 499.552 24.3808C501.446 24.3808 502.565 25.6387 502.726 26.9404L502.733 26.9989H501.49L501.475 26.9404C501.285 26.1799 500.671 25.507 499.552 25.507C498.228 25.507 497.343 26.604 497.343 28.3299V28.3373C497.343 30.1071 498.25 31.1528 499.567 31.1528C500.605 31.1528 501.271 30.5678 501.483 29.7195L501.497 29.6609H502.748L502.74 29.7121C502.536 31.1602 501.285 32.2791 499.567 32.2791ZM506.141 32.2791C504.627 32.2791 503.611 31.3649 503.611 29.9827V29.9681C503.611 28.6737 504.62 27.8619 506.368 27.7595L508.547 27.6352V26.9989C508.547 26.0702 507.94 25.507 506.88 25.507C505.9 25.507 505.285 25.9751 505.139 26.6552L505.125 26.721H503.896L503.903 26.6406C504.013 25.39 505.103 24.3808 506.894 24.3808C508.693 24.3808 509.82 25.3535 509.82 26.8746V32.1328H508.547V30.8969H508.518C508.072 31.7306 507.158 32.2791 506.141 32.2791ZM504.912 29.9827C504.912 30.7141 505.512 31.1748 506.426 31.1748C507.626 31.1748 508.547 30.3484 508.547 29.2441V28.6225L506.514 28.7468C505.498 28.8053 504.912 29.2587 504.912 29.9681V29.9827ZM514.295 32.2791C512.35 32.2791 511.063 30.7287 511.063 28.3299V28.3226C511.063 25.9239 512.365 24.3808 514.273 24.3808C515.348 24.3808 516.233 24.922 516.709 25.7996H516.738V21.5799H518.01V32.1328H516.738V30.8457H516.709C516.233 31.7306 515.385 32.2791 514.295 32.2791ZM514.544 31.1528C515.831 31.1528 516.745 30.0339 516.745 28.3299V28.3226C516.745 26.626 515.824 25.507 514.544 25.507C513.198 25.507 512.365 26.5894 512.365 28.3226V28.3299C512.365 30.0778 513.198 31.1528 514.544 31.1528ZM522.859 32.2791C520.672 32.2791 519.356 30.7506 519.356 28.3592V28.3519C519.356 25.997 520.702 24.3808 522.779 24.3808C524.856 24.3808 526.121 25.9239 526.121 28.2056V28.6737H520.643C520.672 30.2387 521.535 31.1528 522.888 31.1528C523.854 31.1528 524.534 30.6702 524.753 30.0193L524.775 29.9535H526.026L526.011 30.0266C525.762 31.2845 524.519 32.2791 522.859 32.2791ZM522.771 25.507C521.667 25.507 520.804 26.2603 520.665 27.6791H524.826C524.702 26.2018 523.883 25.507 522.771 25.507ZM527.408 32.1328V24.5271H528.68V25.6387H528.71C529.053 24.8854 529.814 24.3808 530.794 24.3808C531.832 24.3808 532.6 24.9147 532.929 25.8435H532.959C533.383 24.9293 534.275 24.3808 535.343 24.3808C536.849 24.3808 537.822 25.3681 537.822 26.8819V32.1328H536.549V27.1745C536.549 26.1287 535.972 25.507 534.97 25.507C533.961 25.507 533.251 26.2603 533.251 27.2988V32.1328H531.979V27.0355C531.979 26.114 531.364 25.507 530.421 25.507C529.412 25.507 528.68 26.3042 528.68 27.3646V32.1328H527.408ZM540.162 23.24C539.723 23.24 539.365 22.8816 539.365 22.4428C539.365 21.9967 539.723 21.6457 540.162 21.6457C540.608 21.6457 540.959 21.9967 540.959 22.4428C540.959 22.8816 540.608 23.24 540.162 23.24ZM539.526 32.1328V24.5271H540.798V32.1328H539.526ZM544.755 32.2791C543.241 32.2791 542.224 31.3649 542.224 29.9827V29.9681C542.224 28.6737 543.234 27.8619 544.982 27.7595L547.161 27.6352V26.9989C547.161 26.0702 546.554 25.507 545.493 25.507C544.514 25.507 543.899 25.9751 543.753 26.6552L543.738 26.721H542.51L542.517 26.6406C542.627 25.39 543.716 24.3808 545.508 24.3808C547.307 24.3808 548.433 25.3535 548.433 26.8746V32.1328H547.161V30.8969H547.132C546.686 31.7306 545.771 32.2791 544.755 32.2791ZM543.526 29.9827C543.526 30.7141 544.126 31.1748 545.04 31.1748C546.239 31.1748 547.161 30.3484 547.161 29.2441V28.6225L545.128 28.7468C544.111 28.8053 543.526 29.2587 543.526 29.9681V29.9827ZM550.05 32.1328V24.5271H551.322V25.6387H551.351C551.695 24.8854 552.456 24.3808 553.436 24.3808C554.474 24.3808 555.242 24.9147 555.571 25.8435H555.6C556.024 24.9293 556.917 24.3808 557.984 24.3808C559.491 24.3808 560.464 25.3681 560.464 26.8819V32.1328H559.191V27.1745C559.191 26.1287 558.613 25.507 557.611 25.507C556.602 25.507 555.893 26.2603 555.893 27.2988V32.1328H554.62V27.0355C554.62 26.114 554.006 25.507 553.063 25.507C552.053 25.507 551.322 26.3042 551.322 27.3646V32.1328H550.05ZM564.23 32.1328L561.429 24.5271H562.767L564.866 30.7799H564.895L567.002 24.5271H568.325L565.532 32.1328H564.23ZM569.327 34.6924V24.5271H570.6V25.8142H570.629C571.104 24.9293 571.953 24.3808 573.042 24.3808C574.988 24.3808 576.275 25.9312 576.275 28.3299V28.3373C576.275 30.736 574.973 32.2791 573.064 32.2791C571.989 32.2791 571.104 31.7379 570.629 30.8603H570.6V34.6924H569.327ZM572.794 31.1528C574.139 31.1528 574.973 30.0705 574.973 28.3373V28.3299C574.973 26.5821 574.139 25.507 572.794 25.507C571.507 25.507 570.592 26.626 570.592 28.3299V28.3373C570.592 30.0339 571.514 31.1528 572.794 31.1528ZM577.906 32.2352C577.438 32.2352 577.072 31.8695 577.072 31.4015C577.072 30.9334 577.438 30.5678 577.906 30.5678C578.374 30.5678 578.739 30.9334 578.739 31.4015C578.739 31.8695 578.374 32.2352 577.906 32.2352ZM583.054 32.2791C580.897 32.2791 579.529 30.7433 579.529 28.3226V28.3153C579.529 25.9166 580.926 24.3808 583.039 24.3808C584.934 24.3808 586.053 25.6387 586.213 26.9404L586.221 26.9989H584.977L584.963 26.9404C584.773 26.1799 584.158 25.507 583.039 25.507C581.716 25.507 580.831 26.604 580.831 28.3299V28.3373C580.831 30.1071 581.738 31.1528 583.054 31.1528C584.093 31.1528 584.758 30.5678 584.97 29.7195L584.985 29.6609H586.235L586.228 29.7121C586.023 31.1602 584.773 32.2791 583.054 32.2791ZM590.557 32.2791C588.444 32.2791 587.032 30.7506 587.032 28.3299V28.3153C587.032 25.8946 588.451 24.3808 590.55 24.3808C592.649 24.3808 594.075 25.8873 594.075 28.3153V28.3299C594.075 30.7579 592.656 32.2791 590.557 32.2791ZM590.565 31.1528C591.903 31.1528 592.773 30.1144 592.773 28.3299V28.3153C592.773 26.5309 591.896 25.507 590.55 25.507C589.226 25.507 588.334 26.5382 588.334 28.3153V28.3299C588.334 30.1217 589.219 31.1528 590.565 31.1528ZM595.362 32.1328V24.5271H596.635V25.6387H596.664C597.008 24.8854 597.768 24.3808 598.748 24.3808C599.787 24.3808 600.555 24.9147 600.884 25.8435H600.913C601.337 24.9293 602.229 24.3808 603.297 24.3808C604.804 24.3808 605.776 25.3681 605.776 26.8819V32.1328H604.504V27.1745C604.504 26.1287 603.926 25.507 602.924 25.507C601.915 25.507 601.205 26.2603 601.205 27.2988V32.1328H599.933V27.0355C599.933 26.114 599.319 25.507 598.375 25.507C597.366 25.507 596.635 26.3042 596.635 27.3646V32.1328H595.362Z" fill="white" fill-opacity="0.51"/>
<path d="M139.86 33.6838L133.229 27.0529L139.86 20.4219" stroke="white" stroke-width="1.31559" stroke-linecap="round" stroke-linejoin="round"/>
<path d="M170.031 33.6838L177.855 27.0529L170.031 20.4219" stroke="#6A7282" stroke-width="1.31559" stroke-linecap="round" stroke-linejoin="round"/>
<path d="M23.5522 28.5965C23.5522 25.1087 26.3797 22.2812 29.8675 22.2812C33.3553 22.2812 36.1827 25.1087 36.1827 28.5965C36.1827 32.0843 33.3553 34.9117 29.8675 34.9117C26.3797 34.9117 23.5522 32.0843 23.5522 28.5965Z" fill="#FEBC2E"/>
<path d="M23.5522 28.5965C23.5522 25.1087 26.3797 22.2812 29.8675 22.2812C33.3553 22.2812 36.1827 25.1087 36.1827 28.5965C36.1827 32.0843 33.3553 34.9117 29.8675 34.9117C26.3797 34.9117 23.5522 32.0843 23.5522 28.5965Z" fill="#2B2B2D"/>
<path d="M29.8677 22.5469C33.2089 22.547 35.9175 25.2554 35.9175 28.5967C35.9174 31.9378 33.2088 34.6464 29.8677 34.6465C26.5264 34.6465 23.818 31.9379 23.8179 28.5967C23.8179 25.2554 26.5264 22.5469 29.8677 22.5469Z" stroke="url(#paint0_linear_1040_738)" stroke-opacity="0.32" stroke-width="0.530479"/>
<path d="M43.7612 28.5965C43.7612 25.1087 46.5887 22.2812 50.0765 22.2812C53.5643 22.2812 56.3917 25.1087 56.3917 28.5965C56.3917 32.0843 53.5643 34.9117 50.0765 34.9117C46.5887 34.9117 43.7612 32.0843 43.7612 28.5965Z" fill="#FEBC2E"/>
<path d="M43.7612 28.5965C43.7612 25.1087 46.5887 22.2812 50.0765 22.2812C53.5643 22.2812 56.3917 25.1087 56.3917 28.5965C56.3917 32.0843 53.5643 34.9117 50.0765 34.9117C46.5887 34.9117 43.7612 32.0843 43.7612 28.5965Z" fill="#2B2B2D"/>
<path d="M50.0767 22.5469C53.4179 22.547 56.1265 25.2554 56.1265 28.5967C56.1264 31.9378 53.4178 34.6464 50.0767 34.6465C46.7354 34.6465 44.027 31.9379 44.0269 28.5967C44.0269 25.2554 46.7353 22.5469 50.0767 22.5469Z" stroke="url(#paint1_linear_1040_738)" stroke-opacity="0.32" stroke-width="0.530479"/>
<path d="M63.9697 28.5965C63.9697 25.1087 66.7971 22.2812 70.285 22.2812C73.7728 22.2812 76.6002 25.1087 76.6002 28.5965C76.6002 32.0843 73.7728 34.9117 70.285 34.9117C66.7971 34.9117 63.9697 32.0843 63.9697 28.5965Z" fill="#2B2B2D"/>
<path d="M70.2852 22.5469C73.6264 22.547 76.335 25.2554 76.335 28.5967C76.3349 31.9378 73.6263 34.6464 70.2852 34.6465C66.9439 34.6465 64.2355 31.9379 64.2354 28.5967C64.2354 25.2554 66.9438 22.5469 70.2852 22.5469Z" stroke="url(#paint2_linear_1040_738)" stroke-opacity="0.32" stroke-width="0.530479"/>
<defs>
<linearGradient id="paint0_linear_1040_738" x1="29.8675" y1="22.2812" x2="28.4974" y2="30.3733" gradientUnits="userSpaceOnUse">
<stop stop-color="white"/>
<stop offset="1" stop-color="#999999" stop-opacity="0"/>
</linearGradient>
<linearGradient id="paint1_linear_1040_738" x1="50.0765" y1="22.2812" x2="48.7064" y2="30.3733" gradientUnits="userSpaceOnUse">
<stop stop-color="white"/>
<stop offset="1" stop-color="#999999" stop-opacity="0"/>
</linearGradient>
<linearGradient id="paint2_linear_1040_738" x1="70.285" y1="22.2812" x2="68.9149" y2="30.3733" gradientUnits="userSpaceOnUse">
<stop stop-color="white"/>
<stop offset="1" stop-color="#999999" stop-opacity="0"/>
</linearGradient>
</defs>
</svg>
