<svg width="474" height="357" viewBox="0 0 474 357" fill="none" xmlns="http://www.w3.org/2000/svg">
<path d="M249.046 353.437C242.32 357.321 231.411 357.321 224.682 353.437L130.274 298.93V284.865L139.412 279.589L133.319 276.072L124.183 281.348H99.8196L5.4111 226.841C1.86432 224.793 0.187256 222.072 0.381866 219.39V207.763L224.682 86.178C231.411 82.2942 242.32 82.2942 249.046 86.178L473.361 208.076V219.607C473.451 222.219 471.77 224.847 468.318 226.841L373.909 281.348H349.547L340.41 276.072L334.319 279.589L343.455 284.865V298.93L249.046 353.437Z" fill="url(#paint0_linear_1027_2500)"/>
<path d="M249.046 353.437C242.32 357.321 231.411 357.321 224.682 353.437L130.274 298.93V284.865L139.412 279.589L133.319 276.072L124.183 281.348H99.8196L5.4111 226.841C1.86432 224.793 0.187256 222.072 0.381866 219.39V207.763L224.682 86.178C231.411 82.2942 242.32 82.2942 249.046 86.178L473.361 208.076V219.607C473.451 222.219 471.77 224.847 468.318 226.841L373.909 281.348H349.547L340.41 276.072L334.319 279.589L343.455 284.865V298.93L249.046 353.437Z" fill="#050208"/>
<path d="M236.865 83.6294C232.503 83.6294 228.16 84.5913 224.865 86.4937L224.857 86.4985L0.746338 207.98V219.404L0.745361 219.417C0.564535 221.909 2.11649 224.517 5.59302 226.525L99.9172 280.984H124.086L133.137 275.756L133.32 275.651L133.501 275.756L139.594 279.273L140.141 279.588L139.594 279.905L130.639 285.076V298.718L224.865 353.121C228.16 355.023 232.503 355.985 236.865 355.985C241.227 355.985 245.569 355.023 248.864 353.121H248.865L343.09 298.718V285.075L334.137 279.905L333.59 279.588L334.137 279.273L340.227 275.756L340.409 275.651L340.592 275.756L349.645 280.984H373.812L468.135 226.525C471.414 224.631 472.981 222.205 472.999 219.847L472.996 219.62V208.292L248.872 86.4985L248.864 86.4937C245.569 84.5915 241.227 83.6294 236.865 83.6294Z" stroke="white" stroke-opacity="0.18" stroke-width="0.729478"/>
<path d="M373.909 281.348H349.547L340.41 276.072L334.319 279.589L343.455 284.865V298.93L249.046 353.437C242.32 357.321 231.411 357.321 224.682 353.437L130.274 298.93V284.865L139.412 279.589L133.319 276.072L124.183 281.348H99.8196L5.41109 226.841C1.86433 224.793 0.187261 222.072 0.381852 219.39V207.763L224.682 86.178C231.411 82.2942 242.32 82.2942 249.046 86.178L473.361 208.076V219.607C473.451 222.219 471.77 224.847 468.318 226.841L373.909 281.348ZM124.183 281.348V270.092M349.547 281.348L349.545 269.942M99.8196 281.348V270.092M373.909 281.348V269.942" stroke="white" stroke-opacity="0.18" stroke-width="0.729478"/>
<path d="M249.044 342.026C242.318 345.912 231.409 345.912 224.682 342.026L130.274 287.52V273.454L139.41 268.178L133.319 264.661L124.181 269.937H99.8195L5.41104 215.43C-1.31738 211.546 -1.31738 205.249 5.41104 201.363L224.682 74.7668C231.409 70.8831 242.318 70.8831 249.044 74.7668L468.318 201.363C475.044 205.249 475.044 211.546 468.318 215.43L373.909 269.937H349.545L340.408 264.661L334.317 268.178L343.455 273.454V287.52L249.044 342.026Z" fill="#050208" stroke="white" stroke-opacity="0.18" stroke-width="0.729478"/>
<path d="M249.046 318.421C242.32 322.305 231.411 322.305 224.682 318.421L130.274 263.914V249.849L139.412 244.573L133.319 241.057L124.183 246.333H99.8196L5.4111 191.825C1.86432 189.777 0.187256 187.057 0.381866 184.375V172.747L224.682 51.1624C231.411 47.2786 242.32 47.2786 249.046 51.1624L473.361 173.06V184.591C473.451 187.203 471.77 189.831 468.318 191.825L373.909 246.333H349.547L340.41 241.057L334.319 244.573L343.455 249.849V263.914L249.046 318.421Z" fill="url(#paint1_linear_1027_2500)"/>
<path d="M249.046 318.421C242.32 322.305 231.411 322.305 224.682 318.421L130.274 263.914V249.849L139.412 244.573L133.319 241.057L124.183 246.333H99.8196L5.4111 191.825C1.86432 189.777 0.187256 187.057 0.381866 184.375V172.747L224.682 51.1624C231.411 47.2786 242.32 47.2786 249.046 51.1624L473.361 173.06V184.591C473.451 187.203 471.77 189.831 468.318 191.825L373.909 246.333H349.547L340.41 241.057L334.319 244.573L343.455 249.849V263.914L249.046 318.421Z" fill="#050208"/>
<path d="M236.865 48.6138C232.503 48.6138 228.16 49.5757 224.865 51.478L224.857 51.4829L0.746338 172.964V184.388L0.745361 184.401C0.564535 186.893 2.11649 189.502 5.59302 191.509L99.9172 245.968H124.086L133.137 240.741L133.32 240.635L133.501 240.741L139.594 244.257L140.141 244.573L139.594 244.889L130.639 250.06V263.703L224.865 318.105C228.16 320.007 232.503 320.969 236.865 320.969C241.227 320.969 245.569 320.007 248.864 318.105H248.865L343.09 263.703V250.059L334.137 244.889L333.59 244.573L334.137 244.257L340.227 240.741L340.409 240.635L340.592 240.741L349.645 245.968H373.812L468.135 191.509C471.414 189.616 472.981 187.19 472.999 184.832L472.996 184.604V173.277L248.872 51.4829L248.864 51.478C245.569 49.5759 241.227 48.6138 236.865 48.6138Z" stroke="white" stroke-opacity="0.18" stroke-width="0.729478"/>
<path d="M373.909 246.333H349.547L340.41 241.057L334.319 244.573L343.455 249.849V263.914L249.046 318.421C242.32 322.305 231.411 322.305 224.682 318.421L130.274 263.914V249.849L139.412 244.573L133.319 241.057L124.183 246.333H99.8196L5.41109 191.825C1.86433 189.777 0.187261 187.057 0.381852 184.375V172.747L224.682 51.1624C231.411 47.2786 242.32 47.2786 249.046 51.1624L473.361 173.06V184.591C473.451 187.203 471.77 189.831 468.318 191.825L373.909 246.333ZM124.183 246.333V235.076M349.547 246.333L349.545 234.926M99.8196 246.333V235.076M373.909 246.333V234.926" stroke="white" stroke-opacity="0.18" stroke-width="0.729478"/>
<path d="M249.044 307.011C242.318 310.897 231.409 310.897 224.682 307.011L130.274 252.506V238.439L139.41 233.163L133.319 229.646L124.181 234.922H99.8195L5.41104 180.415C-1.31738 176.531 -1.31738 170.234 5.41104 166.348L224.682 39.7522C231.409 35.8684 242.318 35.8684 249.044 39.7522L468.318 166.348C475.044 170.234 475.044 176.531 468.318 180.415L373.909 234.922H349.545L340.408 229.646L334.317 233.163L343.455 238.439V252.506L249.044 307.011Z" fill="#050208" stroke="white" stroke-opacity="0.18" stroke-width="0.729478"/>
<path d="M249.046 281.948C242.32 285.831 231.411 285.831 224.682 281.948L130.274 227.44V213.376L139.412 208.1L133.319 204.583L124.183 209.859H99.8196L5.4111 155.352C1.86432 153.303 0.187256 150.583 0.381866 147.901V136.274L224.682 14.6887C231.411 10.8049 242.32 10.8049 249.046 14.6887L473.361 136.587V148.118C473.451 150.73 471.77 153.357 468.318 155.352L373.909 209.859H349.547L340.41 204.583L334.319 208.1L343.455 213.376V227.44L249.046 281.948Z" fill="url(#paint2_linear_1027_2500)"/>
<path d="M249.046 281.948C242.32 285.831 231.411 285.831 224.682 281.948L130.274 227.44V213.376L139.412 208.1L133.319 204.583L124.183 209.859H99.8196L5.4111 155.352C1.86432 153.303 0.187256 150.583 0.381866 147.901V136.274L224.682 14.6887C231.411 10.8049 242.32 10.8049 249.046 14.6887L473.361 136.587V148.118C473.451 150.73 471.77 153.357 468.318 155.352L373.909 209.859H349.547L340.41 204.583L334.319 208.1L343.455 213.376V227.44L249.046 281.948Z" fill="url(#paint3_linear_1027_2500)"/>
<path d="M236.865 12.1401C232.503 12.1401 228.16 13.102 224.865 15.0044L224.857 15.0093L0.746338 136.491V147.915L0.745361 147.927C0.564535 150.419 2.11649 153.028 5.59302 155.036L99.9172 209.495H124.086L133.137 204.267L133.32 204.162L133.501 204.267L139.594 207.784L140.141 208.099L139.594 208.416L130.639 213.586V227.229L224.865 281.631C228.16 283.534 232.503 284.496 236.865 284.496C241.227 284.496 245.569 283.534 248.864 281.631H248.865L343.09 227.229V213.585L334.137 208.416L333.59 208.099L334.137 207.784L340.227 204.267L340.409 204.162L340.592 204.267L349.645 209.495H373.812L468.135 155.036C471.414 153.142 472.981 150.716 472.999 148.358L472.996 148.13V136.803L248.872 15.0093L248.864 15.0044C245.569 13.1023 241.227 12.1402 236.865 12.1401Z" stroke="white" stroke-opacity="0.52" stroke-width="0.729478"/>
<path d="M373.909 209.859H349.547L340.41 204.583L334.319 208.1L343.455 213.376V227.44L249.046 281.948C242.32 285.831 231.411 285.831 224.682 281.948L130.274 227.44V213.376L139.412 208.1L133.319 204.583L124.183 209.859H99.8196L5.41109 155.352C1.86433 153.303 0.187261 150.583 0.381852 147.901V136.274L224.682 14.6887C231.411 10.8049 242.32 10.8049 249.046 14.6887L473.361 136.587V148.118C473.451 150.73 471.77 153.357 468.318 155.352L373.909 209.859ZM124.183 209.859V198.603M349.547 209.859L349.545 198.452M99.8196 209.859V198.603M373.909 209.859V198.452" stroke="white" stroke-opacity="0.52" stroke-width="0.729478"/>
<path d="M249.044 270.537C242.318 274.422 231.409 274.422 224.682 270.537L130.274 216.031V201.965L139.41 196.688L133.319 193.172L124.181 198.448H99.8195L5.41104 143.94C-1.31738 140.057 -1.31738 133.76 5.41104 129.874L224.682 3.27758C231.409 -0.6062 242.318 -0.6062 249.044 3.27758L468.318 129.874C475.044 133.76 475.044 140.057 468.318 143.94L373.909 198.448H349.545L340.408 193.172L334.317 196.688L343.455 201.965V216.031L249.044 270.537Z" fill="#050208"/>
<path d="M249.044 270.537C242.318 274.422 231.409 274.422 224.682 270.537L130.274 216.031V201.965L139.41 196.688L133.319 193.172L124.181 198.448H99.8195L5.41104 143.94C-1.31738 140.057 -1.31738 133.76 5.41104 129.874L224.682 3.27758C231.409 -0.6062 242.318 -0.6062 249.044 3.27758L468.318 129.874C475.044 133.76 475.044 140.057 468.318 143.94L373.909 198.448H349.545L340.408 193.172L334.317 196.688L343.455 201.965V216.031L249.044 270.537Z" fill="url(#paint4_radial_1027_2500)"/>
<path d="M249.044 270.537C242.318 274.422 231.409 274.422 224.682 270.537L130.274 216.031V201.965L139.41 196.688L133.319 193.172L124.181 198.448H99.8195L5.41104 143.94C-1.31738 140.057 -1.31738 133.76 5.41104 129.874L224.682 3.27758C231.409 -0.6062 242.318 -0.6062 249.044 3.27758L468.318 129.874C475.044 133.76 475.044 140.057 468.318 143.94L373.909 198.448H349.545L340.408 193.172L334.317 196.688L343.455 201.965V216.031L249.044 270.537Z" stroke="white" stroke-opacity="0.52" stroke-width="0.729478"/>
<mask id="path-13-inside-1_1027_2500" fill="white">
<path d="M197.712 159.476C195.644 160.704 192.465 161.065 189.765 160.257L164.601 153.178C163.679 152.922 162.488 152.987 161.754 153.422L161.221 153.739C160.22 154.333 160.206 155.386 161.189 156.008L195.605 177.765L189.47 181.408L154.333 159.195C150.858 156.999 150.906 153.595 154.44 151.497L157.108 149.913C159.708 148.369 163.616 147.977 166.976 148.875L190.755 155.651C191.875 155.95 193.2 155.807 194.067 155.292L194.6 154.975C195.467 154.46 195.743 153.654 195.223 152.998L184.981 138.185C183.555 136.138 184.315 133.758 186.916 132.214L189.65 130.59C193.118 128.531 198.738 128.569 202.213 130.766L237.35 152.978L231.148 156.661L196.732 134.904C195.749 134.282 194.096 134.219 193.096 134.813L192.563 135.129C191.829 135.565 191.687 136.292 192.009 136.905L202.835 152.496C204.068 154.175 203.38 156.111 201.313 157.338L197.712 159.476ZM261.137 129.693L241.251 99.8714L247.92 95.9119L269.037 127.574C270.915 130.396 269.812 133.623 266.278 135.722L262.81 137.781C259.276 139.879 253.977 140.454 249.431 139.215L198.439 125.291L205.108 121.332L253.135 134.444C255.045 134.997 257.364 134.746 258.831 133.875L260.031 133.162C261.565 132.252 261.981 130.88 261.137 129.693ZM284.46 108.371L298.029 116.949L291.894 120.592L250.53 94.4425L277.071 78.6837C280.071 76.9019 284.119 75.9452 288.351 76.0043C292.517 76.022 296.601 77.1327 299.551 78.9975L305.058 82.4786C308.008 84.3435 309.626 86.8381 309.59 89.4313C309.554 92.0245 307.866 94.473 304.865 96.2548L284.46 108.371ZM261.778 94.0322L279.281 105.097L297.753 94.1292C299.62 93.0205 300.699 91.4956 300.722 89.8749C300.745 88.2541 299.708 86.6997 297.873 85.5393L294.333 83.3015C292.497 82.1411 289.994 81.4578 287.349 81.4208C284.704 81.3839 282.117 81.9557 280.25 83.0643L261.778 94.0322Z"/>
</mask>
<path d="M197.712 159.476C195.644 160.704 192.465 161.065 189.765 160.257L164.601 153.178C163.679 152.922 162.488 152.987 161.754 153.422L161.221 153.739C160.22 154.333 160.206 155.386 161.189 156.008L195.605 177.765L189.47 181.408L154.333 159.195C150.858 156.999 150.906 153.595 154.44 151.497L157.108 149.913C159.708 148.369 163.616 147.977 166.976 148.875L190.755 155.651C191.875 155.95 193.2 155.807 194.067 155.292L194.6 154.975C195.467 154.46 195.743 153.654 195.223 152.998L184.981 138.185C183.555 136.138 184.315 133.758 186.916 132.214L189.65 130.59C193.118 128.531 198.738 128.569 202.213 130.766L237.35 152.978L231.148 156.661L196.732 134.904C195.749 134.282 194.096 134.219 193.096 134.813L192.563 135.129C191.829 135.565 191.687 136.292 192.009 136.905L202.835 152.496C204.068 154.175 203.38 156.111 201.313 157.338L197.712 159.476ZM261.137 129.693L241.251 99.8714L247.92 95.9119L269.037 127.574C270.915 130.396 269.812 133.623 266.278 135.722L262.81 137.781C259.276 139.879 253.977 140.454 249.431 139.215L198.439 125.291L205.108 121.332L253.135 134.444C255.045 134.997 257.364 134.746 258.831 133.875L260.031 133.162C261.565 132.252 261.981 130.88 261.137 129.693ZM284.46 108.371L298.029 116.949L291.894 120.592L250.53 94.4425L277.071 78.6837C280.071 76.9019 284.119 75.9452 288.351 76.0043C292.517 76.022 296.601 77.1327 299.551 78.9975L305.058 82.4786C308.008 84.3435 309.626 86.8381 309.59 89.4313C309.554 92.0245 307.866 94.473 304.865 96.2548L284.46 108.371ZM261.778 94.0322L279.281 105.097L297.753 94.1292C299.62 93.0205 300.699 91.4956 300.722 89.8749C300.745 88.2541 299.708 86.6997 297.873 85.5393L294.333 83.3015C292.497 82.1411 289.994 81.4578 287.349 81.4208C284.704 81.3839 282.117 81.9557 280.25 83.0643L261.778 94.0322Z" fill="url(#paint5_linear_1027_2500)"/>
<path d="M189.765 160.257L190.33 159.531L190.316 159.526L190.301 159.522L189.765 160.257ZM164.601 153.178L165.138 152.444L165.132 152.442L164.601 153.178ZM195.605 177.765L196.53 178.35L197.472 177.791L196.546 177.206L195.605 177.765ZM189.47 181.408L188.528 181.967L189.454 182.552L190.395 181.993L189.47 181.408ZM166.976 148.875L167.518 148.142L167.504 148.138L167.489 148.134L166.976 148.875ZM190.755 155.651L190.213 156.384L190.227 156.388L190.242 156.392L190.755 155.651ZM195.223 152.998L194.009 153.305L194.022 153.324L194.037 153.343L195.223 152.998ZM184.981 138.185L186.195 137.878L186.194 137.876L184.981 138.185ZM237.35 152.978L238.275 153.563L239.217 153.004L238.291 152.419L237.35 152.978ZM231.148 156.661L230.206 157.22L231.132 157.805L232.073 157.246L231.148 156.661ZM192.009 136.905L190.753 137.143L190.771 137.179L190.795 137.213L192.009 136.905ZM202.835 152.496L201.622 152.804L201.627 152.812L201.633 152.82L202.835 152.496ZM197.712 159.476L196.786 158.891C195.095 159.896 192.506 160.182 190.33 159.531L189.765 160.257L189.2 160.983C192.424 161.948 196.194 161.512 198.637 160.061L197.712 159.476ZM189.765 160.257L190.301 159.522L165.138 152.444L164.601 153.178L164.065 153.913L189.228 160.992L189.765 160.257ZM164.601 153.178L165.132 152.442C163.803 152.073 162.011 152.135 160.829 152.837L161.754 153.422L162.68 154.007C162.964 153.839 163.555 153.771 164.071 153.915L164.601 153.178ZM161.754 153.422L160.829 152.837L160.295 153.154L161.221 153.739L162.146 154.324L162.68 154.007L161.754 153.422ZM161.221 153.739L160.295 153.154C158.775 154.057 158.753 155.622 160.247 156.567L161.189 156.008L162.13 155.449C161.658 155.151 161.666 154.609 162.146 154.324L161.221 153.739ZM161.189 156.008L160.247 156.567L194.663 178.324L195.605 177.765L196.546 177.206L162.13 155.449L161.189 156.008ZM195.605 177.765L194.679 177.18L188.544 180.822L189.47 181.408L190.395 181.993L196.53 178.35L195.605 177.765ZM189.47 181.408L190.411 180.849L155.274 158.636L154.333 159.195L153.391 159.754L188.528 181.967L189.47 181.408ZM154.333 159.195L155.274 158.636C152.311 156.763 152.351 153.871 155.366 152.082L154.44 151.497L153.515 150.911C149.46 153.319 149.406 157.234 153.391 159.754L154.333 159.195ZM154.44 151.497L155.366 152.082L158.033 150.498L157.108 149.913L156.182 149.328L153.515 150.911L154.44 151.497ZM157.108 149.913L158.033 150.498C160.243 149.186 163.579 148.846 166.463 149.616L166.976 148.875L167.489 148.134C163.652 147.109 159.174 147.551 156.182 149.328L157.108 149.913ZM166.976 148.875L166.433 149.608L190.213 156.384L190.755 155.651L191.298 154.918L167.518 148.142L166.976 148.875ZM190.755 155.651L190.242 156.392C191.853 156.822 193.745 156.617 194.992 155.877L194.067 155.292L193.141 154.707C192.654 154.996 191.897 155.078 191.268 154.91L190.755 155.651ZM194.067 155.292L194.992 155.877L195.526 155.56L194.6 154.975L193.675 154.39L193.141 154.707L194.067 155.292ZM194.6 154.975L195.526 155.56C196.758 154.829 197.202 153.653 196.409 152.653L195.223 152.998L194.037 153.343C194.284 153.654 194.176 154.092 193.675 154.39L194.6 154.975ZM195.223 152.998L196.437 152.691L186.195 137.878L184.981 138.185L183.766 138.491L194.009 153.305L195.223 152.998ZM184.981 138.185L186.194 137.876C184.983 136.139 185.628 134.113 187.841 132.799L186.916 132.214L185.99 131.629C183.003 133.403 182.126 136.138 183.768 138.494L184.981 138.185ZM186.916 132.214L187.841 132.799L190.576 131.175L189.65 130.59L188.725 130.005L185.99 131.629L186.916 132.214ZM189.65 130.59L190.576 131.175C193.53 129.421 198.314 129.456 201.271 131.325L202.213 130.766L203.154 130.207C199.162 127.683 192.706 127.641 188.725 130.005L189.65 130.59ZM202.213 130.766L201.271 131.325L236.408 153.537L237.35 152.978L238.291 152.419L203.154 130.207L202.213 130.766ZM237.35 152.978L236.424 152.393L230.222 156.076L231.148 156.661L232.073 157.246L238.275 153.563L237.35 152.978ZM231.148 156.661L232.089 156.102L197.674 134.345L196.732 134.904L195.791 135.463L230.206 157.22L231.148 156.661ZM196.732 134.904L197.674 134.345C196.223 133.428 193.735 133.299 192.171 134.228L193.096 134.813L194.022 135.398C194.458 135.139 195.274 135.137 195.791 135.463L196.732 134.904ZM193.096 134.813L192.171 134.228L191.637 134.544L192.563 135.129L193.488 135.714L194.022 135.398L193.096 134.813ZM192.563 135.129L191.637 134.544C190.447 135.251 190.325 136.33 190.753 137.143L192.009 136.905L193.265 136.666C193.048 136.255 193.211 135.879 193.488 135.714L192.563 135.129ZM192.009 136.905L190.795 137.213L201.622 152.804L202.835 152.496L204.049 152.189L193.222 136.597L192.009 136.905ZM202.835 152.496L201.633 152.82C202.626 154.172 202.079 155.749 200.387 156.753L201.313 157.338L202.238 157.923C204.681 156.473 205.51 154.178 204.038 152.173L202.835 152.496ZM201.313 157.338L200.387 156.753L196.786 158.891L197.712 159.476L198.637 160.061L202.238 157.923L201.313 157.338ZM261.137 129.693L259.916 129.99L259.922 129.998L259.928 130.007L261.137 129.693ZM241.251 99.8714L240.326 99.2863L239.693 99.6622L240.03 100.168L241.251 99.8714ZM247.92 95.9119L249.141 95.6148L248.394 94.4955L246.994 95.3268L247.92 95.9119ZM269.037 127.574L270.258 127.277L270.258 127.277L269.037 127.574ZM249.431 139.215L248.908 139.953L248.909 139.953L249.431 139.215ZM198.439 125.291L197.514 124.706L196.114 125.538L197.916 126.03L198.439 125.291ZM205.108 121.332L205.63 120.593L204.815 120.371L204.182 120.747L205.108 121.332ZM253.135 134.444L253.686 133.713L253.672 133.709L253.658 133.706L253.135 134.444ZM261.137 129.693L262.359 129.396L242.472 99.5744L241.251 99.8714L240.03 100.168L259.916 129.99L261.137 129.693ZM241.251 99.8714L242.177 100.456L248.845 96.497L247.92 95.9119L246.994 95.3268L240.326 99.2863L241.251 99.8714ZM247.92 95.9119L246.699 96.2089L267.816 127.871L269.037 127.574L270.258 127.277L249.141 95.6148L247.92 95.9119ZM269.037 127.574L267.815 127.87C269.488 130.384 268.507 133.263 265.352 135.137L266.278 135.722L267.203 136.307C271.117 133.983 272.342 130.409 270.258 127.277L269.037 127.574ZM266.278 135.722L265.352 135.137L261.885 137.195L262.81 137.781L263.736 138.366L267.203 136.307L266.278 135.722ZM262.81 137.781L261.885 137.195C258.729 139.069 254.002 139.579 249.953 138.476L249.431 139.215L248.909 139.953C253.952 141.328 259.822 140.689 263.736 138.366L262.81 137.781ZM249.431 139.215L249.954 138.476L198.962 124.553L198.439 125.291L197.916 126.03L248.908 139.953L249.431 139.215ZM198.439 125.291L199.365 125.876L206.033 121.917L205.108 121.332L204.182 120.747L197.514 124.706L198.439 125.291ZM205.108 121.332L204.585 122.07L252.612 135.182L253.135 134.444L253.658 133.706L205.63 120.593L205.108 121.332ZM253.135 134.444L252.585 135.175C255.004 135.876 257.907 135.558 259.756 134.46L258.831 133.875L257.905 133.29C256.82 133.934 255.086 134.119 253.686 133.713L253.135 134.444ZM258.831 133.875L259.756 134.46L260.956 133.747L260.031 133.162L259.105 132.577L257.905 133.29L258.831 133.875ZM260.031 133.162L260.956 133.747C262.882 132.604 263.409 130.874 262.347 129.378L261.137 129.693L259.928 130.007C260.552 130.885 260.247 131.899 259.105 132.577L260.031 133.162ZM284.46 108.371L283.534 107.786L282.593 108.345L283.518 108.93L284.46 108.371ZM298.029 116.949L298.955 117.534L299.896 116.975L298.971 116.39L298.029 116.949ZM291.894 120.592L290.953 121.151L291.878 121.736L292.82 121.177L291.894 120.592ZM250.53 94.4425L249.604 93.8574L248.663 94.4164L249.588 95.0015L250.53 94.4425ZM288.351 76.0043L288.339 76.8133L288.35 76.8135L288.36 76.8135L288.351 76.0043ZM309.59 89.4313L310.91 89.4497V89.4497L309.59 89.4313ZM261.778 94.0322L260.853 93.4471L259.911 94.0061L260.837 94.5912L261.778 94.0322ZM279.281 105.097L278.339 105.656L279.265 106.241L280.206 105.682L279.281 105.097ZM300.722 89.8749L302.042 89.8933V89.8933L300.722 89.8749ZM287.349 81.4208L287.36 80.6118V80.6118L287.349 81.4208ZM284.46 108.371L283.518 108.93L297.088 117.508L298.029 116.949L298.971 116.39L285.401 107.812L284.46 108.371ZM298.029 116.949L297.104 116.364L290.969 120.007L291.894 120.592L292.82 121.177L298.955 117.534L298.029 116.949ZM291.894 120.592L292.836 120.033L251.471 93.8835L250.53 94.4425L249.588 95.0015L290.953 121.151L291.894 120.592ZM250.53 94.4425L251.455 95.0275L277.996 79.2687L277.071 78.6837L276.145 78.0986L249.604 93.8574L250.53 94.4425ZM277.071 78.6837L277.996 79.2687C280.744 77.6372 284.453 76.7591 288.339 76.8133L288.351 76.0043L288.362 75.1953C283.785 75.1314 279.399 76.1665 276.145 78.0986L277.071 78.6837ZM288.351 76.0043L288.36 76.8135C292.155 76.8296 295.9 77.8436 298.61 79.5565L299.551 78.9975L300.493 78.4385C297.303 76.4217 292.879 75.2144 288.341 75.1951L288.351 76.0043ZM299.551 78.9975L298.61 79.5565L304.116 83.0376L305.058 82.4786L305.999 81.9196L300.493 78.4385L299.551 78.9975ZM305.058 82.4786L304.116 83.0376C306.817 84.7452 308.303 87.0313 308.27 89.4129L309.59 89.4313L310.91 89.4497C310.949 86.645 309.198 83.9417 305.999 81.9196L305.058 82.4786ZM309.59 89.4313L308.27 89.4129C308.237 91.7944 306.688 94.0382 303.94 95.6697L304.865 96.2548L305.791 96.8399C309.045 94.9078 310.871 92.2545 310.91 89.4497L309.59 89.4313ZM304.865 96.2548L303.94 95.6697L283.534 107.786L284.46 108.371L285.385 108.956L305.791 96.8399L304.865 96.2548ZM261.778 94.0322L260.837 94.5912L278.339 105.656L279.281 105.097L280.222 104.538L262.72 93.4731L261.778 94.0322ZM279.281 105.097L280.206 105.682L298.678 94.7142L297.753 94.1292L296.827 93.5441L278.355 104.512L279.281 105.097ZM297.753 94.1292L298.678 94.7142C300.792 93.459 302.017 91.731 302.042 89.8933L300.722 89.8749L299.402 89.8564C299.382 91.2602 298.448 92.582 296.827 93.5441L297.753 94.1292ZM300.722 89.8749L302.042 89.8933C302.068 88.0556 300.892 86.2941 298.814 84.9803L297.873 85.5393L296.931 86.0983C298.524 87.1053 299.421 88.4527 299.402 89.8564L300.722 89.8749ZM297.873 85.5393L298.814 84.9803L295.274 82.7425L294.333 83.3015L293.391 83.8605L296.931 86.0983L297.873 85.5393ZM294.333 83.3015L295.274 82.7425C293.196 81.4287 290.359 80.6537 287.36 80.6118L287.349 81.4208L287.338 82.2298C289.628 82.2618 291.798 82.8535 293.391 83.8605L294.333 83.3015ZM287.349 81.4208L287.36 80.6118C284.394 80.5704 281.461 81.2108 279.324 82.4793L280.25 83.0643L281.175 83.6494C282.773 82.7005 285.015 82.1974 287.338 82.2298L287.349 81.4208ZM280.25 83.0643L279.324 82.4793L260.853 93.4471L261.778 94.0322L262.704 94.6172L281.175 83.6494L280.25 83.0643Z" fill="white" fill-opacity="0.19" mask="url(#path-13-inside-1_1027_2500)"/>
<rect width="10.801" height="10.801" rx="5.40052" transform="matrix(0.866025 -0.5 0.838671 0.544639 227.961 13.0591)" fill="#2E2738"/>
<circle cx="2.70026" cy="2.70026" r="2.70026" transform="matrix(0.866025 -0.5 0.838671 0.544639 232.564 13.1797)" fill="url(#paint6_linear_1027_2500)"/>
<rect width="10.801" height="10.801" rx="5.40052" transform="matrix(0.866025 -0.5 0.838671 0.544639 19.3311 135.612)" fill="#2E2738"/>
<circle cx="2.70026" cy="2.70026" r="2.70026" transform="matrix(0.866025 -0.5 0.838671 0.544639 23.9342 135.732)" fill="url(#paint7_linear_1027_2500)"/>
<rect width="10.801" height="10.801" rx="5.40052" transform="matrix(0.866025 -0.5 0.838671 0.544639 132.072 188.912)" fill="#2E2738"/>
<circle cx="2.70026" cy="2.70026" r="2.70026" transform="matrix(0.866025 -0.5 0.838671 0.544639 136.675 189.032)" fill="url(#paint8_linear_1027_2500)"/>
<rect width="10.801" height="10.801" rx="5.40052" transform="matrix(0.866025 -0.5 0.838671 0.544639 227.961 255.246)" fill="#2E2738"/>
<circle cx="2.70026" cy="2.70026" r="2.70026" transform="matrix(0.866025 -0.5 0.838671 0.544639 232.564 255.366)" fill="url(#paint9_linear_1027_2500)"/>
<rect width="10.801" height="10.801" rx="5.40052" transform="matrix(0.866025 -0.5 0.838671 0.544639 440.969 135.612)" fill="#2E2738"/>
<circle cx="2.70026" cy="2.70026" r="2.70026" transform="matrix(0.866025 -0.5 0.838671 0.544639 445.572 135.732)" fill="url(#paint10_linear_1027_2500)"/>
<rect width="10.801" height="10.801" rx="5.40052" transform="matrix(0.866025 -0.5 0.838671 0.544639 329.059 67.5132)" fill="#2E2738"/>
<circle cx="2.70026" cy="2.70026" r="2.70026" transform="matrix(0.866025 -0.5 0.838671 0.544639 333.662 67.6338)" fill="url(#paint11_linear_1027_2500)"/>
<defs>
<linearGradient id="paint0_linear_1027_2500" x1="339.19" y1="156.772" x2="225.405" y2="353.854" gradientUnits="userSpaceOnUse">
<stop stop-color="#090909"/>
<stop offset="0.2" stop-color="#FF5722"/>
<stop offset="0.6" stop-color="#AB0052"/>
<stop offset="1" stop-color="#191919"/>
</linearGradient>
<linearGradient id="paint1_linear_1027_2500" x1="339.19" y1="121.757" x2="225.405" y2="318.839" gradientUnits="userSpaceOnUse">
<stop stop-color="#090909"/>
<stop offset="0.2" stop-color="#FF5722"/>
<stop offset="0.6" stop-color="#AB0052"/>
<stop offset="1" stop-color="#191919"/>
</linearGradient>
<linearGradient id="paint2_linear_1027_2500" x1="339.19" y1="85.2829" x2="225.405" y2="282.365" gradientUnits="userSpaceOnUse">
<stop stop-color="#090909"/>
<stop offset="0.2" stop-color="#FF5722"/>
<stop offset="0.6" stop-color="#AB0052"/>
<stop offset="1" stop-color="#191919"/>
</linearGradient>
<linearGradient id="paint3_linear_1027_2500" x1="189.299" y1="273.919" x2="338.696" y2="44.7907" gradientUnits="userSpaceOnUse">
<stop offset="0.00961538" stop-color="#120C29"/>
<stop offset="0.591346" stop-color="#5020FF"/>
<stop offset="0.769231" stop-color="#B06AF6"/>
<stop offset="0.875" stop-color="#EDCAFF"/>
</linearGradient>
<radialGradient id="paint4_radial_1027_2500" cx="0" cy="0" r="1" gradientTransform="matrix(-346.502 116.716 97.5944 191.964 449.723 -15.6838)" gradientUnits="userSpaceOnUse">
<stop stop-color="#1E1336"/>
<stop offset="1" stop-color="#0C0512"/>
</radialGradient>
<linearGradient id="paint5_linear_1027_2500" x1="201.02" y1="206.878" x2="289.758" y2="51.4048" gradientUnits="userSpaceOnUse">
<stop stop-color="#5020FF"/>
<stop offset="0.58985" stop-color="#B06AF6"/>
<stop offset="0.788372" stop-color="#EDCAFF"/>
</linearGradient>
<linearGradient id="paint6_linear_1027_2500" x1="-0.451403" y1="6.50783" x2="6.16193" y2="6.34662" gradientUnits="userSpaceOnUse">
<stop stop-color="#5020FF"/>
<stop offset="0.785636" stop-color="#B06AF6"/>
<stop offset="1" stop-color="#EDCAFF"/>
</linearGradient>
<linearGradient id="paint7_linear_1027_2500" x1="-0.451403" y1="6.50783" x2="6.16193" y2="6.34662" gradientUnits="userSpaceOnUse">
<stop stop-color="#5020FF"/>
<stop offset="0.785636" stop-color="#B06AF6"/>
<stop offset="1" stop-color="#EDCAFF"/>
</linearGradient>
<linearGradient id="paint8_linear_1027_2500" x1="-0.451403" y1="6.50783" x2="6.16193" y2="6.34662" gradientUnits="userSpaceOnUse">
<stop stop-color="#5020FF"/>
<stop offset="0.785636" stop-color="#B06AF6"/>
<stop offset="1" stop-color="#EDCAFF"/>
</linearGradient>
<linearGradient id="paint9_linear_1027_2500" x1="-0.451403" y1="6.50783" x2="6.16193" y2="6.34662" gradientUnits="userSpaceOnUse">
<stop stop-color="#5020FF"/>
<stop offset="0.785636" stop-color="#B06AF6"/>
<stop offset="1" stop-color="#EDCAFF"/>
</linearGradient>
<linearGradient id="paint10_linear_1027_2500" x1="-0.451403" y1="6.50783" x2="6.16193" y2="6.34662" gradientUnits="userSpaceOnUse">
<stop stop-color="#5020FF"/>
<stop offset="0.785636" stop-color="#B06AF6"/>
<stop offset="1" stop-color="#EDCAFF"/>
</linearGradient>
<linearGradient id="paint11_linear_1027_2500" x1="-0.451403" y1="6.50783" x2="6.16193" y2="6.34662" gradientUnits="userSpaceOnUse">
<stop stop-color="#5020FF"/>
<stop offset="0.785636" stop-color="#B06AF6"/>
<stop offset="1" stop-color="#EDCAFF"/>
</linearGradient>
</defs>
</svg>
