<svg width="316" height="71" viewBox="0 0 316 71" fill="none" xmlns="http://www.w3.org/2000/svg">
<rect x="0.542114" y="0.541992" width="314.37" height="69.3782" rx="17.6258" fill="url(#paint0_linear_1099_2799)" fill-opacity="0.1"/>
<rect x="0.542114" y="0.541992" width="314.37" height="69.3782" rx="17.6258" stroke="white" stroke-opacity="0.08" stroke-width="1.08403"/>
<g clip-path="url(#clip0_1099_2799)">
<rect x="11.3824" y="14.3003" width="41.8613" height="41.8613" fill="#E2111C"/>
<path fill-rule="evenodd" clip-rule="evenodd" d="M32.2029 22.56C33.1636 22.4432 34.8202 22.9343 35.704 23.3592C35.9436 23.4744 36.1727 23.5925 36.4027 23.7111C36.7469 23.8886 37.093 24.067 37.4788 24.238C37.4961 24.2147 37.5162 24.1873 37.5383 24.1571C37.6722 23.9743 37.8822 23.6878 38.0185 23.5796C38.5079 23.2005 39.2355 23.2144 39.8944 23.227C40.0934 23.2308 40.2863 23.2344 40.4643 23.2271C41.0179 23.2044 41.9689 23.2267 42.3777 23.6415C43.0571 24.3309 42.8362 25.2681 42.6227 26.1743C42.5361 26.5417 42.4508 26.9039 42.4271 27.2425C42.9111 27.6661 43.4013 28.0281 43.8873 28.3871C44.3854 28.755 44.8791 29.1197 45.3575 29.5441C45.9198 30.0851 46.5776 31.0179 46.5411 31.8367C46.4466 33.9569 44.0411 34.1645 42.4734 34.1571C42.7865 35.5926 43.2283 36.5352 44.2004 37.6293C44.9508 38.5372 45.3114 39.9297 45.1066 41.0821C44.8865 42.3203 44.5189 42.8243 43.6857 43.6799C42.1921 45.2135 40.2253 45.7325 38.1357 45.7564C37.7631 45.7607 37.4065 45.7231 37.0499 45.6855C36.7353 45.6524 36.4207 45.6193 36.0952 45.6148C35.845 45.6166 35.2606 45.7352 34.7767 45.8334C34.564 45.8766 34.3706 45.9159 34.2336 45.9395C32.9079 46.1075 31.8239 46.1146 30.4908 45.8851C30.3211 45.8765 30.076 45.814 29.8232 45.7497C29.4952 45.6661 29.1541 45.5792 28.9477 45.6024C27.5171 45.7632 26.2017 45.8512 24.7669 45.5305C23.3063 45.204 21.4682 44.183 20.6413 42.8871C19.6951 41.4043 19.6937 39.398 20.6345 37.9153C20.8267 37.6102 21.0532 37.3128 21.2809 37.0137C21.5915 36.6058 21.9045 36.1949 22.1359 35.757C22.3656 35.3224 22.4793 34.8152 22.5879 34.3307C22.6011 34.2716 22.6143 34.2129 22.6276 34.1547C21.4866 34.1871 20.2774 34.1245 19.3383 33.3915C18.9548 33.0994 18.5714 32.5703 18.546 32.0735C18.4569 30.3249 20.1346 29.1176 21.4999 28.1352C21.7184 27.9779 21.929 27.8263 22.123 27.6793C22.304 27.5469 22.478 27.4033 22.6521 27.2597C22.8709 27.0792 23.0897 26.8986 23.3228 26.7398C24.816 25.7164 26.4045 24.8849 28.0019 24.0487C28.1864 23.9522 28.3711 23.8555 28.5557 23.7584C29.6869 23.164 30.9242 22.6977 32.2029 22.56ZM32.4489 23.9172C33.7394 23.9257 35.1177 24.5653 36.3246 25.1252C36.4589 25.1875 36.5911 25.2489 36.7208 25.3083C36.9291 25.4036 37.1097 25.5012 37.286 25.5964C37.6016 25.767 37.9034 25.9301 38.3254 26.0591C38.9392 25.6937 38.9008 25.46 38.8117 24.9171C38.7976 24.831 38.7821 24.7371 38.7678 24.6337C39.6914 24.6102 40.6155 24.6094 41.5391 24.6311C41.5127 25.0365 41.4259 25.472 41.3379 25.9131C41.2008 26.6007 41.0609 27.3019 41.1432 27.9241C41.4696 28.188 41.7928 28.4285 42.1154 28.6685C42.369 28.8572 42.6222 29.0456 42.8761 29.2447C43.0003 29.3462 43.1543 29.4619 43.3238 29.5893C44.092 30.1668 45.1771 30.9824 45.237 31.7781C45.3214 32.8979 43.2097 32.8766 42.1086 32.8654C41.9083 32.8634 41.7414 32.8617 41.6273 32.8673C40.9745 32.8992 41.1061 33.7729 41.1709 34.2015C41.3215 35.1966 41.6427 36.1648 42.1601 37.0344C42.2932 37.2351 42.4299 37.4267 42.5643 37.6152C43.0806 38.3393 43.5636 39.0166 43.6875 39.9825C43.8297 40.838 43.4315 41.9654 42.9067 42.6251C41.7774 44.0444 39.5104 44.6236 37.7602 44.5226C37.4995 44.5076 37.2031 44.4722 36.9124 44.4374C36.5749 44.3971 36.2452 44.3576 35.9883 44.3522C35.8878 44.35 35.4938 44.4288 35.1199 44.5035C34.8537 44.5568 34.5975 44.608 34.4653 44.6263C32.4697 44.9642 30.9191 44.7031 28.9896 44.3539C28.6805 44.3682 28.356 44.4084 28.0382 44.4477C27.8912 44.4659 27.7455 44.4839 27.6034 44.4991C25.1469 44.7621 22.1618 43.7174 21.3626 41.1645C21.2331 40.6914 21.252 39.5535 21.5172 39.1428C21.6775 38.8945 21.8416 38.649 22.0052 38.4043C23.0088 36.9028 23.9946 35.428 23.9872 33.4926C23.9867 33.3703 23.8602 32.9668 23.7076 32.9337C23.2744 32.8399 22.8149 32.8473 22.3536 32.8548C21.5661 32.8676 20.7735 32.8805 20.0978 32.3895C19.0695 31.4118 21.3847 29.8109 22.2628 29.2038C22.368 29.1311 22.4526 29.0726 22.5083 29.0312L24.2291 27.7778C24.3297 27.7039 24.4449 27.6147 24.564 27.5225C24.775 27.3592 24.9983 27.1864 25.1743 27.0723C25.4445 26.8971 25.7479 26.7304 26.0483 26.5655C26.2531 26.453 26.4565 26.3413 26.6469 26.2282C28.1475 25.3372 30.7044 24.0168 32.4489 23.9172Z" fill="white"/>
<path fill-rule="evenodd" clip-rule="evenodd" d="M35.704 23.3592C34.8202 22.9343 33.1636 22.4432 32.2029 22.56C30.9242 22.6977 29.6869 23.164 28.5557 23.7584C28.3711 23.8555 28.1864 23.9522 28.0019 24.0487C26.4045 24.8849 24.816 25.7164 23.3228 26.7398C23.0897 26.8986 22.8709 27.0792 22.6521 27.2597C22.478 27.4033 22.304 27.5469 22.123 27.6793C21.929 27.8263 21.7184 27.9779 21.4999 28.1352C20.1346 29.1176 18.4569 30.3249 18.546 32.0735C18.5714 32.5703 18.9548 33.0994 19.3383 33.3915C20.2774 34.1245 21.4866 34.1871 22.6276 34.1547C22.6143 34.2129 22.6011 34.2716 22.5879 34.3307C22.4793 34.8152 22.3656 35.3224 22.1359 35.757C21.9045 36.1949 21.5915 36.6058 21.2809 37.0137C21.0532 37.3128 20.8267 37.6102 20.6345 37.9153C19.6937 39.398 19.6951 41.4043 20.6413 42.8871C21.4682 44.183 23.3063 45.204 24.7669 45.5305C26.2017 45.8512 27.5171 45.7632 28.9477 45.6024C29.1541 45.5792 29.4952 45.6661 29.8232 45.7497C30.076 45.814 30.3211 45.8765 30.4908 45.8851C31.8239 46.1146 32.9079 46.1075 34.2336 45.9395C34.3706 45.9159 34.564 45.8766 34.7767 45.8334C35.2606 45.7352 35.845 45.6166 36.0952 45.6148C36.4207 45.6193 36.7353 45.6524 37.0499 45.6855C37.4065 45.7231 37.7631 45.7607 38.1357 45.7564C40.2253 45.7325 42.1921 45.2135 43.6857 43.6799C44.5189 42.8243 44.8865 42.3203 45.1066 41.0821C45.3114 39.9297 44.9508 38.5372 44.2004 37.6293C43.2283 36.5352 42.7865 35.5926 42.4734 34.1571C44.0411 34.1645 46.4466 33.9569 46.5411 31.8367C46.5776 31.0179 45.9198 30.0851 45.3575 29.5441C44.8791 29.1197 44.3854 28.755 43.8873 28.3871C43.4013 28.0281 42.9111 27.6661 42.4271 27.2425C42.4508 26.9039 42.5361 26.5417 42.6227 26.1743C42.8362 25.2681 43.0571 24.3309 42.3777 23.6415C41.9689 23.2267 41.0179 23.2044 40.4643 23.2271C40.2863 23.2344 40.0934 23.2308 39.8944 23.227C39.2355 23.2144 38.5079 23.2005 38.0185 23.5796C37.8822 23.6878 37.6722 23.9743 37.5383 24.1571C37.5162 24.1873 37.4961 24.2147 37.4788 24.238C37.093 24.067 36.7469 23.8886 36.4027 23.7111C36.1727 23.5925 35.9436 23.4744 35.704 23.3592ZM32.4489 23.9172C33.7394 23.9257 35.1177 24.5653 36.3246 25.1252C36.4589 25.1875 36.5911 25.2489 36.7208 25.3083C36.9291 25.4036 37.1097 25.5012 37.286 25.5964C37.6016 25.767 37.9034 25.9301 38.3254 26.0591C38.9392 25.6937 38.9008 25.46 38.8117 24.9171C38.7976 24.831 38.7821 24.7371 38.7678 24.6337C39.6914 24.6102 40.6155 24.6094 41.5391 24.6311C41.5127 25.0365 41.4259 25.472 41.3379 25.9131C41.2008 26.6007 41.0609 27.3019 41.1432 27.9241C41.4696 28.188 41.7928 28.4285 42.1154 28.6685C42.369 28.8572 42.6222 29.0456 42.8761 29.2447C43.0003 29.3462 43.1543 29.4619 43.3238 29.5893C44.092 30.1668 45.1771 30.9824 45.237 31.7781C45.3214 32.8979 43.2097 32.8766 42.1086 32.8654C41.9083 32.8634 41.7414 32.8617 41.6273 32.8673C40.9745 32.8992 41.1061 33.7729 41.1709 34.2015C41.3215 35.1966 41.6427 36.1648 42.1601 37.0344C42.2932 37.2351 42.4299 37.4267 42.5643 37.6152C43.0806 38.3393 43.5636 39.0166 43.6875 39.9825C43.8297 40.838 43.4315 41.9654 42.9067 42.6251C41.7774 44.0444 39.5104 44.6236 37.7602 44.5226C37.4995 44.5076 37.2031 44.4722 36.9124 44.4374C36.5749 44.3971 36.2452 44.3576 35.9883 44.3522C35.8878 44.35 35.4938 44.4288 35.1199 44.5035C34.8537 44.5568 34.5975 44.608 34.4653 44.6263C32.4697 44.9642 30.9191 44.7031 28.9896 44.3539C28.6805 44.3682 28.356 44.4084 28.0382 44.4477C27.8912 44.4659 27.7455 44.4839 27.6034 44.4991C25.1469 44.7621 22.1618 43.7174 21.3626 41.1645C21.2331 40.6914 21.252 39.5535 21.5172 39.1428C21.6775 38.8945 21.8416 38.649 22.0052 38.4043C23.0088 36.9028 23.9946 35.428 23.9872 33.4926C23.9867 33.3703 23.8602 32.9668 23.7076 32.9337C23.2744 32.8399 22.8149 32.8473 22.3536 32.8548C21.5661 32.8676 20.7735 32.8805 20.0978 32.3895C19.0695 31.4118 21.3847 29.8109 22.2628 29.2038C22.368 29.1311 22.4526 29.0726 22.5083 29.0312L24.2291 27.7778C24.3297 27.7039 24.4449 27.6147 24.564 27.5225C24.775 27.3592 24.9983 27.1864 25.1743 27.0723C25.4445 26.8971 25.7479 26.7304 26.0483 26.5655C26.2531 26.453 26.4565 26.3413 26.6469 26.2282C28.1475 25.3372 30.7044 24.0168 32.4489 23.9172Z" fill="white"/>
<path d="M34.7767 45.8334C35.2606 45.7352 35.845 45.6166 36.0952 45.6148C36.4207 45.6193 36.7353 45.6524 37.0499 45.6855C37.4065 45.7231 37.7631 45.7607 38.1357 45.7564C40.2253 45.7325 42.1921 45.2135 43.6857 43.6799C44.5189 42.8243 44.8865 42.3203 45.1066 41.0821C45.3114 39.9297 44.9508 38.5372 44.2004 37.6293C43.2283 36.5352 42.7865 35.5926 42.4734 34.1571C44.0411 34.1645 46.4466 33.9569 46.5411 31.8367C46.5776 31.0179 45.9198 30.0851 45.3575 29.5441C44.8791 29.1197 44.3854 28.755 43.8873 28.3871C43.4013 28.0281 42.9111 27.6661 42.4271 27.2425C42.4508 26.9039 42.5361 26.5417 42.6227 26.1743C42.8362 25.2681 43.0571 24.3309 42.3777 23.6415C41.9689 23.2267 41.0179 23.2044 40.4643 23.2271C40.2863 23.2344 40.0934 23.2308 39.8944 23.227C39.2355 23.2144 38.5079 23.2005 38.0185 23.5796C37.8822 23.6878 37.6722 23.9743 37.5383 24.1571C37.5162 24.1873 37.4961 24.2147 37.4788 24.238C37.093 24.067 36.7469 23.8886 36.4027 23.7111C36.1727 23.5925 35.9436 23.4744 35.704 23.3592C34.8202 22.9343 33.1636 22.4432 32.2029 22.56C30.9242 22.6977 29.6869 23.164 28.5557 23.7584C28.3711 23.8555 28.1864 23.9522 28.0019 24.0487C26.4045 24.8849 24.816 25.7164 23.3228 26.7398C23.0897 26.8986 22.8709 27.0792 22.6521 27.2597C22.478 27.4033 22.304 27.5469 22.123 27.6793C21.929 27.8263 21.7184 27.9779 21.4999 28.1352C20.1346 29.1176 18.4569 30.3249 18.546 32.0735C18.5714 32.5703 18.9548 33.0994 19.3383 33.3915C20.2774 34.1245 21.4866 34.1871 22.6276 34.1547C22.6143 34.2129 22.6011 34.2716 22.5879 34.3307C22.4793 34.8152 22.3656 35.3224 22.1359 35.757C21.9045 36.1949 21.5915 36.6058 21.2809 37.0137C21.0532 37.3128 20.8267 37.6102 20.6345 37.9153C19.6937 39.398 19.6951 41.4043 20.6413 42.8871C21.4682 44.183 23.3063 45.204 24.7669 45.5305C26.2017 45.8512 27.5171 45.7632 28.9477 45.6024C29.1541 45.5792 29.4952 45.6661 29.8232 45.7497C30.076 45.814 30.3211 45.8765 30.4908 45.8851C31.8239 46.1146 32.9079 46.1075 34.2336 45.9395C34.3706 45.9159 34.564 45.8766 34.7767 45.8334ZM43.8873 28.3871C43.8265 28.3422 43.7657 28.2973 43.7048 28.2522M37.0499 45.6855C37.0945 45.6902 37.1391 45.6949 37.1837 45.6995M34.7767 45.8334L34.7764 45.8335C34.7632 45.8362 34.7501 45.8388 34.737 45.8415M22.5879 34.3307C22.5929 34.3085 22.5978 34.2864 22.6028 34.2644M21.4999 28.1352V28.1352ZM28.0382 44.4477C28.356 44.4084 28.6805 44.3682 28.9896 44.3539C30.9191 44.7031 32.4697 44.9642 34.4653 44.6263C34.5975 44.608 34.8537 44.5568 35.1199 44.5035C35.4938 44.4288 35.8878 44.35 35.9883 44.3522C36.2452 44.3576 36.5749 44.3971 36.9124 44.4374C37.2031 44.4722 37.4995 44.5076 37.7602 44.5226C39.5104 44.6236 41.7774 44.0444 42.9067 42.6251C43.4315 41.9654 43.8297 40.838 43.6875 39.9825C43.5636 39.0166 43.0806 38.3393 42.5643 37.6152C42.4299 37.4267 42.2932 37.2351 42.1601 37.0344C41.6427 36.1648 41.3215 35.1966 41.1709 34.2015C41.1061 33.7729 40.9745 32.8992 41.6273 32.8673C41.7414 32.8617 41.9083 32.8634 42.1086 32.8654C43.2097 32.8766 45.3214 32.8979 45.237 31.7781C45.1771 30.9824 44.092 30.1668 43.3238 29.5893C43.1543 29.4619 43.0003 29.3462 42.8761 29.2447C42.6222 29.0456 42.369 28.8572 42.1154 28.6685C41.7928 28.4285 41.4696 28.188 41.1432 27.9241C41.0609 27.3019 41.2008 26.6007 41.3379 25.9131C41.4259 25.472 41.5127 25.0365 41.5391 24.6311C40.6155 24.6094 39.6914 24.6102 38.7678 24.6337C38.7821 24.7371 38.7976 24.831 38.8117 24.9171C38.9008 25.46 38.9392 25.6937 38.3254 26.0591C37.9034 25.9301 37.6016 25.767 37.286 25.5964C37.1097 25.5012 36.9291 25.4036 36.7208 25.3083C36.5911 25.2489 36.4589 25.1875 36.3246 25.1252C35.1177 24.5653 33.7394 23.9257 32.4489 23.9172C30.7044 24.0168 28.1475 25.3372 26.6469 26.2282C26.4565 26.3413 26.2531 26.453 26.0483 26.5655C25.7479 26.7304 25.4445 26.8971 25.1743 27.0723C24.9983 27.1864 24.775 27.3592 24.564 27.5225C24.4449 27.6147 24.3297 27.7039 24.2291 27.7778L22.5083 29.0312C22.4526 29.0726 22.368 29.1311 22.2628 29.2038C21.3847 29.8109 19.0695 31.4118 20.0978 32.3895C20.7735 32.8805 21.5661 32.8676 22.3536 32.8548C22.8149 32.8473 23.2744 32.8399 23.7076 32.9337C23.8602 32.9668 23.9867 33.3703 23.9872 33.4926C23.9946 35.428 23.0088 36.9028 22.0052 38.4043C21.8416 38.649 21.6775 38.8945 21.5172 39.1428C21.252 39.5535 21.2331 40.6914 21.3626 41.1645C22.1618 43.7174 25.1469 44.7621 27.6034 44.4991C27.7455 44.4839 27.8912 44.4659 28.0382 44.4477ZM28.0382 44.4477C28.0779 44.4428 28.1177 44.4379 28.1576 44.433M28.0028 24.0482V24.0482ZM28.0028 24.0482L28.0023 24.0485" stroke="white" stroke-width="0.510321"/>
</g>
<g clip-path="url(#clip1_1099_2799)">
<path d="M65.2846 30.7236V19.0809H67.1565L72.8286 27.2381H72.877V19.0809H74.9425V30.7236H73.0868L67.3985 22.5342H67.3582V30.7236H65.2846ZM79.711 30.8931C77.831 30.8931 76.7579 29.6828 76.7579 27.698V22.1711H78.767V27.3026C78.767 28.5129 79.3318 29.1987 80.4775 29.1987C81.6313 29.1987 82.3655 28.3676 82.3655 27.1251V22.1711H84.3745V30.7236H82.3655V29.3843H82.3252C81.8814 30.296 81.0019 30.8931 79.711 30.8931ZM89.7885 30.8931C87.2227 30.8931 85.6736 29.1906 85.6736 26.4716V26.4635C85.6736 23.7686 87.2469 21.9936 89.6916 21.9936C92.1364 21.9936 93.6533 23.7121 93.6533 26.2941V26.9395H87.6665C87.6987 28.4403 88.5217 29.3278 89.8288 29.3278C90.8293 29.3278 91.4828 28.7953 91.6765 28.2224L91.6926 28.1659H93.5726L93.5484 28.2547C93.2821 29.5698 92.0234 30.8931 89.7885 30.8931ZM89.7159 23.5669C88.6508 23.5669 87.852 24.285 87.6907 25.6002H91.7007C91.5555 24.2447 90.7809 23.5669 89.7159 23.5669ZM96.9371 30.7236L93.9115 22.1711H96.0496L98.0344 28.8598H98.0828L100.06 22.1711H102.157L99.1479 30.7236H96.9371ZM105.417 30.8689C103.707 30.8689 102.553 29.8119 102.553 28.287V28.2708C102.553 26.754 103.731 25.8422 105.804 25.7131L108.039 25.576V24.987C108.039 24.1236 107.475 23.5992 106.458 23.5992C105.506 23.5992 104.925 24.043 104.796 24.6723L104.78 24.7449H102.916L102.924 24.6481C103.045 23.1312 104.36 21.9936 106.531 21.9936C108.669 21.9936 110.048 23.1232 110.048 24.8417V30.7236H108.039V29.4085H107.991C107.499 30.3041 106.547 30.8689 105.417 30.8689ZM104.554 28.2063C104.554 28.9082 105.135 29.3359 106.014 29.3359C107.168 29.3359 108.039 28.5694 108.039 27.5527V26.9073L106.087 27.0283C105.094 27.0928 104.554 27.5205 104.554 28.1982V28.2063ZM118.157 30.8931C116.366 30.8931 115.519 30.1669 115.519 28.408V23.7202H114.308V22.1711H115.519V20.0007H117.56V22.1711H119.15V23.7202H117.56V28.2385C117.56 29.0777 117.931 29.3439 118.665 29.3439C118.859 29.3439 119.012 29.3197 119.15 29.3117V30.8205C118.916 30.8527 118.561 30.8931 118.157 30.8931ZM120.529 30.7236V22.1711H122.538V23.6476H122.579C122.845 22.6148 123.555 21.9936 124.539 21.9936C124.789 21.9936 125.023 22.0339 125.177 22.0743V23.8897C125.007 23.8251 124.701 23.7767 124.362 23.7767C123.224 23.7767 122.538 24.4948 122.538 25.7615V30.7236H120.529ZM128.541 30.8689C126.831 30.8689 125.677 29.8119 125.677 28.287V28.2708C125.677 26.754 126.855 25.8422 128.929 25.7131L131.163 25.576V24.987C131.163 24.1236 130.599 23.5992 129.582 23.5992C128.63 23.5992 128.049 24.043 127.92 24.6723L127.904 24.7449H126.04L126.048 24.6481C126.169 23.1312 127.484 21.9936 129.655 21.9936C131.793 21.9936 133.173 23.1232 133.173 24.8417V30.7236H131.163V29.4085H131.115C130.623 30.3041 129.671 30.8689 128.541 30.8689ZM127.678 28.2063C127.678 28.9082 128.259 29.3359 129.138 29.3359C130.292 29.3359 131.163 28.5694 131.163 27.5527V26.9073L129.211 27.0283C128.219 27.0928 127.678 27.5205 127.678 28.1982V28.2063ZM134.794 30.7236V22.1711H136.803V23.5104H136.844C137.287 22.5906 138.159 21.9936 139.458 21.9936C141.338 21.9936 142.411 23.2038 142.411 25.1887V30.7236H140.402V25.5921C140.402 24.3738 139.837 23.6879 138.691 23.6879C137.538 23.6879 136.803 24.5271 136.803 25.7615V30.7236H134.794ZM147.365 30.8931C145.122 30.8931 143.839 29.828 143.662 28.2385L143.653 28.1659H145.63L145.646 28.2385C145.8 28.9728 146.356 29.4085 147.373 29.4085C148.349 29.4085 148.938 29.0131 148.938 28.3838V28.3757C148.938 27.8593 148.64 27.5689 147.752 27.3672L146.332 27.0525C144.694 26.6894 143.871 25.8906 143.871 24.6239V24.6158C143.871 23.0505 145.235 21.9936 147.3 21.9936C149.43 21.9936 150.673 23.1635 150.746 24.64L150.754 24.7288H148.882L148.874 24.6642C148.785 23.9784 148.236 23.4782 147.3 23.4782C146.413 23.4782 145.856 23.8897 145.856 24.519V24.5271C145.856 25.0192 146.187 25.342 147.074 25.5437L148.503 25.8584C150.27 26.2537 150.955 26.9476 150.955 28.1901V28.1982C150.955 29.8119 149.463 30.8931 147.365 30.8931ZM152.795 30.7236V23.7202H151.625V22.1711H152.795V21.3562C152.795 19.686 153.586 18.9114 155.441 18.9114C155.837 18.9114 156.264 18.9437 156.515 18.9921V20.396C156.353 20.3718 156.127 20.3557 155.909 20.3557C155.127 20.3557 154.764 20.7188 154.764 21.4126V22.1711H156.482V23.7202H154.804V30.7236H152.795ZM160.888 30.8931C158.322 30.8931 156.773 29.1906 156.773 26.4716V26.4635C156.773 23.7686 158.346 21.9936 160.791 21.9936C163.236 21.9936 164.752 23.7121 164.752 26.2941V26.9395H158.766C158.798 28.4403 159.621 29.3278 160.928 29.3278C161.929 29.3278 162.582 28.7953 162.776 28.2224L162.792 28.1659H164.672L164.648 28.2547C164.381 29.5698 163.123 30.8931 160.888 30.8931ZM160.815 23.5669C159.75 23.5669 158.951 24.285 158.79 25.6002H162.8C162.655 24.2447 161.88 23.5669 160.815 23.5669ZM166.051 30.7236V22.1711H168.061V23.6476H168.101C168.367 22.6148 169.077 21.9936 170.062 21.9936C170.312 21.9936 170.546 22.0339 170.699 22.0743V23.8897C170.529 23.8251 170.223 23.7767 169.884 23.7767C168.746 23.7767 168.061 24.4948 168.061 25.7615V30.7236H166.051ZM175.169 30.8931C172.603 30.8931 171.054 29.1906 171.054 26.4716V26.4635C171.054 23.7686 172.627 21.9936 175.072 21.9936C177.517 21.9936 179.034 23.7121 179.034 26.2941V26.9395H173.047C173.079 28.4403 173.902 29.3278 175.209 29.3278C176.21 29.3278 176.863 28.7953 177.057 28.2224L177.073 28.1659H178.953L178.929 28.2547C178.662 29.5698 177.404 30.8931 175.169 30.8931ZM175.096 23.5669C174.031 23.5669 173.232 24.285 173.071 25.6002H177.081C176.936 24.2447 176.161 23.5669 175.096 23.5669ZM180.333 30.7236V22.1711H182.342V23.5104H182.382C182.826 22.5906 183.697 21.9936 184.996 21.9936C186.876 21.9936 187.949 23.2038 187.949 25.1887V30.7236H185.94V25.5921C185.94 24.3738 185.375 23.6879 184.23 23.6879C183.076 23.6879 182.342 24.5271 182.342 25.7615V30.7236H180.333ZM193.339 30.8931C190.797 30.8931 189.208 29.1826 189.208 26.4393V26.4312C189.208 23.7041 190.822 21.9936 193.315 21.9936C195.566 21.9936 196.97 23.4217 197.091 25.1322L197.099 25.1967H195.203L195.187 25.1241C195.017 24.2931 194.404 23.6234 193.339 23.6234C192.072 23.6234 191.257 24.6965 191.257 26.4474V26.4554C191.257 28.2385 192.08 29.2713 193.347 29.2713C194.364 29.2713 195.009 28.6662 195.195 27.7706L195.211 27.698H197.107L197.099 27.7544C196.946 29.5376 195.501 30.8931 193.339 30.8931ZM199.374 20.9447C198.745 20.9447 198.253 20.4444 198.253 19.8474C198.253 19.2342 198.745 18.742 199.374 18.742C200.004 18.742 200.488 19.2342 200.488 19.8474C200.488 20.4444 200.004 20.9447 199.374 20.9447ZM198.366 30.7236V22.1711H200.375V30.7236H198.366ZM204.611 30.8689C202.9 30.8689 201.746 29.8119 201.746 28.287V28.2708C201.746 26.754 202.924 25.8422 204.998 25.7131L207.233 25.576V24.987C207.233 24.1236 206.668 23.5992 205.651 23.5992C204.699 23.5992 204.118 24.043 203.989 24.6723L203.973 24.7449H202.109L202.117 24.6481C202.238 23.1312 203.554 21.9936 205.724 21.9936C207.862 21.9936 209.242 23.1232 209.242 24.8417V30.7236H207.233V29.4085H207.184C206.692 30.3041 205.74 30.8689 204.611 30.8689ZM203.747 28.2063C203.747 28.9082 204.328 29.3359 205.208 29.3359C206.361 29.3359 207.233 28.5694 207.233 27.5527V26.9073L205.28 27.0283C204.288 27.0928 203.747 27.5205 203.747 28.1982V28.2063Z" fill="white"/>
<path d="M248.844 24.7236V14.947H250.064V19.1747H255.43V14.947H256.649V24.7236H255.43V20.2723H250.064V24.7236H248.844ZM260.134 24.8591C258.732 24.8591 257.79 24.0122 257.79 22.7317V22.7182C257.79 21.519 258.725 20.7669 260.344 20.6721L262.363 20.5569V19.9674C262.363 19.107 261.801 18.5853 260.818 18.5853C259.91 18.5853 259.341 19.0189 259.206 19.649L259.192 19.71H258.054L258.061 19.6355C258.162 18.4769 259.172 17.5419 260.832 17.5419C262.499 17.5419 263.542 18.443 263.542 19.8523V24.7236H262.363V23.5786H262.336C261.923 24.351 261.076 24.8591 260.134 24.8591ZM258.996 22.7317C258.996 23.4092 259.551 23.8361 260.398 23.8361C261.509 23.8361 262.363 23.0705 262.363 22.0474V21.4715L260.48 21.5867C259.538 21.6409 258.996 22.061 258.996 22.7182V22.7317ZM267.874 24.8591C265.875 24.8591 264.608 23.4363 264.608 21.1937V21.187C264.608 18.9647 265.902 17.5419 267.86 17.5419C269.615 17.5419 270.651 18.7072 270.8 19.9132L270.807 19.9674H269.655L269.642 19.9132C269.466 19.2086 268.897 18.5853 267.86 18.5853C266.634 18.5853 265.814 19.6016 265.814 21.2005V21.2073C265.814 22.8469 266.654 23.8158 267.874 23.8158C268.836 23.8158 269.452 23.2737 269.649 22.4878L269.662 22.4336H270.821L270.814 22.481C270.624 23.8225 269.466 24.8591 267.874 24.8591ZM274.719 24.8591C272.693 24.8591 271.473 23.4431 271.473 21.2276V21.2208C271.473 19.0392 272.72 17.5419 274.644 17.5419C276.568 17.5419 277.74 18.9715 277.74 21.0853V21.519H272.666C272.693 22.9689 273.492 23.8158 274.746 23.8158C275.64 23.8158 276.27 23.3686 276.473 22.7656L276.494 22.7046H277.652L277.639 22.7724C277.408 23.9377 276.257 24.8591 274.719 24.8591ZM274.637 18.5853C273.614 18.5853 272.815 19.2831 272.686 20.5975H276.541C276.426 19.2289 275.667 18.5853 274.637 18.5853ZM282.196 24.7236L286.62 16.0581V16.031H281.356V14.947H287.826V16.0785L283.476 24.7236H282.196ZM289.109 24.7236V17.6774H290.288V18.7072H290.315C290.633 18.0094 291.338 17.5419 292.246 17.5419C293.208 17.5419 293.919 18.0365 294.224 18.897H294.251C294.644 18.0501 295.471 17.5419 296.46 17.5419C297.856 17.5419 298.757 18.4566 298.757 19.859V24.7236H297.578V20.13C297.578 19.1612 297.043 18.5853 296.114 18.5853C295.179 18.5853 294.522 19.2831 294.522 20.2452V24.7236H293.343V20.0013C293.343 19.1476 292.774 18.5853 291.9 18.5853C290.965 18.5853 290.288 19.3238 290.288 20.3062V24.7236H289.109Z" fill="#D8D8D8" fill-opacity="0.6"/>
<path d="M66.1689 45.3965C66.6164 45.3965 66.966 45.7461 66.966 46.1936C66.966 46.6482 66.6164 46.9908 66.1689 46.9908C65.7144 46.9908 65.3717 46.6482 65.3717 46.1936C65.3717 45.7461 65.7144 45.3965 66.1689 45.3965ZM66.7143 48.8159L66.7982 55.5568H65.5395L65.6235 48.8159H66.7143ZM71.5232 52.7388V43.7812H68.3416V42.6484H75.9636V43.7812H72.7819V52.7388H71.5232ZM77.9195 52.8786C76.3252 52.8786 75.4022 51.8437 75.4022 50.1864V45.4664H76.6189V49.9697C76.6189 51.1514 77.1713 51.8018 78.2901 51.8018C79.4369 51.8018 80.1851 50.9836 80.1851 49.7459V45.4664H81.4019V52.7388H80.1851V51.7039H80.1572C79.7656 52.3821 79.0244 52.8786 77.9195 52.8786ZM85.7543 52.7388V45.4664H86.971V46.6971H86.999C87.2437 45.858 87.873 45.3266 88.6912 45.3266C88.901 45.3266 89.0828 45.3615 89.1807 45.3755V46.5573C89.0828 46.5223 88.824 46.4873 88.5303 46.4873C87.5863 46.4873 86.971 47.1446 86.971 48.2495V52.7388H85.7543ZM92.7309 52.8786C90.6401 52.8786 89.3814 51.4172 89.3814 49.1306V49.1236C89.3814 46.8719 90.6681 45.3266 92.654 45.3266C94.6399 45.3266 95.8496 46.802 95.8496 48.9837V49.4312H90.6121C90.6401 50.9277 91.4652 51.8018 92.7589 51.8018C93.6819 51.8018 94.3322 51.3402 94.542 50.7179L94.563 50.655H95.7587L95.7448 50.7249C95.507 51.9276 94.3182 52.8786 92.7309 52.8786ZM92.647 46.4034C91.5911 46.4034 90.766 47.1237 90.6331 48.4802H94.6119C94.4931 47.0677 93.7099 46.4034 92.647 46.4034ZM100.008 52.8786C97.9454 52.8786 96.6378 51.4102 96.6378 49.0956V49.0886C96.6378 46.795 97.9734 45.3266 99.9943 45.3266C101.805 45.3266 102.875 46.5293 103.029 47.774L103.036 47.8299H101.847L101.833 47.774C101.652 47.0467 101.064 46.4034 99.9943 46.4034C98.7286 46.4034 97.8825 47.4523 97.8825 49.1026V49.1096C97.8825 50.8018 98.7496 51.8018 100.008 51.8018C101.001 51.8018 101.638 51.2423 101.84 50.4312L101.854 50.3753H103.05L103.043 50.4242C102.847 51.8087 101.652 52.8786 100.008 52.8786ZM106.209 52.8786C104.761 52.8786 103.789 52.0045 103.789 50.6829V50.6689C103.789 49.4312 104.754 48.6551 106.426 48.5572L108.509 48.4383V47.8299C108.509 46.9419 107.929 46.4034 106.915 46.4034C105.978 46.4034 105.391 46.851 105.251 47.5013L105.237 47.5642H104.062L104.069 47.4873C104.174 46.2915 105.216 45.3266 106.929 45.3266C108.649 45.3266 109.726 46.2566 109.726 47.711V52.7388H108.509V51.557H108.481C108.055 52.3542 107.181 52.8786 106.209 52.8786ZM105.034 50.6829C105.034 51.3822 105.607 51.8227 106.481 51.8227C107.628 51.8227 108.509 51.0326 108.509 49.9767V49.3823L106.565 49.5012C105.593 49.5571 105.034 49.9907 105.034 50.6689V50.6829ZM111.185 52.7388V45.4664H112.402V46.6971H112.43C112.675 45.858 113.304 45.3266 114.122 45.3266C114.332 45.3266 114.514 45.3615 114.612 45.3755V46.5573C114.514 46.5223 114.255 46.4873 113.962 46.4873C113.018 46.4873 112.402 47.1446 112.402 48.2495V52.7388H111.185ZM118.246 55.3261C116.449 55.3261 115.316 54.4799 115.078 53.4031L115.064 53.3401H116.288L116.316 53.4031C116.547 53.9275 117.239 54.2492 118.232 54.2492C119.512 54.2492 120.239 53.5429 120.239 52.4171V51.4871H120.211C119.777 52.2912 118.938 52.8087 117.896 52.8087C116.064 52.8087 114.813 51.3332 114.813 49.0606V49.0536C114.813 46.795 116.078 45.3266 117.924 45.3266C118.952 45.3266 119.763 45.886 120.211 46.6971H120.239V45.4664H121.456V52.536C121.456 54.2212 120.218 55.3261 118.246 55.3261ZM118.162 51.7318C119.4 51.7318 120.239 50.6759 120.239 49.0606V49.0536C120.239 47.4523 119.393 46.4034 118.162 46.4034C116.869 46.4034 116.057 47.4383 116.057 49.0536V49.0606C116.057 50.7109 116.869 51.7318 118.162 51.7318ZM125.069 52.8786C123.621 52.8786 122.649 52.0045 122.649 50.6829V50.6689C122.649 49.4312 123.614 48.6551 125.286 48.5572L127.369 48.4383V47.8299C127.369 46.9419 126.789 46.4034 125.775 46.4034C124.838 46.4034 124.251 46.851 124.111 47.5013L124.097 47.5642H122.922L122.929 47.4873C123.034 46.2915 124.076 45.3266 125.789 45.3266C127.509 45.3266 128.586 46.2566 128.586 47.711V52.7388H127.369V51.557H127.341C126.915 52.3542 126.041 52.8786 125.069 52.8786ZM123.894 50.6829C123.894 51.3822 124.468 51.8227 125.342 51.8227C126.488 51.8227 127.369 51.0326 127.369 49.9767V49.3823L125.426 49.5012C124.454 49.5571 123.894 49.9907 123.894 50.6689V50.6829ZM135.631 52.8786C133.771 52.8786 132.54 51.3962 132.54 49.1026V49.0956C132.54 46.802 133.785 45.3266 135.61 45.3266C136.638 45.3266 137.484 45.844 137.938 46.6831H137.966V42.6484H139.183V52.7388H137.966V51.5081H137.938C137.484 52.3542 136.673 52.8786 135.631 52.8786ZM135.869 51.8018C137.099 51.8018 137.973 50.7319 137.973 49.1026V49.0956C137.973 47.4733 137.092 46.4034 135.869 46.4034C134.582 46.4034 133.785 47.4383 133.785 49.0956V49.1026C133.785 50.7738 134.582 51.8018 135.869 51.8018ZM143.733 52.8786C141.642 52.8786 140.384 51.4172 140.384 49.1306V49.1236C140.384 46.8719 141.67 45.3266 143.656 45.3266C145.642 45.3266 146.852 46.802 146.852 48.9837V49.4312H141.614C141.642 50.9277 142.468 51.8018 143.761 51.8018C144.684 51.8018 145.335 51.3402 145.544 50.7179L145.565 50.655H146.761L146.747 50.7249C146.509 51.9276 145.321 52.8786 143.733 52.8786ZM143.649 46.4034C142.593 46.4034 141.768 47.1237 141.635 48.4802H145.614C145.495 47.0677 144.712 46.4034 143.649 46.4034ZM153.449 52.7388V43.984H153.421L150.75 45.844V44.5783L153.435 42.6484H154.666V52.7388H153.449ZM160.607 52.9066C158.678 52.9066 157.3 51.7039 157.153 50.0606L157.146 49.9837H158.384L158.391 50.0396C158.517 51.0396 159.412 51.8018 160.621 51.8018C161.992 51.8018 162.943 50.8508 162.943 49.4942V49.4802C162.936 48.1516 161.978 47.2006 160.642 47.2006C159.957 47.2006 159.37 47.4034 158.922 47.8089C158.74 47.9768 158.58 48.1726 158.447 48.4033H157.335L157.852 42.6484H163.628V43.7672H158.887L158.545 47.1586H158.573C159.048 46.4803 159.887 46.1167 160.866 46.1167C162.803 46.1167 164.202 47.5222 164.202 49.4592V49.4732C164.195 51.4941 162.705 52.9066 160.607 52.9066ZM168.948 52.9066C166.626 52.9066 165.249 50.8997 165.249 47.6971V47.6831C165.249 44.4804 166.626 42.4805 168.948 42.4805C171.269 42.4805 172.661 44.4804 172.661 47.6831V47.6971C172.661 50.8997 171.269 52.9066 168.948 52.9066ZM168.948 51.8087C170.486 51.8087 171.395 50.2284 171.395 47.6971V47.6831C171.395 45.1517 170.486 43.5854 168.948 43.5854C167.409 43.5854 166.514 45.1517 166.514 47.6831V47.6971C166.514 50.2284 167.409 51.8087 168.948 51.8087ZM177.547 52.9066C175.225 52.9066 173.848 50.8997 173.848 47.6971V47.6831C173.848 44.4804 175.225 42.4805 177.547 42.4805C179.868 42.4805 181.26 44.4804 181.26 47.6831V47.6971C181.26 50.8997 179.868 52.9066 177.547 52.9066ZM177.547 51.8087C179.085 51.8087 179.994 50.2284 179.994 47.6971V47.6831C179.994 45.1517 179.085 43.5854 177.547 43.5854C176.008 43.5854 175.113 45.1517 175.113 47.6831V47.6971C175.113 50.2284 176.008 51.8087 177.547 51.8087ZM186.146 52.9066C183.824 52.9066 182.447 50.8997 182.447 47.6971V47.6831C182.447 44.4804 183.824 42.4805 186.146 42.4805C188.467 42.4805 189.859 44.4804 189.859 47.6831V47.6971C189.859 50.8997 188.467 52.9066 186.146 52.9066ZM186.146 51.8087C187.684 51.8087 188.593 50.2284 188.593 47.6971V47.6831C188.593 45.1517 187.684 43.5854 186.146 43.5854C184.607 43.5854 183.712 45.1517 183.712 47.6831V47.6971C183.712 50.2284 184.607 51.8087 186.146 51.8087ZM194.442 52.7388V46.4733H193.428V45.4664H194.442V44.5713C194.442 43.1728 195.092 42.5085 196.435 42.5085C196.707 42.5085 196.994 42.5295 197.176 42.5575V43.5434C197.029 43.5224 196.84 43.5155 196.652 43.5155C195.98 43.5155 195.645 43.8581 195.645 44.5783V45.4664H197.141V46.4733H195.659V52.7388H194.442ZM200.796 52.8786C199.202 52.8786 198.279 51.8437 198.279 50.1864V45.4664H199.496V49.9697C199.496 51.1514 200.048 51.8018 201.167 51.8018C202.314 51.8018 203.062 50.9836 203.062 49.7459V45.4664H204.279V52.7388H203.062V51.7039H203.034C202.642 52.3821 201.901 52.8786 200.796 52.8786ZM208.773 52.8786C206.682 52.8786 205.423 51.4172 205.423 49.1306V49.1236C205.423 46.8719 206.71 45.3266 208.696 45.3266C210.682 45.3266 211.892 46.802 211.892 48.9837V49.4312H206.654C206.682 50.9277 207.507 51.8018 208.801 51.8018C209.724 51.8018 210.374 51.3402 210.584 50.7179L210.605 50.655H211.801L211.787 50.7249C211.549 51.9276 210.36 52.8786 208.773 52.8786ZM208.689 46.4034C207.633 46.4034 206.808 47.1237 206.675 48.4802H210.654C210.535 47.0677 209.752 46.4034 208.689 46.4034ZM218.37 52.8786C216.775 52.8786 215.852 51.8437 215.852 50.1864V45.4664H217.069V49.9697C217.069 51.1514 217.621 51.8018 218.74 51.8018C219.887 51.8018 220.635 50.9836 220.635 49.7459V45.4664H221.852V52.7388H220.635V51.7039H220.607C220.216 52.3821 219.475 52.8786 218.37 52.8786ZM223.353 52.7388V45.4664H224.57V46.5013H224.598C224.99 45.823 225.731 45.3266 226.836 45.3266C228.43 45.3266 229.353 46.3615 229.353 48.0187V52.7388H228.136V48.2355C228.136 47.0537 227.584 46.4034 226.465 46.4034C225.318 46.4034 224.57 47.2216 224.57 48.4593V52.7388H223.353ZM236.964 44.6343H236.027L237.223 42.5365H238.496L236.964 44.6343ZM236.663 52.8786C234.573 52.8786 233.314 51.4172 233.314 49.1306V49.1236C233.314 46.8719 234.601 45.3266 236.587 45.3266C238.572 45.3266 239.782 46.802 239.782 48.9837V49.4312H234.545C234.573 50.9277 235.398 51.8018 236.691 51.8018C237.614 51.8018 238.265 51.3402 238.475 50.7179L238.496 50.655H239.691L239.677 50.7249C239.44 51.9276 238.251 52.8786 236.663 52.8786ZM236.58 46.4034C235.524 46.4034 234.698 47.1237 234.566 48.4802H238.544C238.426 47.0677 237.642 46.4034 236.58 46.4034ZM240.361 52.7388L242.836 49.1026L240.403 45.4664H241.759L243.507 48.1935H243.535L245.262 45.4664H246.619L244.165 49.0536L246.584 52.7388H245.234L243.493 49.9697H243.465L241.71 52.7388H240.361ZM248.239 44.2357C247.82 44.2357 247.477 43.8931 247.477 43.4735C247.477 43.0469 247.82 42.7113 248.239 42.7113C248.666 42.7113 249.001 43.0469 249.001 43.4735C249.001 43.8931 248.666 44.2357 248.239 44.2357ZM247.631 52.7388V45.4664H248.848V52.7388H247.631ZM252.782 52.8786C251.447 52.8786 250.79 52.2773 250.79 50.8857V46.4733H249.727V45.4664H250.79V43.5015H252.048V45.4664H253.433V46.4733H252.048V50.8787C252.048 51.6549 252.391 51.8717 253.041 51.8717C253.188 51.8717 253.328 51.8507 253.433 51.8437V52.8297C253.279 52.8507 253.02 52.8786 252.782 52.8786ZM257.459 52.8786C255.438 52.8786 254.088 51.4172 254.088 49.1026V49.0886C254.088 46.774 255.445 45.3266 257.452 45.3266C259.458 45.3266 260.822 46.767 260.822 49.0886V49.1026C260.822 51.4241 259.465 52.8786 257.459 52.8786ZM257.466 51.8018C258.745 51.8018 259.577 50.8088 259.577 49.1026V49.0886C259.577 47.3824 258.738 46.4034 257.452 46.4034C256.186 46.4034 255.333 47.3894 255.333 49.0886V49.1026C255.333 50.8158 256.179 51.8018 257.466 51.8018ZM262.54 49.3893L262.456 42.6484H263.715L263.631 49.3893H262.54ZM263.086 52.8087C262.638 52.8087 262.288 52.4591 262.288 52.0115C262.288 51.557 262.638 51.2144 263.086 51.2144C263.54 51.2144 263.883 51.557 263.883 52.0115C263.883 52.4591 263.54 52.8087 263.086 52.8087Z" fill="#8C8598"/>
</g>
<defs>
<linearGradient id="paint0_linear_1099_2799" x1="0.542114" y1="35.2311" x2="314.912" y2="35.2311" gradientUnits="userSpaceOnUse">
<stop stop-color="#DBCEED"/>
<stop offset="1" stop-color="#70678C"/>
</linearGradient>
<clipPath id="clip0_1099_2799">
<rect x="11.3824" y="14.3003" width="41.8613" height="41.8613" rx="11.0161" fill="white"/>
</clipPath>
<clipPath id="clip1_1099_2799">
<rect width="235.235" height="43.015" fill="white" transform="translate(64.2599 13.7236)"/>
</clipPath>
</defs>
</svg>
