<svg width="316" height="71" viewBox="0 0 316 71" fill="none" xmlns="http://www.w3.org/2000/svg">
<rect x="0.541992" y="0.541992" width="314.37" height="69.3782" rx="17.6258" fill="url(#paint0_linear_1099_2710)" fill-opacity="0.1"/>
<rect x="0.541992" y="0.541992" width="314.37" height="69.3782" rx="17.6258" stroke="white" stroke-opacity="0.08" stroke-width="1.08403"/>
<g clip-path="url(#clip0_1099_2710)">
<rect x="11.3823" y="14.3003" width="41.8613" height="41.8613" fill="#E2111C"/>
<path fill-rule="evenodd" clip-rule="evenodd" d="M32.2028 22.56C33.1635 22.4432 34.8201 22.9343 35.7039 23.3592C35.9435 23.4744 36.1726 23.5925 36.4026 23.7111C36.7468 23.8886 37.0929 24.067 37.4787 24.238C37.496 24.2147 37.5161 24.1873 37.5382 24.1571C37.6721 23.9743 37.8821 23.6878 38.0184 23.5796C38.5078 23.2005 39.2354 23.2144 39.8942 23.227C40.0933 23.2308 40.2861 23.2344 40.4642 23.2271C41.0178 23.2044 41.9688 23.2267 42.3776 23.6415C43.057 24.3309 42.8361 25.2681 42.6226 26.1743C42.536 26.5417 42.4506 26.9039 42.4269 27.2425C42.911 27.6661 43.4012 28.0281 43.8871 28.3871C44.3853 28.755 44.879 29.1197 45.3573 29.5441C45.9197 30.0851 46.5775 31.0179 46.541 31.8367C46.4465 33.9569 44.041 34.1645 42.4732 34.1571C42.7864 35.5926 43.2282 36.5352 44.2002 37.6293C44.9507 38.5372 45.3113 39.9297 45.1065 41.0821C44.8864 42.3203 44.5187 42.8243 43.6856 43.6799C42.192 45.2135 40.2251 45.7325 38.1356 45.7564C37.763 45.7607 37.4064 45.7231 37.0498 45.6855C36.7352 45.6524 36.4206 45.6193 36.095 45.6148C35.8449 45.6166 35.2605 45.7352 34.7766 45.8334C34.5638 45.8766 34.3705 45.9159 34.2335 45.9395C32.9078 46.1075 31.8238 46.1146 30.4907 45.8851C30.3209 45.8765 30.0759 45.814 29.8231 45.7497C29.4951 45.6661 29.154 45.5792 28.9476 45.6024C27.5169 45.7632 26.2016 45.8512 24.7667 45.5305C23.3062 45.204 21.4681 44.183 20.6412 42.8871C19.695 41.4043 19.6936 39.398 20.6344 37.9153C20.8265 37.6102 21.053 37.3128 21.2808 37.0137C21.5914 36.6058 21.9044 36.1949 22.1358 35.757C22.3655 35.3224 22.4792 34.8152 22.5878 34.3307C22.601 34.2716 22.6142 34.2129 22.6275 34.1547C21.4864 34.1871 20.2773 34.1245 19.3382 33.3915C18.9546 33.0994 18.5712 32.5703 18.5459 32.0735C18.4567 30.3249 20.1345 29.1176 21.4997 28.1352C21.7183 27.9779 21.9289 27.8263 22.1229 27.6793C22.3039 27.5469 22.4779 27.4033 22.652 27.2597C22.8707 27.0792 23.0896 26.8986 23.3227 26.7398C24.8159 25.7164 26.4044 24.8849 28.0018 24.0487C28.1863 23.9522 28.371 23.8555 28.5556 23.7584C29.6867 23.164 30.9241 22.6977 32.2028 22.56ZM32.4488 23.9172C33.7393 23.9257 35.1176 24.5653 36.3245 25.1252C36.4587 25.1875 36.591 25.2489 36.7207 25.3083C36.929 25.4036 37.1096 25.5012 37.2858 25.5964C37.6015 25.767 37.9033 25.9301 38.3253 26.0591C38.939 25.6937 38.9007 25.46 38.8116 24.9171C38.7974 24.831 38.782 24.7371 38.7677 24.6337C39.6913 24.6102 40.6153 24.6094 41.539 24.6311C41.5126 25.0365 41.4258 25.472 41.3378 25.9131C41.2006 26.6007 41.0608 27.3019 41.1431 27.9241C41.4695 28.188 41.7927 28.4285 42.1153 28.6685C42.3688 28.8572 42.622 29.0456 42.876 29.2447C43.0002 29.3462 43.1542 29.4619 43.3236 29.5893C44.0919 30.1668 45.177 30.9824 45.2369 31.7781C45.3212 32.8979 43.2096 32.8766 42.1085 32.8654C41.9082 32.8634 41.7413 32.8617 41.6272 32.8673C40.9744 32.8992 41.106 33.7729 41.1708 34.2015C41.3214 35.1966 41.6426 36.1648 42.16 37.0344C42.2931 37.2351 42.4298 37.4267 42.5641 37.6152C43.0805 38.3393 43.5635 39.0166 43.6874 39.9825C43.8296 40.838 43.4314 41.9654 42.9066 42.6251C41.7773 44.0444 39.5103 44.6236 37.76 44.5226C37.4994 44.5076 37.2029 44.4722 36.9123 44.4374C36.5748 44.3971 36.2451 44.3576 35.9882 44.3522C35.8877 44.35 35.4936 44.4288 35.1198 44.5035C34.8535 44.5568 34.5974 44.608 34.4652 44.6263C32.4696 44.9642 30.9189 44.7031 28.9895 44.3539C28.6804 44.3682 28.3559 44.4084 28.0381 44.4477C27.891 44.4659 27.7453 44.4839 27.6033 44.4991C25.1468 44.7621 22.1617 43.7174 21.3624 41.1645C21.233 40.6914 21.2519 39.5535 21.5171 39.1428C21.6774 38.8945 21.8415 38.649 22.0051 38.4043C23.0086 36.9028 23.9944 35.428 23.9871 33.4926C23.9866 33.3703 23.8601 32.9668 23.7075 32.9337C23.2743 32.8399 22.8148 32.8473 22.3535 32.8548C21.566 32.8676 20.7734 32.8805 20.0977 32.3895C19.0694 31.4118 21.3846 29.8109 22.2627 29.2038C22.3679 29.1311 22.4524 29.0726 22.5082 29.0312L24.229 27.7778C24.3296 27.7039 24.4448 27.6147 24.5638 27.5225C24.7749 27.3592 24.9982 27.1864 25.1742 27.0723C25.4444 26.8971 25.7478 26.7304 26.0481 26.5655C26.253 26.453 26.4563 26.3413 26.6468 26.2282C28.1473 25.3372 30.7043 24.0168 32.4488 23.9172Z" fill="white"/>
<path fill-rule="evenodd" clip-rule="evenodd" d="M35.7039 23.3592C34.8201 22.9343 33.1635 22.4432 32.2028 22.56C30.9241 22.6977 29.6867 23.164 28.5556 23.7584C28.371 23.8555 28.1863 23.9522 28.0018 24.0487C26.4044 24.8849 24.8159 25.7164 23.3227 26.7398C23.0896 26.8986 22.8707 27.0792 22.652 27.2597C22.4779 27.4033 22.3039 27.5469 22.1229 27.6793C21.9289 27.8263 21.7183 27.9779 21.4997 28.1352C20.1345 29.1176 18.4567 30.3249 18.5459 32.0735C18.5712 32.5703 18.9546 33.0994 19.3382 33.3915C20.2773 34.1245 21.4864 34.1871 22.6275 34.1547C22.6142 34.2129 22.601 34.2716 22.5878 34.3307C22.4792 34.8152 22.3655 35.3224 22.1358 35.757C21.9044 36.1949 21.5914 36.6058 21.2808 37.0137C21.053 37.3128 20.8265 37.6102 20.6344 37.9153C19.6936 39.398 19.695 41.4043 20.6412 42.8871C21.4681 44.183 23.3062 45.204 24.7667 45.5305C26.2016 45.8512 27.5169 45.7632 28.9476 45.6024C29.154 45.5792 29.4951 45.6661 29.8231 45.7497C30.0759 45.814 30.3209 45.8765 30.4907 45.8851C31.8238 46.1146 32.9078 46.1075 34.2335 45.9395C34.3705 45.9159 34.5638 45.8766 34.7766 45.8334C35.2605 45.7352 35.8449 45.6166 36.095 45.6148C36.4206 45.6193 36.7352 45.6524 37.0498 45.6855C37.4064 45.7231 37.763 45.7607 38.1356 45.7564C40.2251 45.7325 42.192 45.2135 43.6856 43.6799C44.5187 42.8243 44.8864 42.3203 45.1065 41.0821C45.3113 39.9297 44.9507 38.5372 44.2002 37.6293C43.2282 36.5352 42.7864 35.5926 42.4732 34.1571C44.041 34.1645 46.4465 33.9569 46.541 31.8367C46.5775 31.0179 45.9197 30.0851 45.3573 29.5441C44.879 29.1197 44.3853 28.755 43.8871 28.3871C43.4012 28.0281 42.911 27.6661 42.4269 27.2425C42.4506 26.9039 42.536 26.5417 42.6226 26.1743C42.8361 25.2681 43.057 24.3309 42.3776 23.6415C41.9688 23.2267 41.0178 23.2044 40.4642 23.2271C40.2861 23.2344 40.0933 23.2308 39.8942 23.227C39.2354 23.2144 38.5078 23.2005 38.0184 23.5796C37.8821 23.6878 37.6721 23.9743 37.5382 24.1571C37.5161 24.1873 37.496 24.2147 37.4787 24.238C37.0929 24.067 36.7468 23.8886 36.4026 23.7111C36.1726 23.5925 35.9435 23.4744 35.7039 23.3592ZM32.4488 23.9172C33.7393 23.9257 35.1176 24.5653 36.3245 25.1252C36.4587 25.1875 36.591 25.2489 36.7207 25.3083C36.929 25.4036 37.1096 25.5012 37.2858 25.5964C37.6015 25.767 37.9033 25.9301 38.3253 26.0591C38.939 25.6937 38.9007 25.46 38.8116 24.9171C38.7974 24.831 38.782 24.7371 38.7677 24.6337C39.6913 24.6102 40.6153 24.6094 41.539 24.6311C41.5126 25.0365 41.4258 25.472 41.3378 25.9131C41.2006 26.6007 41.0608 27.3019 41.1431 27.9241C41.4695 28.188 41.7927 28.4285 42.1153 28.6685C42.3688 28.8572 42.622 29.0456 42.876 29.2447C43.0002 29.3462 43.1542 29.4619 43.3236 29.5893C44.0919 30.1668 45.177 30.9824 45.2369 31.7781C45.3212 32.8979 43.2096 32.8766 42.1085 32.8654C41.9082 32.8634 41.7413 32.8617 41.6272 32.8673C40.9744 32.8992 41.106 33.7729 41.1708 34.2015C41.3214 35.1966 41.6426 36.1648 42.16 37.0344C42.2931 37.2351 42.4298 37.4267 42.5641 37.6152C43.0805 38.3393 43.5635 39.0166 43.6874 39.9825C43.8296 40.838 43.4314 41.9654 42.9066 42.6251C41.7773 44.0444 39.5103 44.6236 37.76 44.5226C37.4994 44.5076 37.2029 44.4722 36.9123 44.4374C36.5748 44.3971 36.2451 44.3576 35.9882 44.3522C35.8877 44.35 35.4936 44.4288 35.1198 44.5035C34.8535 44.5568 34.5974 44.608 34.4652 44.6263C32.4696 44.9642 30.9189 44.7031 28.9895 44.3539C28.6804 44.3682 28.3559 44.4084 28.0381 44.4477C27.891 44.4659 27.7453 44.4839 27.6033 44.4991C25.1468 44.7621 22.1617 43.7174 21.3624 41.1645C21.233 40.6914 21.2519 39.5535 21.5171 39.1428C21.6774 38.8945 21.8415 38.649 22.0051 38.4043C23.0086 36.9028 23.9944 35.428 23.9871 33.4926C23.9866 33.3703 23.8601 32.9668 23.7075 32.9337C23.2743 32.8399 22.8148 32.8473 22.3535 32.8548C21.566 32.8676 20.7734 32.8805 20.0977 32.3895C19.0694 31.4118 21.3846 29.8109 22.2627 29.2038C22.3679 29.1311 22.4524 29.0726 22.5082 29.0312L24.229 27.7778C24.3296 27.7039 24.4448 27.6147 24.5638 27.5225C24.7749 27.3592 24.9982 27.1864 25.1742 27.0723C25.4444 26.8971 25.7478 26.7304 26.0481 26.5655C26.253 26.453 26.4563 26.3413 26.6468 26.2282C28.1473 25.3372 30.7043 24.0168 32.4488 23.9172Z" fill="white"/>
<path d="M34.7766 45.8334C35.2605 45.7352 35.8449 45.6166 36.095 45.6148C36.4206 45.6193 36.7352 45.6524 37.0498 45.6855C37.4064 45.7231 37.763 45.7607 38.1356 45.7564C40.2251 45.7325 42.192 45.2135 43.6856 43.6799C44.5187 42.8243 44.8864 42.3203 45.1065 41.0821C45.3113 39.9297 44.9507 38.5372 44.2002 37.6293C43.2282 36.5352 42.7864 35.5926 42.4732 34.1571C44.041 34.1645 46.4465 33.9569 46.541 31.8367C46.5775 31.0179 45.9197 30.0851 45.3573 29.5441C44.879 29.1197 44.3853 28.755 43.8871 28.3871C43.4012 28.0281 42.911 27.6661 42.4269 27.2425C42.4506 26.9039 42.536 26.5417 42.6226 26.1743C42.8361 25.2681 43.057 24.3309 42.3776 23.6415C41.9688 23.2267 41.0178 23.2044 40.4642 23.2271C40.2861 23.2344 40.0933 23.2308 39.8942 23.227C39.2354 23.2144 38.5078 23.2005 38.0184 23.5796C37.8821 23.6878 37.6721 23.9743 37.5382 24.1571C37.5161 24.1873 37.496 24.2147 37.4787 24.238C37.0929 24.067 36.7468 23.8886 36.4026 23.7111C36.1726 23.5925 35.9435 23.4744 35.7039 23.3592C34.8201 22.9343 33.1635 22.4432 32.2028 22.56C30.9241 22.6977 29.6867 23.164 28.5556 23.7584C28.371 23.8555 28.1863 23.9522 28.0018 24.0487C26.4044 24.8849 24.8159 25.7164 23.3227 26.7398C23.0896 26.8986 22.8707 27.0792 22.652 27.2597C22.4779 27.4033 22.3039 27.5469 22.1229 27.6793C21.9289 27.8263 21.7183 27.9779 21.4997 28.1352C20.1345 29.1176 18.4567 30.3249 18.5459 32.0735C18.5712 32.5703 18.9546 33.0994 19.3382 33.3915C20.2773 34.1245 21.4864 34.1871 22.6275 34.1547C22.6142 34.2129 22.601 34.2716 22.5878 34.3307C22.4792 34.8152 22.3655 35.3224 22.1358 35.757C21.9044 36.1949 21.5914 36.6058 21.2808 37.0137C21.053 37.3128 20.8265 37.6102 20.6344 37.9153C19.6936 39.398 19.695 41.4043 20.6412 42.8871C21.4681 44.183 23.3062 45.204 24.7667 45.5305C26.2016 45.8512 27.5169 45.7632 28.9476 45.6024C29.154 45.5792 29.4951 45.6661 29.8231 45.7497C30.0759 45.814 30.3209 45.8765 30.4907 45.8851C31.8238 46.1146 32.9078 46.1075 34.2335 45.9395C34.3705 45.9159 34.5638 45.8766 34.7766 45.8334ZM43.8871 28.3871C43.8264 28.3422 43.7656 28.2973 43.7047 28.2522M37.0498 45.6855C37.0944 45.6902 37.1389 45.6949 37.1835 45.6995M34.7766 45.8334L34.7762 45.8335C34.763 45.8362 34.7499 45.8388 34.7369 45.8415M22.5878 34.3307C22.5927 34.3085 22.5977 34.2864 22.6026 34.2644M21.4997 28.1352V28.1352ZM28.0381 44.4477C28.3559 44.4084 28.6804 44.3682 28.9895 44.3539C30.9189 44.7031 32.4696 44.9642 34.4652 44.6263C34.5974 44.608 34.8535 44.5568 35.1198 44.5035C35.4936 44.4288 35.8877 44.35 35.9882 44.3522C36.2451 44.3576 36.5748 44.3971 36.9123 44.4374C37.2029 44.4722 37.4994 44.5076 37.76 44.5226C39.5103 44.6236 41.7773 44.0444 42.9066 42.6251C43.4314 41.9654 43.8296 40.838 43.6874 39.9825C43.5635 39.0166 43.0805 38.3393 42.5641 37.6152C42.4298 37.4267 42.2931 37.2351 42.16 37.0344C41.6426 36.1648 41.3214 35.1966 41.1708 34.2015C41.106 33.7729 40.9744 32.8992 41.6272 32.8673C41.7413 32.8617 41.9082 32.8634 42.1085 32.8654C43.2096 32.8766 45.3212 32.8979 45.2369 31.7781C45.177 30.9824 44.0919 30.1668 43.3236 29.5893C43.1542 29.4619 43.0002 29.3462 42.876 29.2447C42.622 29.0456 42.3688 28.8572 42.1153 28.6685C41.7927 28.4285 41.4695 28.188 41.1431 27.9241C41.0608 27.3019 41.2006 26.6007 41.3378 25.9131C41.4258 25.472 41.5126 25.0365 41.539 24.6311C40.6153 24.6094 39.6913 24.6102 38.7677 24.6337C38.782 24.7371 38.7974 24.831 38.8116 24.9171C38.9007 25.46 38.939 25.6937 38.3253 26.0591C37.9033 25.9301 37.6015 25.767 37.2858 25.5964C37.1096 25.5012 36.929 25.4036 36.7207 25.3083C36.591 25.2489 36.4587 25.1875 36.3245 25.1252C35.1176 24.5653 33.7393 23.9257 32.4488 23.9172C30.7043 24.0168 28.1473 25.3372 26.6468 26.2282C26.4563 26.3413 26.253 26.453 26.0481 26.5655C25.7478 26.7304 25.4444 26.8971 25.1742 27.0723C24.9982 27.1864 24.7749 27.3592 24.5638 27.5225C24.4448 27.6147 24.3296 27.7039 24.229 27.7778L22.5082 29.0312C22.4524 29.0726 22.3679 29.1311 22.2627 29.2038C21.3846 29.8109 19.0694 31.4118 20.0977 32.3895C20.7734 32.8805 21.566 32.8676 22.3535 32.8548C22.8148 32.8473 23.2743 32.8399 23.7075 32.9337C23.8601 32.9668 23.9866 33.3703 23.9871 33.4926C23.9944 35.428 23.0086 36.9028 22.0051 38.4043C21.8415 38.649 21.6774 38.8945 21.5171 39.1428C21.2519 39.5535 21.233 40.6914 21.3624 41.1645C22.1617 43.7174 25.1468 44.7621 27.6033 44.4991C27.7453 44.4839 27.891 44.4659 28.0381 44.4477ZM28.0381 44.4477C28.0778 44.4428 28.1176 44.4379 28.1575 44.433M28.0027 24.0482V24.0482ZM28.0027 24.0482L28.0022 24.0485" stroke="white" stroke-width="0.510321"/>
</g>
<g clip-path="url(#clip1_1099_2710)">
<path d="M65.2845 30.7236V19.0809H67.1563L72.8285 27.2381H72.8769V19.0809H74.9424V30.7236H73.0867L67.3984 22.5342H67.3581V30.7236H65.2845ZM79.7109 30.8931C77.8309 30.8931 76.7578 29.6828 76.7578 27.698V22.1711H78.7668V27.3026C78.7668 28.5129 79.3316 29.1987 80.4774 29.1987C81.6311 29.1987 82.3654 28.3676 82.3654 27.1251V22.1711H84.3744V30.7236H82.3654V29.3843H82.325C81.8813 30.296 81.0018 30.8931 79.7109 30.8931ZM89.7883 30.8931C87.2226 30.8931 85.6734 29.1906 85.6734 26.4716V26.4635C85.6734 23.7686 87.2468 21.9936 89.6915 21.9936C92.1363 21.9936 93.6531 23.7121 93.6531 26.2941V26.9395H87.6663C87.6986 28.4403 88.5216 29.3278 89.8287 29.3278C90.8292 29.3278 91.4827 28.7953 91.6764 28.2224L91.6925 28.1659H93.5725L93.5482 28.2547C93.282 29.5698 92.0233 30.8931 89.7883 30.8931ZM89.7157 23.5669C88.6507 23.5669 87.8519 24.285 87.6906 25.6002H91.7006C91.5553 24.2447 90.7808 23.5669 89.7157 23.5669ZM96.937 30.7236L93.9113 22.1711H96.0495L98.0343 28.8598H98.0827L100.059 22.1711H102.157L99.1478 30.7236H96.937ZM105.417 30.8689C103.706 30.8689 102.553 29.8119 102.553 28.287V28.2708C102.553 26.754 103.731 25.8422 105.804 25.7131L108.039 25.576V24.987C108.039 24.1236 107.474 23.5992 106.458 23.5992C105.506 23.5992 104.925 24.043 104.796 24.6723L104.78 24.7449H102.916L102.924 24.6481C103.045 23.1312 104.36 21.9936 106.53 21.9936C108.669 21.9936 110.048 23.1232 110.048 24.8417V30.7236H108.039V29.4085H107.991C107.499 30.3041 106.547 30.8689 105.417 30.8689ZM104.554 28.2063C104.554 28.9082 105.135 29.3359 106.014 29.3359C107.168 29.3359 108.039 28.5694 108.039 27.5527V26.9073L106.087 27.0283C105.094 27.0928 104.554 27.5205 104.554 28.1982V28.2063ZM118.157 30.8931C116.366 30.8931 115.519 30.1669 115.519 28.408V23.7202H114.308V22.1711H115.519V20.0007H117.56V22.1711H119.149V23.7202H117.56V28.2385C117.56 29.0777 117.931 29.3439 118.665 29.3439C118.859 29.3439 119.012 29.3197 119.149 29.3117V30.8205C118.915 30.8527 118.56 30.8931 118.157 30.8931ZM120.529 30.7236V22.1711H122.538V23.6476H122.579C122.845 22.6148 123.555 21.9936 124.539 21.9936C124.789 21.9936 125.023 22.0339 125.177 22.0743V23.8897C125.007 23.8251 124.701 23.7767 124.362 23.7767C123.224 23.7767 122.538 24.4948 122.538 25.7615V30.7236H120.529ZM128.541 30.8689C126.831 30.8689 125.677 29.8119 125.677 28.287V28.2708C125.677 26.754 126.855 25.8422 128.928 25.7131L131.163 25.576V24.987C131.163 24.1236 130.599 23.5992 129.582 23.5992C128.63 23.5992 128.049 24.043 127.92 24.6723L127.904 24.7449H126.04L126.048 24.6481C126.169 23.1312 127.484 21.9936 129.655 21.9936C131.793 21.9936 133.172 23.1232 133.172 24.8417V30.7236H131.163V29.4085H131.115C130.623 30.3041 129.671 30.8689 128.541 30.8689ZM127.678 28.2063C127.678 28.9082 128.259 29.3359 129.138 29.3359C130.292 29.3359 131.163 28.5694 131.163 27.5527V26.9073L129.211 27.0283C128.218 27.0928 127.678 27.5205 127.678 28.1982V28.2063ZM134.794 30.7236V22.1711H136.803V23.5104H136.844C137.287 22.5906 138.159 21.9936 139.458 21.9936C141.338 21.9936 142.411 23.2038 142.411 25.1887V30.7236H140.402V25.5921C140.402 24.3738 139.837 23.6879 138.691 23.6879C137.537 23.6879 136.803 24.5271 136.803 25.7615V30.7236H134.794ZM147.365 30.8931C145.122 30.8931 143.839 29.828 143.661 28.2385L143.653 28.1659H145.63L145.646 28.2385C145.8 28.9728 146.356 29.4085 147.373 29.4085C148.349 29.4085 148.938 29.0131 148.938 28.3838V28.3757C148.938 27.8593 148.64 27.5689 147.752 27.3672L146.332 27.0525C144.694 26.6894 143.871 25.8906 143.871 24.6239V24.6158C143.871 23.0505 145.235 21.9936 147.3 21.9936C149.43 21.9936 150.673 23.1635 150.746 24.64L150.754 24.7288H148.882L148.874 24.6642C148.785 23.9784 148.236 23.4782 147.3 23.4782C146.413 23.4782 145.856 23.8897 145.856 24.519V24.5271C145.856 25.0192 146.187 25.342 147.074 25.5437L148.502 25.8584C150.269 26.2537 150.955 26.9476 150.955 28.1901V28.1982C150.955 29.8119 149.463 30.8931 147.365 30.8931ZM152.795 30.7236V23.7202H151.625V22.1711H152.795V21.3562C152.795 19.686 153.586 18.9114 155.441 18.9114C155.837 18.9114 156.264 18.9437 156.514 18.9921V20.396C156.353 20.3718 156.127 20.3557 155.909 20.3557C155.127 20.3557 154.764 20.7188 154.764 21.4126V22.1711H156.482V23.7202H154.804V30.7236H152.795ZM160.888 30.8931C158.322 30.8931 156.773 29.1906 156.773 26.4716V26.4635C156.773 23.7686 158.346 21.9936 160.791 21.9936C163.235 21.9936 164.752 23.7121 164.752 26.2941V26.9395H158.766C158.798 28.4403 159.621 29.3278 160.928 29.3278C161.928 29.3278 162.582 28.7953 162.776 28.2224L162.792 28.1659H164.672L164.647 28.2547C164.381 29.5698 163.123 30.8931 160.888 30.8931ZM160.815 23.5669C159.75 23.5669 158.951 24.285 158.79 25.6002H162.8C162.655 24.2447 161.88 23.5669 160.815 23.5669ZM166.051 30.7236V22.1711H168.06V23.6476H168.101C168.367 22.6148 169.077 21.9936 170.061 21.9936C170.312 21.9936 170.545 22.0339 170.699 22.0743V23.8897C170.529 23.8251 170.223 23.7767 169.884 23.7767C168.746 23.7767 168.06 24.4948 168.06 25.7615V30.7236H166.051ZM175.169 30.8931C172.603 30.8931 171.054 29.1906 171.054 26.4716V26.4635C171.054 23.7686 172.627 21.9936 175.072 21.9936C177.517 21.9936 179.034 23.7121 179.034 26.2941V26.9395H173.047C173.079 28.4403 173.902 29.3278 175.209 29.3278C176.21 29.3278 176.863 28.7953 177.057 28.2224L177.073 28.1659H178.953L178.929 28.2547C178.662 29.5698 177.404 30.8931 175.169 30.8931ZM175.096 23.5669C174.031 23.5669 173.232 24.285 173.071 25.6002H177.081C176.936 24.2447 176.161 23.5669 175.096 23.5669ZM180.333 30.7236V22.1711H182.342V23.5104H182.382C182.826 22.5906 183.697 21.9936 184.996 21.9936C186.876 21.9936 187.949 23.2038 187.949 25.1887V30.7236H185.94V25.5921C185.94 24.3738 185.375 23.6879 184.23 23.6879C183.076 23.6879 182.342 24.5271 182.342 25.7615V30.7236H180.333ZM193.339 30.8931C190.797 30.8931 189.208 29.1826 189.208 26.4393V26.4312C189.208 23.7041 190.822 21.9936 193.315 21.9936C195.566 21.9936 196.97 23.4217 197.091 25.1322L197.099 25.1967H195.203L195.187 25.1241C195.017 24.2931 194.404 23.6234 193.339 23.6234C192.072 23.6234 191.257 24.6965 191.257 26.4474V26.4554C191.257 28.2385 192.08 29.2713 193.347 29.2713C194.364 29.2713 195.009 28.6662 195.195 27.7706L195.211 27.698H197.107L197.099 27.7544C196.945 29.5376 195.501 30.8931 193.339 30.8931ZM199.374 20.9447C198.745 20.9447 198.253 20.4444 198.253 19.8474C198.253 19.2342 198.745 18.742 199.374 18.742C200.003 18.742 200.488 19.2342 200.488 19.8474C200.488 20.4444 200.003 20.9447 199.374 20.9447ZM198.366 30.7236V22.1711H200.375V30.7236H198.366ZM204.61 30.8689C202.9 30.8689 201.746 29.8119 201.746 28.287V28.2708C201.746 26.754 202.924 25.8422 204.998 25.7131L207.233 25.576V24.987C207.233 24.1236 206.668 23.5992 205.651 23.5992C204.699 23.5992 204.118 24.043 203.989 24.6723L203.973 24.7449H202.109L202.117 24.6481C202.238 23.1312 203.554 21.9936 205.724 21.9936C207.862 21.9936 209.242 23.1232 209.242 24.8417V30.7236H207.233V29.4085H207.184C206.692 30.3041 205.74 30.8689 204.61 30.8689ZM203.747 28.2063C203.747 28.9082 204.328 29.3359 205.208 29.3359C206.361 29.3359 207.233 28.5694 207.233 27.5527V26.9073L205.28 27.0283C204.288 27.0928 203.747 27.5205 203.747 28.1982V28.2063Z" fill="white"/>
<path d="M248.844 24.7236V14.947H250.064V19.1747H255.43V14.947H256.649V24.7236H255.43V20.2723H250.064V24.7236H248.844ZM260.134 24.8591C258.731 24.8591 257.79 24.0122 257.79 22.7317V22.7182C257.79 21.519 258.725 20.7669 260.344 20.6721L262.363 20.5569V19.9674C262.363 19.107 261.801 18.5853 260.818 18.5853C259.91 18.5853 259.341 19.0189 259.206 19.649L259.192 19.71H258.054L258.061 19.6355C258.162 18.4769 259.172 17.5419 260.832 17.5419C262.498 17.5419 263.542 18.443 263.542 19.8523V24.7236H262.363V23.5786H262.336C261.923 24.351 261.076 24.8591 260.134 24.8591ZM258.996 22.7317C258.996 23.4092 259.551 23.8361 260.398 23.8361C261.509 23.8361 262.363 23.0705 262.363 22.0474V21.4715L260.479 21.5867C259.538 21.6409 258.996 22.061 258.996 22.7182V22.7317ZM267.873 24.8591C265.875 24.8591 264.608 23.4363 264.608 21.1937V21.187C264.608 18.9647 265.902 17.5419 267.86 17.5419C269.615 17.5419 270.651 18.7072 270.8 19.9132L270.807 19.9674H269.655L269.642 19.9132C269.466 19.2086 268.896 18.5853 267.86 18.5853C266.634 18.5853 265.814 19.6016 265.814 21.2005V21.2073C265.814 22.8469 266.654 23.8158 267.873 23.8158C268.835 23.8158 269.452 23.2737 269.648 22.4878L269.662 22.4336H270.821L270.814 22.481C270.624 23.8225 269.466 24.8591 267.873 24.8591ZM274.718 24.8591C272.693 24.8591 271.473 23.4431 271.473 21.2276V21.2208C271.473 19.0392 272.72 17.5419 274.644 17.5419C276.568 17.5419 277.74 18.9715 277.74 21.0853V21.519H272.666C272.693 22.9689 273.492 23.8158 274.746 23.8158C275.64 23.8158 276.27 23.3686 276.473 22.7656L276.494 22.7046H277.652L277.639 22.7724C277.408 23.9377 276.256 24.8591 274.718 24.8591ZM274.637 18.5853C273.614 18.5853 272.815 19.2831 272.686 20.5975H276.541C276.426 19.2289 275.667 18.5853 274.637 18.5853ZM282.196 24.7236L286.62 16.0581V16.031H281.356V14.947H287.826V16.0785L283.476 24.7236H282.196ZM289.109 24.7236V17.6774H290.288V18.7072H290.315C290.633 18.0094 291.338 17.5419 292.246 17.5419C293.208 17.5419 293.919 18.0365 294.224 18.897H294.251C294.644 18.0501 295.471 17.5419 296.46 17.5419C297.856 17.5419 298.757 18.4566 298.757 19.859V24.7236H297.578V20.13C297.578 19.1612 297.042 18.5853 296.114 18.5853C295.179 18.5853 294.522 19.2831 294.522 20.2452V24.7236H293.343V20.0013C293.343 19.1476 292.774 18.5853 291.9 18.5853C290.965 18.5853 290.288 19.3238 290.288 20.3062V24.7236H289.109Z" fill="#D8D8D8" fill-opacity="0.6"/>
<path d="M67.3995 52.9066C65.6513 52.9066 64.6653 51.8227 64.5604 50.3753L64.5535 50.2774H65.8121L65.8191 50.3473C65.896 51.1095 66.3925 51.7458 67.3925 51.7458C68.5113 51.7458 69.1127 51.0815 69.1127 49.8508V42.6484H70.3713V49.8648C70.3713 51.7738 69.2665 52.9066 67.3995 52.9066ZM76.2572 52.9066C73.7538 52.9066 72.2434 51.3962 72.2434 49.2005V42.6484H73.502V49.1166C73.502 50.6689 74.509 51.7458 76.2572 51.7458C78.0053 51.7458 78.9983 50.6689 78.9983 49.1166V42.6484H80.257V49.2005C80.257 51.3962 78.7605 52.9066 76.2572 52.9066ZM81.185 52.7388L84.94 42.6484H86.1847L89.9328 52.7388H88.6112L87.5902 49.8508H83.5275L82.5066 52.7388H81.185ZM85.5484 44.1588L83.9121 48.7809H87.2126L85.5764 44.1588H85.5484ZM91.0076 52.7388V42.6484H92.2314L97.7835 50.613H97.8185V42.6484H99.0632V52.7388H97.8395L92.2873 44.7741H92.2523V52.7388H91.0076ZM103.786 52.7388V42.6484H105.045V51.606H109.912V52.7388H103.786ZM111.21 52.7388V42.6484H117.462V43.7812H112.469V47.0188H117.203V48.1376H112.469V51.606H117.462V52.7388H111.21ZM123.306 52.9066C120.439 52.9066 118.649 50.8997 118.649 47.6971V47.6831C118.649 44.4874 120.446 42.4805 123.306 42.4805C126.159 42.4805 127.949 44.4874 127.949 47.6831V47.6971C127.949 50.8997 126.166 52.9066 123.306 52.9066ZM123.306 51.7458C125.382 51.7458 126.662 50.1585 126.662 47.6971V47.6831C126.662 45.2077 125.362 43.6413 123.306 43.6413C121.243 43.6413 119.935 45.2007 119.935 47.6831V47.6971C119.935 50.1795 121.236 51.7458 123.306 51.7458ZM129.429 52.7388V42.6484H130.653L136.205 50.613H136.24V42.6484H137.485V52.7388H136.261L130.709 44.7741H130.674V52.7388H129.429ZM144.382 52.8786C143.047 52.8786 142.39 52.2773 142.39 50.8857V46.4733H141.327V45.4664H142.39V43.5015H143.648V45.4664H145.033V46.4733H143.648V50.8787C143.648 51.6549 143.991 51.8717 144.641 51.8717C144.788 51.8717 144.928 51.8507 145.033 51.8437V52.8297C144.879 52.8507 144.62 52.8786 144.382 52.8786ZM149.038 52.8786C146.947 52.8786 145.688 51.4172 145.688 49.1306V49.1236C145.688 46.8719 146.975 45.3266 148.961 45.3266C150.947 45.3266 152.156 46.802 152.156 48.9837V49.4312H146.919C146.947 50.9277 147.772 51.8018 149.066 51.8018C149.989 51.8018 150.639 51.3402 150.849 50.7179L150.87 50.655H152.065L152.051 50.7249C151.814 51.9276 150.625 52.8786 149.038 52.8786ZM148.954 46.4034C147.898 46.4034 147.073 47.1237 146.94 48.4802H150.919C150.8 47.0677 150.017 46.4034 148.954 46.4034ZM156.152 52.7388V45.4664H157.369V46.5293H157.397C157.725 45.809 158.453 45.3266 159.39 45.3266C160.383 45.3266 161.117 45.837 161.432 46.7251H161.46C161.865 45.851 162.718 45.3266 163.739 45.3266C165.18 45.3266 166.11 46.2706 166.11 47.718V52.7388H164.893V47.9977C164.893 46.9978 164.34 46.4034 163.382 46.4034C162.418 46.4034 161.739 47.1237 161.739 48.1166V52.7388H160.522V47.8649C160.522 46.9838 159.935 46.4034 159.033 46.4034C158.068 46.4034 157.369 47.1656 157.369 48.1796V52.7388H156.152ZM169.702 52.8786C168.254 52.8786 167.282 52.0045 167.282 50.6829V50.6689C167.282 49.4312 168.247 48.6551 169.919 48.5572L172.002 48.4383V47.8299C172.002 46.9419 171.422 46.4034 170.408 46.4034C169.471 46.4034 168.884 46.851 168.744 47.5013L168.73 47.5642H167.555L167.562 47.4873C167.667 46.2915 168.709 45.3266 170.422 45.3266C172.142 45.3266 173.219 46.2566 173.219 47.711V52.7388H172.002V51.557H171.974C171.548 52.3542 170.674 52.8786 169.702 52.8786ZM168.527 50.6829C168.527 51.3822 169.1 51.8227 169.975 51.8227C171.121 51.8227 172.002 51.0326 172.002 49.9767V49.3823L170.058 49.5012C169.086 49.5571 168.527 49.9907 168.527 50.6689V50.6829ZM174.679 52.7388V45.4664H175.895V46.5013H175.923C176.315 45.823 177.056 45.3266 178.161 45.3266C179.755 45.3266 180.678 46.3615 180.678 48.0187V52.7388H179.462V48.2355C179.462 47.0537 178.909 46.4034 177.79 46.4034C176.644 46.4034 175.895 47.2216 175.895 48.4593V52.7388H174.679ZM184.879 52.8786C183.019 52.8786 181.788 51.3962 181.788 49.1026V49.0956C181.788 46.802 183.033 45.3266 184.858 45.3266C185.886 45.3266 186.732 45.844 187.186 46.6831H187.214V42.6484H188.431V52.7388H187.214V51.5081H187.186C186.732 52.3542 185.921 52.8786 184.879 52.8786ZM185.117 51.8018C186.347 51.8018 187.221 50.7319 187.221 49.1026V49.0956C187.221 47.4733 186.34 46.4034 185.117 46.4034C183.83 46.4034 183.033 47.4383 183.033 49.0956V49.1026C183.033 50.7738 183.83 51.8018 185.117 51.8018ZM193.338 44.6343H192.401L193.597 42.5365H194.869L193.338 44.6343ZM193.002 52.8786C190.981 52.8786 189.632 51.4172 189.632 49.1026V49.0886C189.632 46.774 190.988 45.3266 192.995 45.3266C195.002 45.3266 196.366 46.767 196.366 49.0886V49.1026C196.366 51.4241 195.009 52.8786 193.002 52.8786ZM193.009 51.8018C194.289 51.8018 195.121 50.8088 195.121 49.1026V49.0886C195.121 47.3824 194.282 46.4034 192.995 46.4034C191.73 46.4034 190.877 47.3894 190.877 49.0886V49.1026C190.877 50.8158 191.723 51.8018 193.009 51.8018ZM203.473 53.7527V52.5709C201.816 52.4241 200.501 51.4311 200.39 49.8718L200.383 49.7739H201.599L201.613 49.8578C201.753 50.6619 202.271 51.3402 203.473 51.4731V48.1096L203.312 48.0677C201.571 47.6481 200.634 46.8719 200.634 45.4874V45.4804C200.634 43.984 201.823 42.97 203.473 42.8162V41.6344H204.312V42.8092C205.921 42.956 207.13 43.984 207.228 45.4524L207.235 45.5573H206.019L206.012 45.4944C205.914 44.6133 205.256 44.0329 204.312 43.914V47.1237L204.529 47.1726C206.326 47.6062 207.333 48.3474 207.333 49.8228V49.8298C207.333 51.5081 205.956 52.4521 204.312 52.5779V53.7527H203.473ZM201.851 45.4244C201.851 46.1097 202.278 46.6272 203.473 46.9209V43.914C202.41 44.0609 201.851 44.7392 201.851 45.4175V45.4244ZM204.354 48.3194L204.312 48.3124V51.4871C205.613 51.3822 206.117 50.7179 206.117 49.9067V49.8998C206.117 49.1376 205.732 48.6551 204.354 48.3194ZM208.961 52.7388V51.8717L212.513 48.1656C213.876 46.7461 214.191 46.2006 214.191 45.3615V45.3475C214.184 44.3196 213.408 43.5784 212.31 43.5784C211.051 43.5784 210.114 44.4455 210.114 45.5293V45.5643H208.898V45.5223C208.898 43.7742 210.408 42.4805 212.289 42.4805C214.114 42.4805 215.45 43.7043 215.45 45.2846V45.2986C215.45 46.4034 214.939 47.2355 213.086 49.1306L210.688 51.592V51.6199H215.618V52.7388H208.961ZM220.454 52.9066C218.524 52.9066 217.147 51.7039 217 50.0606L216.993 49.9837H218.231L218.238 50.0396C218.364 51.0396 219.259 51.8018 220.468 51.8018C221.839 51.8018 222.79 50.8508 222.79 49.4942V49.4802C222.783 48.1516 221.825 47.2006 220.489 47.2006C219.804 47.2006 219.217 47.4034 218.769 47.8089C218.587 47.9768 218.427 48.1726 218.294 48.4033H217.182L217.699 42.6484H223.475V43.7672H218.734L218.392 47.1586H218.42C218.895 46.4803 219.734 46.1167 220.713 46.1167C222.65 46.1167 224.049 47.5222 224.049 49.4592V49.4732C224.042 51.4941 222.552 52.9066 220.454 52.9066ZM225.998 52.8367C225.55 52.8367 225.2 52.487 225.2 52.0395C225.2 51.592 225.55 51.2423 225.998 51.2423C226.445 51.2423 226.795 51.592 226.795 52.0395C226.795 52.487 226.445 52.8367 225.998 52.8367ZM231.786 52.9066C229.464 52.9066 228.086 50.8997 228.086 47.6971V47.6831C228.086 44.4804 229.464 42.4805 231.786 42.4805C234.107 42.4805 235.499 44.4804 235.499 47.6831V47.6971C235.499 50.8997 234.107 52.9066 231.786 52.9066ZM231.786 51.8087C233.324 51.8087 234.233 50.2284 234.233 47.6971V47.6831C234.233 45.1517 233.324 43.5854 231.786 43.5854C230.247 43.5854 229.352 45.1517 229.352 47.6831V47.6971C229.352 50.2284 230.247 51.8087 231.786 51.8087ZM240.384 52.9066C238.063 52.9066 236.685 50.8997 236.685 47.6971V47.6831C236.685 44.4804 238.063 42.4805 240.384 42.4805C242.706 42.4805 244.098 44.4804 244.098 47.6831V47.6971C244.098 50.8997 242.706 52.9066 240.384 52.9066ZM240.384 51.8087C241.923 51.8087 242.832 50.2284 242.832 47.6971V47.6831C242.832 45.1517 241.923 43.5854 240.384 43.5854C238.846 43.5854 237.951 45.1517 237.951 47.6831V47.6971C237.951 50.2284 238.846 51.8087 240.384 51.8087ZM248.983 52.9066C246.662 52.9066 245.284 50.8997 245.284 47.6971V47.6831C245.284 44.4804 246.662 42.4805 248.983 42.4805C251.305 42.4805 252.697 44.4804 252.697 47.6831V47.6971C252.697 50.8997 251.305 52.9066 248.983 52.9066ZM248.983 51.8087C250.522 51.8087 251.431 50.2284 251.431 47.6971V47.6831C251.431 45.1517 250.522 43.5854 248.983 43.5854C247.445 43.5854 246.55 45.1517 246.55 47.6831V47.6971C246.55 50.2284 247.445 51.8087 248.983 51.8087ZM254.506 52.8367C254.058 52.8367 253.708 52.487 253.708 52.0395C253.708 51.592 254.058 51.2423 254.506 51.2423C254.953 51.2423 255.303 51.592 255.303 52.0395C255.303 52.487 254.953 52.8367 254.506 52.8367ZM257.496 52.8367C257.049 52.8367 256.699 52.487 256.699 52.0395C256.699 51.592 257.049 51.2423 257.496 51.2423C257.944 51.2423 258.294 51.592 258.294 52.0395C258.294 52.487 257.944 52.8367 257.496 52.8367ZM260.487 52.8367C260.04 52.8367 259.69 52.487 259.69 52.0395C259.69 51.592 260.04 51.2423 260.487 51.2423C260.935 51.2423 261.284 51.592 261.284 52.0395C261.284 52.487 260.935 52.8367 260.487 52.8367Z" fill="#8C8598"/>
</g>
<defs>
<linearGradient id="paint0_linear_1099_2710" x1="0.541992" y1="35.2311" x2="314.912" y2="35.2311" gradientUnits="userSpaceOnUse">
<stop stop-color="#DBCEED"/>
<stop offset="1" stop-color="#70678C"/>
</linearGradient>
<clipPath id="clip0_1099_2710">
<rect x="11.3823" y="14.3003" width="41.8613" height="41.8613" rx="11.0161" fill="white"/>
</clipPath>
<clipPath id="clip1_1099_2710">
<rect width="235.235" height="43.015" fill="white" transform="translate(64.2598 13.7236)"/>
</clipPath>
</defs>
</svg>
