<svg width="316" height="71" viewBox="0 0 316 71" fill="none" xmlns="http://www.w3.org/2000/svg">
<rect x="0.542236" y="0.541992" width="314.37" height="69.3782" rx="17.6258" fill="url(#paint0_linear_1099_2739)" fill-opacity="0.1"/>
<rect x="0.542236" y="0.541992" width="314.37" height="69.3782" rx="17.6258" stroke="white" stroke-opacity="0.08" stroke-width="1.08403"/>
<g clip-path="url(#clip0_1099_2739)">
<rect x="11.3826" y="14.3003" width="41.8613" height="41.8613" fill="#820AD1"/>
<g clip-path="url(#clip1_1099_2739)">
<path d="M22.8983 29.1303C23.8528 28.1273 25.1191 27.5415 26.6068 27.5415C29.5049 27.5415 31.4263 29.6575 31.7939 32.8272C31.9131 33.8566 31.9119 35.308 31.9108 36.989C31.9107 37.1614 31.9106 37.3361 31.9106 37.5131V43.8104H27.9252V39.1528C27.9252 39.1528 27.9171 35.1666 27.8927 34.4215C27.7857 31.1767 25.8648 29.1378 22.8979 29.1358C22.0028 30.0814 21.5232 31.2378 21.4524 33.0059C21.4426 33.2524 21.4451 34.1265 21.4484 35.2785C21.4501 35.8754 21.4519 36.5469 21.4524 37.2444C21.4553 40.2802 21.4524 43.8111 21.4524 43.8111H17.4671V36.643C17.4671 36.3975 17.4625 36.1497 17.458 35.901C17.449 35.4008 17.4399 34.8968 17.4671 34.3976C17.512 33.5656 17.656 32.7475 18.0443 31.9877C18.9331 30.2468 20.7541 29.1259 22.6955 29.1259C22.7634 29.126 22.8311 29.1275 22.8983 29.1303ZM47.6184 37.3406C47.6455 36.8415 47.6365 36.3373 47.6274 35.8372C47.6228 35.5884 47.6184 35.3407 47.6184 35.0952V27.9271H43.6331C43.6331 27.9271 43.6301 31.4579 43.6331 34.4937C43.6335 35.1912 43.6354 35.8627 43.6371 36.4596C43.6403 37.6117 43.6428 38.4858 43.6331 38.7323C43.5624 40.5004 43.0827 41.6568 42.1876 42.6025C39.2208 42.6003 37.2999 40.5614 37.1929 37.3167C37.1685 36.5717 37.1582 34.7229 37.1582 32.5817V27.9241L33.1758 27.9277V34.2249L33.1755 34.7492C33.1743 36.4302 33.1733 37.8814 33.2925 38.9108C33.6593 42.0807 35.5808 44.1966 38.4788 44.1966C39.9664 44.1966 41.2328 43.6107 42.1873 42.6079C42.2545 42.6106 42.322 42.6119 42.3901 42.612C44.3314 42.612 46.1525 41.4912 47.0413 39.7504C47.4295 38.9904 47.5734 38.1725 47.6185 37.3403L47.6184 37.3406Z" fill="white"/>
</g>
</g>
<g clip-path="url(#clip2_1099_2739)">
<path d="M68.1329 30.7236V20.8317H64.6473V19.0809H73.684V20.8317H70.2065V30.7236H68.1329ZM73.5387 30.7236V22.1711H75.5478V23.6476H75.5881C75.8544 22.6148 76.5644 21.9936 77.5488 21.9936C77.7989 21.9936 78.0329 22.0339 78.1862 22.0743V23.8897C78.0167 23.8251 77.7101 23.7767 77.3712 23.7767C76.2336 23.7767 75.5478 24.4948 75.5478 25.7615V30.7236H73.5387ZM81.5507 30.8689C79.8402 30.8689 78.6864 29.8119 78.6864 28.287V28.2708C78.6864 26.754 79.8644 25.8422 81.938 25.7131L84.173 25.576V24.987C84.173 24.1236 83.6082 23.5992 82.5915 23.5992C81.6395 23.5992 81.0585 24.043 80.9294 24.6723L80.9133 24.7449H79.0495L79.0576 24.6481C79.1786 23.1312 80.4937 21.9936 82.6641 21.9936C84.8023 21.9936 86.182 23.1232 86.182 24.8417V30.7236H84.173V29.4085H84.1245C83.6324 30.3041 82.6803 30.8689 81.5507 30.8689ZM80.6874 28.2063C80.6874 28.9082 81.2683 29.3359 82.1478 29.3359C83.3016 29.3359 84.173 28.5694 84.173 27.5527V26.9073L82.2204 27.0283C81.228 27.0928 80.6874 27.5205 80.6874 28.1982V28.2063ZM87.8038 30.7236V22.1711H89.8128V23.5104H89.8531C90.2969 22.5906 91.1683 21.9936 92.4673 21.9936C94.3473 21.9936 95.4204 23.2038 95.4204 25.1887V30.7236H93.4113V25.5921C93.4113 24.3738 92.8465 23.6879 91.7008 23.6879C90.547 23.6879 89.8128 24.5271 89.8128 25.7615V30.7236H87.8038ZM100.374 30.8931C98.1314 30.8931 96.8485 29.828 96.671 28.2385L96.6629 28.1659H98.6397L98.6558 28.2385C98.8091 28.9728 99.3658 29.4085 100.382 29.4085C101.359 29.4085 101.948 29.0131 101.948 28.3838V28.3757C101.948 27.8593 101.649 27.5689 100.762 27.3672L99.3416 27.0525C97.7037 26.6894 96.8808 25.8906 96.8808 24.6239V24.6158C96.8808 23.0505 98.2443 21.9936 100.31 21.9936C102.44 21.9936 103.682 23.1635 103.755 24.64L103.763 24.7288H101.891L101.883 24.6642C101.794 23.9784 101.246 23.4782 100.31 23.4782C99.4223 23.4782 98.8656 23.8897 98.8656 24.519V24.5271C98.8656 25.0192 99.1964 25.342 100.084 25.5437L101.512 25.8584C103.279 26.2537 103.965 26.9476 103.965 28.1901V28.1982C103.965 29.8119 102.472 30.8931 100.374 30.8931ZM105.804 30.7236V23.7202H104.635V22.1711H105.804V21.3562C105.804 19.686 106.595 18.9114 108.451 18.9114C108.846 18.9114 109.274 18.9437 109.524 18.9921V20.396C109.363 20.3718 109.137 20.3557 108.919 20.3557C108.136 20.3557 107.773 20.7188 107.773 21.4126V22.1711H109.492V23.7202H107.814V30.7236H105.804ZM113.897 30.8931C111.331 30.8931 109.782 29.1906 109.782 26.4716V26.4635C109.782 23.7686 111.356 21.9936 113.8 21.9936C116.245 21.9936 117.762 23.7121 117.762 26.2941V26.9395H111.775C111.807 28.4403 112.63 29.3278 113.937 29.3278C114.938 29.3278 115.592 28.7953 115.785 28.2224L115.801 28.1659H117.681L117.657 28.2547C117.391 29.5698 116.132 30.8931 113.897 30.8931ZM113.825 23.5669C112.759 23.5669 111.961 24.285 111.799 25.6002H115.809C115.664 24.2447 114.89 23.5669 113.825 23.5669ZM119.061 30.7236V22.1711H121.07V23.6476H121.11C121.377 22.6148 122.087 21.9936 123.071 21.9936C123.321 21.9936 123.555 22.0339 123.708 22.0743V23.8897C123.539 23.8251 123.232 23.7767 122.893 23.7767C121.756 23.7767 121.07 24.4948 121.07 25.7615V30.7236H119.061ZM128.178 30.8931C125.613 30.8931 124.063 29.1906 124.063 26.4716V26.4635C124.063 23.7686 125.637 21.9936 128.081 21.9936C130.526 21.9936 132.043 23.7121 132.043 26.2941V26.9395H126.056C126.089 28.4403 126.912 29.3278 128.219 29.3278C129.219 29.3278 129.873 28.7953 130.066 28.2224L130.082 28.1659H131.962L131.938 28.2547C131.672 29.5698 130.413 30.8931 128.178 30.8931ZM128.106 23.5669C127.041 23.5669 126.242 24.285 126.08 25.6002H130.091C129.945 24.2447 129.171 23.5669 128.106 23.5669ZM133.342 30.7236V22.1711H135.351V23.5104H135.391C135.835 22.5906 136.707 21.9936 138.006 21.9936C139.886 21.9936 140.959 23.2038 140.959 25.1887V30.7236H138.95V25.5921C138.95 24.3738 138.385 23.6879 137.239 23.6879C136.085 23.6879 135.351 24.5271 135.351 25.7615V30.7236H133.342ZM146.348 30.8931C143.807 30.8931 142.217 29.1826 142.217 26.4393V26.4312C142.217 23.7041 143.831 21.9936 146.324 21.9936C148.575 21.9936 149.979 23.4217 150.1 25.1322L150.108 25.1967H148.212L148.196 25.1241C148.027 24.2931 147.413 23.6234 146.348 23.6234C145.082 23.6234 144.267 24.6965 144.267 26.4474V26.4554C144.267 28.2385 145.09 29.2713 146.357 29.2713C147.373 29.2713 148.019 28.6662 148.204 27.7706L148.22 27.698H150.116L150.108 27.7544C149.955 29.5376 148.511 30.8931 146.348 30.8931ZM152.384 20.9447C151.754 20.9447 151.262 20.4444 151.262 19.8474C151.262 19.2342 151.754 18.742 152.384 18.742C153.013 18.742 153.497 19.2342 153.497 19.8474C153.497 20.4444 153.013 20.9447 152.384 20.9447ZM151.375 30.7236V22.1711H153.384V30.7236H151.375ZM157.62 30.8689C155.91 30.8689 154.756 29.8119 154.756 28.287V28.2708C154.756 26.754 155.934 25.8422 158.007 25.7131L160.242 25.576V24.987C160.242 24.1236 159.678 23.5992 158.661 23.5992C157.709 23.5992 157.128 24.043 156.999 24.6723L156.983 24.7449H155.119L155.127 24.6481C155.248 23.1312 156.563 21.9936 158.734 21.9936C160.872 21.9936 162.251 23.1232 162.251 24.8417V30.7236H160.242V29.4085H160.194C159.702 30.3041 158.75 30.8689 157.62 30.8689ZM156.757 28.2063C156.757 28.9082 157.338 29.3359 158.217 29.3359C159.371 29.3359 160.242 28.5694 160.242 27.5527V26.9073L158.29 27.0283C157.297 27.0928 156.757 27.5205 156.757 28.1982V28.2063ZM170.941 30.8931C168.375 30.8931 166.826 29.1906 166.826 26.4716V26.4635C166.826 23.7686 168.4 21.9936 170.844 21.9936C173.289 21.9936 174.806 23.7121 174.806 26.2941V26.9395H168.819C168.851 28.4403 169.674 29.3278 170.981 29.3278C171.982 29.3278 172.635 28.7953 172.829 28.2224L172.845 28.1659H174.725L174.701 28.2547C174.435 29.5698 173.176 30.8931 170.941 30.8931ZM170.868 23.5669C169.803 23.5669 169.005 24.285 168.843 25.6002H172.853C172.708 24.2447 171.934 23.5669 170.868 23.5669ZM175.338 30.7236L178.106 26.4554L175.371 22.1711H177.63L179.348 25.1725H179.397L181.099 22.1711H183.294L180.543 26.3989L183.27 30.7236H181.075L179.3 27.6576H179.252L177.485 30.7236H175.338ZM185.384 20.9447C184.754 20.9447 184.262 20.4444 184.262 19.8474C184.262 19.2342 184.754 18.742 185.384 18.742C186.013 18.742 186.497 19.2342 186.497 19.8474C186.497 20.4444 186.013 20.9447 185.384 20.9447ZM184.375 30.7236V22.1711H186.384V30.7236H184.375ZM191.274 30.8931C189.482 30.8931 188.635 30.1669 188.635 28.408V23.7202H187.425V22.1711H188.635V20.0007H190.677V22.1711H192.266V23.7202H190.677V28.2385C190.677 29.0777 191.048 29.3439 191.782 29.3439C191.976 29.3439 192.129 29.3197 192.266 29.3117V30.8205C192.032 30.8527 191.677 30.8931 191.274 30.8931ZM197.268 30.8931C194.751 30.8931 193.129 29.2148 193.129 26.4474V26.4312C193.129 23.6879 194.775 21.9936 197.26 21.9936C199.754 21.9936 201.408 23.6718 201.408 26.4312V26.4474C201.408 29.2229 199.778 30.8931 197.268 30.8931ZM197.277 29.2713C198.543 29.2713 199.358 28.2385 199.358 26.4474V26.4312C199.358 24.6481 198.535 23.6234 197.26 23.6234C196.01 23.6234 195.179 24.6562 195.179 26.4312V26.4474C195.179 28.2466 195.994 29.2713 197.277 29.2713ZM206.039 30.8931C203.796 30.8931 202.513 29.828 202.335 28.2385L202.327 28.1659H204.304L204.32 28.2385C204.474 28.9728 205.03 29.4085 206.047 29.4085C207.023 29.4085 207.612 29.0131 207.612 28.3838V28.3757C207.612 27.8593 207.314 27.5689 206.426 27.3672L205.006 27.0525C203.368 26.6894 202.545 25.8906 202.545 24.6239V24.6158C202.545 23.0505 203.909 21.9936 205.974 21.9936C208.104 21.9936 209.347 23.1635 209.42 24.64L209.428 24.7288H207.556L207.548 24.6642C207.459 23.9784 206.91 23.4782 205.974 23.4782C205.087 23.4782 204.53 23.8897 204.53 24.519V24.5271C204.53 25.0192 204.861 25.342 205.748 25.5437L207.177 25.8584C208.943 26.2537 209.629 26.9476 209.629 28.1901V28.1982C209.629 29.8119 208.137 30.8931 206.039 30.8931ZM213.438 30.8689C211.727 30.8689 210.573 29.8119 210.573 28.287V28.2708C210.573 26.754 211.751 25.8422 213.825 25.7131L216.06 25.576V24.987C216.06 24.1236 215.495 23.5992 214.478 23.5992C213.526 23.5992 212.945 24.043 212.816 24.6723L212.8 24.7449H210.936L210.944 24.6481C211.066 23.1312 212.381 21.9936 214.551 21.9936C216.689 21.9936 218.069 23.1232 218.069 24.8417V30.7236H216.06V29.4085H216.011C215.519 30.3041 214.567 30.8689 213.438 30.8689ZM212.574 28.2063C212.574 28.9082 213.155 29.3359 214.035 29.3359C215.188 29.3359 216.06 28.5694 216.06 27.5527V26.9073L214.107 27.0283C213.115 27.0928 212.574 27.5205 212.574 28.1982V28.2063Z" fill="white"/>
<path d="M248.221 24.7236V14.947H249.441V19.1747H254.807V14.947H256.026V24.7236H254.807V20.2723H249.441V24.7236H248.221ZM259.511 24.8591C258.108 24.8591 257.167 24.0122 257.167 22.7317V22.7182C257.167 21.519 258.102 20.7669 259.721 20.6721L261.74 20.5569V19.9674C261.74 19.107 261.178 18.5853 260.195 18.5853C259.287 18.5853 258.718 19.0189 258.583 19.649L258.569 19.71H257.431L257.438 19.6355C257.539 18.4769 258.549 17.5419 260.209 17.5419C261.875 17.5419 262.919 18.443 262.919 19.8523V24.7236H261.74V23.5786H261.713C261.3 24.351 260.453 24.8591 259.511 24.8591ZM258.373 22.7317C258.373 23.4092 258.928 23.8361 259.775 23.8361C260.886 23.8361 261.74 23.0705 261.74 22.0474V21.4715L259.856 21.5867C258.915 21.6409 258.373 22.061 258.373 22.7182V22.7317ZM267.25 24.8591C265.252 24.8591 263.985 23.4363 263.985 21.1937V21.187C263.985 18.9647 265.279 17.5419 267.237 17.5419C268.992 17.5419 270.028 18.7072 270.177 19.9132L270.184 19.9674H269.032L269.019 19.9132C268.842 19.2086 268.273 18.5853 267.237 18.5853C266.01 18.5853 265.191 19.6016 265.191 21.2005V21.2073C265.191 22.8469 266.031 23.8158 267.25 23.8158C268.212 23.8158 268.829 23.2737 269.025 22.4878L269.039 22.4336H270.198L270.191 22.481C270.001 23.8225 268.842 24.8591 267.25 24.8591ZM274.095 24.8591C272.07 24.8591 270.85 23.4431 270.85 21.2276V21.2208C270.85 19.0392 272.097 17.5419 274.021 17.5419C275.945 17.5419 277.117 18.9715 277.117 21.0853V21.519H272.043C272.07 22.9689 272.869 23.8158 274.123 23.8158C275.017 23.8158 275.647 23.3686 275.85 22.7656L275.871 22.7046H277.029L277.016 22.7724C276.785 23.9377 275.633 24.8591 274.095 24.8591ZM274.014 18.5853C272.991 18.5853 272.192 19.2831 272.063 20.5975H275.918C275.803 19.2289 275.044 18.5853 274.014 18.5853ZM284.303 24.8862C282.284 24.8862 280.977 23.7616 280.848 22.2168L280.841 22.1355H282.013L282.02 22.2033C282.122 23.1653 283.002 23.8293 284.303 23.8293C285.584 23.8293 286.458 23.1111 286.458 22.0745V22.061C286.458 20.8618 285.597 20.191 284.229 20.191H283.002V19.1612H284.174C285.34 19.1612 286.153 18.443 286.153 17.4674V17.4538C286.153 16.4308 285.482 15.8413 284.29 15.8413C283.138 15.8413 282.318 16.4511 282.216 17.4403L282.21 17.508H281.038L281.044 17.4403C281.2 15.8481 282.46 14.7844 284.29 14.7844C286.153 14.7844 287.379 15.821 287.379 17.3048V17.3183C287.379 18.5243 286.525 19.3509 285.306 19.6083V19.6355C286.729 19.7574 287.698 20.645 287.698 22.0339V22.0474C287.698 23.6803 286.261 24.8862 284.303 24.8862ZM289.109 24.7236V17.6774H290.288V18.7072H290.315C290.633 18.0094 291.338 17.5419 292.246 17.5419C293.208 17.5419 293.919 18.0365 294.224 18.897H294.251C294.644 18.0501 295.471 17.5419 296.46 17.5419C297.856 17.5419 298.757 18.4566 298.757 19.859V24.7236H297.578V20.13C297.578 19.1612 297.043 18.5853 296.115 18.5853C295.18 18.5853 294.522 19.2831 294.522 20.2452V24.7236H293.343V20.0013C293.343 19.1476 292.774 18.5853 291.9 18.5853C290.965 18.5853 290.288 19.3238 290.288 20.3062V24.7236H289.109Z" fill="#D8D8D8" fill-opacity="0.6"/>
<path d="M67.7913 52.7388V43.7812H64.6096V42.6484H72.2316V43.7812H69.05V52.7388H67.7913ZM74.3904 52.8786C72.2996 52.8786 71.0409 51.4172 71.0409 49.1306V49.1236C71.0409 46.8719 72.3275 45.3266 74.3134 45.3266C76.2994 45.3266 77.5091 46.802 77.5091 48.9837V49.4312H72.2716C72.2996 50.9277 73.1247 51.8018 74.4183 51.8018C75.3414 51.8018 75.9917 51.3402 76.2015 50.7179L76.2224 50.655H77.4182L77.4042 50.7249C77.1664 51.9276 75.9777 52.8786 74.3904 52.8786ZM74.3064 46.4034C73.2506 46.4034 72.4254 47.1237 72.2926 48.4802H76.2714C76.1525 47.0677 75.3693 46.4034 74.3064 46.4034ZM81.5678 52.7388V42.6484H82.7845V52.7388H81.5678ZM84.4048 52.7388V42.6484H85.6215V52.7388H84.4048ZM90.1717 52.8786C88.0809 52.8786 86.8222 51.4172 86.8222 49.1306V49.1236C86.8222 46.8719 88.1089 45.3266 90.0948 45.3266C92.0807 45.3266 93.2905 46.802 93.2905 48.9837V49.4312H88.0529C88.0809 50.9277 88.9061 51.8018 90.1997 51.8018C91.1227 51.8018 91.773 51.3402 91.9828 50.7179L92.0038 50.655H93.1995L93.1856 50.7249C92.9478 51.9276 91.7591 52.8786 90.1717 52.8786ZM90.0878 46.4034C89.0319 46.4034 88.2068 47.1237 88.0739 48.4802H92.0528C91.9339 47.0677 91.1507 46.4034 90.0878 46.4034ZM97.512 55.3261C95.7149 55.3261 94.5821 54.4799 94.3443 53.4031L94.3303 53.3401H95.5541L95.582 53.4031C95.8128 53.9275 96.5051 54.2492 97.498 54.2492C98.7777 54.2492 99.5049 53.5429 99.5049 52.4171V51.4871H99.4769C99.0434 52.2912 98.2043 52.8087 97.1624 52.8087C95.3303 52.8087 94.0786 51.3332 94.0786 49.0606V49.0536C94.0786 46.795 95.3443 45.3266 97.1903 45.3266C98.2183 45.3266 99.0294 45.886 99.4769 46.6971H99.5049V45.4664H100.722V52.536C100.722 54.2212 99.4839 55.3261 97.512 55.3261ZM97.4281 51.7318C98.6658 51.7318 99.5049 50.6759 99.5049 49.0606V49.0536C99.5049 47.4523 98.6588 46.4034 97.4281 46.4034C96.1344 46.4034 95.3233 47.4383 95.3233 49.0536V49.0606C95.3233 50.7109 96.1344 51.7318 97.4281 51.7318ZM104.335 52.8786C102.887 52.8786 101.915 52.0045 101.915 50.6829V50.6689C101.915 49.4312 102.88 48.6551 104.552 48.5572L106.635 48.4383V47.8299C106.635 46.9419 106.055 46.4034 105.041 46.4034C104.104 46.4034 103.517 46.851 103.377 47.5013L103.363 47.5642H102.188L102.195 47.4873C102.3 46.2915 103.342 45.3266 105.055 45.3266C106.775 45.3266 107.852 46.2566 107.852 47.711V52.7388H106.635V51.557H106.607C106.181 52.3542 105.307 52.8786 104.335 52.8786ZM103.16 50.6829C103.16 51.3822 103.733 51.8227 104.608 51.8227C105.754 51.8227 106.635 51.0326 106.635 49.9767V49.3823L104.691 49.5012C103.719 49.5571 103.16 49.9907 103.16 50.6689V50.6829ZM109.312 52.7388V45.4664H110.528V46.6971H110.556C110.801 45.858 111.43 45.3266 112.248 45.3266C112.458 45.3266 112.64 45.3615 112.738 45.3755V46.5573C112.64 46.5223 112.381 46.4873 112.088 46.4873C111.144 46.4873 110.528 47.1446 110.528 48.2495V52.7388H109.312ZM116.309 52.8786C114.288 52.8786 112.939 51.4172 112.939 49.1026V49.0886C112.939 46.774 114.295 45.3266 116.302 45.3266C118.309 45.3266 119.673 46.767 119.673 49.0886V49.1026C119.673 51.4241 118.316 52.8786 116.309 52.8786ZM116.316 51.8018C117.596 51.8018 118.428 50.8088 118.428 49.1026V49.0886C118.428 47.3824 117.589 46.4034 116.302 46.4034C115.037 46.4034 114.183 47.3894 114.183 49.0886V49.1026C114.183 50.8158 115.03 51.8018 116.316 51.8018ZM120.817 52.7388V45.4664H122.034V46.5013H122.062C122.454 45.823 123.195 45.3266 124.3 45.3266C125.894 45.3266 126.817 46.3615 126.817 48.0187V52.7388H125.6V48.2355C125.6 47.0537 125.048 46.4034 123.929 46.4034C122.782 46.4034 122.034 47.2216 122.034 48.4593V52.7388H120.817ZM134.246 53.7527V52.5709C132.589 52.4241 131.274 51.4311 131.163 49.8718L131.156 49.7739H132.372L132.386 49.8578C132.526 50.6619 133.044 51.3402 134.246 51.4731V48.1096L134.086 48.0677C132.344 47.6481 131.407 46.8719 131.407 45.4874V45.4804C131.407 43.984 132.596 42.97 134.246 42.8162V41.6344H135.085V42.8092C136.694 42.956 137.904 43.984 138.001 45.4524L138.008 45.5573H136.792L136.785 45.4944C136.687 44.6133 136.029 44.0329 135.085 43.914V47.1237L135.302 47.1726C137.099 47.6062 138.106 48.3474 138.106 49.8228V49.8298C138.106 51.5081 136.729 52.4521 135.085 52.5779V53.7527H134.246ZM132.624 45.4244C132.624 46.1097 133.051 46.6272 134.246 46.9209V43.914C133.183 44.0609 132.624 44.7392 132.624 45.4175V45.4244ZM135.127 48.3194L135.085 48.3124V51.4871C136.386 51.3822 136.89 50.7179 136.89 49.9067V49.8998C136.89 49.1376 136.505 48.6551 135.127 48.3194ZM143.132 52.9066C141.048 52.9066 139.699 51.7458 139.566 50.1515L139.559 50.0676H140.768L140.775 50.1375C140.88 51.1305 141.789 51.8157 143.132 51.8157C144.454 51.8157 145.356 51.0745 145.356 50.0046V49.9907C145.356 48.753 144.468 48.0607 143.055 48.0607H141.789V46.9978H142.999C144.202 46.9978 145.041 46.2566 145.041 45.2496V45.2356C145.041 44.1798 144.349 43.5714 143.118 43.5714C141.929 43.5714 141.083 44.2007 140.978 45.2217L140.971 45.2916H139.762L139.769 45.2217C139.929 43.5784 141.23 42.4805 143.118 42.4805C145.041 42.4805 146.307 43.5504 146.307 45.0818V45.0958C146.307 46.3405 145.426 47.1936 144.167 47.4593V47.4873C145.635 47.6132 146.635 48.5292 146.635 49.9627V49.9767C146.635 51.6619 145.153 52.9066 143.132 52.9066ZM151.591 52.9066C149.661 52.9066 148.284 51.7039 148.137 50.0606L148.13 49.9837H149.367L149.374 50.0396C149.5 51.0396 150.395 51.8018 151.605 51.8018C152.976 51.8018 153.927 50.8508 153.927 49.4942V49.4802C153.92 48.1516 152.962 47.2006 151.626 47.2006C150.941 47.2006 150.353 47.4034 149.906 47.8089C149.724 47.9768 149.563 48.1726 149.43 48.4033H148.319L148.836 42.6484H154.612V43.7672H149.871L149.528 47.1586H149.556C150.032 46.4803 150.871 46.1167 151.85 46.1167C153.787 46.1167 155.185 47.5222 155.185 49.4592V49.4732C155.178 51.4941 153.689 52.9066 151.591 52.9066ZM157.134 52.8367C156.687 52.8367 156.337 52.487 156.337 52.0395C156.337 51.592 156.687 51.2423 157.134 51.2423C157.582 51.2423 157.931 51.592 157.931 52.0395C157.931 52.487 157.582 52.8367 157.134 52.8367ZM162.922 52.9066C160.601 52.9066 159.223 50.8997 159.223 47.6971V47.6831C159.223 44.4804 160.601 42.4805 162.922 42.4805C165.244 42.4805 166.635 44.4804 166.635 47.6831V47.6971C166.635 50.8997 165.244 52.9066 162.922 52.9066ZM162.922 51.8087C164.461 51.8087 165.37 50.2284 165.37 47.6971V47.6831C165.37 45.1517 164.461 43.5854 162.922 43.5854C161.384 43.5854 160.489 45.1517 160.489 47.6831V47.6971C160.489 50.2284 161.384 51.8087 162.922 51.8087ZM171.521 52.9066C169.2 52.9066 167.822 50.8997 167.822 47.6971V47.6831C167.822 44.4804 169.2 42.4805 171.521 42.4805C173.843 42.4805 175.234 44.4804 175.234 47.6831V47.6971C175.234 50.8997 173.843 52.9066 171.521 52.9066ZM171.521 51.8087C173.06 51.8087 173.969 50.2284 173.969 47.6971V47.6831C173.969 45.1517 173.06 43.5854 171.521 43.5854C169.983 43.5854 169.088 45.1517 169.088 47.6831V47.6971C169.088 50.2284 169.983 51.8087 171.521 51.8087ZM180.12 52.9066C177.799 52.9066 176.421 50.8997 176.421 47.6971V47.6831C176.421 44.4804 177.799 42.4805 180.12 42.4805C182.442 42.4805 183.833 44.4804 183.833 47.6831V47.6971C183.833 50.8997 182.442 52.9066 180.12 52.9066ZM180.12 51.8087C181.658 51.8087 182.568 50.2284 182.568 47.6971V47.6831C182.568 45.1517 181.658 43.5854 180.12 43.5854C178.582 43.5854 177.687 45.1517 177.687 47.6831V47.6971C177.687 50.2284 178.582 51.8087 180.12 51.8087ZM184.405 54.7177L185.02 51.2983H186.293L185.272 54.7177H184.405ZM193.05 52.8786C190.988 52.8786 189.68 51.4102 189.68 49.0956V49.0886C189.68 46.795 191.016 45.3266 193.036 45.3266C194.848 45.3266 195.917 46.5293 196.071 47.774L196.078 47.8299H194.89L194.876 47.774C194.694 47.0467 194.106 46.4034 193.036 46.4034C191.771 46.4034 190.925 47.4523 190.925 49.1026V49.1096C190.925 50.8018 191.792 51.8018 193.05 51.8018C194.043 51.8018 194.68 51.2423 194.883 50.4312L194.897 50.3753H196.092L196.085 50.4242C195.889 51.8087 194.694 52.8786 193.05 52.8786ZM200.139 52.8786C198.118 52.8786 196.769 51.4172 196.769 49.1026V49.0886C196.769 46.774 198.125 45.3266 200.132 45.3266C202.139 45.3266 203.502 46.767 203.502 49.0886V49.1026C203.502 51.4241 202.146 52.8786 200.139 52.8786ZM200.146 51.8018C201.426 51.8018 202.258 50.8088 202.258 49.1026V49.0886C202.258 47.3824 201.419 46.4034 200.132 46.4034C198.866 46.4034 198.013 47.3894 198.013 49.0886V49.1026C198.013 50.8158 198.859 51.8018 200.146 51.8018ZM204.647 52.7388V45.4664H205.864V46.5013H205.892C206.284 45.823 207.025 45.3266 208.13 45.3266C209.724 45.3266 210.647 46.3615 210.647 48.0187V52.7388H209.43V48.2355C209.43 47.0537 208.878 46.4034 207.759 46.4034C206.612 46.4034 205.864 47.2216 205.864 48.4593V52.7388H204.647ZM214.694 52.8786C212.98 52.8786 211.946 52.0045 211.799 50.7039L211.792 50.641H213.008L213.022 50.7109C213.169 51.4381 213.708 51.8647 214.701 51.8647C215.687 51.8647 216.274 51.4521 216.274 50.7948V50.7878C216.274 50.2634 216.001 49.9697 215.176 49.7669L214.022 49.4872C212.652 49.1585 211.988 48.5222 211.988 47.4733V47.4663C211.988 46.2146 213.085 45.3266 214.659 45.3266C216.253 45.3266 217.267 46.2566 217.358 47.4733L217.365 47.5642H216.204L216.197 47.5153C216.099 46.809 215.561 46.3405 214.659 46.3405C213.778 46.3405 213.232 46.767 213.232 47.4104V47.4174C213.232 47.9138 213.561 48.2565 214.365 48.4523L215.519 48.732C216.987 49.0886 217.519 49.669 217.519 50.7039V50.7109C217.519 51.9836 216.316 52.8786 214.694 52.8786ZM221.181 52.8786C219.587 52.8786 218.664 51.8437 218.664 50.1864V45.4664H219.88V49.9697C219.88 51.1514 220.433 51.8018 221.551 51.8018C222.698 51.8018 223.446 50.9836 223.446 49.7459V45.4664H224.663V52.7388H223.446V51.7039H223.419C223.027 52.3821 222.286 52.8786 221.181 52.8786ZM226.228 52.7388V42.6484H227.444V52.7388H226.228ZM231.365 52.8786C230.03 52.8786 229.372 52.2773 229.372 50.8857V46.4733H228.309V45.4664H229.372V43.5015H230.631V45.4664H232.015V46.4733H230.631V50.8787C230.631 51.6549 230.974 51.8717 231.624 51.8717C231.771 51.8717 231.911 51.8507 232.015 51.8437V52.8297C231.862 52.8507 231.603 52.8786 231.365 52.8786ZM235.223 52.8786C233.776 52.8786 232.804 52.0045 232.804 50.6829V50.6689C232.804 49.4312 233.769 48.6551 235.44 48.5572L237.524 48.4383V47.8299C237.524 46.9419 236.943 46.4034 235.929 46.4034C234.992 46.4034 234.405 46.851 234.265 47.5013L234.251 47.5642H233.076L233.083 47.4873C233.188 46.2915 234.23 45.3266 235.943 45.3266C237.664 45.3266 238.74 46.2566 238.74 47.711V52.7388H237.524V51.557H237.496C237.069 52.3542 236.195 52.8786 235.223 52.8786ZM234.048 50.6829C234.048 51.3822 234.622 51.8227 235.496 51.8227C236.643 51.8227 237.524 51.0326 237.524 49.9767V49.3823L235.58 49.5012C234.608 49.5571 234.048 49.9907 234.048 50.6689V50.6829ZM246.044 52.8786C243.953 52.8786 242.694 51.4172 242.694 49.1306V49.1236C242.694 46.8719 243.981 45.3266 245.967 45.3266C247.953 45.3266 249.162 46.802 249.162 48.9837V49.4312H243.925C243.953 50.9277 244.778 51.8018 246.072 51.8018C246.995 51.8018 247.645 51.3402 247.855 50.7179L247.876 50.655H249.072L249.058 50.7249C248.82 51.9276 247.631 52.8786 246.044 52.8786ZM245.96 46.4034C244.904 46.4034 244.079 47.1237 243.946 48.4802H247.925C247.806 47.0677 247.023 46.4034 245.96 46.4034ZM250.307 52.7388V45.4664H251.524V46.5013H251.552C251.943 45.823 252.685 45.3266 253.79 45.3266C255.384 45.3266 256.307 46.3615 256.307 48.0187V52.7388H255.09V48.2355C255.09 47.0537 254.538 46.4034 253.419 46.4034C252.272 46.4034 251.524 47.2216 251.524 48.4593V52.7388H250.307ZM260.687 52.7388V42.6484H261.904V52.7388H260.687ZM265.587 52.8786C264.14 52.8786 263.168 52.0045 263.168 50.6829V50.6689C263.168 49.4312 264.133 48.6551 265.804 48.5572L267.888 48.4383V47.8299C267.888 46.9419 267.307 46.4034 266.293 46.4034C265.356 46.4034 264.769 46.851 264.629 47.5013L264.615 47.5642H263.44L263.447 47.4873C263.552 46.2915 264.594 45.3266 266.307 45.3266C268.028 45.3266 269.104 46.2566 269.104 47.711V52.7388H267.888V51.557H267.86C267.433 52.3542 266.559 52.8786 265.587 52.8786ZM264.412 50.6829C264.412 51.3822 264.986 51.8227 265.86 51.8227C267.007 51.8227 267.888 51.0326 267.888 49.9767V49.3823L265.944 49.5012C264.972 49.5571 264.412 49.9907 264.412 50.6689V50.6829ZM271.312 52.8367C270.865 52.8367 270.515 52.487 270.515 52.0395C270.515 51.592 270.865 51.2423 271.312 51.2423C271.76 51.2423 272.109 51.592 272.109 52.0395C272.109 52.487 271.76 52.8367 271.312 52.8367ZM274.303 52.8367C273.855 52.8367 273.506 52.487 273.506 52.0395C273.506 51.592 273.855 51.2423 274.303 51.2423C274.75 51.2423 275.1 51.592 275.1 52.0395C275.1 52.487 274.75 52.8367 274.303 52.8367ZM277.294 52.8367C276.846 52.8367 276.497 52.487 276.497 52.0395C276.497 51.592 276.846 51.2423 277.294 51.2423C277.741 51.2423 278.091 51.592 278.091 52.0395C278.091 52.487 277.741 52.8367 277.294 52.8367Z" fill="#8C8598"/>
</g>
<defs>
<linearGradient id="paint0_linear_1099_2739" x1="0.542236" y1="35.2311" x2="314.912" y2="35.2311" gradientUnits="userSpaceOnUse">
<stop stop-color="#DBCEED"/>
<stop offset="1" stop-color="#70678C"/>
</linearGradient>
<clipPath id="clip0_1099_2739">
<rect x="11.3826" y="14.3003" width="41.8613" height="41.8613" rx="11.0161" fill="white"/>
</clipPath>
<clipPath id="clip1_1099_2739">
<rect width="32" height="17.6551" fill="white" transform="translate(16.5427 26.5415)"/>
</clipPath>
<clipPath id="clip2_1099_2739">
<rect width="235.235" height="43.015" fill="white" transform="translate(64.26 13.7236)"/>
</clipPath>
</defs>
</svg>
