<svg width="316" height="71" viewBox="0 0 316 71" fill="none" xmlns="http://www.w3.org/2000/svg">
<rect x="0.541992" y="0.541992" width="314.37" height="69.3782" rx="17.6258" fill="url(#paint0_linear_1099_2695)" fill-opacity="0.1"/>
<rect x="0.541992" y="0.541992" width="314.37" height="69.3782" rx="17.6258" stroke="white" stroke-opacity="0.08" stroke-width="1.08403"/>
<g clip-path="url(#clip0_1099_2695)">
<rect x="11.3823" y="14.3003" width="41.8613" height="41.8613" fill="#151515"/>
<path d="M24.2639 25.3369C28.8727 24.0029 33.4676 23.1367 38.2246 22.5484C38.7434 22.4929 39.2529 22.831 39.4382 23.3498C39.8828 24.5587 40.1005 25.1701 40.5313 26.3883C40.7351 26.9673 40.4294 27.5463 39.8736 27.6204C35.0054 28.3384 30.29 29.3296 25.5747 30.7794C25.0004 30.9693 24.4353 30.6822 24.2917 30.1171C24.0407 29.1405 23.8841 28.5238 23.6856 27.7419C23.6129 27.4558 23.5346 27.1475 23.444 26.7913C23.2958 26.1984 23.6663 25.5268 24.2639 25.3369Z" fill="white"/>
<path fill-rule="evenodd" clip-rule="evenodd" d="M42.2034 29.9364C34.7552 30.886 27.5062 32.7295 20.6278 35.7727C20.1275 36.0089 19.8265 36.6388 19.933 37.1993L19.971 37.4005C20.2149 38.6918 20.3494 39.4035 20.6139 40.7613C20.7297 41.3681 21.2994 41.646 21.8599 41.3727C28.8449 38.172 36.2236 36.134 43.7968 34.9204C44.2785 34.8416 44.524 34.2904 44.3388 33.7207C43.9589 32.5442 43.7644 31.9559 43.3707 30.7794C43.19 30.2375 42.6944 29.8716 42.2034 29.9364Z" fill="white"/>
<path fill-rule="evenodd" clip-rule="evenodd" d="M28.4187 41.646C32.921 40.0943 37.4649 38.8807 42.1154 37.8709C42.6249 37.7644 43.1669 38.1489 43.3568 38.7232C43.732 39.909 43.9173 40.5019 44.2832 41.6923C44.4499 42.2342 44.2276 42.7577 43.7829 42.8642C39.1371 43.9944 34.5931 45.4025 30.0909 47.0144C29.447 47.2599 28.7476 46.9403 28.5762 46.3196C28.2149 44.9949 28.0343 44.3325 27.6776 43.0124C27.5248 42.4566 27.849 41.8544 28.4187 41.646Z" fill="white"/>
</g>
<rect x="11.7823" y="14.7003" width="41.0613" height="41.0613" rx="10.6161" stroke="white" stroke-opacity="0.08" stroke-width="0.8"/>
<g clip-path="url(#clip1_1099_2695)">
<path d="M65.2845 30.7236V19.0809H69.9319C72.417 19.0809 73.9338 20.4606 73.9338 22.7117V22.7278C73.9338 24.2931 73.0947 25.5598 71.7392 26.052L74.2808 30.7236H71.9087L69.6172 26.3667H67.3661V30.7236H65.2845ZM67.3661 24.7207H69.714C71.0292 24.7207 71.8038 23.9945 71.8038 22.7439V22.7278C71.8038 21.5095 70.9808 20.7672 69.6737 20.7672H67.3661V24.7207ZM79.1219 30.8931C76.5561 30.8931 75.0069 29.1906 75.0069 26.4716V26.4635C75.0069 23.7686 76.5803 21.9936 79.025 21.9936C81.4698 21.9936 82.9866 23.7121 82.9866 26.2941V26.9395H76.9999C77.0321 28.4403 77.8551 29.3278 79.1622 29.3278C80.1627 29.3278 80.8162 28.7953 81.0099 28.2224L81.026 28.1659H82.906L82.8818 28.2547C82.6155 29.5698 81.3568 30.8931 79.1219 30.8931ZM79.0492 23.5669C77.9842 23.5669 77.1854 24.285 77.0241 25.6002H81.0341C80.8888 24.2447 80.1143 23.5669 79.0492 23.5669ZM88.0617 30.8931C85.5201 30.8931 83.9307 29.1826 83.9307 26.4393V26.4312C83.9307 23.7041 85.5443 21.9936 88.0375 21.9936C90.2886 21.9936 91.6925 23.4217 91.8135 25.1322L91.8216 25.1967H89.9255L89.9094 25.1241C89.7399 24.2931 89.1267 23.6234 88.0617 23.6234C86.795 23.6234 85.98 24.6965 85.98 26.4474V26.4554C85.98 28.2385 86.803 29.2713 88.0698 29.2713C89.0864 29.2713 89.7319 28.6662 89.9174 27.7706L89.9336 27.698H91.8297L91.8216 27.7544C91.6683 29.5376 90.224 30.8931 88.0617 30.8931ZM95.5573 30.8689C93.8468 30.8689 92.693 29.8119 92.693 28.287V28.2708C92.693 26.754 93.871 25.8422 95.9446 25.7131L98.1795 25.576V24.987C98.1795 24.1236 97.6147 23.5992 96.5981 23.5992C95.646 23.5992 95.0651 24.043 94.936 24.6723L94.9199 24.7449H93.0561L93.0641 24.6481C93.1852 23.1312 94.5003 21.9936 96.6707 21.9936C98.8089 21.9936 100.189 23.1232 100.189 24.8417V30.7236H98.1795V29.4085H98.1311C97.639 30.3041 96.6869 30.8689 95.5573 30.8689ZM94.694 28.2063C94.694 28.9082 95.2749 29.3359 96.1544 29.3359C97.3081 29.3359 98.1795 28.5694 98.1795 27.5527V26.9073L96.227 27.0283C95.2346 27.0928 94.694 27.5205 94.694 28.1982V28.2063ZM101.81 30.7236V22.1711H103.819V23.6476H103.86C104.126 22.6148 104.836 21.9936 105.82 21.9936C106.07 21.9936 106.304 22.0339 106.458 22.0743V23.8897C106.288 23.8251 105.982 23.7767 105.643 23.7767C104.505 23.7767 103.819 24.4948 103.819 25.7615V30.7236H101.81ZM111.025 33.717C108.757 33.717 107.329 32.6843 107.087 31.3449L107.071 31.2723H109.048L109.072 31.3368C109.29 31.829 109.976 32.2002 111.025 32.2002C112.332 32.2002 113.05 31.5063 113.05 30.417V29.1826H113.009C112.533 30.0943 111.565 30.6752 110.339 30.6752C108.192 30.6752 106.813 29.0293 106.813 26.3667V26.3586C106.813 23.6557 108.209 21.9936 110.371 21.9936C111.581 21.9936 112.517 22.639 113.001 23.6234H113.05V22.1711H115.059V30.4816C115.059 32.418 113.502 33.717 111.025 33.717ZM110.968 29.1261C112.219 29.1261 113.058 28.0691 113.058 26.407V26.3989C113.058 24.7449 112.211 23.6879 110.968 23.6879C109.677 23.6879 108.862 24.7288 108.862 26.3909V26.3989C108.862 28.0852 109.677 29.1261 110.968 29.1261ZM119.23 30.8689C117.52 30.8689 116.366 29.8119 116.366 28.287V28.2708C116.366 26.754 117.544 25.8422 119.617 25.7131L121.852 25.576V24.987C121.852 24.1236 121.288 23.5992 120.271 23.5992C119.319 23.5992 118.738 24.043 118.609 24.6723L118.593 24.7449H116.729L116.737 24.6481C116.858 23.1312 118.173 21.9936 120.344 21.9936C122.482 21.9936 123.861 23.1232 123.861 24.8417V30.7236H121.852V29.4085H121.804C121.312 30.3041 120.36 30.8689 119.23 30.8689ZM118.367 28.2063C118.367 28.9082 118.948 29.3359 119.827 29.3359C120.981 29.3359 121.852 28.5694 121.852 27.5527V26.9073L119.9 27.0283C118.907 27.0928 118.367 27.5205 118.367 28.1982V28.2063ZM128.993 30.7236V19.0809H133.479C135.835 19.0809 137.441 20.6381 137.441 22.9698V22.986C137.441 25.3097 135.835 26.875 133.479 26.875H131.075V30.7236H128.993ZM132.963 20.7833H131.075V25.1967H132.963C134.455 25.1967 135.327 24.3899 135.327 22.9941V22.9779C135.327 21.5821 134.455 20.7833 132.963 20.7833ZM143.056 30.9253C140.386 30.9253 138.627 29.6667 138.49 27.5769L138.481 27.4559H140.474L140.491 27.5527C140.644 28.5532 141.668 29.1745 143.129 29.1745C144.597 29.1745 145.517 28.5209 145.517 27.5205V27.5124C145.517 26.641 144.912 26.173 143.411 25.8584L142.161 25.6002C139.869 25.1241 138.74 24.0591 138.74 22.3244V22.3163C138.748 20.2669 140.547 18.8791 143.056 18.8791C145.598 18.8791 147.26 20.2185 147.381 22.2114L147.389 22.3486H145.396L145.38 22.2518C145.243 21.2351 144.347 20.63 143.04 20.63C141.677 20.6381 140.829 21.2755 140.829 22.2033V22.2114C140.829 23.0344 141.467 23.5185 142.871 23.809L144.129 24.0672C146.55 24.5674 147.607 25.5518 147.607 27.3672V27.3752C147.607 29.5456 145.896 30.9253 143.056 30.9253ZM149.164 30.7236V19.0809H156.7V20.8317H151.246V23.9703H156.401V25.6566H151.246V28.9728H156.7V30.7236H149.164Z" fill="white"/>
<path d="M248.316 24.7236V14.947H249.535V19.1747H254.901V14.947H256.121V24.7236H254.901V20.2723H249.535V24.7236H248.316ZM259.605 24.8591C258.203 24.8591 257.261 24.0122 257.261 22.7317V22.7182C257.261 21.519 258.196 20.7669 259.816 20.6721L261.835 20.5569V19.9674C261.835 19.107 261.272 18.5853 260.29 18.5853C259.382 18.5853 258.813 19.0189 258.677 19.649L258.664 19.71H257.525L257.532 19.6355C257.634 18.4769 258.643 17.5419 260.303 17.5419C261.97 17.5419 263.013 18.443 263.013 19.8523V24.7236H261.835V23.5786H261.807C261.394 24.351 260.547 24.8591 259.605 24.8591ZM258.467 22.7317C258.467 23.4092 259.023 23.8361 259.87 23.8361C260.981 23.8361 261.835 23.0705 261.835 22.0474V21.4715L259.951 21.5867C259.009 21.6409 258.467 22.061 258.467 22.7182V22.7317ZM267.345 24.8591C265.346 24.8591 264.079 23.4363 264.079 21.1937V21.187C264.079 18.9647 265.373 17.5419 267.331 17.5419C269.086 17.5419 270.123 18.7072 270.272 19.9132L270.279 19.9674H269.127L269.113 19.9132C268.937 19.2086 268.368 18.5853 267.331 18.5853C266.105 18.5853 265.285 19.6016 265.285 21.2005V21.2073C265.285 22.8469 266.125 23.8158 267.345 23.8158C268.307 23.8158 268.924 23.2737 269.12 22.4878L269.134 22.4336H270.292L270.285 22.481C270.096 23.8225 268.937 24.8591 267.345 24.8591ZM274.19 24.8591C272.164 24.8591 270.945 23.4431 270.945 21.2276V21.2208C270.945 19.0392 272.191 17.5419 274.116 17.5419C276.04 17.5419 277.212 18.9715 277.212 21.0853V21.519H272.137C272.164 22.9689 272.964 23.8158 274.217 23.8158C275.111 23.8158 275.742 23.3686 275.945 22.7656L275.965 22.7046H277.124L277.11 22.7724C276.88 23.9377 275.728 24.8591 274.19 24.8591ZM274.109 18.5853C273.086 18.5853 272.286 19.2831 272.157 20.5975H276.013C275.897 19.2289 275.139 18.5853 274.109 18.5853ZM284.466 24.8862C282.596 24.8862 281.261 23.7209 281.119 22.1287L281.112 22.0542H282.311L282.318 22.1084C282.44 23.0773 283.307 23.8158 284.479 23.8158C285.807 23.8158 286.728 22.8943 286.728 21.5799V21.5664C286.722 20.2791 285.793 19.3577 284.499 19.3577C283.835 19.3577 283.266 19.5541 282.833 19.9471C282.657 20.1097 282.501 20.2994 282.372 20.523H281.295L281.796 14.947H287.392V16.031H282.799L282.467 19.317H282.494C282.955 18.6598 283.768 18.3075 284.716 18.3075C286.593 18.3075 287.948 19.6693 287.948 21.5461V21.5596C287.941 23.5176 286.498 24.8862 284.466 24.8862ZM289.109 24.7236V17.6774H290.288V18.7072H290.315C290.633 18.0094 291.338 17.5419 292.246 17.5419C293.208 17.5419 293.919 18.0365 294.224 18.897H294.251C294.644 18.0501 295.471 17.5419 296.46 17.5419C297.856 17.5419 298.757 18.4566 298.757 19.859V24.7236H297.578V20.13C297.578 19.1612 297.042 18.5853 296.114 18.5853C295.179 18.5853 294.522 19.2831 294.522 20.2452V24.7236H293.343V20.0013C293.343 19.1476 292.774 18.5853 291.9 18.5853C290.965 18.5853 290.288 19.3238 290.288 20.3062V24.7236H289.109Z" fill="#D8D8D8" fill-opacity="0.6"/>
<path d="M65.2387 52.7388V42.6484H66.4974V47.0118H72.0356V42.6484H73.2943V52.7388H72.0356V48.1446H66.4974V52.7388H65.2387ZM76.8935 52.8786C75.446 52.8786 74.474 52.0045 74.474 50.6829V50.6689C74.474 49.4312 75.439 48.6551 77.1103 48.5572L79.1941 48.4383V47.8299C79.1941 46.9419 78.6137 46.4034 77.5997 46.4034C76.6627 46.4034 76.0753 46.851 75.9355 47.5013L75.9215 47.5642H74.7467L74.7537 47.4873C74.8586 46.2915 75.9005 45.3266 77.6137 45.3266C79.3339 45.3266 80.4108 46.2566 80.4108 47.711V52.7388H79.1941V51.557H79.1661C78.7395 52.3542 77.8655 52.8786 76.8935 52.8786ZM75.7187 50.6829C75.7187 51.3822 76.2921 51.8227 77.1662 51.8227C78.313 51.8227 79.1941 51.0326 79.1941 49.9767V49.3823L77.2501 49.5012C76.2781 49.5571 75.7187 49.9907 75.7187 50.6689V50.6829ZM81.6465 52.7388V51.8717L85.6673 46.4943V46.4733H81.6535V45.4664H87.0518V46.3545L83.059 51.7108V51.7318H87.0728V52.7388H81.6465ZM91.2644 52.7388V45.4664H92.4811V46.6971H92.509C92.7538 45.858 93.3831 45.3266 94.2013 45.3266C94.411 45.3266 94.5929 45.3615 94.6908 45.3755V46.5573C94.5929 46.5223 94.3341 46.4873 94.0404 46.4873C93.0964 46.4873 92.4811 47.1446 92.4811 48.2495V52.7388H91.2644ZM98.241 52.8786C96.1502 52.8786 94.8915 51.4172 94.8915 49.1306V49.1236C94.8915 46.8719 96.1782 45.3266 98.1641 45.3266C100.15 45.3266 101.36 46.802 101.36 48.9837V49.4312H96.1222C96.1502 50.9277 96.9753 51.8018 98.269 51.8018C99.192 51.8018 99.8423 51.3402 100.052 50.7179L100.073 50.655H101.269L101.255 50.7249C101.017 51.9276 99.8283 52.8786 98.241 52.8786ZM98.1571 46.4034C97.1012 46.4034 96.2761 47.1237 96.1432 48.4802H100.122C100.003 47.0677 99.22 46.4034 98.1571 46.4034ZM105.518 52.8786C103.456 52.8786 102.148 51.4102 102.148 49.0956V49.0886C102.148 46.795 103.483 45.3266 105.504 45.3266C107.315 45.3266 108.385 46.5293 108.539 47.774L108.546 47.8299H107.357L107.343 47.774C107.162 47.0467 106.574 46.4034 105.504 46.4034C104.239 46.4034 103.393 47.4523 103.393 49.1026V49.1096C103.393 50.8018 104.26 51.8018 105.518 51.8018C106.511 51.8018 107.148 51.2423 107.35 50.4312L107.364 50.3753H108.56L108.553 50.4242C108.357 51.8087 107.162 52.8786 105.518 52.8786ZM110.278 44.2357C109.859 44.2357 109.516 43.8931 109.516 43.4735C109.516 43.0469 109.859 42.7113 110.278 42.7113C110.705 42.7113 111.041 43.0469 111.041 43.4735C111.041 43.8931 110.705 44.2357 110.278 44.2357ZM109.67 52.7388V45.4664H110.887V52.7388H109.67ZM116.073 52.8786C115.031 52.8786 114.22 52.3542 113.766 51.5081H113.738V52.7388H112.521V42.6484H113.738V46.6831H113.766C114.22 45.844 115.066 45.3266 116.094 45.3266C117.919 45.3266 119.164 46.802 119.164 49.0956V49.1026C119.164 51.3962 117.933 52.8786 116.073 52.8786ZM115.835 51.8018C117.122 51.8018 117.919 50.7738 117.919 49.1026V49.0956C117.919 47.4383 117.122 46.4034 115.835 46.4034C114.612 46.4034 113.731 47.4733 113.731 49.0956V49.1026C113.731 50.7319 114.605 51.8018 115.835 51.8018ZM120.987 44.2357C120.568 44.2357 120.225 43.8931 120.225 43.4735C120.225 43.0469 120.568 42.7113 120.987 42.7113C121.414 42.7113 121.749 43.0469 121.749 43.4735C121.749 43.8931 121.414 44.2357 120.987 44.2357ZM120.379 52.7388V45.4664H121.595V52.7388H120.379ZM125.901 52.8786C124.041 52.8786 122.81 51.3962 122.81 49.1026V49.0956C122.81 46.802 124.055 45.3266 125.88 45.3266C126.908 45.3266 127.754 45.844 128.208 46.6831H128.236V42.6484H129.453V52.7388H128.236V51.5081H128.208C127.754 52.3542 126.943 52.8786 125.901 52.8786ZM126.139 51.8018C127.369 51.8018 128.243 50.7319 128.243 49.1026V49.0956C128.243 47.4733 127.362 46.4034 126.139 46.4034C124.852 46.4034 124.055 47.4383 124.055 49.0956V49.1026C124.055 50.7738 124.852 51.8018 126.139 51.8018ZM134.024 52.8786C132.003 52.8786 130.654 51.4172 130.654 49.1026V49.0886C130.654 46.774 132.01 45.3266 134.017 45.3266C136.024 45.3266 137.388 46.767 137.388 49.0886V49.1026C137.388 51.4241 136.031 52.8786 134.024 52.8786ZM134.031 51.8018C135.311 51.8018 136.143 50.8088 136.143 49.1026V49.0886C136.143 47.3824 135.304 46.4034 134.017 46.4034C132.752 46.4034 131.899 47.3894 131.899 49.0886V49.1026C131.899 50.8158 132.745 51.8018 134.031 51.8018ZM143.866 52.8786C142.272 52.8786 141.349 51.8437 141.349 50.1864V45.4664H142.565V49.9697C142.565 51.1514 143.118 51.8018 144.237 51.8018C145.383 51.8018 146.132 50.9836 146.132 49.7459V45.4664H147.348V52.7388H146.132V51.7039H146.104C145.712 52.3821 144.971 52.8786 143.866 52.8786ZM148.85 52.7388V45.4664H150.066V46.5013H150.094C150.486 45.823 151.227 45.3266 152.332 45.3266C153.926 45.3266 154.849 46.3615 154.849 48.0187V52.7388H153.633V48.2355C153.633 47.0537 153.08 46.4034 151.961 46.4034C150.815 46.4034 150.066 47.2216 150.066 48.4593V52.7388H148.85ZM158.442 52.8786C156.994 52.8786 156.022 52.0045 156.022 50.6829V50.6689C156.022 49.4312 156.987 48.6551 158.658 48.5572L160.742 48.4383V47.8299C160.742 46.9419 160.162 46.4034 159.148 46.4034C158.211 46.4034 157.624 46.851 157.484 47.5013L157.47 47.5642H156.295L156.302 47.4873C156.407 46.2915 157.449 45.3266 159.162 45.3266C160.882 45.3266 161.959 46.2566 161.959 47.711V52.7388H160.742V51.557H160.714C160.288 52.3542 159.414 52.8786 158.442 52.8786ZM157.267 50.6829C157.267 51.3822 157.84 51.8227 158.714 51.8227C159.861 51.8227 160.742 51.0326 160.742 49.9767V49.3823L158.798 49.5012C157.826 49.5571 157.267 49.9907 157.267 50.6689V50.6829ZM166.269 52.7388V45.4664H167.486V46.5013H167.514C167.906 45.823 168.647 45.3266 169.752 45.3266C171.346 45.3266 172.269 46.3615 172.269 48.0187V52.7388H171.052V48.2355C171.052 47.0537 170.5 46.4034 169.381 46.4034C168.234 46.4034 167.486 47.2216 167.486 48.4593V52.7388H166.269ZM176.218 52.8786C174.624 52.8786 173.701 51.8437 173.701 50.1864V45.4664H174.917V49.9697C174.917 51.1514 175.47 51.8018 176.589 51.8018C177.735 51.8018 178.484 50.9836 178.484 49.7459V45.4664H179.7V52.7388H178.484V51.7039H178.456C178.064 52.3821 177.323 52.8786 176.218 52.8786ZM184.195 52.8786C182.104 52.8786 180.845 51.4172 180.845 49.1306V49.1236C180.845 46.8719 182.132 45.3266 184.118 45.3266C186.104 45.3266 187.313 46.802 187.313 48.9837V49.4312H182.076C182.104 50.9277 182.929 51.8018 184.223 51.8018C185.146 51.8018 185.796 51.3402 186.006 50.7179L186.027 50.655H187.222L187.208 50.7249C186.971 51.9276 185.782 52.8786 184.195 52.8786ZM184.111 46.4034C183.055 46.4034 182.23 47.1237 182.097 48.4802H186.076C185.957 47.0677 185.174 46.4034 184.111 46.4034ZM190.227 52.7388L187.549 45.4664H188.829L190.836 51.4451H190.864L192.877 45.4664H194.143L191.472 52.7388H190.227ZM197.001 52.8786C195.554 52.8786 194.582 52.0045 194.582 50.6829V50.6689C194.582 49.4312 195.547 48.6551 197.218 48.5572L199.302 48.4383V47.8299C199.302 46.9419 198.721 46.4034 197.707 46.4034C196.77 46.4034 196.183 46.851 196.043 47.5013L196.029 47.5642H194.854L194.861 47.4873C194.966 46.2915 196.008 45.3266 197.721 45.3266C199.442 45.3266 200.518 46.2566 200.518 47.711V52.7388H199.302V51.557H199.274C198.847 52.3542 197.973 52.8786 197.001 52.8786ZM195.826 50.6829C195.826 51.3822 196.4 51.8227 197.274 51.8227C198.421 51.8227 199.302 51.0326 199.302 49.9767V49.3823L197.358 49.5012C196.386 49.5571 195.826 49.9907 195.826 50.6689V50.6829ZM204.829 52.7388V45.4664H206.046V46.6971H206.074C206.318 45.858 206.948 45.3266 207.766 45.3266C207.976 45.3266 208.157 45.3615 208.255 45.3755V46.5573C208.157 46.5223 207.899 46.4873 207.605 46.4873C206.661 46.4873 206.046 47.1446 206.046 48.2495V52.7388H204.829ZM211.805 52.8786C209.715 52.8786 208.456 51.4172 208.456 49.1306V49.1236C208.456 46.8719 209.743 45.3266 211.729 45.3266C213.714 45.3266 214.924 46.802 214.924 48.9837V49.4312H209.687C209.715 50.9277 210.54 51.8018 211.833 51.8018C212.756 51.8018 213.407 51.3402 213.617 50.7179L213.638 50.655H214.833L214.819 50.7249C214.582 51.9276 213.393 52.8786 211.805 52.8786ZM211.722 46.4034C210.666 46.4034 209.841 47.1237 209.708 48.4802H213.686C213.568 47.0677 212.784 46.4034 211.722 46.4034ZM219.083 52.8786C217.02 52.8786 215.712 51.4102 215.712 49.0956V49.0886C215.712 46.795 217.048 45.3266 219.069 45.3266C220.88 45.3266 221.95 46.5293 222.104 47.774L222.111 47.8299H220.922L220.908 47.774C220.726 47.0467 220.139 46.4034 219.069 46.4034C217.803 46.4034 216.957 47.4523 216.957 49.1026V49.1096C216.957 50.8018 217.824 51.8018 219.083 51.8018C220.076 51.8018 220.712 51.2423 220.915 50.4312L220.929 50.3753H222.125L222.118 50.4242C221.922 51.8087 220.726 52.8786 219.083 52.8786ZM225.283 52.8786C223.836 52.8786 222.864 52.0045 222.864 50.6829V50.6689C222.864 49.4312 223.829 48.6551 225.5 48.5572L227.584 48.4383V47.8299C227.584 46.9419 227.003 46.4034 225.99 46.4034C225.053 46.4034 224.465 46.851 224.325 47.5013L224.311 47.5642H223.137L223.144 47.4873C223.248 46.2915 224.29 45.3266 226.004 45.3266C227.724 45.3266 228.801 46.2566 228.801 47.711V52.7388H227.584V51.557H227.556C227.129 52.3542 226.255 52.8786 225.283 52.8786ZM224.109 50.6829C224.109 51.3822 224.682 51.8227 225.556 51.8227C226.703 51.8227 227.584 51.0326 227.584 49.9767V49.3823L225.64 49.5012C224.668 49.5571 224.109 49.9907 224.109 50.6689V50.6829ZM230.26 52.7388V45.4664H231.477V46.6971H231.505C231.749 45.858 232.379 45.3266 233.197 45.3266C233.407 45.3266 233.589 45.3615 233.686 45.3755V46.5573C233.589 46.5223 233.33 46.4873 233.036 46.4873C232.092 46.4873 231.477 47.1446 231.477 48.2495V52.7388H230.26ZM237.321 55.3261C235.524 55.3261 234.391 54.4799 234.153 53.4031L234.139 53.3401H235.363L235.391 53.4031C235.621 53.9275 236.314 54.2492 237.307 54.2492C238.586 54.2492 239.314 53.5429 239.314 52.4171V51.4871H239.286C238.852 52.2912 238.013 52.8087 236.971 52.8087C235.139 52.8087 233.887 51.3332 233.887 49.0606V49.0536C233.887 46.795 235.153 45.3266 236.999 45.3266C238.027 45.3266 238.838 45.886 239.286 46.6971H239.314V45.4664H240.53V52.536C240.53 54.2212 239.293 55.3261 237.321 55.3261ZM237.237 51.7318C238.474 51.7318 239.314 50.6759 239.314 49.0606V49.0536C239.314 47.4523 238.467 46.4034 237.237 46.4034C235.943 46.4034 235.132 47.4383 235.132 49.0536V49.0606C235.132 50.7109 235.943 51.7318 237.237 51.7318ZM244.143 52.8786C242.696 52.8786 241.724 52.0045 241.724 50.6829V50.6689C241.724 49.4312 242.689 48.6551 244.36 48.5572L246.444 48.4383V47.8299C246.444 46.9419 245.864 46.4034 244.85 46.4034C243.913 46.4034 243.325 46.851 243.185 47.5013L243.171 47.5642H241.997L242.004 47.4873C242.109 46.2915 243.15 45.3266 244.864 45.3266C246.584 45.3266 247.661 46.2566 247.661 47.711V52.7388H246.444V51.557H246.416C245.99 52.3542 245.115 52.8786 244.143 52.8786ZM242.969 50.6829C242.969 51.3822 243.542 51.8227 244.416 51.8227C245.563 51.8227 246.444 51.0326 246.444 49.9767V49.3823L244.5 49.5012C243.528 49.5571 242.969 49.9907 242.969 50.6689V50.6829ZM249.868 52.8367C249.421 52.8367 249.071 52.487 249.071 52.0395C249.071 51.592 249.421 51.2423 249.868 51.2423C250.316 51.2423 250.666 51.592 250.666 52.0395C250.666 52.487 250.316 52.8367 249.868 52.8367ZM252.859 52.8367C252.412 52.8367 252.062 52.487 252.062 52.0395C252.062 51.592 252.412 51.2423 252.859 51.2423C253.307 51.2423 253.656 51.592 253.656 52.0395C253.656 52.487 253.307 52.8367 252.859 52.8367ZM255.85 52.8367C255.403 52.8367 255.053 52.487 255.053 52.0395C255.053 51.592 255.403 51.2423 255.85 51.2423C256.298 51.2423 256.647 51.592 256.647 52.0395C256.647 52.487 256.298 52.8367 255.85 52.8367Z" fill="#8C8598"/>
</g>
<defs>
<linearGradient id="paint0_linear_1099_2695" x1="0.541992" y1="35.2311" x2="314.912" y2="35.2311" gradientUnits="userSpaceOnUse">
<stop stop-color="#DBCEED"/>
<stop offset="1" stop-color="#70678C"/>
</linearGradient>
<clipPath id="clip0_1099_2695">
<rect x="11.3823" y="14.3003" width="41.8613" height="41.8613" rx="11.0161" fill="white"/>
</clipPath>
<clipPath id="clip1_1099_2695">
<rect width="235.235" height="43.015" fill="white" transform="translate(64.2598 13.7236)"/>
</clipPath>
</defs>
</svg>
